<svg id="Layer_1" data-name="Layer 1" xmlns="http://www.w3.org/2000/svg" viewBox="0 0 512 512"><defs><style>.cls-1{fill:#5ea7dc;}.cls-2{fill:#3779be;}.cls-3{fill:#dceef9;}.cls-4{fill:#fff;}</style></defs><circle class="cls-1" cx="365.81" cy="256.01" r="84.68"/><path class="cls-2" d="M450.49,256a84.65,84.65,0,0,1-164.6,27.91A84.69,84.69,0,0,0,420.12,191,84.49,84.49,0,0,1,450.49,256Z"/><circle class="cls-1" cx="146.17" cy="256.01" r="84.68"/><path class="cls-2" d="M230.86,256A84.66,84.66,0,0,1,66.25,283.91,84.69,84.69,0,0,0,200.48,191a84.47,84.47,0,0,1,30.38,65Z"/><path class="cls-3" d="M475.55,235.75a6.68,6.68,0,0,0-8.33-4.46l-12.52,3.79a91.33,91.33,0,0,0-167.47-25.64,60.68,60.68,0,0,0-62.48,0A91.33,91.33,0,0,0,57.28,235.08v0l-12.5-3.81A6.66,6.66,0,0,0,40.89,244l14.25,4.34c-.19,2.52-.33,5-.33,7.62a91.37,91.37,0,0,0,182.73,0,90.29,90.29,0,0,0-6.8-34.57,47.15,47.15,0,0,1,50.5,0,90.29,90.29,0,0,0-6.8,34.57,91.36,91.36,0,0,0,182.72,0c0-2.6-.13-5.13-.33-7.66L471.09,244a6.64,6.64,0,0,0,4.46-8.26ZM146.14,334a78.11,78.11,0,0,1-78-78c0-42.4,34.5-78,78-78a78,78,0,1,1,0,156Zm219.7,0a78,78,0,1,1,0-156c43.56,0,78,35.68,78,78a78.12,78.12,0,0,1-78,78Z"/><path class="cls-4" d="M322.13,258.74a5,5,0,0,1-4.28-2.41A59.77,59.77,0,0,1,309.24,226a5,5,0,0,1,4.95-5h.05a5,5,0,0,1,5,4.95,49.83,49.83,0,0,0,7.17,25.28,5,5,0,0,1-4.27,7.58Z"/><path class="cls-4" d="M169.08,258.74a4.91,4.91,0,0,1-2.58-.72,5,5,0,0,1-1.7-6.86A49.66,49.66,0,0,0,172,225.88a5,5,0,0,1,5-4.95h0a5,5,0,0,1,5,5,59.69,59.69,0,0,1-8.6,30.37,5,5,0,0,1-4.28,2.41Z"/></svg>