<svg id="Layer_1" data-name="Layer 1" xmlns="http://www.w3.org/2000/svg" viewBox="0 0 512 512"><defs><style>.cls-1{fill:#e5a988;}.cls-2{fill:#d88459;}.cls-3{fill:#fca2cd;}.cls-4{fill:#ff79b3;}.cls-5{fill:#fc5ca5;}</style></defs><path class="cls-1" d="M431.63,60.74l19.63,19.63L132.48,399.15a367.36,367.36,0,0,1-65.29,51.92l-5.59,3.49a3,3,0,0,1-4.16-4.16l3.49-5.59a367.36,367.36,0,0,1,51.92-65.29Z"/><circle class="cls-2" cx="427.92" cy="84.08" r="27.13"/><path class="cls-3" d="M385.26,241.05A164.1,164.1,0,0,0,263.69,81.54a39.71,39.71,0,0,0-16.24-.87c-2.08.32-4.95.82-7,1.22l-.68,2.43a103.05,103.05,0,0,0-11.91,2.93l-4.69-.91a165.68,165.68,0,0,0-38.29,18l.3,2.49a111.28,111.28,0,0,0-9.19,6.47l-3.86.15A165.52,165.52,0,0,0,145,140.66l1.78,1.39c-2.51,3.23-4.38,5.67-6.62,9.07l-3.65,1.43a164.91,164.91,0,0,0-16.32,33l2.21.52c-1.44,4-2.35,6.6-3.46,10.73l-3.06,2.7A162.13,162.13,0,0,0,110.79,239a164.86,164.86,0,0,0,3.19,33.1l2.21-.45a106.49,106.49,0,0,0,3,12.35l-.86,4.94a162.47,162.47,0,0,0,17.5,37.44l2.05-1c2.17,3.35,4,6.17,6.43,9.34l.34,4.16A165,165,0,0,0,171,365.66l2.18-1.14a98.54,98.54,0,0,0,8.28,6.15l1,3.44a163.24,163.24,0,0,0,46.57,21.32l2.53-1.65c5.28,1.38,10.31,4.72,15.82,5.57a40.22,40.22,0,0,0,15.38-.65l1.05-.27a164.09,164.09,0,0,0,121.4-157.38Z"/><path class="cls-4" d="M273,78.81a162.76,162.76,0,0,0-27.21,2.12,161.23,161.23,0,0,1,0,318.16,162.38,162.38,0,0,0,42.5,1.3l.63-2.33a112.17,112.17,0,0,0,11.26-1.6l3.53,1.63a156.83,156.83,0,0,0,36.16-11.83l-.49-2.27c3.77-1.78,6.62-3.19,10.22-5.25l3.09.84a159.69,159.69,0,0,0,19.24-13.09l-.82-2.23c2.92-2.34,5-4.06,7.76-6.6l2.87.41c3.81-3.57,7.55-7.33,11-11.27l.31-3.8c2.59-3,4.48-5.45,6.85-8.63l1.81,1.34a160.83,160.83,0,0,0,18.63-32.53l-.95-3.66c1.6-3.86,2.73-7.08,4-11.08l2.23.41A161.14,161.14,0,0,0,433,248.12l-2.09-4.2s-.09-10.28-.24-13.31l2.27.13a155.35,155.35,0,0,0-2.87-22.54l-2.57-1.31c-.74-3.57-1.52-6.57-2.48-10l2-1.21a158.41,158.41,0,0,0-6.12-17.52l-3-1.28c-1.76-4.21-3.12-6.87-5.22-10.89l2.07-.92a160.22,160.22,0,0,0-21.6-31.36l-3.87-.9c-3.12-3.51-5.34-5.65-8.75-8.89l1.79-1.41a161.76,161.76,0,0,0-34.06-24.52l-4.7.09c-4-2-7.27-3.49-11.41-5.2l.13-2.39A160.81,160.81,0,0,0,273,78.81Z"/><path class="cls-4" d="M319.37,108.58q-5.47-4.1-11.27-7.73A207.64,207.64,0,0,0,284,115.24a204.49,204.49,0,0,0-43.58-33.35,162.81,162.81,0,0,0-17.29,4.45,192.64,192.64,0,0,1,51.09,36.12,206.62,206.62,0,0,0-22.74,20.74,161.14,161.14,0,0,0-66.63-38.84q-6.6,4.24-12.75,9.11a149.11,149.11,0,0,1,71.39,38.71c-1.61,1.93-3.2,3.89-4.74,5.87a207.25,207.25,0,0,0-13.41,19.47A119.06,119.06,0,0,0,145,140.66q-4.5,5.75-8.49,11.89c1,0,2.07,0,3.1,0a107.09,107.09,0,0,1,77.07,33.34A203.41,203.41,0,0,0,186.9,200.1a76.51,76.51,0,0,0-47.44-16.86,77.65,77.65,0,0,0-19.23,2.32q-2.46,6.84-4.31,13.95a64.24,64.24,0,0,1,23-4.25h.42A64.47,64.47,0,0,1,176,206.92a205.94,205.94,0,0,0-62,65.17,162.4,162.4,0,0,0,4.37,16.84,193.93,193.93,0,0,1,70.84-76.21,5.6,5.6,0,0,0,.61-.38,191.49,191.49,0,0,1,23.7-12.22A202,202,0,0,0,200,242.32a161.62,161.62,0,0,0-64.12,84.05q4.11,6.48,8.82,12.52a149.39,149.39,0,0,1,52.62-79.83,209.7,209.7,0,0,0-1.44,23.2c0,6.82.25,13.59.86,20.29A119.67,119.67,0,0,0,171,365.66q5.56,4.48,11.51,8.45A107.74,107.74,0,0,1,199,320a202,202,0,0,0,30.05,75.48,159.52,159.52,0,0,0,17.29,3.76c-74.44-99.16-35.8-240.46,73-290.61Z"/><path class="cls-5" d="M304.29,102.84q5.76,3.55,11.19,7.59A193.91,193.91,0,0,1,348.23,98a159.61,159.61,0,0,0-16-7.5A204.32,204.32,0,0,0,304.29,102.84Z"/><path class="cls-5" d="M246.36,399.18l-.12-.17-.45.08h.06Z"/><path class="cls-4" d="M292.58,387.74C214.75,308,251.3,174.48,352.14,141.17c-2.57-3.39-5.26-6.69-8.08-9.87-103.72,37.82-142.63,175.89-63.21,261.55q6-2.34,11.73-5.11Z"/><path class="cls-5" d="M290,385.05q-5.7,2.76-11.63,5.09c3.11,3.5,6.4,6.93,9.9,10.25h0q3.9-.39,7.74-1l.12,0c1.24-.19,2.48-.38,3.7-.6l.47-.08c1.13-.2,2.25-.41,3.37-.63h0A157.63,157.63,0,0,1,290,385.05Z"/><path class="cls-5" d="M382.29,122.46A162,162,0,0,0,340,132.84c2.79,3.14,5.46,6.4,8,9.75a153.42,153.42,0,0,1,45.09-8.93Q388,127.81,382.29,122.46Z"/><path class="cls-4" d="M362.91,282.91a118.12,118.12,0,0,0-66.51-24.82,106.56,106.56,0,0,1,12.25-29.73A149.75,149.75,0,0,1,384,260.43q.87-7,1.14-14.26a161.74,161.74,0,0,0-68.88-28.85,108.06,108.06,0,0,1,28-25.07,191.8,191.8,0,0,1,37.83,15.68q-1.56-7.87-3.86-15.47a203.77,203.77,0,0,0-19-8,107,107,0,0,1,14.5-4.89c-1.51-3.82-3.17-7.56-4.95-11.23C294.23,188.67,256,278.51,299.92,347.56a119.88,119.88,0,0,0,19.76,23.65q4.86-3.66,9.43-7.66A107.2,107.2,0,0,1,294.19,270a106.87,106.87,0,0,1,31.34,6,91.3,91.3,0,0,0,21.11,69.73q4-4.73,7.63-9.74a79.68,79.68,0,0,1-17.34-50c0-1.72.09-3.44.21-5.15A107.46,107.46,0,0,1,371,307.06c1.82-4,3.48-8.18,5-12.39a119.06,119.06,0,0,0-13-11.76Z"/><path class="cls-5" d="M372.5,291.21q-2.12,6.29-4.71,12.33a108,108,0,0,1,24.95,43.26h0c3-3.37,6-7.12,9-11.09a120.59,120.59,0,0,0-29.21-44.5Z"/><path class="cls-5" d="M380.76,243.1q-.13,7.16-.88,14.13a150.39,150.39,0,0,1,40.46,45.95c2-4.72,3.79-9.52,5.32-14.34A162.51,162.51,0,0,0,380.76,243.1Z"/><path class="cls-5" d="M432.92,230.74A205.23,205.23,0,0,0,405,207.85a78.89,78.89,0,0,1,11.92-.82,81.25,81.25,0,0,1,13.14,1.17c-.78-3.86-1.86-8.38-3.06-12.57a91.79,91.79,0,0,0-36.59,3.15q-8.54-4.82-17.53-8.8,2.44,7.49,4.16,15.27A193.06,193.06,0,0,1,433,248.12a157.8,157.8,0,0,0-.06-17.38Z"/><path class="cls-5" d="M326.23,360.89q-4.51,4-9.34,7.65a119.64,119.64,0,0,0,23,17.72c4.25-2,8.59-4.23,12.82-6.68a107.56,107.56,0,0,1-26.46-18.69Z"/><path class="cls-5" d="M369.58,180.81a106.9,106.9,0,0,1,31.1-4.61h.69a107.86,107.86,0,0,1,19.51,1.9q-2.79-6.71-6.16-13.08h0a119.82,119.82,0,0,0-13.27-.83h-.77a120.3,120.3,0,0,0-36,5.42q2.66,5.49,4.93,11.2Z"/><path class="cls-5" d="M351.65,332.48q-3.63,5.16-7.62,10a91.6,91.6,0,0,0,27.9,24q5.07-4,9.81-8.42A79.36,79.36,0,0,1,351.65,332.48Z"/><path class="cls-4" d="M352.8,423.13H169.72a65.32,65.32,0,0,1-46.5-19.26L91.46,372.11a9.73,9.73,0,1,1,13.82-13.71l14.53,14.15,8.49-8.49-14.58-14.21A21.75,21.75,0,0,0,83,380.61l31.76,31.76a77.27,77.27,0,0,0,55,22.78H352.8a6,6,0,1,0,0-12Z"/></svg>