<svg id="Layer_1" data-name="Layer 1" xmlns="http://www.w3.org/2000/svg" viewBox="0 0 512 512"><defs><style>.cls-1{fill:#afe6ff;}.cls-2{fill:#73c8f0;}.cls-3{fill:#fd4755;}.cls-4{fill:#e33442;}.cls-5{fill:#373c41;}.cls-6{fill:#fd747f;}.cls-7{fill:#55c7a6;}.cls-8{fill:#39ae96;}.cls-9{fill:#fffad7;}</style></defs><ellipse class="cls-1" cx="242.89" cy="147.21" rx="136.95" ry="34.22"/><path class="cls-2" d="M135.93,147.21c0-17.63,53.37-32.15,122-34q-7.38-.19-15-.2C167.26,113,106,128.31,106,147.21s61.31,34.22,136.94,34.22q7.61,0,15-.2c-68.58-1.86-121.95-16.38-121.95-34Z"/><path class="cls-3" d="M379.13,184V158h-13.7V321.37a29.56,29.56,0,0,0,13.7-24.95V224.21a20.28,20.28,0,0,1,20.28-20.29h31.67V184Z"/><path class="cls-3" d="M350.25,326H135a29.59,29.59,0,0,1-29.59-29.59V158H379.84v138.4A29.59,29.59,0,0,1,350.25,326Z"/><path class="cls-4" d="M216.25,315.2a29.58,29.58,0,0,1-29.59-29.58V158H105.4v26h-52v19.91H85.11a20.29,20.29,0,0,1,20.29,20.29v72.21A29.58,29.58,0,0,0,135,326H350.25a29.52,29.52,0,0,0,22.86-10.81Z"/><path class="cls-5" d="M84.66,206.49H56.45a12.53,12.53,0,1,1,0-25.05H84.66Z"/><path class="cls-5" d="M399.86,206.49h28.21a12.53,12.53,0,1,0,0-25.05H399.86Z"/><path class="cls-3" d="M379.84,171H105.4a13,13,0,1,1,0-26H379.84a13,13,0,1,1,0,26Z"/><path class="cls-4" d="M174.62,158a13,13,0,0,1,13-13H105.4a13,13,0,1,0,0,26h82.2A13,13,0,0,1,174.62,158Z"/><path class="cls-6" d="M356.82,162.25H258.91a8.61,8.61,0,1,1,0-17.21h97.91a8.61,8.61,0,1,1,0,17.21Z"/><path class="cls-5" d="M259.1,75.37H226.69a13.13,13.13,0,1,0,0,26.25h1.55V113.2h29.64V101.62h1.22a13.13,13.13,0,0,0,0-26.25Z"/><path class="cls-7" d="M433.16,406.5H285.55a65.9,65.9,0,0,1,0-131.8H433.16Z"/><path class="cls-8" d="M221.63,324.54a65.92,65.92,0,0,0,63.92,82H433.16V374.39H285.55a65.92,65.92,0,0,1-63.92-49.85Z"/><path class="cls-7" d="M398.4,333.17a19.77,19.77,0,0,1-14.67-6.49L316.1,252.4a19.84,19.84,0,0,1,29.34-26.71L413.06,300a19.84,19.84,0,0,1-14.66,33.19Z"/><path class="cls-9" d="M307.51,333.38l11.08-7.78a4.45,4.45,0,0,0,1.69-2.33l4-12.94a4.44,4.44,0,0,1,6.91-2.24L342,316.22a4.49,4.49,0,0,0,2.74.89l13.53-.22a4.44,4.44,0,0,1,4.27,5.88l-4.39,12.8a4.44,4.44,0,0,0,0,2.88l4.39,12.8a4.44,4.44,0,0,1-4.27,5.88l-13.53-.21a4.37,4.37,0,0,0-2.74.89l-10.82,8.13a4.44,4.44,0,0,1-6.91-2.25l-4-12.94a4.45,4.45,0,0,0-1.69-2.33l-11.08-7.77a4.45,4.45,0,0,1,0-7.27Z"/><path class="cls-8" d="M425.89,400.85h-4.72V389.52h4.72Zm0-22.67h-4.72V366.85h4.72Zm0-22.66h-4.72V344.19h4.72Zm0-22.67h-4.72V321.52h4.72Zm0-22.66h-4.72V298.85h4.72Zm0-22.67h-4.72V276.19h4.72Z"/><path class="cls-8" d="M450.27,436.63a17.69,17.69,0,0,1-12.59-5.22c-6.34-6.33-9.78-29.51-10.15-32.14l-.53-3.73,3.73.53c2.62.37,25.8,3.82,32.13,10.15a17.82,17.82,0,0,1-12.59,30.41Zm-16.53-34.35c1.59,9.25,4.65,21.83,7.94,25.12a12.14,12.14,0,0,0,17.18-17.17c-3.3-3.29-15.87-6.36-25.12-8Z"/></svg>