<svg id="Layer_1" data-name="Layer 1" xmlns="http://www.w3.org/2000/svg" viewBox="0 0 512 512"><defs><style>.cls-1{fill:#ca3561;}.cls-2{fill:#f6cd80;}.cls-3{fill:#d83968;}.cls-4{fill:#c9fdfb;}</style></defs><polyline class="cls-1" points="362.68 203.29 390.16 185.76 373.61 159.81 347.07 176.73"/><polyline class="cls-1" points="373.24 266.82 400.94 266.82 400.94 236.04 372.18 236.04"/><polyline class="cls-2" points="159.37 357.76 169.28 459.16 315.46 459.16 325.38 357.76"/><polyline class="cls-2" points="325.38 154.24 315.46 52.84 169.28 52.84 159.37 154.24"/><path d="M286.09,91.66a8,8,0,0,1-1.61-.17,7.42,7.42,0,0,1-1.54-.47,8.51,8.51,0,0,1-1.43-.76,8.19,8.19,0,0,1-1.25-1,8.33,8.33,0,0,1-1-1.26A8.21,8.21,0,0,1,278,85a8.18,8.18,0,0,1,0-3.22,8.4,8.4,0,0,1,.47-1.55,8.51,8.51,0,0,1,.76-1.43,8.43,8.43,0,0,1,2.28-2.28,9.31,9.31,0,0,1,1.43-.76,8.07,8.07,0,0,1,1.54-.47,8.28,8.28,0,0,1,4.78.47,9.69,9.69,0,0,1,1.42.76A8.66,8.66,0,0,1,293,78.81a8.87,8.87,0,0,1,1.23,3,8.72,8.72,0,0,1,0,3.22,8.19,8.19,0,0,1-2.27,4.23,8.19,8.19,0,0,1-1.25,1,8.82,8.82,0,0,1-1.42.76,7.69,7.69,0,0,1-1.55.47A8,8,0,0,1,286.09,91.66Z"/><path d="M198.65,436.86a9,9,0,0,1-1.62-.16,8.53,8.53,0,0,1-1.54-.47,9.2,9.2,0,0,1-1.42-.76,8.33,8.33,0,0,1-1.26-1,8.89,8.89,0,0,1-1-1.25,8.51,8.51,0,0,1-.76-1.43,9.24,9.24,0,0,1-.47-1.55,8.18,8.18,0,0,1,0-3.22,8.86,8.86,0,0,1,.47-1.54,8.14,8.14,0,0,1,.76-1.43,9,9,0,0,1,1-1.26,8.27,8.27,0,0,1,1.26-1,8.42,8.42,0,0,1,1.42-.76,8.57,8.57,0,0,1,1.54-.48,8.12,8.12,0,0,1,4.78.48,9.36,9.36,0,0,1,1.43.76,8.7,8.7,0,0,1,1.25,1,8.33,8.33,0,0,1,1,1.26,8.27,8.27,0,0,1,1.39,4.58,8.26,8.26,0,0,1-8.26,8.26Z"/><circle class="cls-3" cx="242.37" cy="256" r="131.31"/><path class="cls-4" d="M242.37,353.1a97.1,97.1,0,1,1,97.1-97.1A97.21,97.21,0,0,1,242.37,353.1Z"/><path d="M274.48,264.26H242.37a8.26,8.26,0,0,1-8.26-8.26V207.49a8.26,8.26,0,0,1,16.52,0v40.25h23.85a8.26,8.26,0,0,1,0,16.52Z"/><path d="M242.37,150.64A105.36,105.36,0,1,0,347.73,256,105.48,105.48,0,0,0,242.37,150.64Zm8.26,193.82v-5.08a8.26,8.26,0,0,0-16.52,0v5.08a89,89,0,0,1-80.2-80.2H159a8.26,8.26,0,0,0,0-16.52h-5.09a89,89,0,0,1,80.2-80.2v5.08a8.26,8.26,0,0,0,16.52,0v-5.08a89,89,0,0,1,80.2,80.2h-5.08a8.26,8.26,0,0,0,0,16.52h5.08A89,89,0,0,1,250.63,344.46Z"/></svg>