<svg id="Layer_1" data-name="Layer 1" xmlns="http://www.w3.org/2000/svg" viewBox="0 0 512 512"><defs><style>.cls-1{fill:#ca59a6;}.cls-2{fill:#e2a5cf;}.cls-3{fill:#d273b3;}</style></defs><path class="cls-1" d="M340.27,385.42c-46.54-21.26-122-21.26-168.54,0H134V229.08l196.29-113.2,42.24,29.17V385.42Z"/><path class="cls-2" d="M421.66,292.81l-37.08-137.1h0A133.23,133.23,0,0,0,170.18,88.62c-12.38,14.66-27.25,32-32.39,51.08L98.92,283.54c-16.54,61.15,3.17,124,62.7,149.47,8.61,3.68,32.61,5.64,37.58,5.71C178,411.8,164.26,377.31,164.26,329.59V232.87L273.8,187.19c33.78-14.19,49.36-34.39,55.75-67.9.23-1.21.47-2.34.7-3.41,15.26,17.78,25.49,41.05,25.49,64.8V329.59c0,57.73-17.32,88.12-35.34,117.13,34.71,0,69.39-19.63,88.65-40.85,20.32-29.65,24.54-68.95,12.61-113.06Z"/><path class="cls-3" d="M104.51,283.54l38.91-143.83h0a132.89,132.89,0,0,1,26.8-51.08,133.21,133.21,0,0,0-42.79,67.08h0L90.34,292.81c-17.09,63.17-1.06,116.48,48,145.71A113,113,0,0,0,164.82,450l21.3,4.1q6,.6,12.1.6h8.62A2.79,2.79,0,0,0,208.9,450q-5.07-5.43-9.69-11.3c-5-.07-21-2-29.59-5.72C110.09,407.5,88,344.69,104.51,283.54Z"/><path class="cls-3" d="M273.8,179.19l-93.55,39V164.69a134.32,134.32,0,0,1,4-32.7,77.23,77.23,0,0,1,17.22-26.64A6,6,0,0,0,193,96.87c-19.3,19.3-28.69,46.72-28.69,83.81h0v68.18l37.26-15.54c33.58-14,35.06-18.25,35.06-18.25l12.92-1.75,24.3-10.13a91,91,0,0,0,55.75-83.9C325.65,142,307.58,165,273.8,179.19Z"/><path class="cls-3" d="M333.19,438.72c18-29,30.55-51.4,30.55-109.13V180.68c0-37.9-16.55-61.63-38.49-83.61a6.17,6.17,0,0,0-8.56-.32,6,6,0,0,0-.12,8.6c19.36,19.37,31.17,39.43,31.17,75.33V329.59c0,54.67-18.08,92-44.63,120.43a2.79,2.79,0,0,0,2.05,4.69h8.6q6.09,0,12.12-.6L347.2,450a113.55,113.55,0,0,0,27.3-12,111,111,0,0,0,34.55-32.16C388.1,426.08,360.76,438.72,333.19,438.72Z"/><path class="cls-3" d="M134.27,329.59a6,6,0,1,0-12,0c0,32.76,6.42,61.49,19.49,86.77,5.92,10.48,12.93,14.4,22.92,14.4C144,402.66,134.27,369.92,134.27,329.59Z"/><path class="cls-1" d="M164.69,430.76a117.71,117.71,0,0,1-22.92-14.4,167.59,167.59,0,0,0,23,33.64,119.28,119.28,0,0,0,21.3,4.11,52.41,52.41,0,0,1-4.43-3.64,170.64,170.64,0,0,1-17-19.71Z"/><path class="cls-3" d="M389.72,329.59a6,6,0,1,0-12,0c0,44-11.62,79-36.34,108.76,9,0,12.75,0,17.47-3.2,20.73-29.59,30.86-64.39,30.86-105.56Z"/><path class="cls-1" d="M341.39,438.35q-5.16,6.21-11.07,12.12a54.57,54.57,0,0,1-4.44,3.64A120.26,120.26,0,0,0,347.2,450a176,176,0,0,0,11.66-14.83,98.66,98.66,0,0,1-17.47,3.2Z"/><path class="cls-3" d="M286.27,115a6,6,0,1,0-12,0A137.85,137.85,0,0,1,254,187.46s8.24,12.29,17.64-7.36A150.94,150.94,0,0,0,286.27,115Z"/><path class="cls-1" d="M254,187.45c-12.74,20.56-30.83,36.85-52.47,45.87l48-20a139.68,139.68,0,0,0,22.13-33.22Z"/></svg>