<svg id="Layer_1" data-name="Layer 1" xmlns="http://www.w3.org/2000/svg" viewBox="0 0 512 512"><defs><style>.cls-1{fill:#f6cd80;}.cls-2{fill:#f0f6ff;}.cls-3{fill:#dfe9f7;}.cls-4{fill:#f9bf6c;}.cls-5{fill:#d83968;}.cls-6{fill:#fca62f;}.cls-7{fill:#ffcebf;}.cls-8{fill:#ca3561;}</style></defs><path class="cls-1" d="M62.86,187.29H449.14V464H62.86Z"/><path class="cls-2" d="M419.43,285.71H92.57V232.79a6.5,6.5,0,0,1,6.5-6.5H412.93a6.5,6.5,0,0,1,6.5,6.5Z"/><path class="cls-3" d="M241.14,226.29h19.14v59.42H241.14Z"/><path class="cls-1" d="M62.86,38.71H449.14V176.14H62.86Z"/><path class="cls-4" d="M62.86,38.71H92.57V176.14H62.86Z"/><circle class="cls-5" cx="107.43" cy="107.43" r="14.86"/><circle class="cls-5" cx="404.57" cy="107.43" r="14.86"/><path class="cls-6" d="M457.5,48H54.5A6.5,6.5,0,0,1,48,41.5V24.79a6.5,6.5,0,0,1,6.5-6.5h403a6.5,6.5,0,0,1,6.5,6.5V41.5A6.5,6.5,0,0,1,457.5,48Z"/><path class="cls-6" d="M48,24.79V41.5A6.5,6.5,0,0,0,54.5,48H92.57V18.29H54.5A6.5,6.5,0,0,0,48,24.79Z"/><path class="cls-3" d="M92.57,232.79v52.92h29.72V226.29H99.07A6.5,6.5,0,0,0,92.57,232.79Z"/><path class="cls-5" d="M342.45,137.14H169.55a6.51,6.51,0,0,1-4.6-1.9l-11-11.05a6.49,6.49,0,0,1-1.9-4.6V95.26a6.53,6.53,0,0,1,1.9-4.59l11-11a6.52,6.52,0,0,1,4.6-1.91h172.9a6.52,6.52,0,0,1,4.6,1.91l11.05,11a6.49,6.49,0,0,1,1.9,4.59v24.33a6.49,6.49,0,0,1-1.9,4.6l-11.05,11.05A6.51,6.51,0,0,1,342.45,137.14Z"/><path class="cls-2" d="M315.43,114.6H196.57a7.17,7.17,0,1,1,0-14.34H315.43a7.17,7.17,0,1,1,0,14.34Z"/><path class="cls-2" d="M241.14,285.71H419.43V473.29H241.14Z"/><path class="cls-3" d="M241.14,285.71h19.14V473.29H241.14Z"/><path class="cls-7" d="M330.29,337.46a7.17,7.17,0,0,1-7.18-7.17V315.43a7.18,7.18,0,1,1,14.35,0v14.86A7.17,7.17,0,0,1,330.29,337.46Z"/><path class="cls-7" d="M330.29,471.17a7.17,7.17,0,0,1-7.18-7.17V434.29a7.18,7.18,0,1,1,14.35,0V464A7.17,7.17,0,0,1,330.29,471.17Z"/><path class="cls-7" d="M270.85,396.83a7.18,7.18,0,0,1-6.32-10.56l31.86-59.38A7.17,7.17,0,1,1,309,333.68l-31.85,59.37a7.17,7.17,0,0,1-6.33,3.78Z"/><path class="cls-7" d="M389.72,400a7.18,7.18,0,0,1-6.4-3.92l-31.85-62.51A7.17,7.17,0,1,1,364.25,327l31.86,62.51A7.17,7.17,0,0,1,389.72,400Z"/><path class="cls-3" d="M92.57,285.71h29.72V473.29H92.57Z"/><path class="cls-3" d="M419.43,278.54v14.35H92.57a7.18,7.18,0,1,1,0-14.35Z"/><path class="cls-4" d="M62.86,187.29H92.57v286H62.86Z"/><path class="cls-5" d="M358.43,434.29H302.27a6.5,6.5,0,0,1-6.14-8.63l15.26-44,6.36-5a6.45,6.45,0,0,0,.17-3.69L312,367.88l-7.31-29.53a6.5,6.5,0,0,1,6.32-8.06h38.71a6.49,6.49,0,0,1,6.34,7.93l-6.7,29.64-5.82,5.23a6.53,6.53,0,0,0,.16,3.48l6.34,5.1,14.56,44.07a6.51,6.51,0,0,1-6.18,8.55Z"/><path class="cls-8" d="M321.84,330.29H311a6.5,6.5,0,0,0-6.31,8.06L312,367.88l6.37,7-7,6.78-15.26,44a6.51,6.51,0,0,0,6.15,8.63h10l20.59-59.43Z"/><path class="cls-1" d="M350.05,381.67a7.38,7.38,0,0,1-2.26.37H313.74a7,7,0,0,1-2.35-.4l1.72-5a6.36,6.36,0,0,0,.16-3.69L312,367.88a7.52,7.52,0,0,1,1.73-.2h34.05a6.9,6.9,0,0,1,1.58.18l-1.18,5.23a6.44,6.44,0,0,0,.17,3.48Z"/><path class="cls-6" d="M457.5,493.71H241.14l-29.71-9.28H140.86l-18.57,9.28H54.5a6.5,6.5,0,0,1-6.5-6.5V470.5a6.5,6.5,0,0,1,6.5-6.5h403a6.5,6.5,0,0,1,6.5,6.5v16.71A6.5,6.5,0,0,1,457.5,493.71Z"/><path class="cls-6" d="M48,470.5v16.71a6.5,6.5,0,0,0,6.5,6.5H92.57V464H54.5A6.5,6.5,0,0,0,48,470.5Z"/><path class="cls-5" d="M241.14,493.6H122.29V292.21a6.5,6.5,0,0,1,6.5-6.5H234.64a6.5,6.5,0,0,1,6.5,6.5Z"/><path class="cls-8" d="M147.36,285.71H128.79a6.5,6.5,0,0,0-6.5,6.5V493.6h18.57V292.21A6.5,6.5,0,0,1,147.36,285.71Z"/><path class="cls-8" d="M204.93,405.15H158.5a6.5,6.5,0,0,1-6.5-6.5V321.93a6.5,6.5,0,0,1,6.5-6.5h46.43a6.5,6.5,0,0,1,6.5,6.5v76.72A6.5,6.5,0,0,1,204.93,405.15Z"/><path class="cls-8" d="M204.93,464H158.5a6.5,6.5,0,0,1-6.5-6.5V440.79a6.5,6.5,0,0,1,6.5-6.5h46.43a6.5,6.5,0,0,1,6.5,6.5V457.5A6.5,6.5,0,0,1,204.93,464Z"/><path class="cls-6" d="M457.5,196.57H54.5a6.5,6.5,0,0,1-6.5-6.5V173.36a6.5,6.5,0,0,1,6.5-6.5h403a6.5,6.5,0,0,1,6.5,6.5v16.71A6.5,6.5,0,0,1,457.5,196.57Z"/><path class="cls-6" d="M48,173.36v16.71a6.5,6.5,0,0,0,6.5,6.5H92.57V166.86H54.5A6.5,6.5,0,0,0,48,173.36Z"/></svg>