<svg id="Layer_1" data-name="Layer 1" xmlns="http://www.w3.org/2000/svg" viewBox="0 0 512 512"><defs><style>.cls-1{fill:#dbedff;}.cls-2{fill:#d83968;}.cls-3{fill:#f6cd80;}.cls-4{fill:#ca3561;}.cls-5{fill:#7fb3fa;}.cls-6{fill:#64a6f4;}.cls-7{fill:#3d8bd8;}.cls-8{fill:#477b9e;}.cls-9{fill:#3f6d8e;}.cls-10{fill:#365e7d;}.cls-11{fill:#b5dcff;}.cls-12{fill:#8bcaff;}</style></defs><path class="cls-1" d="M163.71,123.57a6.83,6.83,0,0,1-6.84-6.83V75.6a6.84,6.84,0,0,1,13.68,0v41.14A6.83,6.83,0,0,1,163.71,123.57Z"/><path class="cls-2" d="M366.8,92.33H156.63a6.84,6.84,0,0,1,0-13.68H366.8a6.84,6.84,0,0,1,0,13.68Z"/><path class="cls-1" d="M384.35,58.23a6.83,6.83,0,0,1-6.84-6.83V32.86a6.84,6.84,0,1,1,13.68,0V51.4A6.83,6.83,0,0,1,384.35,58.23Z"/><path class="cls-1" d="M174.3,333.06H153.12a6.84,6.84,0,1,1,0-13.68H174.3a6.84,6.84,0,0,1,0,13.68Z"/><path class="cls-1" d="M163.71,353.3a6.84,6.84,0,0,1-6.84-6.84V299.69a6.84,6.84,0,1,1,13.68,0v46.77A6.84,6.84,0,0,1,163.71,353.3Z"/><path class="cls-3" d="M138.8,278.64v16.12A11.25,11.25,0,0,0,150,306h27.4a11.25,11.25,0,0,0,11.22-11.22V278.64Z"/><path class="cls-2" d="M397.29,47.34H371.41a9.57,9.57,0,0,0-9.57,9.51V100.9a9.57,9.57,0,0,0,9.57,9.51h25.88a9.57,9.57,0,0,0,9.58-9.51V56.85A9.57,9.57,0,0,0,397.29,47.34Z"/><path class="cls-4" d="M384.35,100.9V56.85a9.57,9.57,0,0,1,9.57-9.51H371.41a9.56,9.56,0,0,0-9.57,9.51V100.9a9.56,9.56,0,0,0,9.57,9.51h22.51A9.57,9.57,0,0,1,384.35,100.9Z"/><path class="cls-5" d="M393.93,110.41H171.29a64.7,64.7,0,0,0-64.7,64.69v86.43a19.84,19.84,0,0,0,19.84,19.84H201a19.84,19.84,0,0,0,19.84-19.84V241.9a17.26,17.26,0,0,1,17.26-17.26h89a17.26,17.26,0,0,1,17.26,17.26v117H458.62V175.1a64.69,64.69,0,0,0-64.69-64.69Z"/><path class="cls-6" d="M138.8,261.53V175.1a64.69,64.69,0,0,1,64.69-64.69h-32.2a64.7,64.7,0,0,0-64.7,64.69v86.43a19.84,19.84,0,0,0,19.84,19.84h32.21a19.84,19.84,0,0,1-19.84-19.84Z"/><path class="cls-6" d="M359.33,224.64h-32.2a17.26,17.26,0,0,1,17.26,17.26v117h32.2v-117a17.26,17.26,0,0,0-17.26-17.26Z"/><path class="cls-6" d="M152.58,247.12A11.13,11.13,0,0,0,163.71,236V164.05a11.13,11.13,0,0,0-11.13-11.14H110.5a64.52,64.52,0,0,0-3.91,22.19v72Z"/><path class="cls-7" d="M138.8,175.1a64.75,64.75,0,0,1,3.9-22.19H110.5a65.55,65.55,0,0,0-3.91,22.17v72H138.8v-72Z"/><circle class="cls-8" cx="422.94" cy="224.3" r="50.74"/><path class="cls-9" d="M402,224.3a50.77,50.77,0,0,1,35.84-48.52,50.75,50.75,0,1,0,0,97A50.75,50.75,0,0,1,402,224.3Z"/><circle class="cls-9" cx="422.94" cy="224.3" r="23.99"/><path class="cls-10" d="M422.94,224.3a24,24,0,0,1,12-20.78,24,24,0,1,0,0,41.55,24,24,0,0,1-12-20.77Z"/><path class="cls-7" d="M197.5,174.23a6.83,6.83,0,0,1-6.84-6.83V152.91a6.84,6.84,0,0,1,13.68,0V167.4A6.83,6.83,0,0,1,197.5,174.23Z"/><path class="cls-7" d="M220.27,174.23a6.83,6.83,0,0,1-6.84-6.83V152.91a6.84,6.84,0,0,1,13.68,0V167.4A6.83,6.83,0,0,1,220.27,174.23Z"/><path class="cls-7" d="M243,174.23a6.84,6.84,0,0,1-6.84-6.83V152.91a6.84,6.84,0,0,1,13.68,0V167.4A6.83,6.83,0,0,1,243,174.23Z"/><path class="cls-7" d="M265.81,174.23A6.83,6.83,0,0,1,259,167.4V152.91a6.84,6.84,0,0,1,13.67,0V167.4A6.83,6.83,0,0,1,265.81,174.23Z"/><path class="cls-11" d="M203.71,356.11H458.62v92.64H203.71Z"/><path class="cls-12" d="M85.48,356.11H69.12a14.5,14.5,0,0,0-14.41,14.58v78.06H85.48Z"/><path class="cls-1" d="M85.48,476.71v-29H48.6A10.31,10.31,0,0,0,38.32,458V475.7A10.31,10.31,0,0,0,48.6,486H94.74a9.27,9.27,0,0,1-9.26-9.27Z"/><path class="cls-1" d="M463.41,447.67H203.71v29a9.27,9.27,0,0,1-9.27,9.27h269a10.31,10.31,0,0,0,10.27-10.28V458a10.31,10.31,0,0,0-10.27-10.28Z"/><path class="cls-11" d="M85.48,476.71v-9.89H48.59a10.31,10.31,0,0,1-10.24-9.57c0,.23,0,.46,0,.7V475.7A10.31,10.31,0,0,0,48.59,486H94.74a9.27,9.27,0,0,1-9.26-9.27Z"/><path class="cls-11" d="M463.41,466.82H203.71v9.89a9.27,9.27,0,0,1-9.27,9.27h269a10.31,10.31,0,0,0,10.27-10.28V458c0-.24,0-.47,0-.7A10.31,10.31,0,0,1,463.41,466.82Z"/><path class="cls-2" d="M199.91,346.46H92a9.27,9.27,0,0,0-9.27,9.26v121A9.27,9.27,0,0,0,92,486h107.9a9.27,9.27,0,0,0,9.27-9.27v-121A9.27,9.27,0,0,0,199.91,346.46Z"/><path class="cls-4" d="M117.92,476.71v-121a9.27,9.27,0,0,1,9.26-9.26H92a9.27,9.27,0,0,0-9.27,9.26v121A9.27,9.27,0,0,0,92,486h35.17A9.27,9.27,0,0,1,117.92,476.71Z"/><path class="cls-4" d="M163.71,380.82a6.84,6.84,0,0,1-6.84-6.84v-6.14a6.84,6.84,0,1,1,13.68,0V374A6.84,6.84,0,0,1,163.71,380.82Z"/><path class="cls-4" d="M163.71,410.07a6.84,6.84,0,0,1-6.84-6.84v-6.14a6.84,6.84,0,1,1,13.68,0v6.14A6.84,6.84,0,0,1,163.71,410.07Z"/><path class="cls-4" d="M163.71,439.32a6.84,6.84,0,0,1-6.84-6.84v-6.14a6.84,6.84,0,1,1,13.68,0v6.14A6.84,6.84,0,0,1,163.71,439.32Z"/><path class="cls-4" d="M163.71,468.57a6.84,6.84,0,0,1-6.84-6.84v-6.14a6.84,6.84,0,1,1,13.68,0v6.14A6.84,6.84,0,0,1,163.71,468.57Z"/></svg>