<svg id="Layer_1" data-name="Layer 1" xmlns="http://www.w3.org/2000/svg" viewBox="0 0 512 512"><defs><style>.cls-1{fill:#c1c1c1;}.cls-2{fill:#d83968;}.cls-3{fill:#d9d9d9;}.cls-4{fill:#9c9c9c;}</style></defs><path class="cls-1" d="M270.32,449.27V477.9H241.68V449.27h28.64Z"/><path class="cls-1" d="M270.32,48.41V77.05H241.68V48.41A14.36,14.36,0,0,1,256,34.1a14.43,14.43,0,0,1,14.32,14.31Z"/><path class="cls-2" d="M256,77.05V449.27H148.63c0-71,21.54-116.82,34.14-137.51a59.57,59.57,0,0,0,8.81-30.85v-1.65a58,58,0,0,0-8.31-29.92L167,222.21a128.91,128.91,0,0,1-18.39-66.35V144.33a14.36,14.36,0,0,1,9.45-13.45l69.29-25.2V77.05Z"/><path class="cls-2" d="M270.32,77.05h14.31v28.63l69.29,25.2a14.36,14.36,0,0,1,9.45,13.45v11.53A128.91,128.91,0,0,1,345,222.21l-16.25,27.13a58,58,0,0,0-8.31,29.92v1.65a59.57,59.57,0,0,0,8.81,30.85c12.6,20.69,34.14,66.5,34.14,137.51H256V77.05Z"/><path class="cls-3" d="M266.09,38.32A14,14,0,0,0,256,34.1a14.3,14.3,0,0,0-12.32,7.16h5.16A7.15,7.15,0,0,1,256,48.41V77.05h14.32V48.41A14,14,0,0,0,266.09,38.32Z"/><path class="cls-4" d="M256,477.9V463.59a7.15,7.15,0,0,1,7.16-7.16h7.16v-7.16H241.68V477.9Z"/></svg>