<svg id="Layer_1" data-name="Layer 1" xmlns="http://www.w3.org/2000/svg" viewBox="0 0 512 512"><defs><style>.cls-1{fill:#b57a4e;}.cls-2{fill:#edeff1;}.cls-3{fill:#ffd3b3;}.cls-4{fill:#fcb98b;}.cls-5{fill:#d83968;}.cls-6{fill:#6e83b7;}.cls-7{fill:#ffb236;}.cls-8{fill:#46bee8;}.cls-9{fill:#80d6fb;}.cls-10{fill:#d3d3d3;}</style></defs><path class="cls-1" d="M281,241c-27.23,0-49.5-20.73-49.5-46.05V180.7h99V195C330.5,220.28,308.23,241,281,241Z"/><path class="cls-2" d="M200.24,251.94l48.93-11.45h63.66l48.93,11.45A70.25,70.25,0,0,1,416,320.34V403.1H363.32V502H198.68V431.79H146V320.34a70.25,70.25,0,0,1,54.24-68.4Z"/><path class="cls-2" d="M281,300.85a60.52,60.52,0,0,1-60-53.77l28.16-6.59h63.66L341,247.08a60.52,60.52,0,0,1-60,53.77Z"/><path class="cls-3" d="M312.83,240.49V205.37H249.17v35.12l-13,3a45,45,0,0,0,89.77,0Z"/><path class="cls-4" d="M312.83,220.33a78.32,78.32,0,0,1-63.66,0v-15h63.66v15Z"/><path class="cls-3" d="M357.83,142.8h-11V107.68h11a6.58,6.58,0,0,1,6.58,6.59v22A6.57,6.57,0,0,1,357.83,142.8Z"/><path class="cls-3" d="M204.17,107.68h11V142.8h-11a6.57,6.57,0,0,1-6.58-6.58v-22a6.57,6.57,0,0,1,6.58-6.59Z"/><path class="cls-3" d="M346.85,78.05v70.24a65.85,65.85,0,1,1-131.7,0V78.05Z"/><path class="cls-1" d="M281,10a74.83,74.83,0,0,0-74.61,74.61v23.07h8.76V142.8l10.69-35.27c30.16,0,44.16-11,55.16-29.48,11,18.49,25,29.48,55.16,29.48l10.69,35.27V107.68h8.76V84.6A74.83,74.83,0,0,0,281,10Z"/><path class="cls-5" d="M361.76,251.94l-21.68-5.07v47.2a40,40,0,0,1-40,40H261.92a40,40,0,0,1-40-40V246.86l-21.68,5.08c-.53.12-1,.27-1.56.4V502H363.32V252.34c-.52-.13-1-.28-1.56-.4Z"/><path class="cls-6" d="M120.54,294.54a84.37,84.37,0,0,1,119,0l63.95,63.95a84.12,84.12,0,1,1-119,119l-63.95-63.95A84.37,84.37,0,0,1,120.54,294.54Z"/><path class="cls-3" d="M173.71,403.47l18.92,18.93a39.44,39.44,0,1,0,55.77-55.77l-18.93-18.92Z"/><path class="cls-4" d="M173.71,403.47l8,8.06a58.87,58.87,0,0,0,55.77-55.77l-8.06-8.06Z"/><path class="cls-4" d="M133.92,398.27l5.21-5.21-16.36-16.35-5.21,5.2a5.27,5.27,0,0,0,0,7.44l8.93,8.92A5.26,5.26,0,0,0,133.92,398.27Z"/><path class="cls-4" d="M224.27,307.92l-5.21,5.21-16.35-16.36,5.2-5.21a5.27,5.27,0,0,1,7.44,0l8.92,8.93a5.26,5.26,0,0,1,0,7.43Z"/><circle class="cls-3" cx="170.92" cy="344.92" r="59.42"/><path class="cls-7" d="M128.9,302.9a60.66,60.66,0,0,1,7.89-6.63,34.71,34.71,0,0,1,4.9,12,32.24,32.24,0,0,1-.05,13.06,29.67,29.67,0,0,1-4.81,11.05,26.92,26.92,0,0,1-8.11,7.54,24.3,24.3,0,0,0,3.25-9.53,21.86,21.86,0,0,0-.84-9.06,18.88,18.88,0,0,0-4-7.06,16.29,16.29,0,0,0-4.73-3.6,60.12,60.12,0,0,1,6.53-7.75Z"/><path class="cls-8" d="M111.7,403.1a83.14,83.14,0,0,0,8.84,10.41l64,63.95a83.57,83.57,0,0,0,44.61,23.23V403.1Z"/><path class="cls-9" d="M229.1,285.7v215a84.12,84.12,0,0,0,74.36-142.2l-63.95-63.95A83.14,83.14,0,0,0,229.1,285.7Z"/><path class="cls-2" d="M296,440.37h90a30,30,0,0,0,30-30V387.69H296Z"/><path class="cls-10" d="M368.32,392.69H296v-10h62.32v-52.2h10Z"/><path class="cls-10" d="M296,435.37h67.32v10H296Z"/><path class="cls-3" d="M279.66,440.37H296V387.69H279.66a26.34,26.34,0,0,0,0,52.68Z"/><path class="cls-3" d="M183.19,434.52l9,9a26.34,26.34,0,1,1-37.26,37.25l-9-9a26.34,26.34,0,0,1,37.25-37.25Z"/></svg>