<svg id="Layer_1" data-name="Layer 1" xmlns="http://www.w3.org/2000/svg" viewBox="0 0 512 512"><defs><style>.cls-1{fill:#39659f;}.cls-2{fill:#2f5381;}.cls-3{fill:#4478bd;}.cls-4{fill:#eaf2fe;}.cls-5{fill:#d6e7fe;}.cls-6{fill:#b1d6f2;}.cls-7{fill:#fcb98b;}.cls-8{fill:#ffd3b3;}.cls-9{fill:#ffb236;}</style></defs><path class="cls-1" d="M160.45,461.39H52.8v-180H185.41Z"/><path class="cls-2" d="M459.2,461.39H351.55l-16.76-180H459.2Z"/><path class="cls-3" d="M259,461.39H160.45V220.33H259Z"/><path class="cls-1" d="M351.55,461.39H255.47V220.33h96.08Z"/><path class="cls-4" d="M202.62,359.46H259V461.39h-56.4Z"/><path class="cls-5" d="M255.47,359.46h53.91V461.39H255.47Z"/><path class="cls-4" d="M226.25,308.07H258.2v23.81H226.25Z"/><path class="cls-4" d="M226.25,256.68H258.2v23.81H226.25Z"/><path class="cls-5" d="M255.47,308.07h30.28v23.81H255.47Z"/><path class="cls-5" d="M255.47,256.68h30.28v23.81H255.47Z"/><path class="cls-6" d="M388.44,385.5h33.88v23.81H388.44Z"/><path class="cls-6" d="M388.44,333.43h33.88v23.81H388.44Z"/><path class="cls-5" d="M89.68,385.5h33.88v23.81H89.68Z"/><path class="cls-5" d="M89.68,333.43h33.88v23.81H89.68Z"/><path class="cls-1" d="M142.92,205.29H259V229.1H142.92Z"/><path class="cls-2" d="M256,205.29H369.08V229.1H256Z"/><path class="cls-7" d="M184.9,153.08l8.23-.22L192.44,127l-8.23.22a5.87,5.87,0,0,0-5.72,6l.37,14.12A5.89,5.89,0,0,0,184.9,153.08Z"/><path class="cls-7" d="M327.79,149.3l-8.23.22-.69-25.88,8.23-.22a5.89,5.89,0,0,1,6,5.73l.37,14.11a5.88,5.88,0,0,1-5.72,6Z"/><circle class="cls-8" cx="256" cy="138.25" r="66.47" transform="translate(-22.78 221.51) rotate(-45)"/><path class="cls-9" d="M254.24,71.8a67.37,67.37,0,0,1,11.51.69A38.93,38.93,0,0,1,260.51,86a36.33,36.33,0,0,1-10.1,10.56A33.2,33.2,0,0,1,238,101.82a30.12,30.12,0,0,1-12.38-.13,27.06,27.06,0,0,0,10-5.24,24.48,24.48,0,0,0,6.29-8,21.32,21.32,0,0,0,2.17-8.83A18.38,18.38,0,0,0,243,73.06a68.45,68.45,0,0,1,11.27-1.26Z"/></svg>