<svg id="Layer_1" data-name="Layer 1" xmlns="http://www.w3.org/2000/svg" viewBox="0 0 512 512"><defs><style>.cls-1{fill:#fcbab1;}.cls-2{fill:#d19690;}.cls-3{fill:#ffc9c0;}.cls-4{fill:#f7bab2;}.cls-5{fill:#e5aca8;}.cls-6{fill:#867af4;}.cls-7{fill:#ff5a81;}.cls-8{fill:#d4e1f4;}.cls-9{fill:#e0afa9;}.cls-10{fill:#6d7486;}.cls-11{fill:#d3a9a3;}.cls-12{fill:#f4f8fc;}.cls-13{fill:#e2b0aa;}</style></defs><path class="cls-1" d="M311.63,220.81A73.11,73.11,0,0,0,339.14,236c-2.13,36.62-37.88,20.41-37.88,20.41h0c-19.26,10-56,11.13-58-11.58a38.07,38.07,0,0,1,.48-10.76l-.17,0c3.3-19.12-.85-43.16-26.22-55.83,3.65-36.32,18.8-45.91,18.8-45.91v0c20.36,13.89,52.14,13.78,52.14,13.78-5.72,27.11,2.16,56.08,23.34,74.73Z"/><path class="cls-2" d="M275,236.79a5.72,5.72,0,0,1-3.23-10.44c2.6-1.77,25.82-17.12,42-10.87a5.72,5.72,0,0,1-4.13,10.66h0c-4.15-1.61-11-.53-19.18,3a83.26,83.26,0,0,0-12.22,6.61A5.64,5.64,0,0,1,275,236.79Z"/><path class="cls-3" d="M454.75,196.56,453,202.51,435.63,260.2A30.7,30.7,0,0,0,396,263.35l-6.47,6.48-22.69,22.69a49.16,49.16,0,0,1-18.55,11.64l-4.46,1.55a68.62,68.62,0,0,0-45.4,55.21l-.8,13.72c-.06,1.14-.18,2.25-.33,3.37A287.08,287.08,0,0,0,294,418.48v29.83a109.88,109.88,0,0,0,69.57.47l1.46-.47,4.8-50a22.7,22.7,0,0,1,9.66-16.76l54.92-37.85a73.75,73.75,0,0,0,28.19-46l22-118.17a24.85,24.85,0,0,0-29.79,17Z"/><path class="cls-4" d="M452.9,202.49c-9.94-2.73-22,2.24-25.24,12l-2.42,8.09-9.55,31.83a30.56,30.56,0,0,1,19.94,5.75L453,202.51Z"/><path class="cls-3" d="M415.7,118.19h0L368.84,76.77l0,0c-17.54.63-38,7.75-52.5,22-.4.39-1.21.68-1.48.19-4.43-8.24-14.7-5.23-20.45,2-8.85,11.21-9.64,26.62-3,31.87a1.19,1.19,0,0,1,.36,1.36,84.18,84.18,0,0,0-3.43,11.86c-5.72,27.11,2.16,56.08,23.34,74.73A73.11,73.11,0,0,0,339.14,236c29,8.67,62.59-.46,85-25.85,13.78-15.65,19.27-34.39,19.07-53.44Z"/><path class="cls-5" d="M425.24,222.62l-9.55,31.83a30.44,30.44,0,0,0-19.72,8.9l-6.47,6.48,7.84-26.55a28.11,28.11,0,0,1,27.16-20.87Z"/><path class="cls-3" d="M163.54,215.53s-3.76-48.95,34.35-43.54a60.92,60.92,0,0,1,12.18,3.15,63.74,63.74,0,0,1,7.27,3.1c25.37,12.67,29.52,36.71,26.22,55.83-.37,2.16-.83,4.26-1.38,6.28a32.58,32.58,0,0,1-29.63,24c-13.66.76-33.15-1.73-53.06-16.39,0,0-13.32,8.7-28.87,7.93a10.27,10.27,0,0,1-9.75-10.77,10.14,10.14,0,0,1,.55-2.83l17.76-51.52a70.17,70.17,0,0,0,24.36,24.75Z"/><path class="cls-6" d="M236.15,132.3v0s-15.15,9.59-18.8,45.91a63.74,63.74,0,0,0-7.27-3.1A60.92,60.92,0,0,0,197.89,172c-3.53-30.38,19.15-53.1,19.15-53.1a83.71,83.71,0,0,1,14.87,10.16A47.61,47.61,0,0,0,236.15,132.3Z"/><path class="cls-3" d="M214.73,378c-.15-1.12-.27-2.23-.33-3.37l-.8-13.72a68.62,68.62,0,0,0-45.4-55.21l-4.46-1.55a49.16,49.16,0,0,1-18.55-11.64L122.5,269.83,116,263.35a30.7,30.7,0,0,0-39.66-3.15L59,202.51l-1.78-5.95a24.85,24.85,0,0,0-29.79-17l22,118.17a73.75,73.75,0,0,0,28.19,46l54.92,37.85a22.5,22.5,0,0,1,9.6,17.08l3.67,49.67,1.07.35a109.81,109.81,0,0,0,68.55.48l2.6-.83V418.48A287.08,287.08,0,0,0,214.73,378Z"/><path class="cls-7" d="M217,118.89s-22.68,22.72-19.15,53.1c-38.11-5.41-34.35,43.54-34.35,43.54a70.17,70.17,0,0,1-24.36-24.75c-9.14-15.79-11.59-35.29-.58-53.71C160.14,101.07,194.13,106.51,217,118.89Z"/><path class="cls-5" d="M114.66,243.28l7.84,26.55L116,263.35a30.44,30.44,0,0,0-19.72-8.9l-9.55-31.83.74-.21A28.11,28.11,0,0,1,114.66,243.28Z"/><path class="cls-4" d="M86.76,222.62l-2.42-8.09c-3.21-9.8-15.3-14.77-25.24-12l-.07,0L76.37,260.2a30.56,30.56,0,0,1,19.94-5.75Z"/><path class="cls-8" d="M384.69,212.63a8.1,8.1,0,1,1-11.44.74h0a8.1,8.1,0,0,1,11.43-.74Z"/><path class="cls-8" d="M330,165.11a7.62,7.62,0,1,1-10.76.7h0a7.62,7.62,0,0,1,10.75-.7Z"/><path class="cls-9" d="M170.68,448.66l-1.07-.35-3.68-49.67a22.49,22.49,0,0,0-9.59-17.08l-54.92-37.85a73.76,73.76,0,0,1-28.2-46L52.86,188.17a24.84,24.84,0,0,0-25.4-8.61l22,118.17a73.75,73.75,0,0,0,28.19,46l54.92,37.85a22.5,22.5,0,0,1,9.6,17.08l3.67,49.67,1.07.35a109.83,109.83,0,0,0,47,5.07A110,110,0,0,1,170.68,448.66Z"/><path class="cls-10" d="M390.94,159.19A21.21,21.21,0,0,1,375.41,152a23.3,23.3,0,0,1-5.3-23.35c3.1-9,8.28-14.91,15.39-17.69,11.88-4.63,24.35,1.94,24.87,2.23A5.71,5.71,0,0,1,405,123.23c-.17-.09-8.49-4.36-15.38-1.63-3.82,1.51-6.75,5.13-8.7,10.76a12.09,12.09,0,0,0,2.91,11.87c2.61,2.83,6,4.07,9,3.29,2.85-.73,5.37-3.45,5.63-5.31.06-.39.17-1.22-1.78-2.37a5.71,5.71,0,1,1,5.81-9.84c5.43,3.2,8.08,8.23,7.29,13.82-.95,6.71-6.88,12.92-14.1,14.77A18.7,18.7,0,0,1,390.94,159.19Z"/><path class="cls-10" d="M395.86,198.37h-.17a5.72,5.72,0,0,1-5.55-5.81,7.27,7.27,0,0,0-1.85-4.67C387,186.61,384.85,186,382,186a5.72,5.72,0,0,1-.19-11.43c7.73-.12,12.26,2.81,14.72,5.3a18.7,18.7,0,0,1,5.09,12.91,5.72,5.72,0,0,1-5.71,5.55Z"/><path class="cls-10" d="M358.79,165.73h-.17a5.72,5.72,0,0,1-5.55-5.81,7.32,7.32,0,0,0-1.85-4.67c-1.3-1.28-3.43-1.91-6.34-1.85a5.72,5.72,0,1,1-.19-11.43c7.69-.12,12.26,2.81,14.72,5.3a18.75,18.75,0,0,1,5.09,12.91,5.72,5.72,0,0,1-5.71,5.55Z"/><path class="cls-11" d="M351.42,211c-7.42,0-11.82-2.86-14.22-5.29a18.73,18.73,0,0,1-5.1-12.91,5.72,5.72,0,1,1,11.43.26h0a7.34,7.34,0,0,0,1.85,4.67c1.3,1.27,3.42,1.9,6.34,1.84a5.72,5.72,0,1,1,.19,11.43Z"/><path class="cls-11" d="M309.82,124.14l-7.12-8.93-.07.06a3.53,3.53,0,0,0,.51-.58,5.72,5.72,0,0,1,10.08-5.36c3.36,5.64.6,11.63-3.4,14.81Z"/><path class="cls-12" d="M163.89,442.59a5.71,5.71,0,0,1-5.69-5.28L156,408.48a5.71,5.71,0,1,1,11.38-1v.08l2.2,28.83a5.72,5.72,0,0,1-5.27,6.14h-.44Z"/><path class="cls-12" d="M160.41,395.56a5.72,5.72,0,0,1-5.69-5.29l-.19-2.63a5.71,5.71,0,0,1,11.38-1c0,.05,0,.1,0,.15l.2,2.63a5.73,5.73,0,0,1-5.28,6.13Z"/><path class="cls-13" d="M208.14,270.2c-16.29,0-38.71-4.72-60.64-24.67a5.72,5.72,0,0,1,7.62-8.52l.07.07c21.21,19.3,42.73,22.38,57,21.58a26.81,26.81,0,0,0,24.43-19.8c11-40.64-19.06-54.93-28.53-58.34-12.38-4.47-21.86-4.29-28.18.52-10.33,7.86-11.24,27.25-10.72,34.06a5.71,5.71,0,1,1-11.39.88c-.1-1.26-2.15-30.84,15.19-44,9.59-7.3,22.71-8,39-2.17,17.29,6.23,29.34,17.56,34.83,32.76,5.72,15.79,3,31.41.85,39.31a38.23,38.23,0,0,1-34.82,28.23C211.36,270.15,209.78,270.2,208.14,270.2Z"/><path class="cls-6" d="M468.77,127.79c-1.57-26.71-35.13-21.2-35.79-21.08L416.17,125c7.28,26.21,18.32,33.57,27,31.71,5.42-1.16,9.91-5.92,12-11.93C457.88,136.91,469.45,139.24,468.77,127.79Z"/><path class="cls-6" d="M389.07,57.62c-11.47.22-7.67,12-15.16,15.67a21.45,21.45,0,0,0-5.07,3.48c-10.41,9.6-9.85,28.62,30,33.35l15.74-19.19s2.9-33.85-25.54-33.31Z"/><path class="cls-7" d="M433,106.71a4,4,0,0,0-1.25-2.11L417.5,92.08a4.54,4.54,0,0,0-2.89-1.15,4.62,4.62,0,0,0-3.4,1.3L399.58,105.4a3.93,3.93,0,0,0-.71,4.72,3.72,3.72,0,0,0,.86,1.07L414.31,124a4.66,4.66,0,0,0,6.56-.41,3.57,3.57,0,0,0,.3-.38l11.17-13.4a4,4,0,0,0,.64-3.14Z"/></svg>