<svg id="Layer_1" data-name="Layer 1" xmlns="http://www.w3.org/2000/svg" viewBox="0 0 512 512"><defs><style>.cls-1{fill:#fed9a8;}.cls-2{fill:#ffbd86;}.cls-3{fill:#72563c;}.cls-4{fill:#b57a4e;}.cls-5{fill:#9b5729;}.cls-6{fill:#d83968;}</style></defs><path class="cls-1" d="M256.2,430.13A131.36,131.36,0,0,1,124.84,298.77v-63a131.36,131.36,0,0,1,262.72,0v63A131.36,131.36,0,0,1,256.2,430.13Z"/><path class="cls-1" d="M386,304.34h17.58a27.34,27.34,0,1,0,0-54.67H386Z"/><path class="cls-1" d="M126.44,303.21H108.7a27.59,27.59,0,1,1,0-55.17h17.74Z"/><path class="cls-2" d="M387.57,235.73v63A131.36,131.36,0,0,1,256.21,430.13a127.72,127.72,0,0,1-16-1A131.37,131.37,0,0,0,355.66,298.77v-63a131.37,131.37,0,0,0-115.41-130.4,131.37,131.37,0,0,1,147.32,130.4Z"/><path class="cls-3" d="M192.13,309.54a12,12,0,0,1-12-12V273a12,12,0,1,1,23.93,0v24.53A12,12,0,0,1,192.13,309.54Z"/><path class="cls-3" d="M320.27,309.54a12,12,0,0,1-12-12V273a12,12,0,1,1,23.93,0v24.53A12,12,0,0,1,320.27,309.54Z"/><path class="cls-3" d="M256.66,367.24a45.62,45.62,0,0,1-31.85-12.88,12,12,0,1,1,16.64-17.2,21.88,21.88,0,0,0,29.83.55,12,12,0,0,1,16,17.8A45.75,45.75,0,0,1,256.66,367.24Z"/><path class="cls-4" d="M220,101.36c-11.66,7.73-19.27,20.88-21.66,34.52-8.48,48.19,56.68,73.24,86.56,36.89,16.68-20.3,12.88-52.28,24.25-75.53.3-.63,1.38-3,2.71-5.63A6.67,6.67,0,0,0,306.11,82c-25.28-.76-62.52,3.78-86.11,19.41Z"/><path class="cls-5" d="M311.85,91.61c-1.31,2.65-2.4,5-2.71,5.63-11.35,23.25-7.56,55.23-24.24,75.53-18.12,22-49.2,21.5-69,6.94a47.24,47.24,0,0,0,35.76-17.29c16.68-20.3,12.89-52.28,24.24-75.53.24-.47.9-1.89,1.77-3.71a205,205,0,0,1,28.42-1.24A6.68,6.68,0,0,1,311.85,91.61Z"/><path class="cls-6" d="M391.79,355.06A26.39,26.39,0,0,0,371,365.22a26.45,26.45,0,0,0-47.29,16.29c0,33.23,47.29,51.73,47.29,51.73s47.29-18.5,47.29-51.73A26.45,26.45,0,0,0,391.79,355.06Z"/><path class="cls-6" d="M145.68,133.92a26.4,26.4,0,0,0-20.84,10.17,26.45,26.45,0,0,0-47.29,16.28c0,33.24,47.29,51.74,47.29,51.74s47.29-18.5,47.29-51.74A26.45,26.45,0,0,0,145.68,133.92Z"/></svg>