<svg id="Layer_1" data-name="Layer 1" xmlns="http://www.w3.org/2000/svg" viewBox="0 0 512 512"><defs><style>.cls-1{fill:#f6cd80;}.cls-1,.cls-2,.cls-3{fill-rule:evenodd;}.cls-2{fill:#ffd89e;}.cls-3{fill:#d83968;}</style></defs><path class="cls-1" d="M105.41,190.86c13.88-3.22,30.86-6.59,44.73-9.81C155.55,197.57,163,211.81,163,223c0,24.58-75.73,121.66-47.84,225.75C119.79,461,198.86,471.67,256,471.67S392.21,461,396.86,448.75C424.75,344.66,349,247.58,349,223c0-11.19,7.43-25.43,12.84-41.95,13.87,3.22,30.86,6.59,44.73,9.81,10.27,2.38,18.07.19,23.3-8.86l31.74-50.91c6.55-10.5,3.05-19.46-5.48-25.33-28.56-19.65-91-60.63-120.32-64.25a122.83,122.83,0,0,0-26.14-.81,53.63,53.63,0,0,1,.51,7.38,54.2,54.2,0,0,1-108.4,0,55.24,55.24,0,0,1,.51-7.38,122.83,122.83,0,0,0-26.14.81c-29.29,3.62-91.76,44.6-120.32,64.25-8.53,5.87-12,14.83-5.48,25.33L82.11,182C87.34,191.05,95.14,193.24,105.41,190.86Zm102.74,99.32a28.63,28.63,0,0,1,40.37,0,10.42,10.42,0,0,0,15,0,28.63,28.63,0,0,1,40.37,0C334,320.34,276,373.06,256,378.4,236.06,373.06,178,320.34,208.15,290.18Z"/><path class="cls-2" d="M201.8,48.08a54.2,54.2,0,1,0,108.39,0,55.23,55.23,0,0,0-.5-7.38C292,42.24,282.13,48.08,256,48.08s-36-5.84-53.69-7.38A55.24,55.24,0,0,0,201.8,48.08Z"/><path class="cls-3" d="M263.48,290.18a10.42,10.42,0,0,1-15,0,28.63,28.63,0,0,0-40.37,0C178,320.34,236.06,373.06,256,378.4c19.95-5.34,78-58.06,47.85-88.22A28.63,28.63,0,0,0,263.48,290.18Z"/></svg>