<svg id="Layer_1" data-name="Layer 1" xmlns="http://www.w3.org/2000/svg" viewBox="0 0 512 512"><defs><style>.cls-1{fill:#656d78;}.cls-2{fill:#f6cd80;}.cls-3{fill:#ca3561;}.cls-4{fill:#d83968;}</style></defs><path class="cls-1" d="M195.69,413.48a20.11,20.11,0,1,1-20.11,20.11A20.12,20.12,0,0,1,195.69,413.48Z"/><path class="cls-1" d="M356.52,433.59a20.11,20.11,0,1,1,20.1,20.1A20.08,20.08,0,0,1,356.52,433.59Z"/><path class="cls-2" d="M302.91,85.11A87.12,87.12,0,0,1,390,172.23H369.86a67,67,0,1,0-134,0h-20.1A87.12,87.12,0,0,1,302.91,85.11Z"/><path class="cls-3" d="M160.64,319.66l-7.25-46.91L137.91,172.23H463.74l-40.21,201H168.88Z"/><path class="cls-3" d="M195.69,433.59a6.7,6.7,0,0,1-6.71-6.7V413.48a6.71,6.71,0,0,1,13.41,0v13.41A6.7,6.7,0,0,1,195.69,433.59Z"/><path class="cls-3" d="M376.62,433.59a6.7,6.7,0,0,1-6.7-6.7V413.48a6.71,6.71,0,0,1,13.41,0v13.41A6.7,6.7,0,0,1,376.62,433.59Z"/><path class="cls-4" d="M470.44,172.23c0-.23-.11-.44-.13-.67a6.88,6.88,0,0,0-.76-2.49,6.52,6.52,0,0,0-1.61-1.95,6.87,6.87,0,0,0-1-.68,5.77,5.77,0,0,0-1.26-.52,3.7,3.7,0,0,0-.62-.26,3.09,3.09,0,0,0-.68,0,5.84,5.84,0,0,0-.63-.13h-320l-8.41-54.63a3.86,3.86,0,0,0-.19-.54,6.36,6.36,0,0,0-.43-1.2,5.17,5.17,0,0,0-1.39-2,5.09,5.09,0,0,0-2.09-1.37,5.64,5.64,0,0,0-1.47-.42,2.48,2.48,0,0,0-.49-.15l-80.42-6.7a6.63,6.63,0,0,0-7.23,6.11,6.7,6.7,0,0,0,6.12,7.24l75.15,6.26L161.26,367.8a26.73,26.73,0,0,0,7.62,52.38h248a6.7,6.7,0,0,0,0-13.4H168.88a13.4,13.4,0,0,1,0-26.8H423.54a6.68,6.68,0,0,0,2.43-.5,5.78,5.78,0,0,0,.73-.42,6,6,0,0,0,1.3-.87,8.54,8.54,0,0,0,.64-.71,7,7,0,0,0,.8-1.21,8.18,8.18,0,0,0,.39-1,6.24,6.24,0,0,0,.27-.72l40.21-201c.05-.22,0-.43,0-.66S470.44,172.46,470.44,172.23Zm-14.87,6.7L418,366.57H174.64l-6.19-40.21H262.7a6.7,6.7,0,0,0,0-13.4H166.39l-5.16-33.51H269.4a6.7,6.7,0,1,0,0-13.4H159.17L154,232.55H282.8a6.71,6.71,0,1,0,0-13.41H152l-6.18-40.21Z"/><path class="cls-4" d="M336.42,58.31,302.91,91.82,269.4,58.31Z"/></svg>