<svg id="Layer_1" data-name="Layer 1" xmlns="http://www.w3.org/2000/svg" viewBox="0 0 512 512"><defs><style>.cls-1{fill:#e1a546;}.cls-2{fill:#e4eaf8;}.cls-3{fill:#d5dced;}.cls-4{fill:#ffc850;}.cls-5{fill:#ffdc64;}.cls-6{fill:#ff507d;}.cls-7{fill:#d23c69;}.cls-8{fill:#eab049;}.cls-9{fill:#ffdce5;}.cls-10{fill:#ffedf2;}</style></defs><path class="cls-1" d="M286.77,74.83H225.24V88.5h61.53c75.4,0,136.74,61.34,136.74,136.74v6.84h13.67v-6.84C437.18,142.3,369.71,74.83,286.77,74.83Z"/><path class="cls-2" d="M145.76,471.37h131.6a34.45,34.45,0,0,0,19.55-6.08,150.2,150.2,0,0,0,65-128.23c-2.2-77-63.9-140.93-140.74-145.71a150.4,150.4,0,0,0-94.91,274A34.34,34.34,0,0,0,145.76,471.37Z"/><rect class="cls-3" x="204.72" y="197.89" width="13.67" height="109.39"/><path class="cls-3" d="M143.19,341.47c0-72.61,42.1-133.19,98.08-147.3a146.46,146.46,0,0,0-20.1-2.82,150.4,150.4,0,0,0-94.91,274,34.34,34.34,0,0,0,19.5,6.05h66.66a24.72,24.72,0,0,1-16-6.05C164.29,438.19,143.19,392.85,143.19,341.47Z"/><path class="cls-4" d="M238.91,109h-54.7a6.83,6.83,0,0,0-6.83,6.84V195h68.37V115.85A6.84,6.84,0,0,0,238.91,109Z"/><path class="cls-5" d="M225.23,61.15H197.89A6.84,6.84,0,0,0,191.05,68v41h41V68A6.84,6.84,0,0,0,225.23,61.15Z"/><ellipse class="cls-6" cx="430.34" cy="279.93" rx="41.02" ry="54.69"/><path class="cls-6" d="M334.42,334.45a6.71,6.71,0,0,0-5.91-6.26,68.52,68.52,0,0,0-7.53-.4c-27.34,0-27.34,13.68-54.68,13.68a68.7,68.7,0,0,1-6.88-.33H163.71c-2.1.21-4.38.33-6.89.33-27.34,0-27.34-13.68-54.68-13.68a68.19,68.19,0,0,0-7.52.4,6.72,6.72,0,0,0-5.92,6.26q-.2,3.48-.2,7a123.16,123.16,0,0,0,53.26,101.32,7,7,0,0,0,4,1.23h131.6a7,7,0,0,0,4-1.23,123.17,123.17,0,0,0,53.27-101.32Q334.63,337.93,334.42,334.45Z"/><path class="cls-7" d="M218.4,398.06V362H204.72v36.08a13.61,13.61,0,0,0-6.83,11.78,6.83,6.83,0,0,0,6.83,6.83H218.4a6.84,6.84,0,0,0,6.84-6.83A13.64,13.64,0,0,0,218.4,398.06Z"/><path class="cls-5" d="M245.75,375.65H177.38A13.67,13.67,0,0,1,163.7,362v-54.7a13.67,13.67,0,0,1,13.68-13.67h68.37a13.67,13.67,0,0,1,13.67,13.67V362A13.67,13.67,0,0,1,245.75,375.65Z"/><path class="cls-1" d="M232.07,327.79h-41a6.84,6.84,0,1,1,0-13.67h41a6.84,6.84,0,1,1,0,13.67Z"/><path class="cls-8" d="M225.23,355.14H197.89a6.84,6.84,0,1,1,0-13.67h27.34a6.84,6.84,0,1,1,0,13.67Z"/><path class="cls-9" d="M122.68,88.5H47.47a6.84,6.84,0,0,1,0-13.67h75.21a6.84,6.84,0,1,1,0,13.67Z"/><path class="cls-9" d="M122.67,112.43A6.84,6.84,0,0,1,121,99l34.18-8.55a6.84,6.84,0,0,1,3.31,13.27l-34.18,8.55A6.87,6.87,0,0,1,122.67,112.43Z"/><path class="cls-10" d="M81.65,122.69A6.84,6.84,0,0,1,80,109.21l13.68-3.41A6.83,6.83,0,0,1,97,119.06l-13.67,3.42A6.88,6.88,0,0,1,81.65,122.69Z"/><path class="cls-9" d="M156.89,73.12a6.73,6.73,0,0,1-1.66-.2L121,64.37a6.84,6.84,0,0,1,3.32-13.27l34.2,8.55a6.84,6.84,0,0,1-1.65,13.47Z"/><path class="cls-10" d="M95.34,57.73a6.73,6.73,0,0,1-1.66-.2L80,54.11a6.83,6.83,0,0,1,3.31-13.26L97,44.26a6.84,6.84,0,0,1-1.65,13.47Z"/><path class="cls-7" d="M143.24,340c-14.83-3.51-19.25-12.23-41.1-12.23a68.19,68.19,0,0,0-7.52.4,6.72,6.72,0,0,0-5.92,6.26q-.2,3.48-.2,7a123.16,123.16,0,0,0,53.26,101.32,7,7,0,0,0,4,1.23h30.57c-20.53-26.87-33.14-62.89-33.14-102.55C143.19,341,143.24,340.51,143.24,340Z"/><path class="cls-8" d="M197.89,154V109H184.21a6.83,6.83,0,0,0-6.83,6.84V195h68.37V181.32H225.23A27.34,27.34,0,0,1,197.89,154Z"/><path class="cls-4" d="M211.56,61.15H197.89A6.84,6.84,0,0,0,191.05,68v41h13.67V68A6.84,6.84,0,0,1,211.56,61.15Z"/><path class="cls-7" d="M416.67,266.26c0-16.35,5.41-31,13.93-41l-.26,0c-22.65,0-41,24.49-41,54.69s18.37,54.7,41,54.7c10.4,0,19.86-5.2,27.09-13.69C434.9,320.75,416.67,296.35,416.67,266.26Z"/><path class="cls-6" d="M197.89,88.5h-6.84V74.83h6.84a6.83,6.83,0,0,1,6.83,6.83h0A6.83,6.83,0,0,1,197.89,88.5Z"/></svg>