<svg id="Layer_1" data-name="Layer 1" xmlns="http://www.w3.org/2000/svg" viewBox="0 0 512 512"><defs><style>.cls-1{fill:#e25987;}.cls-2{fill:#d83968;}.cls-3{fill:#ca3561;}.cls-4{fill:#ff5ca8;}</style></defs><path class="cls-1" d="M257.62,448.54,21,186,103.19,63.46H408.4l82.05,122.32Z"/><polygon class="cls-1" points="257.68 448.47 490.45 185.78 408.4 63.46 257.68 63.46 257.68 448.47"/><polygon class="cls-2" points="20.98 186.01 257.62 448.54 489.8 186.53 20.98 186.01"/><polygon class="cls-2" points="257.68 186.27 257.68 448.47 489.8 186.53 257.68 186.27"/><path class="cls-3" d="M257.62,448.54l-97.34-262H351.72Z"/><path class="cls-2" d="M351.72,186.53H160.28l97.4-123.07Z"/><polygon class="cls-3" points="20.98 186.01 160.28 186.53 103.19 63.46 20.98 186.01"/><polygon class="cls-4" points="491.02 186.01 351.72 186.53 408.81 63.46 491.02 186.01"/><polygon class="cls-1" points="257.68 186.53 257.68 448.37 351.72 186.53 257.68 186.53"/><polygon class="cls-3" points="257.68 63.47 257.68 186.53 351.72 186.53 257.68 63.47"/><polygon class="cls-3" points="491.02 186.01 351.72 186.53 408.81 63.46 491.02 186.01"/></svg>