<svg id="Layer_1" data-name="Layer 1" xmlns="http://www.w3.org/2000/svg" viewBox="0 0 512 512"><defs><style>.cls-1{fill:#fff1e2;}.cls-2{fill:#d83968;}.cls-3{fill:#f6cd80;}</style></defs><path class="cls-1" d="M443.74,68.16V444.84a47.31,47.31,0,0,1-47.31,47.31H115.57a47.31,47.31,0,0,1-47.31-47.31V68.16a47.31,47.31,0,0,1,47.31-47.31h63.89V56.17H332.54V20.85h63.89A47.31,47.31,0,0,1,443.74,68.16ZM362.45,304.35A59.5,59.5,0,0,0,256,267.77a59.51,59.51,0,1,0,0,73.17,59.51,59.51,0,0,0,106.45-36.59ZM287.38,208a21.89,21.89,0,0,0-31-30.95l-.45.46-.46-.46a21.21,21.21,0,0,0-15.36-6.43A21.72,21.72,0,0,0,224.56,177a22,22,0,0,0,0,30.95L256,239.14Z"/><path class="cls-2" d="M179.46,37.42V19.85H332.54V54H179.46Z"/><path class="cls-2" d="M293.8,192.38A22.11,22.11,0,0,1,287.37,208L256,239.14,224.55,208a22,22,0,0,1,0-30.95,21.72,21.72,0,0,1,15.59-6.43A21.21,21.21,0,0,1,255.51,177l.46.46.45-.46a21.9,21.9,0,0,1,37.38,15.36Z"/><path class="cls-3" d="M303,237.73A66.2,66.2,0,0,0,256,257.1a66.61,66.61,0,1,0,0,94.5A66.61,66.61,0,1,0,303,237.73Zm-93.9,119a52.41,52.41,0,1,1,41.36-20.19A52.4,52.4,0,0,1,209.05,356.76Zm93.9,0A52.07,52.07,0,0,1,265,340.51a66.66,66.66,0,0,0,0-72.31A52.41,52.41,0,1,1,303,356.76Z"/><path class="cls-2" d="M256,149a7.08,7.08,0,0,0,7.09-7.09V128.38a7.1,7.1,0,0,0-14.19,0v13.51A7.09,7.09,0,0,0,256,149Z"/><path class="cls-2" d="M283.38,155.75a7.09,7.09,0,0,0,10-1.13l8.12-10.18a7.1,7.1,0,1,0-11.1-8.85l-8.11,10.19A7.09,7.09,0,0,0,283.38,155.75Z"/><path class="cls-2" d="M218.64,154.63a7.1,7.1,0,1,0,11.1-8.85l-8.11-10.18a7.1,7.1,0,1,0-11.1,8.84Z"/></svg>