<svg id="Layer_1" data-name="Layer 1" xmlns="http://www.w3.org/2000/svg" viewBox="0 0 512 512"><defs><style>.cls-1{fill:#9b5729;}.cls-2{fill:#7f441c;}.cls-3{fill:#d83968;}.cls-4{fill:#def9ff;}.cls-5{fill:#fed9a8;}.cls-6{fill:#b57a4e;}.cls-7{fill:#ffc987;}.cls-8{fill:#72563c;}.cls-9{fill:#80b6fc;}.cls-10{fill:#77839e;}.cls-11{fill:#65a7ef;}.cls-12{fill:#edf7fc;}.cls-13{fill:#f6cd80;}.cls-14{fill:#ca3561;}.cls-15{fill:#dce9f7;}.cls-16{fill:#fca651;}.cls-17{fill:#ffeee6;}.cls-18{fill:#ffdfcf;}</style></defs><path class="cls-1" d="M206.91,72.84c23,0,44.54,4.61,62.76,13.22a62.79,62.79,0,0,0-125.52,0C162.37,77.45,183.9,72.84,206.91,72.84Z"/><path class="cls-2" d="M174.1,76.14a62.67,62.67,0,0,1,47.27-49.33,62.82,62.82,0,0,0-77.22,59.25A134,134,0,0,1,174.1,76.14Z"/><path class="cls-3" d="M203.66,460A22.79,22.79,0,0,1,187.85,450l-55.39-84.84H127.4c-37.07,0-67.23,30-67.23,66.86v24.27A4.76,4.76,0,0,0,64.93,461h142v-1Z"/><path class="cls-3" d="M210.15,460A22.75,22.75,0,0,0,226,450l55.39-84.84h5.07c37.07,0,67.23,30,67.23,66.86v24.27a4.76,4.76,0,0,1-4.76,4.76h-142v-1Z"/><path class="cls-4" d="M274.87,365.12H254.16l-47.25,72.37-47.25-72.37H131.83l56,85.81A22.75,22.75,0,0,0,203.66,461h6.49A22.73,22.73,0,0,0,226,450.93l55.39-85.81Z"/><path class="cls-5" d="M234.1,358.69V339.13a89.51,89.51,0,0,1-15.4,1.33H195.12a89.13,89.13,0,0,1-15.4-1.34v19.57a6.46,6.46,0,0,1-6.47,6.43H159l47.9,73.36,47.89-73.36H240.57A6.46,6.46,0,0,1,234.1,358.69Z"/><path class="cls-6" d="M90.9,207.24h15.69v-21.4a4.73,4.73,0,0,1,4.74-4.71h79.85a44,44,0,0,0,37-20.47,4.75,4.75,0,0,1,8,0,44.06,44.06,0,0,0,37,20.47h29.3a4.72,4.72,0,0,1,4.73,4.71v21.4h15.7a18.24,18.24,0,0,1,4.93.7V175.72C327.85,110,273.7,72,206.91,72S86,110,86,175.72v32.22A18.24,18.24,0,0,1,90.9,207.24Z"/><path class="cls-1" d="M90.9,207.24h15.69v-21.4a4.73,4.73,0,0,1,4.74-4.71h3.43v-5.41c0-60.91,46.54-98,106.55-103.15-4.72-.4-9.53-.61-14.4-.61C140.11,72,86,110,86,175.72v32.22A18.24,18.24,0,0,1,90.9,207.24Z"/><path class="cls-5" d="M84.23,259.17c10,2.16,20.48-1.95,22.49-1.76-.08-1.54-.13-3.09-.13-4.65v-46.4H90.9a18.61,18.61,0,0,0-18.76,18.46v22.34C72.14,253.8,82.44,258.79,84.23,259.17Z"/><path class="cls-5" d="M330,259.17c-10.05,2.16-20.48-1.95-22.49-1.76.08-1.54.13-3.09.13-4.65v-46.4h15.69a18.61,18.61,0,0,1,18.76,18.46v22.34C342.1,253.8,331.8,258.79,330,259.17Z"/><path class="cls-5" d="M270,305.48l-.52-.79a39.49,39.49,0,0,1-6.61-21.9,40,40,0,0,1,45.19-39.46V185.84a5.6,5.6,0,0,0-5.61-5.59h-29.3A43.18,43.18,0,0,1,237,160.19a5.64,5.64,0,0,0-9.53,0,43.18,43.18,0,0,1-36.24,20.06H111.33a5.61,5.61,0,0,0-5.62,5.59v66.92c0,1.53,0,3.06.12,4.58-.12,36.91,31.88,65.13,47.5,73.72s26.71,10.29,41.79,10.29H218.7C238.58,341.35,270,305.48,270,305.48Z"/><path class="cls-5" d="M143.77,305.48l.52-.79a39.41,39.41,0,0,0,6.61-21.9,40,40,0,0,0-45.19-39.46V185.84a5.6,5.6,0,0,1,5.62-5.59h29.29a43.18,43.18,0,0,0,36.24-20.06,5.64,5.64,0,0,1,9.53,0,43.18,43.18,0,0,0,36.24,20.06h79.85a5.6,5.6,0,0,1,5.62,5.59v66.92c0,1.53,0,3.06-.12,4.58.12,36.91-31.88,65.13-47.5,73.72s-26.7,10.29-41.79,10.29H195.11C175.23,341.35,143.77,305.48,143.77,305.48Z"/><path class="cls-7" d="M154.51,329.07a4.16,4.16,0,0,1-1.18,2,89.6,89.6,0,0,0,41.79,10.29h19.07a89.47,89.47,0,0,1-58-21.26A66.34,66.34,0,0,1,154.51,329.07Z"/><path class="cls-8" d="M215.06,265.89H203.94a11.79,11.79,0,0,1-11.81-11.75V235.86a6.63,6.63,0,1,1,13.26,0v16.78h9.67a6.63,6.63,0,0,1,0,13.25Z"/><path class="cls-8" d="M206.73,305.5a50.65,50.65,0,0,1-35.83-14.71,6.63,6.63,0,0,1,9.35-9.4,37.89,37.89,0,0,0,53.32-.19,6.63,6.63,0,1,1,9.34,9.4A51.16,51.16,0,0,1,206.73,305.5Z"/><path class="cls-8" d="M151.84,234.61a7.15,7.15,0,0,1-7.15-7.16V209.89a7.16,7.16,0,1,1,14.31,0v17.56A7.15,7.15,0,0,1,151.84,234.61Z"/><path class="cls-8" d="M262,234.61a7.16,7.16,0,0,1-7.16-7.16V209.89a7.16,7.16,0,1,1,14.32,0v17.56A7.15,7.15,0,0,1,262,234.61Z"/><path class="cls-9" d="M478.85,242.37V459.23a3.26,3.26,0,0,1-3.26,3.27H318.29a3.26,3.26,0,0,1-3.26-3.27V242.37a3.26,3.26,0,0,1,3.26-3.27h35.56a3.28,3.28,0,0,1,1.89.61l4.82,3.45a3.32,3.32,0,0,0,1.9.6h69.31a3.27,3.27,0,0,0,2-.66l4.37-3.33a3.28,3.28,0,0,1,2-.67h35.5a3.26,3.26,0,0,1,3.26,3.27Z"/><path class="cls-10" d="M404.42,246.3H389.53a3.6,3.6,0,0,1-3.59-3.6v-7.44a11,11,0,1,1,22.08,0v7.44a3.6,3.6,0,0,1-3.6,3.6Zm-11.29-7.19h7.7v-3.85a3.85,3.85,0,1,0-7.7,0v3.85Z"/><path class="cls-11" d="M448.58,239.1v5.11a24,24,0,0,1-24,24H369.28a24,24,0,0,1-24-24V239.1Z"/><path class="cls-11" d="M324.62,239.1V462.5h-6.33a3.26,3.26,0,0,1-3.26-3.27V242.37a3.26,3.26,0,0,1,3.26-3.27Z"/><path class="cls-12" d="M460.5,447.64H333a3.26,3.26,0,0,1-3.26-3.26V257.3A3.26,3.26,0,0,1,333,254H460.5a3.26,3.26,0,0,1,3.27,3.27V444.38A3.26,3.26,0,0,1,460.5,447.64Z"/><path class="cls-13" d="M411.28,336.38a29.06,29.06,0,1,0,29.06,29.05A29.09,29.09,0,0,0,411.28,336.38Zm0,47.85a18.8,18.8,0,1,1,18.8-18.8A18.82,18.82,0,0,1,411.28,384.23Z"/><path class="cls-13" d="M382.22,336.38a29.06,29.06,0,1,0,29.06,29.05A29.09,29.09,0,0,0,382.22,336.38Zm0,47.85a18.8,18.8,0,1,1,18.8-18.8A18.82,18.82,0,0,1,382.22,384.23Z"/><path class="cls-13" d="M411.28,346.63a18.82,18.82,0,0,0-18.8,18.8H382.22a29.09,29.09,0,0,1,29.06-29.05Z"/><path class="cls-3" d="M403.83,307.18a9,9,0,0,0-7.08,3.46,9,9,0,0,0-16.08,5.53c0,11.3,16.08,17.59,16.08,17.59s16.07-6.29,16.07-17.59A9,9,0,0,0,403.83,307.18Z"/><path class="cls-14" d="M403.83,307.18a9,9,0,0,0-5.5,1.89,8.73,8.73,0,0,1,1.9,1.37l.11.1.1.1a7.45,7.45,0,0,1,.53.58,9.51,9.51,0,0,1,1.24,1.95c3.54,7.61-2.11,16.46-5.26,20.51,1.85-.77,15.87-7,15.87-17.51A9,9,0,0,0,403.83,307.18Z"/><path class="cls-15" d="M446.49,254a24,24,0,0,1-21.88,14.18H369.28A24,24,0,0,1,347.39,254Z"/><path class="cls-15" d="M339.52,254V447.61h-6.33a3.27,3.27,0,0,1-3.26-3.27V257.26a3.26,3.26,0,0,1,3.26-3.26Z"/><path class="cls-13" d="M425,258.59H368.87a14,14,0,0,1-14-14v-5.5H439v5.5A14,14,0,0,1,425,258.59Z"/><path class="cls-16" d="M383.66,258.59H369.28a14.38,14.38,0,0,1-14.39-14.38V239.1h14.39v5.11A14.38,14.38,0,0,0,383.66,258.59Z"/><path class="cls-17" d="M444.45,427.62l-7.16,4.55-8.69-5,.21-8.39,5.17-1.35,8.83,5Z"/><path class="cls-18" d="M428.6,427.16l.21-8.39,5.17-1.35,1.73,1-.23,4.14-.21,8.49Z"/><path class="cls-10" d="M437.29,432.17l-2.08,1.32-2.75,1.75a2.61,2.61,0,0,1-4-2.27l.14-5.81c1.19-.56,3.26-.28,5.24.83h0c2,1.15,3.36,2.83,3.43,4.17Z"/><path class="cls-9" d="M493.23,333.8l-2.68,4.74,1.53,4.86-41.39,73.19-5,1.21L443.37,422l1.08,5.65-15.64-8.85h0l5.52-2.2,2.23-3.95L435,407.74l41.4-73.19,4.95-1.19,2.93-5.17-2-4,4.37-7.73a9,9,0,0,1,12.25-3.39,12.86,12.86,0,0,1,2.78,2.57.1.1,0,0,0,0,.05q3.08,4,.58,9.62L497.94,333Z"/><path class="cls-11" d="M501.74,315.69a9,9,0,0,0-8.4,4.55l-57.86,102.3-6.67-3.77,5.52-2.2,2.23-3.95L435,407.74l41.4-73.19,4.95-1.19,2.93-5.17-2-4,4.37-7.73a9,9,0,0,1,12.25-3.39,12.86,12.86,0,0,1,2.78,2.57.1.1,0,0,0,0,.05Z"/><path class="cls-13" d="M482.3,324.19,498,333l-5.86,10.36-15.65-8.85Z"/><path class="cls-16" d="M482.31,324.19,489,328l-5.86,10.36-6.66-3.77Z"/><path class="cls-13" d="M435.05,407.75l15.64,8.84-6.24,11-15.64-8.85Z"/><path class="cls-16" d="M435.05,407.75l6.66,3.77-6.23,11-6.67-3.77Z"/></svg>