<svg id="Layer_1" data-name="Layer 1" xmlns="http://www.w3.org/2000/svg" viewBox="0 0 512 512"><defs><style>.cls-1{fill:#9b5729;}.cls-2{fill:#7f441c;}.cls-3{fill:#d83968;}.cls-4{fill:#def9ff;}.cls-5{fill:#fed9a8;}.cls-6{fill:#b57a4e;}.cls-7{fill:#ffc987;}.cls-8{fill:#72563c;}.cls-9{fill:#80b6fc;}.cls-10{fill:#77839e;}.cls-11{fill:#65a7ef;}.cls-12{fill:#edf7fc;}.cls-13{fill:#f6cd80;}.cls-14{fill:#ca3561;}.cls-15{fill:#dce9f7;}.cls-16{fill:#fca651;}.cls-17{fill:#ffeee6;}.cls-18{fill:#ffdfcf;}</style></defs><path class="cls-1" d="M181.11,85c23,0,44.54,4.6,62.76,13.21a62.79,62.79,0,0,0-125.52,0C136.56,89.63,158.1,85,181.11,85Z"/><path class="cls-2" d="M148.29,88.33A62.7,62.7,0,0,1,195.57,39a62.82,62.82,0,0,0-77.22,59.24A134.57,134.57,0,0,1,148.29,88.33Z"/><path class="cls-3" d="M177.86,472.22a22.74,22.74,0,0,1-15.81-10.07L106.66,377.3H101.6c-37.07,0-67.24,30-67.24,66.87v24.27a4.77,4.77,0,0,0,4.77,4.76h142v-1Z"/><path class="cls-3" d="M184.35,472.22a22.72,22.72,0,0,0,15.81-10.07l55.39-84.85h5.07c37.07,0,67.23,30,67.23,66.87v24.27a4.76,4.76,0,0,1-4.76,4.76h-142v-1Z"/><path class="cls-4" d="M249.07,377.3H228.36l-47.25,72.38L133.85,377.3H106l56,85.82a22.79,22.79,0,0,0,15.81,10.08h6.49a22.77,22.77,0,0,0,15.81-10.08l55.39-85.82Z"/><path class="cls-5" d="M208.3,370.88V351.32a90.52,90.52,0,0,1-15.4,1.33H169.32a89.33,89.33,0,0,1-15.41-1.34v19.57a6.44,6.44,0,0,1-6.46,6.42H133.21l47.89,73.37L229,377.3H214.77A6.45,6.45,0,0,1,208.3,370.88Z"/><path class="cls-6" d="M65.1,219.43H80.79V198a4.73,4.73,0,0,1,4.74-4.7h79.85a44.06,44.06,0,0,0,37-20.47,4.74,4.74,0,0,1,8,0,44.06,44.06,0,0,0,37,20.47h29.3a4.72,4.72,0,0,1,4.73,4.7v21.41h15.7a18.23,18.23,0,0,1,4.93.69V187.9c0-65.69-54.15-103.75-120.94-103.75S60.17,122.21,60.17,187.9v32.23A17.85,17.85,0,0,1,65.1,219.43Z"/><path class="cls-1" d="M65.1,219.43H80.79V198a4.73,4.73,0,0,1,4.74-4.7H89V187.9C89,127,135.5,89.85,195.51,84.76q-7.09-.6-14.4-.61c-66.8,0-120.94,38.06-120.94,103.75v32.22A18.23,18.23,0,0,1,65.1,219.43Z"/><path class="cls-5" d="M58.43,271.36c10.05,2.15,20.48-2,22.49-1.76-.08-1.54-.13-3.09-.13-4.66V218.55H65.1A18.6,18.6,0,0,0,46.34,237v22.33C46.34,266,56.64,271,58.43,271.36Z"/><path class="cls-5" d="M304.21,271.36c-10,2.15-20.48-2-22.49-1.76.08-1.54.12-3.09.12-4.66V218.55h15.69A18.61,18.61,0,0,1,316.3,237v22.33C316.3,266,306,271,304.21,271.36Z"/><path class="cls-5" d="M244.24,317.66l-.52-.78a39.49,39.49,0,0,1-6.61-21.9,39.91,39.91,0,0,1,45.19-39.46V198a5.6,5.6,0,0,0-5.61-5.59h-29.3a43.17,43.17,0,0,1-36.24-20.05,5.63,5.63,0,0,0-9.53,0,43.17,43.17,0,0,1-36.24,20.05H85.53A5.61,5.61,0,0,0,79.91,198v66.92c0,1.54,0,3.07.12,4.58-.12,36.92,31.88,65.14,47.5,73.73s26.71,10.29,41.79,10.29H192.9C212.78,353.54,244.24,317.66,244.24,317.66Z"/><path class="cls-5" d="M118,317.66l.52-.78A39.49,39.49,0,0,0,125.1,295a39.91,39.91,0,0,0-45.19-39.46V198a5.6,5.6,0,0,1,5.61-5.59h29.3a43.17,43.17,0,0,0,36.24-20.05,5.63,5.63,0,0,1,9.53,0,43.17,43.17,0,0,0,36.24,20.05h79.85A5.61,5.61,0,0,1,282.3,198v66.92c0,1.54,0,3.07-.12,4.58.12,36.92-31.88,65.14-47.5,73.73s-26.7,10.29-41.79,10.29H169.31C149.43,353.54,118,317.66,118,317.66Z"/><path class="cls-7" d="M128.71,341.25a4.19,4.19,0,0,1-1.18,2,89.6,89.6,0,0,0,41.79,10.29h19.07a89.51,89.51,0,0,1-58-21.26A66.16,66.16,0,0,1,128.71,341.25Z"/><path class="cls-8" d="M189.26,278.08H178.14a11.79,11.79,0,0,1-11.81-11.75V248.05a6.63,6.63,0,0,1,13.26,0v16.77h9.66a6.63,6.63,0,0,1,0,13.26Z"/><path class="cls-8" d="M180.93,317.69A50.65,50.65,0,0,1,145.1,303a6.63,6.63,0,0,1,9.35-9.4,37.89,37.89,0,0,0,53.31-.19,6.63,6.63,0,1,1,9.35,9.4A51.18,51.18,0,0,1,180.93,317.69Z"/><path class="cls-8" d="M126,246.8a7.17,7.17,0,0,1-7.16-7.16V222.07a7.16,7.16,0,1,1,14.32,0v17.57A7.16,7.16,0,0,1,126,246.8Z"/><path class="cls-8" d="M236.17,246.8a7.17,7.17,0,0,1-7.16-7.16V222.07a7.16,7.16,0,0,1,14.32,0v17.57A7.16,7.16,0,0,1,236.17,246.8Z"/><path class="cls-9" d="M453.05,254.55V471.42a3.26,3.26,0,0,1-3.26,3.26H292.49a3.26,3.26,0,0,1-3.26-3.26V254.55a3.26,3.26,0,0,1,3.26-3.26h35.56a3.2,3.2,0,0,1,1.89.61l4.82,3.44a3.26,3.26,0,0,0,1.9.61H406a3.3,3.3,0,0,0,2-.66l4.37-3.33a3.25,3.25,0,0,1,2-.67h35.5a3.26,3.26,0,0,1,3.26,3.26Z"/><path class="cls-10" d="M378.62,258.49H363.73a3.6,3.6,0,0,1-3.6-3.6v-7.45a11,11,0,0,1,22.09,0v7.45a3.6,3.6,0,0,1-3.6,3.6Zm-11.29-7.2H375v-3.85a3.85,3.85,0,1,0-7.7,0v3.85Z"/><path class="cls-11" d="M422.78,251.29v5.11a24,24,0,0,1-24,24H343.48a24,24,0,0,1-24-24v-5.11Z"/><path class="cls-11" d="M298.82,251.29V474.68h-6.33a3.26,3.26,0,0,1-3.26-3.26V254.55a3.26,3.26,0,0,1,3.26-3.26Z"/><path class="cls-12" d="M434.7,459.83H307.19a3.26,3.26,0,0,1-3.26-3.27V269.48a3.26,3.26,0,0,1,3.26-3.26H434.7a3.26,3.26,0,0,1,3.26,3.26V456.56A3.26,3.26,0,0,1,434.7,459.83Z"/><path class="cls-13" d="M385.48,348.56a29.06,29.06,0,1,0,29,29.06A29.09,29.09,0,0,0,385.48,348.56Zm0,47.86a18.8,18.8,0,1,1,18.8-18.8A18.83,18.83,0,0,1,385.48,396.42Z"/><path class="cls-13" d="M356.42,348.56a29.06,29.06,0,1,0,29.06,29.06A29.1,29.1,0,0,0,356.42,348.56Zm0,47.86a18.8,18.8,0,1,1,18.8-18.8A18.82,18.82,0,0,1,356.42,396.42Z"/><path class="cls-13" d="M385.48,358.82a18.83,18.83,0,0,0-18.81,18.8H356.42a29.09,29.09,0,0,1,29.06-29.06Z"/><path class="cls-3" d="M378,319.37a9,9,0,0,0-7.08,3.45,9,9,0,0,0-16.08,5.54C354.87,339.66,371,346,371,346S387,339.66,387,328.36A9,9,0,0,0,378,319.37Z"/><path class="cls-14" d="M378,319.37a8.94,8.94,0,0,0-5.5,1.88,9.35,9.35,0,0,1,1.9,1.37l.11.11.1.1a7.45,7.45,0,0,1,.53.58,8.83,8.83,0,0,1,1.23,1.95c3.55,7.6-2.11,16.45-5.25,20.5,1.85-.77,15.87-6.95,15.87-17.5A9,9,0,0,0,378,319.37Z"/><path class="cls-15" d="M420.69,266.19a24,24,0,0,1-21.88,14.18H343.48a24,24,0,0,1-21.89-14.18Z"/><path class="cls-15" d="M313.72,266.19v193.6h-6.33a3.26,3.26,0,0,1-3.26-3.26V269.45a3.26,3.26,0,0,1,3.26-3.26Z"/><path class="cls-13" d="M399.21,270.78H343.07a14,14,0,0,1-14-14v-5.51h84.1v5.51A14,14,0,0,1,399.21,270.78Z"/><path class="cls-16" d="M357.86,270.78H343.48a14.38,14.38,0,0,1-14.39-14.38v-5.11h14.39v5.11A14.38,14.38,0,0,0,357.86,270.78Z"/><path class="cls-17" d="M418.65,439.81l-7.16,4.55-8.69-5L403,431l5.17-1.36,8.83,5Z"/><path class="cls-18" d="M402.8,439.35,403,431l5.17-1.36,1.73,1-.23,4.14-.21,8.48Z"/><path class="cls-10" d="M411.49,444.36l-2.08,1.32-2.75,1.74a2.6,2.6,0,0,1-4-2.26l.14-5.81c1.19-.57,3.26-.28,5.24.83h0c2,1.15,3.36,2.83,3.43,4.17Z"/><path class="cls-9" d="M467.43,346l-2.68,4.74,1.53,4.86-41.4,73.19-5,1.21-2.35,4.17,1.08,5.65L403,431h0l5.52-2.2,2.23-3.95-1.52-4.88,41.4-73.19,4.95-1.19,2.93-5.17-2-4,4.37-7.73a9,9,0,0,1,12.25-3.4,13.15,13.15,0,0,1,2.78,2.58l0,.05q3.07,4,.57,9.62l-4.37,7.73Z"/><path class="cls-11" d="M475.94,327.88a9,9,0,0,0-8.4,4.54L409.68,434.73,403,431l5.52-2.2,2.23-3.95-1.52-4.88,41.4-73.19,4.95-1.19,2.93-5.17-2-4,4.37-7.73a9,9,0,0,1,12.25-3.4,13.15,13.15,0,0,1,2.78,2.58l0,.05Z"/><path class="cls-13" d="M456.5,336.38l15.64,8.85-5.85,10.35-15.65-8.84Z"/><path class="cls-16" d="M456.5,336.38l6.67,3.77-5.86,10.36-6.66-3.77Z"/><path class="cls-13" d="M409.24,419.93l15.65,8.85-6.24,11L403,431Z"/><path class="cls-16" d="M409.24,419.93l6.67,3.77-6.23,11L403,431Z"/></svg>