<svg id="Layer_1" data-name="Layer 1" xmlns="http://www.w3.org/2000/svg" viewBox="0 0 512 512"><defs><style>.cls-1{fill:#6acebb;}.cls-2{fill:#fed9a8;}.cls-3{fill:#ffbd86;}.cls-4{fill:#f6cd80;}.cls-5{fill:#fff;}.cls-6{fill:#43aa96;}.cls-7{fill:#413468;}.cls-8{fill:#5852aa;}.cls-9{fill:#9b5729;}.cls-10{fill:#b57a4e;}.cls-11{fill:#72563c;}.cls-12{fill:#ffeade;}.cls-13{fill:#ff39ec;}</style></defs><path class="cls-1" d="M364.05,464.21c-2.9,0-166.06.79-181.54-.07-3.91-21.17-8.39-74.85-16.58-108.24a7.58,7.58,0,0,0-1.17-2.55,7.41,7.41,0,0,0-7.4-2.9c-1.47.27-3,.53-4.67.72a232,232,0,0,1-47,.07,5.48,5.48,0,0,1-5-5.9l0-.3q.1-.6.15-1.2c-4.4-27.71-7.33-33.95-6.62-45.57.42-7,12.67-18.27,16.13-25.3l.68-.11c38.23-17.29,56.62-33.76,108.65-49.89,1.24,1.13,2.67,2.37,4.24,3.72-5.9,41.39,9.67,53.8,31.28,53.8,47.22,0,37-52.48,37-52.48,1.73-1.28,3.42-2.63,5.08-3.95,3.42.87,6.95,1.69,10.52,2.6,5.87,1.27,11.58,2.66,14.44,3.64,44.59,11.54,93.83,26.43,115.9,37,4.81,2.29,9.63,4.81,14.18,7.55C429.31,287.45,358.71,391.43,364.05,464.21Z"/><path class="cls-2" d="M292.23,228l-68.31-1.32c-5.89,41.4,9.69,53.81,31.27,53.81C302.43,280.49,292.23,228,292.23,228Z"/><path class="cls-3" d="M293.26,199.86,225,198.54c-5.87,41.4,9.69,53.81,31.28,53.81C303.47,252.35,293.26,199.86,293.26,199.86Z"/><path class="cls-2" d="M171.11,196.43a7.66,7.66,0,0,0,.2,10.82,7.37,7.37,0,0,0,1.2.95A25.81,25.81,0,0,1,180.4,218c1,3.54-1.47,12.11-11.47,7.71-21.31-9.4-32.33-1-35.15,2.93-12.82,18-20.71,45.94-34.09,63.42a5.92,5.92,0,0,0-.42.68,3.72,3.72,0,0,0,0,3.08,38.18,38.18,0,0,1,2.64,10.34,145.2,145.2,0,0,1-1,37.71C65.21,345.08,44.65,345,33,328.23c-8.38-12.06-5.15-37.93,8-56.76,14.7-21,64.06-60.83,73.87-76.66,23.58-38,32.33-48.72,48.84-45.9,10.26,1.77,18.95,17,18.34,26.28-.52,7.14-4.58,13.83-10.94,21.24Z"/><path class="cls-3" d="M169,208.09a5.48,5.48,0,0,1-3.41-1.19A36.38,36.38,0,0,0,149,199.55a5.51,5.51,0,1,1,.64-11h0a46.7,46.7,0,0,1,22.78,9.72,5.51,5.51,0,0,1-3.43,9.82Z"/><path class="cls-4" d="M318.5,313.34c-22.85,4.31-72,12.37-115.48,1.82a13,13,0,0,0-14.86,10.93,13.19,13.19,0,0,0-.06,3.55c3.18,27.23,20,127.38,22.08,147.39H329.73s4.74-135.9,4.74-149.38a13.6,13.6,0,0,0-12.65-14.49A14.18,14.18,0,0,0,318.5,313.34Z"/><path class="cls-5" d="M327,470,211,472.14c-2.83,0-5.82-.94-6.11-3.75-1-9.63-7.61-49.15-11.76-73.07-4.36-25.07-8.87-51-10.5-65A18.85,18.85,0,0,1,188.93,314a17.31,17.31,0,0,1,15.39-4.2c30.35,7.36,67.37,6.74,113.16-1.88A19.13,19.13,0,0,1,333.07,312,19.84,19.84,0,0,1,340,327.65c0,13.42-5.31,133.19-5.5,137.68C334.34,468.28,329.91,470,327,470Zm-112.55-4.62h109.1c.95-22.05,5.45-126.18,5.45-137.68a8.79,8.79,0,0,0-2.92-7.17,8.13,8.13,0,0,0-6.52-1.72c-47.37,8.91-85.89,9.49-117.79,1.75a6.39,6.39,0,0,0-5.5,1.75,7.8,7.8,0,0,0-2.66,6.74c1.61,13.73,6.08,39.51,10.42,64.44,3.59,20.72,8.88,60.4,10.42,71.89Z"/><path class="cls-6" d="M389.48,344.91a5.58,5.58,0,0,1-2.76-.75A63.82,63.82,0,0,0,368.55,338a5.51,5.51,0,1,1,1.34-10.93,5.73,5.73,0,0,1,.7.13,74.24,74.24,0,0,1,21.66,7.43,5.51,5.51,0,0,1-2.77,10.27Z"/><path class="cls-5" d="M255.19,286c-12.43,0-22-3.79-28.5-11.28-8.76-10.09-11.45-26.06-8.22-48.83a5.5,5.5,0,0,1,10.9,1.54h0c-2.71,19.16-.82,32.64,5.64,40.07,4.36,5,11,7.47,20.19,7.47,11.22,0,19.61-3.29,24.94-9.78,11-13.31,6.74-35.94,6.7-36.17a5.51,5.51,0,0,1,10.81-2.1c.22,1.12,5.24,28-9,45.28-7.54,9.15-18.79,13.8-33.45,13.8Z"/><path class="cls-7" d="M211.43,450.93a359.62,359.62,0,0,0-65.79-4.72,359.57,359.57,0,0,0-65.78,4.72A7.47,7.47,0,0,0,74,458.28v15.41H217.32V458.28a7.47,7.47,0,0,0-5.89-7.35Z"/><path class="cls-7" d="M423.37,450.93c-10.53-2.21-28.88-4.72-65.79-4.72a359.68,359.68,0,0,0-65.79,4.72,7.48,7.48,0,0,0-5.89,7.35v11.65H429.23V458.28A7.48,7.48,0,0,0,423.37,450.93Z"/><path class="cls-8" d="M48.29,462.42H455a12.26,12.26,0,0,1,12.25,12.25h0A12.26,12.26,0,0,1,455,486.93H48.29A12.26,12.26,0,0,1,36,474.67h0A12.26,12.26,0,0,1,48.29,462.42Z"/><path class="cls-9" d="M243.36,32.15c15.41-10.43,61.45-13.81,92.85,22.06,30.91,35.31,17.54,94.55,15.11,101.5H324.05Z"/><path class="cls-10" d="M301.81,50.9c-15.36-16.38-40.74-29-62.47-19.39a82.94,82.94,0,0,0-28.83,17.18c-26.09,24.63-28.39,53.89-32,83.18,0,0,18.8,39.6,30.9,48.17,21.47,15.22,100.85,29.59,100.85,29.59a157.23,157.23,0,0,1-2.44,17c-1.54,7.64-3.49,14.94-5.32,21.43a3.15,3.15,0,0,0,5.32,3.16,101.34,101.34,0,0,0,14.46-20.92c7.6-14.32,13.57-35.32,16.85-64.86C345.93,104.34,324.68,75.3,301.81,50.9Z"/><path class="cls-2" d="M299.83,166.45c-38.1-36-38.65-86.74-54.77-92.76-8.95-3.34-45.62,49.62-47.2,69.63-1.58,20.63-2,52,17.58,75.36a62.31,62.31,0,0,0,8.48,8c7.34,6,18,13.18,27.75,14.35,15.23,1.88,36.47-10,40.56-13,1.73-1.28,3.45-2.6,5.1-3.93A49.55,49.55,0,0,0,309.71,211a6.78,6.78,0,0,0,.82-2.78c1.37-16.46-.65-32.21-10.7-41.72Z"/><path class="cls-11" d="M240.87,146.39a42.17,42.17,0,0,0-8.45-3.36,86.3,86.3,0,0,0-9.65-2.32c-3.29-.61-6.62-1-10-1.39-.49-.13-1-.06-2.15.53a38.67,38.67,0,0,0-3.92,2.84,3.88,3.88,0,0,1-5.25-5.66l.2-.23a29.44,29.44,0,0,1,4-4.05,11.7,11.7,0,0,1,7.64-2.67,105.29,105.29,0,0,1,10.93.79,98.66,98.66,0,0,1,10.9,1.92,45.75,45.75,0,0,1,11.16,4.05,5.51,5.51,0,0,1-5.16,9.74h0l-.2-.13Z"/><path class="cls-11" d="M276.11,137.24a45.86,45.86,0,0,1,11.79-1.36,97.4,97.4,0,0,1,11.06.66,104.6,104.6,0,0,1,10.82,1.75,11.73,11.73,0,0,1,6.81,4.37,28.62,28.62,0,0,1,3,4.86l.14.27a3.88,3.88,0,0,1-6.39,4.3,41,41,0,0,0-3.16-3.67c-1-.84-1.46-1-2-1-3.33-.42-6.67-.79-10-.95a86.57,86.57,0,0,0-9.93,0,41.44,41.44,0,0,0-9,1.32l-.09,0a5.51,5.51,0,0,1-3.28-10.53h0Z"/><path class="cls-11" d="M258.5,213.92a32.61,32.61,0,0,1-10.32-1.67c-.6-.2-1.42-.48-2-.6a5.51,5.51,0,0,1-6.59-8.75,11.33,11.33,0,0,1,12-1.13,21.59,21.59,0,0,0,12.18.46,5.51,5.51,0,0,1,2.74,10.67A32.91,32.91,0,0,1,258.5,213.92Z"/><path class="cls-12" d="M319.59,170.9c-1.4,14.2-12.86,28.06-28.72,26.48-15.59-1.53-24.39-17.39-23-31.57S283,148,295.62,149.29s25.37,7.41,24,21.61Z"/><path class="cls-13" d="M196.73,158.76c-1.41,14.2,7.11,30,23,31.58,15.58,1.54,27.31-12.29,28.72-26.49s-11.33-20.36-24-21.59-26.33,2.29-27.73,16.5Z"/><path class="cls-12" d="M196.73,158.76c-1.41,14.2,7.11,30,23,31.58,15.58,1.54,27.31-12.29,28.72-26.49s-11.33-20.36-24-21.59-26.33,2.29-27.73,16.5Z"/><path class="cls-12" d="M267.61,175.34a5.09,5.09,0,0,1-1.45-.21,51.63,51.63,0,0,0-19.18-2,4.8,4.8,0,0,1-.85-9.55,61.52,61.52,0,0,1,22.81,2.4,4.79,4.79,0,0,1-1.33,9.39Z"/><path class="cls-12" d="M339.84,162.65c-.23,0-.47,0-.7,0a5.51,5.51,0,0,1-4.77-6.15c4.94-39.46-5.09-73.34-26.83-90.64-23.09-18.35-61.38-24.49-89.9-.69C187.29,90.46,183.8,117,183.8,134.68a5.51,5.51,0,1,1-11,.29v-.29c0-19.93,3.92-49.72,37.81-78,29.16-24.34,72.82-24.11,103.8.53,24.79,19.71,36.33,57.32,30.91,100.62a5.52,5.52,0,0,1-5.47,4.83Z"/><rect class="cls-7" x="167.5" y="127.26" width="29.36" height="60.6" rx="14.68" transform="translate(-5.41 6.48) rotate(-2.01)"/><path class="cls-7" d="M329.68,200.46h0a14.68,14.68,0,0,1-12.23-16.78l4.84-30.89a14.69,14.69,0,0,1,16.79-12.23h0a14.69,14.69,0,0,1,12.23,16.79l-4.85,30.88A14.68,14.68,0,0,1,329.68,200.46Z"/><path class="cls-5" d="M283,182.54a3.68,3.68,0,0,1-2.59-6.27l7.08-7.08a3.67,3.67,0,0,1,5.19,5.19l-7.08,7.08a3.67,3.67,0,0,1-2.6,1.08Z"/><path class="cls-5" d="M296.81,184.47a3.67,3.67,0,0,1-2.59-6.27l7.08-7.08a3.67,3.67,0,0,1,5.19,5.19h0l-7.09,7.08a3.65,3.65,0,0,1-2.59,1.08Z"/><path class="cls-5" d="M211.38,175.2a3.68,3.68,0,0,1-2.6-6.27l7.09-7.08a3.67,3.67,0,0,1,5.19,5.19L214,174.12a3.69,3.69,0,0,1-2.6,1.08Z"/><path class="cls-5" d="M225.22,177.13a3.67,3.67,0,0,1-2.59-6.27l7.08-7.08A3.67,3.67,0,0,1,234.9,169l-7.09,7.08A3.71,3.71,0,0,1,225.22,177.13Z"/><path class="cls-6" d="M164.76,353.35a7.41,7.41,0,0,0-7.4-2.9c-1.47.27-3,.53-4.67.72-2.33-8-5.41-18.12-7.52-23.42a5.5,5.5,0,1,1,10.23-4.06h0C158.18,330.64,162.24,344.48,164.76,353.35Z"/><path class="cls-3" d="M101.87,306.13a39.85,39.85,0,0,1-12.94,8.35,5.51,5.51,0,0,1-4-10.27h0c5.08-1.95,14.29-11.46,14.36-11.5a3.72,3.72,0,0,0,0,3.08A38.18,38.18,0,0,1,101.87,306.13Z"/><path class="cls-2" d="M452.34,274.19c-23,12.63-43.46,38.54-59.12,59.61a363.53,363.53,0,0,0-27.79,48,72.32,72.32,0,0,0-22.36,25.51C338,417.52,331.12,434.47,327.71,441c-2.57,4.93,1.73,9.57,7.37,6.24,4.88-2.89,12.83-26.11,16.8-26.56s-12.61,23.13-9.44,28.66c.82,1.43,2,2.7,5.44,1.57,7-2.32,16.68-30.37,19.85-27.79,1.88,1.53,1.88,18.71,3.43,24.86,1.45,5.82,7.51,4.51,7.89-.51s-.25-27.52,2.08-25c5.56,5.95,9,19.66,13.51,16.21,2.93-2.23.51-11.27-2.94-18.56-2.09-4.42,6.29-19.87,3.56-30.8a1.78,1.78,0,0,1,.46-2c12.1-10.42,83.88-42.11,87.72-72.18,2-15.58-12.67-29.89-31.1-40.94Z"/><path class="cls-3" d="M364.13,387.9a5.51,5.51,0,0,1-1.08-10.9,60.17,60.17,0,0,1,9-1.09,5.51,5.51,0,1,1,.77,11h-.26a50.23,50.23,0,0,0-7.33.88A4.89,4.89,0,0,1,364.13,387.9Z"/></svg>