<svg id="Layer_1" data-name="Layer 1" xmlns="http://www.w3.org/2000/svg" viewBox="0 0 512 512"><defs><style>.cls-1{fill:#d83968;}.cls-2{fill:#ffeade;}.cls-3{fill:#f4e2d9;}.cls-4{fill:#ca3561;}.cls-5{fill:#f6cd80;}</style></defs><path class="cls-1" d="M143.05,452.4l-12.18-7.77c-8.48-5.41-10.93-16.31-5.3-23.64l78-90.15c5-6.54,14.74-7.86,22.32-3l-1.22-3.39c8,5.12,10.73,15.25,6,22.61L166.1,448.34c-4.7,7.36-15,9.18-23,4.06Z"/><path class="cls-1" d="M203.94,495l-14.26-2.31a17.24,17.24,0,0,1-14-21.12L213.31,347.4a17.24,17.24,0,0,1,19.5-12.93l-2.43-2.82a17.25,17.25,0,0,1,14.27,19.78L223.72,480.74A17.25,17.25,0,0,1,203.94,495Z"/><path class="cls-2" d="M254.23,350.27c104.36,0,143.45-185.58,143.45-185.58H108s41.84,185.58,146.21,185.58Z"/><path class="cls-3" d="M334.27,164.69s-30.53,145-112,145-114.2-145-114.2-145,41.84,185.58,146.21,185.58S397.68,164.69,397.68,164.69Z"/><circle class="cls-4" cx="227.8" cy="118.16" r="33.48"/><path class="cls-1" d="M275,41.32a33.46,33.46,0,1,1-13.25,45.43A33.47,33.47,0,0,1,275,41.32Z"/><path class="cls-1" d="M260.3,82.94a33.46,33.46,0,1,1-13.24,45.43A33.47,33.47,0,0,1,260.3,82.94Z"/><path class="cls-4" d="M198.48,47.36a33.46,33.46,0,1,1-13.25,45.43A33.46,33.46,0,0,1,198.48,47.36Z"/><path class="cls-1" d="M231.19,20.89a33.46,33.46,0,1,1-13.25,45.43A33.47,33.47,0,0,1,231.19,20.89Z"/><path class="cls-5" d="M272.27,73.92A21.5,21.5,0,1,1,234.58,94.6h0a21.5,21.5,0,0,1,8.51-29.19h0A21.49,21.49,0,0,1,272.27,73.92Z"/><circle class="cls-4" cx="312.94" cy="139.52" r="33.45" transform="translate(67 378.08) rotate(-68.16)"/><circle class="cls-4" cx="391.19" cy="153" r="33.46" transform="translate(-22.25 78.8) rotate(-11.19)"/><path class="cls-1" d="M361.1,139.06A33.46,33.46,0,1,1,319,160.58,33.46,33.46,0,0,1,361.1,139.06Z"/><circle class="cls-4" cx="334.19" cy="101.54" r="33.45" transform="translate(157.25 402.69) rotate(-76.46)"/><circle class="cls-1" cx="375.89" cy="107.06" r="33.46" transform="translate(9.07 241.97) rotate(-36.09)"/><path class="cls-5" d="M375.87,141.58A21.5,21.5,0,1,1,335,128.33h0A21.49,21.49,0,0,1,362,114.51h0a21.49,21.49,0,0,1,13.83,27.07Z"/><circle class="cls-1" cx="120.81" cy="160.63" r="33.45"/><path class="cls-1" d="M195.08,109.41a33.46,33.46,0,1,1-30.41,36.26,33.45,33.45,0,0,1,30.41-36.26Z"/><path class="cls-1" d="M164.84,141.58a33.46,33.46,0,1,1-30.41,36.25,33.45,33.45,0,0,1,30.41-36.25Z"/><circle class="cls-4" cx="125.54" cy="117.45" r="33.47"/><circle class="cls-1" cx="166.01" cy="106.41" r="33.45"/><path class="cls-5" d="M179.42,138.14a21.49,21.49,0,1,1-42.82,3.75h0a21.49,21.49,0,0,1,19.53-23.29h0A21.49,21.49,0,0,1,179.42,138.14Z"/><circle class="cls-1" cx="243.79" cy="236.84" r="33.45" transform="translate(-78.34 345.28) rotate(-62.78)"/><path class="cls-1" d="M282.54,155.18a33.46,33.46,0,1,1-8.18,46.61A33.46,33.46,0,0,1,282.54,155.18Z"/><path class="cls-1" d="M272.46,198.17a33.46,33.46,0,1,1-8.18,46.61,33.46,33.46,0,0,1,8.18-46.61Z"/><path class="cls-1" d="M207.11,169.59a33.46,33.46,0,1,1-8.18,46.61,33.46,33.46,0,0,1,8.18-46.61Z"/><path class="cls-4" d="M236.71,139.69a33.46,33.46,0,1,1-8.18,46.61,33.46,33.46,0,0,1,8.18-46.61Z"/><path class="cls-5" d="M283.37,187.89a21.5,21.5,0,0,1-35.2,24.69h0a21.5,21.5,0,0,1,5.25-30h0a21.5,21.5,0,0,1,29.94,5.26Z"/><path class="cls-2" d="M252.85,353.43c-29.89,0-41.59,41.5-45.71,68.33-1.32,8.58,4.51,16.44,12.21,16.44h67c7.69,0,13.52-7.86,12.2-16.44-4.12-26.83-15.81-68.33-45.71-68.33Z"/><path class="cls-3" d="M298.56,421.76c-4.12-26.83-15.81-68.33-45.71-68.33a29.81,29.81,0,0,0-8.08,1.09c15.55,5.33,22.08,29.28,24.55,45.43.9,5.85-3.06,11.2-8.31,11.2H215.39a7.87,7.87,0,0,1-5.77-2.6c-1,4.61-1.84,9.08-2.48,13.21-1.32,8.58,4.51,16.44,12.21,16.44h67c7.69,0,13.52-7.86,12.2-16.44Z"/><path class="cls-2" d="M247.33,349.34a5.84,5.84,0,0,1-5.17-3.12L215.26,295a5.83,5.83,0,0,1,10.32-5.42l26.9,51.18a5.83,5.83,0,0,1-5.15,8.54Z"/><path class="cls-2" d="M258.73,350.76a5.75,5.75,0,0,1-2.6-.62,5.83,5.83,0,0,1-2.62-7.81l26-52.13a5.83,5.83,0,0,1,10.43,5.2l-26,52.13a5.84,5.84,0,0,1-5.22,3.23Z"/><path class="cls-1" d="M290.66,379.66H217.79A16.77,16.77,0,0,1,201,362.89v-1a16.77,16.77,0,0,1,16.77-16.77h72.87a16.77,16.77,0,0,1,16.77,16.77v1A16.77,16.77,0,0,1,290.66,379.66Z"/><path class="cls-1" d="M217.79,389.37a26.51,26.51,0,0,1-26.48-26.48v-1a26.51,26.51,0,0,1,26.48-26.48,9.72,9.72,0,0,1,0,19.43,7.05,7.05,0,0,0-7,7.05v1a7.05,7.05,0,0,0,7,7.05,9.72,9.72,0,0,1,0,19.43Z"/></svg>