<svg id="Layer_1" data-name="Layer 1" xmlns="http://www.w3.org/2000/svg" viewBox="0 0 512 512"><defs><style>.cls-1{fill:#f6cd80;}.cls-2{fill:#d83968;}.cls-3{fill:#72563c;}.cls-4{fill:#ffeee6;}.cls-5{fill:#ffdfcf;}.cls-6{fill:#77839e;}.cls-7{fill:#80b6fc;}.cls-8{fill:#65a7ef;}.cls-9{fill:#fca651;}</style></defs><path class="cls-1" d="M423.1,71.19V440.81a46.42,46.42,0,0,1-46.42,46.43H101.08a46.42,46.42,0,0,1-46.42-46.43V71.19a46.42,46.42,0,0,1,46.42-46.43h275.6A46.42,46.42,0,0,1,423.1,71.19Z"/><path class="cls-2" d="M276,400.36a21.67,21.67,0,0,1-6.3,15.3l-30.81,30.59L208,415.66a21.59,21.59,0,0,1,0-30.38,21.35,21.35,0,0,1,15.3-6.3,20.84,20.84,0,0,1,15.07,6.3l.46.46.44-.46A21.49,21.49,0,0,1,276,400.36Z"/><path class="cls-3" d="M100.61,235.16H377.15c7.5,0,7.52-11.66,0-11.66H100.61c-7.5,0-7.51,11.66,0,11.66Z"/><path class="cls-3" d="M100.61,260H377.15c7.5,0,7.52-11.66,0-11.66H100.61c-7.5,0-7.51,11.66,0,11.66Z"/><path class="cls-3" d="M100.61,284.77H377.15c7.5,0,7.52-11.66,0-11.66H100.61c-7.5,0-7.51,11.66,0,11.66Z"/><path class="cls-3" d="M100.61,309.58H377.15c7.5,0,7.52-11.66,0-11.66H100.61c-7.5,0-7.51,11.66,0,11.66Z"/><path class="cls-4" d="M342.62,440.22l-13.93,8.86-16.9-9.74.4-16.32,10.05-2.64,17.18,9.72Z"/><path class="cls-5" d="M311.79,439.34l.4-16.32,10.05-2.64,3.38,1.91-.46,8.06-.4,16.5Z"/><path class="cls-6" d="M328.69,449.08l-4.05,2.57L319.3,455a5.07,5.07,0,0,1-7.79-4.41l.28-11.29c2.32-1.1,6.33-.56,10.19,1.61l0,0c4,2.23,6.53,5.5,6.67,8.11Z"/><path class="cls-7" d="M437.5,257.75,432.28,267l3,9.44L354.74,418.78l-9.65,2.35-4.58,8.11,2.1,11L312.19,423h0l10.73-4.28,4.35-7.69-3-9.48,80.52-142.36,9.63-2.31,5.69-10.06-3.93-7.78,8.51-15a17.47,17.47,0,0,1,23.82-6.6,24.59,24.59,0,0,1,5.41,5l.07.09q6,7.84,1.12,18.71l-8.5,15Z"/><path class="cls-8" d="M454,222.53a17.48,17.48,0,0,0-16.33,8.84l-112.54,199-13-7.33,10.73-4.28,4.35-7.69-3-9.48,80.52-142.36,9.63-2.31,5.69-10.06-3.93-7.78,8.51-15a17.47,17.47,0,0,1,23.82-6.6,24.59,24.59,0,0,1,5.41,5l.07.09Z"/><path class="cls-1" d="M416.24,239.06l30.42,17.21-11.39,20.15-30.43-17.21Z"/><path class="cls-9" d="M416.24,239.06l13,7.34-11.4,20.14-13-7.33Z"/><path class="cls-1" d="M324.32,401.57l30.43,17.21-12.13,21.45L312.19,423Z"/><path class="cls-9" d="M324.32,401.58l13,7.33-12.13,21.44-13-7.33Z"/><path class="cls-3" d="M261.11,120.62a44.46,44.46,0,1,0,44.45,44.46A44.52,44.52,0,0,0,261.11,120.62Zm0,73.22a28.77,28.77,0,1,1,28.76-28.76A28.8,28.8,0,0,1,261.11,193.84Z"/><path class="cls-3" d="M216.65,120.62a44.46,44.46,0,1,0,44.46,44.46A44.51,44.51,0,0,0,216.65,120.62Zm0,73.22a28.77,28.77,0,1,1,28.77-28.76A28.79,28.79,0,0,1,216.65,193.84Z"/><path class="cls-3" d="M261.11,136.31a28.81,28.81,0,0,0-28.77,28.77H216.65a44.52,44.52,0,0,1,44.46-44.46Z"/><path class="cls-3" d="M249.72,76a13.74,13.74,0,0,0-10.84,5.29,13.75,13.75,0,0,0-24.59,8.47c0,17.28,24.59,26.9,24.59,26.9s24.59-9.62,24.59-26.9A13.76,13.76,0,0,0,249.72,76Z"/><path class="cls-3" d="M249.72,76a13.73,13.73,0,0,0-8.42,2.88,13.58,13.58,0,0,1,2.9,2.1l.18.17a.93.93,0,0,1,.14.14,9.71,9.71,0,0,1,.81.89,13.69,13.69,0,0,1,1.9,3c5.43,11.63-3.23,25.17-8,31.36,2.83-1.17,24.28-10.63,24.28-26.77A13.76,13.76,0,0,0,249.72,76Z"/></svg>