<svg id="Layer_1" data-name="Layer 1" xmlns="http://www.w3.org/2000/svg" viewBox="0 0 512 512"><defs><style>.cls-1{fill:#e5e9ea;}.cls-2{fill:#d1d1d1;}.cls-3{fill:#f6cd80;}.cls-4{fill:#e29a4b;}.cls-5{fill:#566368;}.cls-6{fill:#6f7b7f;}.cls-7{fill:#435054;}.cls-8{fill:#fff;}</style></defs><path class="cls-1" d="M120.71,160.42V96.52a9.8,9.8,0,0,0-9.8-9.8H78.26a9.8,9.8,0,0,0-9.8,9.8v63.9"/><path class="cls-2" d="M92.19,160.42V86.72H78.26a9.8,9.8,0,0,0-9.8,9.8v63.9"/><path class="cls-3" d="M479.58,172.06V411.11a29.67,29.67,0,0,1-29.67,29.68H62.09a29.67,29.67,0,0,1-29.67-29.68v-239a29.67,29.67,0,0,1,29.67-29.68h58.69a29.67,29.67,0,0,0,28-19.95l10.83-31.26a29.69,29.69,0,0,1,28-20H360.81a29.66,29.66,0,0,1,28,20l10.85,31.26a29.66,29.66,0,0,0,28,19.95H449.9A29.68,29.68,0,0,1,479.58,172.06Z"/><path class="cls-4" d="M85.37,440.79H62.09a29.67,29.67,0,0,1-29.67-29.68v-239a29.67,29.67,0,0,1,29.67-29.68H83.52v.06a29.68,29.68,0,0,0-27.83,29.62V411.11A29.68,29.68,0,0,0,85.37,440.79Z"/><path class="cls-4" d="M211,71.21a29.69,29.69,0,0,0-28.05,20l-10.83,31.26a29.67,29.67,0,0,1-28,19.95H124.13v-.19a29.67,29.67,0,0,0,24.69-19.76l10.83-31.26a29.68,29.68,0,0,1,28-20Z"/><path class="cls-4" d="M479.58,223.15v188a29.67,29.67,0,0,1-29.67,29.68H62.09a29.67,29.67,0,0,1-29.67-29.68v-188Z"/><path class="cls-4" d="M85.37,440.79H62.09a29.67,29.67,0,0,1-29.67-29.68v-188H55.69v188A29.68,29.68,0,0,0,85.37,440.79Z"/><circle class="cls-1" cx="256" cy="289.31" r="123.65"/><path class="cls-5" d="M343.43,289.31a87.44,87.44,0,1,1-28.84-64.89A87.21,87.21,0,0,1,343.43,289.31Z"/><path class="cls-6" d="M317.81,227.49a87.17,87.17,0,0,1,25.5,66.28A87.43,87.43,0,0,1,251.54,202,87.15,87.15,0,0,1,317.81,227.49Z"/><path class="cls-6" d="M235,310.34a87.22,87.22,0,0,1,25.49,66.28,87.4,87.4,0,0,1-91.76-91.77A87.2,87.2,0,0,1,235,310.34Z"/><path class="cls-7" d="M256,383.58a94.27,94.27,0,1,1,94.27-94.27A94.39,94.39,0,0,1,256,383.58Zm0-174.86a80.59,80.59,0,1,0,80.58,80.59A80.68,80.68,0,0,0,256,208.72Z"/><path class="cls-7" d="M256,254.21a35.1,35.1,0,1,0,35.09,35.1A35.15,35.15,0,0,0,256,254.21Z"/><path class="cls-8" d="M300.42,135.54H354.2A12.81,12.81,0,0,0,367,122.74V108.65a12.81,12.81,0,0,0-12.81-12.8H300.42a12.81,12.81,0,0,0-12.81,12.8v14.09A12.81,12.81,0,0,0,300.42,135.54Z"/><path class="cls-4" d="M354.2,142.39H300.42a19.67,19.67,0,0,1-19.65-19.65V108.65A19.67,19.67,0,0,1,300.42,89H354.2a19.67,19.67,0,0,1,19.65,19.65v14.09A19.68,19.68,0,0,1,354.2,142.39Zm-53.78-39.7a6,6,0,0,0-6,6v14.09a6,6,0,0,0,6,6H354.2a6,6,0,0,0,6-6V108.65a6,6,0,0,0-6-6Z"/><circle class="cls-5" cx="117.42" cy="390.71" r="24.75"/></svg>