<svg id="Layer_1" data-name="Layer 1" xmlns="http://www.w3.org/2000/svg" viewBox="0 0 512 512"><defs><style>.cls-1{fill:none;}.cls-2{fill:#5f266d;}.cls-3{fill:#ffe2e2;}.cls-4{fill:#b57a4e;}.cls-5{fill:#fed9a8;}.cls-6{fill:#ffbb98;}.cls-7{fill:#87828e;}.cls-8{fill:#796e84;}.cls-9{fill:#ffefee;}.cls-10{fill:#ffcfcf;}.cls-11{fill:#fcdbb4;}.cls-12{fill:#a4a4a5;}.cls-13{fill:#72563c;}</style></defs><path class="cls-1" d="M444.57,135.53a39.7,39.7,0,0,0-12.74-11.93,58.64,58.64,0,0,1,8.55,49.18l-9.19,40.79c8.06-17.3,11.34-23.48,13.35-27.25a63.45,63.45,0,0,0,4-8.71h0A45.18,45.18,0,0,0,444.57,135.53Z"/><path class="cls-1" d="M414.84,127.52v88.6l10.56-46.86c0-.08,0-.18.07-.28h0C429.15,155.06,425.79,138,414.84,127.52Z"/><path class="cls-1" d="M388,169l.06.28,11.45,50.83V126.69C387.8,137.07,384.16,154.69,388,169Z"/><path class="cls-1" d="M381.59,123.6a39.66,39.66,0,0,0-12.75,11.94,45.21,45.21,0,0,0-4,42.08,65.11,65.11,0,0,0,4,8.7c2,3.77,5.29,9.93,13.35,27.25L373,172.78A58.61,58.61,0,0,1,381.59,123.6Z"/><path class="cls-2" d="M457.29,126.87a55.56,55.56,0,0,0-38.52-23.78l-.28,0a107.71,107.71,0,0,0-23.54,0l-.33,0a55.54,55.54,0,0,0-38.5,23.78,60.55,60.55,0,0,0-5.56,56.37c4.65,11.82,2.9,4.78,19.32,40.28C375.23,235.1,397,270,399.46,274.34v38.85h15.38v-39c.73-1.31,3.22-5.55,5.67-9.71,33.23-56.53,19.52-36.9,37.61-70.9a77.78,77.78,0,0,0,4.73-10.29A60.57,60.57,0,0,0,457.29,126.87Zm-88.42,59.45a65.11,65.11,0,0,1-4-8.7,45.21,45.21,0,0,1,4-42.08,39.66,39.66,0,0,1,12.75-11.94A58.61,58.61,0,0,0,373,172.78l9.18,40.79C374.16,196.25,370.88,190.09,368.87,186.32Zm30.59,33.78L388,169.27,388,169c-3.79-14.3-.15-31.92,11.51-42.3Zm26-51.12c0,.1-.05.2-.07.28l-10.56,46.86v-88.6c11,10.47,14.31,27.54,10.63,41.46Zm23.07,8.63a63.45,63.45,0,0,1-4,8.71c-2,3.77-5.29,10-13.35,27.25l9.19-40.79a58.64,58.64,0,0,0-8.55-49.18,39.7,39.7,0,0,1,12.74,11.93,45.18,45.18,0,0,1,4,42.08Z"/><path class="cls-3" d="M296.72,40.74a43.39,43.39,0,0,0-30.89,12.88,53.89,53.89,0,0,0-99.9,0,43.5,43.5,0,1,0-30.88,74.13v35.83H296.72V127.75a43.51,43.51,0,0,0,0-87Z"/><path class="cls-4" d="M184.48,303.87v28.75H164v16.65c-58.07,31.65-98.28,5.62-117.3-13.06a6.85,6.85,0,0,1,4.87-11.75c52.11,1.41,87.26-67.76,87.26-67.76l.48-1.44A81.48,81.48,0,0,0,184.48,303.87Z"/><path class="cls-5" d="M273.42,163.57l-3.11,1.15L135,208.68v20.73a80.3,80.3,0,0,0,4.27,25.85,81.48,81.48,0,0,0,45.17,48.61,80.26,80.26,0,0,0,29.93,6.36c.5,0,1,0,1.48,0a80.09,80.09,0,0,0,31.4-6.38,81.13,81.13,0,0,0,49.42-74.46V163.57Z"/><path class="cls-6" d="M247.29,303.87v28.75H184.48V303.87a80.26,80.26,0,0,0,29.93,6.36c.5,0,1,0,1.48,0a80.09,80.09,0,0,0,31.4-6.38Z"/><path class="cls-4" d="M273.42,163.57l-3.11,1.15L135,208.68V163.57Z"/><path class="cls-3" d="M407.66,492.05H109.47A16.18,16.18,0,0,1,93.3,475.87h0V474.3a122.39,122.39,0,0,1,46.34-96c1.92-1.52,3.87-3,5.85-4.37A125.76,125.76,0,0,1,164,363.19V332.62H267.77v30.57a124.78,124.78,0,0,1,18.5,10.71c2,1.41,4,2.85,5.84,4.37a122.6,122.6,0,0,1,41,60.15h50.51V468a24,24,0,0,0,24,24Z"/><path class="cls-7" d="M416.53,342.79a30.26,30.26,0,0,0,15.15,51v44.63h-48V318a8.29,8.29,0,0,1,8.29-8.28h31.48a8.27,8.27,0,0,1,8.27,8.27h0v16.62a30,30,0,0,0-15.15,8.21Z"/><path class="cls-6" d="M442.45,333.93h-4.52a30.26,30.26,0,1,0,0,60.51h4.52a8.29,8.29,0,0,0,8.29-8.29V342.21a8.29,8.29,0,0,0-8.29-8.28Z"/><path class="cls-8" d="M407.66,438.42h-24V468a24,24,0,0,0,48,0V438.42Z"/><path class="cls-9" d="M120.39,84.25a43.5,43.5,0,0,1,29.08-41A43.5,43.5,0,1,0,135,127.75v35.82h28.85V127.75A43.52,43.52,0,0,1,120.39,84.25Z"/><path class="cls-9" d="M192.85,332.62v30.57a125.86,125.86,0,0,0-18.52,10.71c-2,1.41-3.92,2.85-5.84,4.37a122.37,122.37,0,0,0-46.35,96v1.56a16.18,16.18,0,0,0,16.16,16.19H109.47A16.18,16.18,0,0,1,93.3,475.87h0V474.3a122.39,122.39,0,0,1,46.34-96c1.92-1.52,3.87-3,5.85-4.37A125.76,125.76,0,0,1,164,363.19V332.62Z"/><path class="cls-10" d="M296.71,40.75a43.13,43.13,0,0,0-14.41,2.46,43.5,43.5,0,0,1-14.44,84.54v35.82h28.85V127.75a43.5,43.5,0,0,0,0-87Z"/><path class="cls-10" d="M302.57,387.6a122.62,122.62,0,0,1,30.56,50.82H304.28a122.58,122.58,0,0,0-41-60.15c-1.89-1.52-3.85-3-5.85-4.37a124.27,124.27,0,0,0-18.5-10.71V332.62h28.85v30.57a124.78,124.78,0,0,1,18.5,10.71c2,1.41,4,2.85,5.84,4.37A121.79,121.79,0,0,1,302.57,387.6Z"/><path class="cls-10" d="M407.66,492.05H378.82a24,24,0,0,1-24-24V438.42h28.84V468A24,24,0,0,0,407.66,492.05Z"/><path class="cls-11" d="M163.89,208.68v20.73a80,80,0,0,0,4.27,25.85,81.43,81.43,0,0,0,45.17,48.61,79.41,79.41,0,0,0,17,5.08,79.68,79.68,0,0,1-14.46,1.3c-.5,0-1,0-1.48,0a80.26,80.26,0,0,1-29.93-6.36,81.48,81.48,0,0,1-45.17-48.61A80.3,80.3,0,0,1,135,229.41V208.68l135.26-44,3.12-1.15h23.29v1.94Z"/><path class="cls-11" d="M296.71,163.57v65.84a81.13,81.13,0,0,1-49.42,74.46,80.09,80.09,0,0,1-31.4,6.38c-.5,0-1,0-1.48,0A78.77,78.77,0,0,1,201.5,309a81,81,0,0,0,66.36-79.54v-63.9l2.45-.79,3.11-1.15Z"/><path class="cls-12" d="M420.78,309.68a8.29,8.29,0,0,0-8.29,8.28v29.83a30.24,30.24,0,0,0,0,32.79v57.84H383.64V318a8.29,8.29,0,0,1,8.29-8.28Z"/><path class="cls-7" d="M422.08,487.24A24,24,0,0,1,383.64,468V438.42h28.85V468A24,24,0,0,0,422.08,487.24Z"/><circle class="cls-13" cx="176.08" cy="219.69" r="10.83"/><circle class="cls-13" cx="255.68" cy="219.67" r="10.83" transform="translate(-43.68 64.71) rotate(-13.3)"/><path class="cls-2" d="M212.63,137.38h19.23a7.69,7.69,0,1,0,0-15.38H212.63a7.69,7.69,0,0,0,0,15.38Z"/><path class="cls-2" d="M260.71,137.38h9.59a7.69,7.69,0,1,0,0-15.38h-9.59a7.69,7.69,0,1,0,0,15.38Z"/><circle class="cls-2" cx="222.87" cy="412.18" r="9.69" transform="translate(-88.84 62.32) rotate(-13.3)"/><circle class="cls-2" cx="222.75" cy="453.62" r="9.69" transform="translate(-255.51 290.37) rotate(-45)"/><path class="cls-13" d="M231.6,240.46a7.69,7.69,0,0,0-7.7,7.69,8,8,0,0,1-16,0,7.69,7.69,0,0,0-15.38,0,23.41,23.41,0,1,0,46.81,0A7.69,7.69,0,0,0,231.6,240.46Z"/></svg>