<svg id="Layer_1" data-name="Layer 1" xmlns="http://www.w3.org/2000/svg" viewBox="0 0 512 512"><defs><style>.cls-1{fill:#80b6fc;}.cls-2{fill:#77839e;}.cls-3{fill:#65a7ef;}.cls-4{fill:#edf7fc;}.cls-5{fill:#f6cd80;}.cls-6{fill:#d83968;}.cls-7{fill:#ca3561;}.cls-8{fill:#dce9f7;}.cls-9{fill:#fca651;}.cls-10{fill:#ffeee6;}.cls-11{fill:#ffdfcf;}</style></defs><path class="cls-1" d="M395.35,53.85V488a6.53,6.53,0,0,1-6.53,6.53H74A6.53,6.53,0,0,1,67.44,488V53.85A6.52,6.52,0,0,1,74,47.33h71.16a6.53,6.53,0,0,1,3.8,1.21l9.65,6.9a6.53,6.53,0,0,0,3.8,1.21H301.11a6.51,6.51,0,0,0,4-1.33l8.74-6.66a6.58,6.58,0,0,1,4-1.33h71.05a6.52,6.52,0,0,1,6.53,6.52Z"/><path class="cls-2" d="M246.37,61.73H216.56a7.21,7.21,0,0,1-7.2-7.2V39.62a22.11,22.11,0,0,1,44.21,0V54.53a7.2,7.2,0,0,1-7.2,7.2Zm-22.61-14.4h15.41V39.62a7.71,7.71,0,1,0-15.41,0v7.71Z"/><path class="cls-3" d="M334.76,47.33V57.55a48,48,0,0,1-48,48H176a48,48,0,0,1-48-48V47.33Z"/><path class="cls-3" d="M86.63,47.33V494.48H74A6.53,6.53,0,0,1,67.44,488V53.85A6.52,6.52,0,0,1,74,47.33Z"/><path class="cls-4" d="M358.62,464.74H103.39a6.53,6.53,0,0,1-6.53-6.53V83.74a6.53,6.53,0,0,1,6.53-6.53H358.62a6.53,6.53,0,0,1,6.53,6.53V458.21A6.53,6.53,0,0,1,358.62,464.74Z"/><path class="cls-5" d="M260.09,242a58.17,58.17,0,1,0,58.16,58.16A58.23,58.23,0,0,0,260.09,242Zm0,95.8a37.64,37.64,0,1,1,37.63-37.64A37.69,37.69,0,0,1,260.09,337.83Z"/><path class="cls-5" d="M201.93,242a58.17,58.17,0,1,0,58.16,58.16A58.23,58.23,0,0,0,201.93,242Zm0,95.8a37.64,37.64,0,1,1,37.63-37.64A37.69,37.69,0,0,1,201.93,337.83Z"/><path class="cls-5" d="M260.09,262.56a37.68,37.68,0,0,0-37.64,37.63H201.93A58.23,58.23,0,0,1,260.09,242Z"/><path class="cls-6" d="M245.19,183.6A18,18,0,0,0,231,190.51a18,18,0,0,0-32.18,11.08c0,22.61,32.18,35.2,32.18,35.2s32.17-12.59,32.17-35.2A18,18,0,0,0,245.19,183.6Z"/><path class="cls-7" d="M245.19,183.6a17.89,17.89,0,0,0-11,3.76,18.15,18.15,0,0,1,3.79,2.75l.23.21.19.19a14.72,14.72,0,0,1,1.06,1.17,17.79,17.79,0,0,1,2.48,3.91c7.1,15.22-4.22,32.93-10.52,41,3.7-1.54,31.77-13.92,31.77-35A18,18,0,0,0,245.19,183.6Z"/><path class="cls-8" d="M330.57,77.14a48,48,0,0,1-43.8,28.39H176a48,48,0,0,1-43.8-28.39Z"/><path class="cls-8" d="M116.45,77.14V464.67H103.78a6.52,6.52,0,0,1-6.52-6.53V83.67a6.53,6.53,0,0,1,6.52-6.53Z"/><path class="cls-5" d="M287.58,86.33H175.21a28,28,0,0,1-28-28v-11H315.57v11A28,28,0,0,1,287.58,86.33Z"/><path class="cls-9" d="M204.81,86.34H176a28.79,28.79,0,0,1-28.79-28.79V47.33H176V57.55A28.79,28.79,0,0,0,204.81,86.34Z"/><path class="cls-10" d="M326.49,424.67l-14.33,9.1-17.39-10,.41-16.8,10.34-2.71,17.68,10Z"/><path class="cls-11" d="M294.76,423.75l.42-16.8,10.34-2.71,3.48,2-.47,8.3-.42,17Z"/><path class="cls-2" d="M312.16,433.77,308,436.42l-5.5,3.49a5.21,5.21,0,0,1-8-4.53l.29-11.63c2.38-1.13,6.51-.57,10.48,1.66l0,0c4.06,2.3,6.73,5.67,6.87,8.34Z"/><path class="cls-1" d="M424.14,236.88l-5.37,9.49,3.07,9.72L339,402.6,329,405l-4.72,8.35,2.17,11.31L295.18,407h0l11-4.41,4.48-7.91-3-9.75,82.87-146.51,9.9-2.38,5.86-10.36-4-8L411,202.17a18,18,0,0,1,24.52-6.79,25.34,25.34,0,0,1,5.57,5.15.36.36,0,0,0,.07.1q6.16,8.07,1.15,19.25l-8.74,15.47Z"/><path class="cls-3" d="M441.16,200.63a18,18,0,0,0-16.8,9.09L308.53,414.5,295.19,407l11-4.41,4.48-7.91-3-9.75,82.87-146.51,9.9-2.38,5.86-10.36-4-8L411,202.17a18,18,0,0,1,24.52-6.79,25.34,25.34,0,0,1,5.57,5.15.36.36,0,0,0,.07.1Z"/><path class="cls-5" d="M402.26,217.64l31.31,17.71-11.73,20.74-31.31-17.71Z"/><path class="cls-9" d="M402.26,217.64l13.35,7.55-11.73,20.73-13.34-7.55Z"/><path class="cls-5" d="M307.66,384.89,339,402.6l-12.49,22.07L295.18,407Z"/><path class="cls-9" d="M307.67,384.89,321,392.44l-12.48,22.07L295.18,407Z"/></svg>