<svg id="Layer_1" data-name="Layer 1" xmlns="http://www.w3.org/2000/svg" viewBox="0 0 512 512"><defs><style>.cls-1{fill:#d83968;}.cls-2{fill:#ca3561;}.cls-3{fill:#ffe7de;}.cls-4{fill:#f9d8cd;}.cls-5{fill:#f6cd80;}.cls-6{fill:#ea9d2d;}</style></defs><g id="Baby_Girl_Shoes" data-name="Baby Girl Shoes"><g id="Flat"><path class="cls-1" d="M175.4,457.59c-35.6,0-68.43-23-78.7-58.34l-34.64-119a97.14,97.14,0,0,1,8.43-74.77,99.89,99.89,0,0,1,60.79-47.88c33.38-9.41,68.3,9.65,77.86,42.48l45,154.67a79,79,0,0,1-6.85,60.79,81.2,81.2,0,0,1-49.39,38.9,83.28,83.28,0,0,1-22.52,3.13Z"/><path class="cls-2" d="M254.16,354.77,242,313.14A138.8,138.8,0,0,1,115.54,432a82.77,82.77,0,0,0,82.37,22.48,81.11,81.11,0,0,0,49.39-38.9,79,79,0,0,0,6.86-60.79Z"/><path class="cls-3" d="M111.38,343.43a6.29,6.29,0,0,1-6-4.54l-19-65.44a72.88,72.88,0,0,1,6.35-56.11,74.94,74.94,0,0,1,45.57-35.93c20-5.64,41,5.81,46.69,25.52l29.44,101.13a6.29,6.29,0,0,1-4.28,7.81H210l-96.9,27.31A6.27,6.27,0,0,1,111.38,343.43Z"/><path class="cls-4" d="M178.78,194.83a38.15,38.15,0,0,0-40.57-13.42,74.94,74.94,0,0,0-45.57,35.93,72.88,72.88,0,0,0-6.35,56.11L93.72,299a132.46,132.46,0,0,1,85.06-104.13Z"/><path class="cls-5" d="M73.29,315.05a18.88,18.88,0,0,1-18.14-13.5,18.39,18.39,0,0,1,1.59-14.17,18.68,18.68,0,0,1,11.37-9L225.61,234a6.3,6.3,0,0,1,7.76,4.3l6.93,23.8a6.31,6.31,0,0,1-4.29,7.81h0L78.43,314.34a19.09,19.09,0,0,1-5.14.71Z"/><path class="cls-5" d="M143.58,417.47a21,21,0,0,1-5.9-.84,19.77,19.77,0,0,1-13.62-13.45l-6.27-21.51a19.5,19.5,0,0,1,4.29-18.53,20.77,20.77,0,0,1,19.16-6.64,6.2,6.2,0,0,1,.72.16l19.68,5.83a6.31,6.31,0,0,1,4.26,4.28l6.93,23.8a6.27,6.27,0,0,1-1.35,5.95l-13.56,15.19c-.17.19-.35.36-.53.53a20.79,20.79,0,0,1-13.81,5.23Z"/><path class="cls-5" d="M213.24,397.84a21,21,0,0,1-3.63-.31,6.25,6.25,0,0,1-.72-.17l-19.68-5.83a6.31,6.31,0,0,1-4.26-4.28L178,363.46a6.3,6.3,0,0,1,1.36-5.95l13.56-15.19c.17-.18.34-.36.53-.53a20.87,20.87,0,0,1,19.7-4.39,19.81,19.81,0,0,1,13.63,13.44l6.26,21.52a19.5,19.5,0,0,1-4.29,18.53,20.67,20.67,0,0,1-15.53,6.95Z"/><path class="cls-6" d="M233.06,372.36l-6.26-21.52a19.61,19.61,0,0,0-10-12,50.34,50.34,0,0,1-22.18,54.29l14.24,4.22a6.25,6.25,0,0,0,.72.17,21.1,21.1,0,0,0,3.63.31,20.74,20.74,0,0,0,15.53-6.95,19.51,19.51,0,0,0,4.29-18.53Z"/><circle class="cls-6" cx="79.61" cy="293.8" r="6.3"/><path class="cls-6" d="M240.29,262.13l-6.93-23.8a6.29,6.29,0,0,0-7.75-4.3l-25.15,7.09a104.15,104.15,0,0,1-33.06,48.15L236,270a6.3,6.3,0,0,0,4.36-7.77l0-.05Z"/><path class="cls-6" d="M172.82,390.56l-6.93-23.79a6.27,6.27,0,0,0-4.26-4.28l-12.76-3.78c0,.41,0,.82,0,1.24a28.35,28.35,0,0,1-28.35,28.35l-.84,0,4.34,14.9a19.8,19.8,0,0,0,13.63,13.45,20.91,20.91,0,0,0,19.7-4.39,6.62,6.62,0,0,0,.53-.53l13.56-15.19a6.29,6.29,0,0,0,1.35-6Z"/><path class="cls-5" d="M166.77,398.63a6.31,6.31,0,0,1-6-4.54l-6.93-23.8a6.29,6.29,0,0,1,4.28-7.81l.06,0,24.22-6.82a6.3,6.3,0,0,1,7.76,4.3l6.93,23.8a6.3,6.3,0,0,1-4.29,7.81h0l-24.23,6.83a6.14,6.14,0,0,1-1.71.24Z"/><path class="cls-6" d="M197.05,383.74l-6.93-23.8a6.28,6.28,0,0,0-3.75-4.1,44.16,44.16,0,0,1-26.52,35.26l.87,3a6.3,6.3,0,0,0,7.76,4.3l24.23-6.82a6.3,6.3,0,0,0,4.35-7.78v-.05Z"/><path class="cls-1" d="M314.08,353.66a81.14,81.14,0,0,1-49.39-38.9A79,79,0,0,1,257.84,254l45-154.67c9.56-32.83,44.49-51.89,77.86-42.49a99.92,99.92,0,0,1,60.79,47.88,97.12,97.12,0,0,1,8.42,74.78l-34.63,119c-10.27,35.29-43.1,58.34-78.7,58.33a82.82,82.82,0,0,1-22.52-3.12Z"/><path class="cls-2" d="M300.1,305.88a157.34,157.34,0,0,1-41.68-5.59,81.25,81.25,0,0,0,55.66,53.37,82.82,82.82,0,0,0,22.52,3.12c35.6,0,68.43-23,78.7-58.33l20.32-69.79A157.42,157.42,0,0,1,300.1,305.88Z"/><path class="cls-5" d="M354.61,311.43a6.62,6.62,0,0,1-.53-.53l-13.56-15.18a6.29,6.29,0,0,1-1.35-6L346.1,266a6.31,6.31,0,0,1,4.26-4.28L370,255.86a5.4,5.4,0,0,1,.72-.17,20.78,20.78,0,0,1,19.15,6.64,19.51,19.51,0,0,1,4.3,18.53l-6.27,21.52a19.73,19.73,0,0,1-13.63,13.44,20.82,20.82,0,0,1-19.7-4.39Z"/><path class="cls-5" d="M283.23,290.09a19.49,19.49,0,0,1-4.29-18.53L285.2,250a19.8,19.8,0,0,1,13.63-13.45,20.86,20.86,0,0,1,19.7,4.4c.18.16.36.34.53.52l13.56,15.19a6.29,6.29,0,0,1,1.35,6L327,286.46a6.3,6.3,0,0,1-4.26,4.27l-19.68,5.83a5.4,5.4,0,0,1-.72.17,21,21,0,0,1-3.63.31,20.72,20.72,0,0,1-15.52-7Z"/><path class="cls-6" d="M332.62,256.7,324,247a37.8,37.8,0,0,1-45.55,26.78,19.6,19.6,0,0,0,4.8,16.29,20.74,20.74,0,0,0,15.53,7,21.11,21.11,0,0,0,3.63-.32,6.2,6.2,0,0,0,.72-.16l19.68-5.83a6.31,6.31,0,0,0,4.26-4.28l6.93-23.8A6.3,6.3,0,0,0,332.62,256.7Z"/><path class="cls-6" d="M389.91,262.33a20.74,20.74,0,0,0-1.89-1.86A37.81,37.81,0,0,1,338.94,292a6.3,6.3,0,0,0,1.58,3.72l13.56,15.18a4.42,4.42,0,0,0,.53.53,20.79,20.79,0,0,0,13.8,5.24,21,21,0,0,0,5.9-.84,19.8,19.8,0,0,0,13.63-13.45l6.26-21.52a19.51,19.51,0,0,0-4.29-18.53Z"/><path class="cls-3" d="M398.9,242.38,302,215.08a6.3,6.3,0,0,1-4.36-7.77l0-.05,29.44-101.14c5.74-19.7,26.69-31.15,46.7-25.51a74.89,74.89,0,0,1,45.56,35.93,72.88,72.88,0,0,1,6.35,56.11l-19.05,65.43a6.28,6.28,0,0,1-7.75,4.31Z"/><path class="cls-4" d="M394.6,111.11A95,95,0,0,1,417.86,114a74.89,74.89,0,0,0-44.07-33.39c-20-5.64-41,5.81-46.7,25.52l-16.17,55.54A94.48,94.48,0,0,1,394.6,111.11Z"/><path class="cls-4" d="M300.1,205.61c0-2.66.12-5.29.33-7.9l-2.78,9.55a6.27,6.27,0,0,0,2.86,7.18q-.4-4.37-.41-8.83Z"/><path class="cls-5" d="M433.57,213.53,276,169.15a6.3,6.3,0,0,1-4.35-7.77v-.06l6.93-23.79a6.31,6.31,0,0,1,7.76-4.31l157.5,44.38a18.71,18.71,0,0,1,11.37,9,18.4,18.4,0,0,1,1.59,14.17,18.93,18.93,0,0,1-23.28,12.79Z"/><path class="cls-6" d="M455.26,186.57a18.71,18.71,0,0,0-11.37-9l-28.58-8a78.86,78.86,0,0,1-41.49,27.15l59.75,16.83a18.92,18.92,0,0,0,23.28-12.79A18.4,18.4,0,0,0,455.26,186.57Z"/><circle class="cls-5" cx="432.39" cy="193" r="6.3"/><path class="cls-5" d="M343.51,297.58l-24.22-6.82a6.3,6.3,0,0,1-4.36-7.77v-.06l6.93-23.79a6.3,6.3,0,0,1,7.76-4.3l24.23,6.82a6.29,6.29,0,0,1,4.35,7.77v.06l-6.93,23.79a6.29,6.29,0,0,1-7.76,4.3Z"/><path class="cls-6" d="M328.45,281.2a34.24,34.24,0,0,1-12.34-2.27l-1.17,4a6.3,6.3,0,0,0,4.29,7.81l.06,0,24.22,6.82a6.29,6.29,0,0,0,7.76-4.3l6.93-23.79a6.34,6.34,0,0,0-.4-4.53,34.6,34.6,0,0,1-29.35,16.24Z"/><circle class="cls-6" cx="167.8" cy="369.4" r="6.3"/><circle class="cls-6" cx="331.6" cy="268.61" r="6.3"/></g></g></svg>