<svg id="Layer_1" data-name="Layer 1" xmlns="http://www.w3.org/2000/svg" viewBox="0 0 512 512"><defs><style>.cls-1{fill:#736572;}.cls-2{fill:#d83968;}.cls-3{fill:#ca3561;}.cls-4{fill:#eceaec;}.cls-5{fill:#615260;}</style></defs><path class="cls-1" d="M191.31,408.21H374v30.44H191.31Z"/><path class="cls-2" d="M401.89,78.49a31.07,31.07,0,0,0-2.29-4.58l-11-10.59a30.13,30.13,0,0,0-4.79-2.2L290.25,27.69l-7.61,7.61V187.51h152.2l7.61-7.61Z"/><path class="cls-3" d="M399.6,73.91a30.29,30.29,0,0,0-11-10.59l-85.23,91.31a7.61,7.61,0,0,1-13.17-5.2V27.69a7.61,7.61,0,0,0-7.61-7.61H267.42a7.61,7.61,0,0,0-7.61,7.61V195.12h30.44l3.31-7.61Z"/><path class="cls-2" d="M433.58,225.56,429,280.73a22.83,22.83,0,0,1-22.75,20.93H143.83l-20-20.93L118,210.34l4.81-15.22H427.23Z"/><path class="cls-3" d="M122.82,195.12l-7.61,15.22,5.86,70.39a22.84,22.84,0,0,0,22.76,20.93h.06L139.3,242a15.22,15.22,0,0,1,15.18-16.39h279.1l1.26-15.22-7.61-15.22Z"/><path class="cls-2" d="M442.45,202.73H107.6V187.51a7.6,7.6,0,0,1,7.61-7.61H442.45a7.6,7.6,0,0,1,7.61,7.61v7.61a7.61,7.61,0,0,1-7.61,7.61Z"/><path class="cls-3" d="M122.82,195.12a7.61,7.61,0,0,1-7.61-7.61V179.9H107.6a7.6,7.6,0,0,0-7.61,7.61v15.22a7.61,7.61,0,0,0,7.61,7.61H442.45a7.62,7.62,0,0,0,7.62-7.61v-7.61Z"/><path class="cls-4" d="M383.41,353.63l-77.29-77.3L280.4,257l-22-28.39L121.9,92.11A37.81,37.81,0,0,0,95,81H92.38a7.61,7.61,0,1,0,0,15.22H95a22.68,22.68,0,0,1,16.14,6.69L247.4,239.13l23.69,19.1-21.7,27.25-71.2,111.61A7.61,7.61,0,0,0,191,405.28l70.9-111.16,15.17-31.39,18.37,24.46,77.19,77.2a30.26,30.26,0,0,1,8.92,21.53v22.29a7.61,7.61,0,0,0,15.22,0V385.92a45.35,45.35,0,0,0-13.38-32.29Z"/><path class="cls-4" d="M160.87,400.6a38,38,0,1,0,38,38,38,38,0,0,0-38-38Zm0,53.27a15.22,15.22,0,1,1,15.22-15.22A15.21,15.21,0,0,1,160.87,453.87Z"/><path class="cls-5" d="M160.87,385.38a53.27,53.27,0,1,0,53.27,53.27A53.27,53.27,0,0,0,160.87,385.38Zm0,83.71a30.44,30.44,0,1,1,30.44-30.44A30.44,30.44,0,0,1,160.87,469.09Z"/><path class="cls-5" d="M389.18,400.6a45.66,45.66,0,1,0,45.66,45.66A45.66,45.66,0,0,0,389.18,400.6Z"/><circle class="cls-4" cx="389.18" cy="446.26" r="22.83"/><path class="cls-5" d="M92.38,81H69.55a7.61,7.61,0,1,0,0,15.22H92.38V81Z"/><path class="cls-1" d="M258.42,228.63l-11,10.5,19.26,19.27-17.27,27.08,12.53,8.64,15.76-24.7,17.78,17.78,10.66-10.87Z"/></svg>