<svg id="Layer_1" data-name="Layer 1" xmlns="http://www.w3.org/2000/svg" viewBox="0 0 512 512"><defs><style>.cls-1{fill:#3397e8;}.cls-2{fill:#ffb632;}.cls-3{fill:#e9eef2;}.cls-4{fill:#35a872;}.cls-5{fill:#eb423f;}.cls-6{fill:#95573a;}.cls-7{fill:#a36f58;}.cls-8{fill:#ad6643;}.cls-9{fill:#7a4830;}</style></defs><path class="cls-1" d="M318.36,228.27h97.06v97.06H318.36Z"/><path class="cls-2" d="M366.89,325.33H464V422.4H366.89Z"/><circle class="cls-3" cx="366.89" cy="276.8" r="20.8"/><path class="cls-4" d="M269.83,325.33h97.06V422.4H269.83Z"/><path class="cls-3" d="M297.56,353.06h41.6v41.6h-41.6Z"/><path class="cls-5" d="M415.42,228.27H318.36l48.53-69.33Z"/><path class="cls-3" d="M436.22,394.66h-41.6l20.8-41.6Z"/><path class="cls-6" d="M82.63,366.93a34.67,34.67,0,0,1-34.58-32.35q.15-4.87.66-9.52c7.23-66.69,66.21-96.79,137.92-96.79s130.69,30.1,137.92,96.79q.51,4.65.66,9.52a34.67,34.67,0,0,1-34.58,32.35Z"/><ellipse class="cls-7" cx="186.63" cy="346.13" rx="69.33" ry="97.06"/><circle class="cls-6" cx="269.83" cy="96.54" r="41.6"/><circle class="cls-6" cx="103.43" cy="96.54" r="41.6"/><ellipse class="cls-8" cx="186.63" cy="172.8" rx="104" ry="97.06"/><path class="cls-9" d="M186.63,242.13c-30.58,0-55.47-20.21-55.47-45.06a6.94,6.94,0,0,1,13.87,0c0,17.2,18.66,31.2,41.6,31.2s41.6-14,41.6-31.2a6.93,6.93,0,0,1,13.86,0C242.09,221.92,217.21,242.13,186.63,242.13Z"/><circle class="cls-9" cx="228.23" cy="158.94" r="6.93"/><circle class="cls-9" cx="145.03" cy="158.94" r="6.93"/><path class="cls-9" d="M186.63,235.2a6.93,6.93,0,0,1-6.93-6.93v-41.6a6.93,6.93,0,0,1,13.86,0v41.6A6.93,6.93,0,0,1,186.63,235.2Z"/><ellipse class="cls-9" cx="117.3" cy="401.6" rx="48.53" ry="55.47"/><ellipse class="cls-9" cx="255.96" cy="401.6" rx="48.53" ry="55.47"/><path class="cls-9" d="M203.41,190.51l-11.77,8.4a8.52,8.52,0,0,1-10,0l-11.77-8.4a9.86,9.86,0,0,1-4-8c0-5.33,4-9.67,9-9.67H198.4c5,0,9,4.34,9,9.67a9.86,9.86,0,0,1-4,8Z"/></svg>