<svg id="Layer_1" data-name="Layer 1" xmlns="http://www.w3.org/2000/svg" viewBox="0 0 512 512"><defs><style>.cls-1{fill:#eb423f;}.cls-2{fill:#3397e8;}.cls-3{fill:#a0e557;}.cls-4{fill:#fff;}</style></defs><path class="cls-1" d="M221.34,256H77.5a34.66,34.66,0,0,0-34.66,34.66V434.5A34.66,34.66,0,0,0,77.5,469.16H221.34A34.66,34.66,0,0,0,256,434.5V290.66A34.66,34.66,0,0,0,221.34,256Z"/><path class="cls-2" d="M434.5,256H290.66A34.66,34.66,0,0,0,256,290.66V434.5a34.66,34.66,0,0,0,34.66,34.66H434.5a34.66,34.66,0,0,0,34.66-34.66V290.66A34.66,34.66,0,0,0,434.5,256Z"/><path class="cls-3" d="M327.92,42.84H184.08A34.66,34.66,0,0,0,149.42,77.5V221.34A34.66,34.66,0,0,0,184.08,256H327.92a34.66,34.66,0,0,0,34.66-34.66V77.5A34.66,34.66,0,0,0,327.92,42.84Z"/><path class="cls-4" d="M244.07,175.42a8.67,8.67,0,1,0,0,17.33h27.38a8.67,8.67,0,0,0,0-17.33h-5V114.76a8.66,8.66,0,0,0-16.13-4.4l-12.14,20.56a8.67,8.67,0,0,0,10.94,12.35v32.15Z"/><path class="cls-4" d="M170.26,388.57H151.49c10.77-11.09,22.33-26.65,22.33-42.36,0-16.12-10.83-27-26.95-27a27,27,0,0,0-27,27,8.67,8.67,0,0,0,17.33,0,9.64,9.64,0,0,1,9.63-9.63c8.63,0,9.62,5.5,9.62,9.63,0,16.06-24.47,37.73-33.05,44.05a8.66,8.66,0,0,0,5.14,15.64h41.68a8.67,8.67,0,1,0,0-17.33Z"/><path class="cls-4" d="M361.43,319.42h-15a8.67,8.67,0,0,0,0,17.33h15a8.61,8.61,0,0,1,1.27,17.13c-.42,0-.84,0-1.27,0h-15a8.67,8.67,0,0,0,0,17.33h6a9.17,9.17,0,0,0,1.49.13h7.47c.43,0,.85,0,1.27,0a8.61,8.61,0,0,1-1.27,17.13h-15a8.67,8.67,0,1,0,0,17.33h15a25.93,25.93,0,0,0,19.4-43.16,25.93,25.93,0,0,0-19.4-43.16Z"/></svg>