<svg id="Layer_1" data-name="Layer 1" xmlns="http://www.w3.org/2000/svg" viewBox="0 0 512 512"><defs><style>.cls-1{fill:#80b6fc;}.cls-2{fill:#65a7ef;}.cls-3{fill:#d98f2d;}.cls-4{fill:#ffb641;}</style></defs><path class="cls-1" d="M435.05,173l24.35-38.86-25-41.44a72.31,72.31,0,0,0-36-30.16L350.18,44.13h-20L306.21,73,256,89.57,205.79,73,181.84,44.13h-20L113.68,62.56a72.36,72.36,0,0,0-36,30.16l-25,41.44L77,173l36.75,28.33,16.7-8.9C130,193.79,92,310.65,120,445.17l47.41,16.12,47.4-16.12,13.69-42.45a15.87,15.87,0,0,1,15.09-11h24.82a15.87,15.87,0,0,1,15.09,11l13.69,42.45,47.4,16.12L392,445.17c28-134.52-10-251.38-10.4-252.72l16.7,8.9Z"/><path class="cls-2" d="M214.81,445.17,209,463.09a20.67,20.67,0,0,1-19.67,14.33H143.85a20.72,20.72,0,0,1-20.1-15.75q-2-8.3-3.75-16.5Z"/><path class="cls-2" d="M113.7,201.35l-15.14,8.08a20.67,20.67,0,0,1-25-4.33L45.58,174.37a20.66,20.66,0,0,1-2.4-24.61l9.42-15.6Z"/><path class="cls-2" d="M392,445.17c-.64,3.06-1.31,6.12-2,9.2q-.84,3.64-1.74,7.3a20.72,20.72,0,0,1-20.1,15.75H322.64A20.67,20.67,0,0,1,303,463.09l-5.78-17.92Z"/><path class="cls-2" d="M466.42,174.37,438.47,205.1a20.67,20.67,0,0,1-25,4.33l-15.14-8.08,61.1-67.18,9.42,15.59A20.68,20.68,0,0,1,466.42,174.37Z"/><path class="cls-2" d="M326.55,35.08a7.46,7.46,0,0,0-9.28,3.48,69.07,69.07,0,0,1-122.54,0,7.46,7.46,0,0,0-9.28-3.48l-23.63,9.05a101.38,101.38,0,0,0,188.36,0Z"/><circle class="cls-3" cx="200.27" cy="186.76" r="27.18"/><circle class="cls-3" cx="311.73" cy="186.76" r="27.18"/><ellipse class="cls-4" cx="256" cy="228.45" rx="73.24" ry="64.26"/><path class="cls-3" d="M217.42,211.2a6.68,6.68,0,0,0-6.68,6.68v6a6.69,6.69,0,0,0,13.37,0v-6A6.69,6.69,0,0,0,217.42,211.2Z"/><path class="cls-3" d="M294.58,211.2a6.69,6.69,0,0,0-6.69,6.68v6a6.69,6.69,0,0,0,13.37,0v-6A6.68,6.68,0,0,0,294.58,211.2Z"/><path class="cls-3" d="M276.67,237.31a6.68,6.68,0,0,0-9.43.63,15.3,15.3,0,0,1-22.48,0,6.68,6.68,0,0,0-10.06,8.8,28.67,28.67,0,0,0,42.6,0A6.68,6.68,0,0,0,276.67,237.31Z"/><path class="cls-3" d="M256,229.13c5.43,0,9.83-3.41,9.83-7.61s-19.66-4.2-19.66,0S250.57,229.13,256,229.13Z"/></svg>