<svg id="Layer_1" data-name="Layer 1" xmlns="http://www.w3.org/2000/svg" viewBox="0 0 512 512"><defs><style>.cls-1{fill:#e6e6e6;}.cls-2{fill:#dedede;}.cls-3{fill:#a2daeb;}.cls-4{fill:#4398d1;}.cls-5{fill:#f2f2f2;}</style></defs><path class="cls-1" d="M222.67,89.23h0A80.58,80.58,0,0,0,191,82.72h0a80.52,80.52,0,0,0-80.51,80.51h0a202.58,202.58,0,0,0,30.8,107.39l3.85,6.17,18,131.58A24.18,24.18,0,0,0,187,429.28h0a24.19,24.19,0,0,0,23.85-20.21l20.94-125.63A24.54,24.54,0,0,1,256,262.93h0a24.54,24.54,0,0,1,24.21,20.51l20.94,125.63A24.19,24.19,0,0,0,325,429.28h0A24.18,24.18,0,0,0,349,408.37L366.9,276.79l3.85-6.17a202.58,202.58,0,0,0,30.8-107.39h0A80.52,80.52,0,0,0,321,82.72h0a80.58,80.58,0,0,0-31.71,6.51h0A84.63,84.63,0,0,1,222.67,89.23Z"/><path class="cls-2" d="M360,92.77c-44.18,105.12-142.83,166-213,197.41l16.12,118.19a24.17,24.17,0,0,0,47.82.69l20.94-125.63a24.54,24.54,0,0,1,48.42,0l20.94,125.63a24.17,24.17,0,0,0,47.82-.7L366.9,276.79l3.85-6.17a202.58,202.58,0,0,0,30.8-107.39h0A80.49,80.49,0,0,0,360,92.77Z"/><rect class="cls-3" x="323.63" y="373.82" width="58.81" height="13.86" transform="translate(-165.83 361.15) rotate(-45)"/><polygon class="cls-4" points="457 256 359.97 353.03 380.76 373.83 457 297.59 457 256"/><ellipse class="cls-3" cx="297.59" cy="422.34" rx="48.52" ry="34.66"/><path class="cls-5" d="M152,172.83H138.17c0-37.4,26.34-52.53,40.2-55.31l2.72,13.58-1.33-6.79,1.38,6.79C180,131.35,152,137.68,152,172.83Z"/><rect class="cls-5" x="193.62" y="117.38" width="13.86" height="13.86"/><rect class="cls-3" x="90.84" y="136.12" width="39.21" height="39.21" transform="translate(-77.76 123.71) rotate(-45)"/><path class="cls-3" d="M178,262.93A28.23,28.23,0,0,1,152.73,222l4.76-9.53-38.05-38,9.8-9.8,38,38.05a13.87,13.87,0,0,1,2.6,16l-4.79,9.56a14.38,14.38,0,0,0,18.2,19.77l21.6-8.69,5.16,12.88-21.62,8.64A28.32,28.32,0,0,1,178,262.93Z"/><polygon class="cls-4" points="55 55 117.38 121.07 75.79 162.66 55 145.1 55 55"/></svg>