<svg id="Layer_1" data-name="Layer 1" xmlns="http://www.w3.org/2000/svg" viewBox="0 0 512 512"><defs><style>.cls-1{fill:#b57a4e;}.cls-2{fill:#9b5729;}.cls-3{fill:#eaf6ff;}.cls-4{fill:#d8ecfe;}.cls-5{fill:#c4e2ff;}.cls-6{fill:#b3dafe;}.cls-7{fill:#537983;}.cls-8{fill:#fed9a8;}.cls-9{fill:#ffbd86;}.cls-10{fill:#72563c;}.cls-11{fill:#8ac9fe;}.cls-12{fill:#60b7ff;}.cls-13{fill:#d83968;}</style></defs><path class="cls-1" d="M207.66,190.67c4.93-18.31,10.15-37.83,7.09-56.92s-16.93-34-33.22-43.78a142.7,142.7,0,0,0-29.54-13,106,106,0,0,0-51.3-3.28c-12.56,2.28-24.25,4.92-34.41,12.84C64.67,87.73,56,94.8,50.86,101.88c-8.6-4.84-21.1-4.85-29.3,1-7.21,5.17-10.67,15.56-11.53,24a155.31,155.31,0,0,0,5.5,59.57l4.53,18.31H203.59Z"/><path class="cls-2" d="M207.66,190.67l-4.07,14.15H186.47l3.42-11.88c5.14-19.11,10.58-39.47,7.39-59.39s-17.66-35.46-34.66-45.66a147.9,147.9,0,0,0-30.81-13.62c-2.7-.88-5.42-1.64-8.18-2.29A103.58,103.58,0,0,1,152,76.92a142.94,142.94,0,0,1,29.54,13c16.3,9.79,30.15,24.57,33.22,43.78S212.59,172.36,207.66,190.67Z"/><path class="cls-3" d="M201.07,472H23.71V368.57A88.58,88.58,0,0,1,61.46,296c1.1-.77,3.58-.15,4.72-.88,13.75-8.75,28.7-12.45,46.21-12.45a82.78,82.78,0,0,1,46.87,13.77c.86.56,3.23-1,4.07-.44a88.59,88.59,0,0,1,37.74,72.6V472Z"/><path class="cls-4" d="M201.07,368.57V472H184.72V368.57a88.67,88.67,0,0,0-80.5-88.29c2.69-.25,5.42-.38,8.17-.38a88.67,88.67,0,0,1,88.68,88.67Z"/><path class="cls-5" d="M72.64,381.23V472h-12V381.23a6,6,0,0,1,12,0Z"/><path class="cls-5" d="M112.39,279.9v13.73c-4.88,8.39-29.82,51.81-43.46,36.57-3.19-3.57-4.69-8.8-6-13.3A54.41,54.41,0,0,1,61.46,296a88.27,88.27,0,0,1,50.93-16.08Z"/><path class="cls-5" d="M161.82,316.9c-1.28,4.5-2.78,9.73-6,13.3-13.64,15.24-38.58-28.18-43.46-36.57V279.9A88.27,88.27,0,0,1,163.32,296,54.41,54.41,0,0,1,161.82,316.9Z"/><path class="cls-6" d="M161.82,316.89c-1.28,4.51-2.78,9.74-6,13.31-6.33,7.07-15.09,1.52-23.15-7.3a8.64,8.64,0,0,0,7.3-3.19c3.2-3.57,4.69-8.8,6-13.3a53.8,53.8,0,0,0,1.67-19.22A88.15,88.15,0,0,1,163.32,296a54.35,54.35,0,0,1-1.5,20.91Z"/><circle class="cls-7" cx="112.39" cy="348.02" r="6.01"/><path class="cls-8" d="M112.44,294.85a79,79,0,0,1-79-79V154.39h158v61.48A79,79,0,0,1,112.44,294.85Z"/><path class="cls-9" d="M191.42,154.39v61.48a79,79,0,0,1-79,79,81.1,81.1,0,0,1-8.14-.41,79,79,0,0,0,70.84-78.56V147.71Z"/><path class="cls-8" d="M34.27,223h-11a17.1,17.1,0,0,1,0-34.19h11Z"/><path class="cls-10" d="M73.92,221.16a6,6,0,0,1-6-6V200.4a6,6,0,1,1,12,0v14.75A6,6,0,0,1,73.92,221.16Z"/><path class="cls-10" d="M151,221.16a6,6,0,0,1-6-6V200.4a6,6,0,1,1,12,0v14.75A6,6,0,0,1,151,221.16Z"/><path class="cls-10" d="M112.72,255.85a26.23,26.23,0,0,1-18.33-7.41,6,6,0,1,1,8.36-8.64,14.33,14.33,0,0,0,19.54.36,6,6,0,0,1,8,9,26.31,26.31,0,0,1-17.61,6.74Z"/><path class="cls-1" d="M33.46,188.84S49.79,169.12,54,158.55c0,0,11.74,16.44,36.3,20.41a4.77,4.77,0,0,0,5.46-5.38c-.43-3-.93-6.8-1.34-10.89,0,0,19.32,18.69,60.88,18.26a4.78,4.78,0,0,0,4.65-5.64l-2.23-12.05,33.7,21.59,2-22.39-2-24.57h-158l-6,24.57Z"/><path class="cls-1" d="M504.2,337.83A43.21,43.21,0,0,0,492.28,317a37.61,37.61,0,0,1-11.82-27.28V231.63H304.66v58.11A37.57,37.57,0,0,1,292.84,317a43.29,43.29,0,0,0-11.92,20.81c-3.63,13.74-1.14,28.49,7.58,39.71,6.33,8.15,16.76,15.7,33.86,17.17h140.4c17.11-1.47,27.54-9,33.87-17.17,8.72-11.22,11.21-26,7.57-39.71Z"/><path class="cls-2" d="M496.63,377.54c-6.33,8.15-16.76,15.7-33.87,17.17H445.9c17.1-1.47,27.54-9,33.87-17.17,8.72-11.22,11.21-26,7.58-39.71A43.29,43.29,0,0,0,475.43,317a37.57,37.57,0,0,1-11.83-27.28V231.63h16.86v58.11A37.57,37.57,0,0,0,492.29,317a43.37,43.37,0,0,1,11.92,20.81c3.63,13.74,1.14,28.5-7.58,39.71Z"/><path class="cls-11" d="M479.08,472.06H302.51V389.11c0-49.74,40.31-86.32,90.05-86.32,18.74,0,35.06,4.51,49.47,14.31,1.19.8,6,4.62,7.11,5.48C471,339,479.08,359.66,479.08,389.11v82.95Z"/><path class="cls-12" d="M345.58,381.23V472h-12V381.23a6,6,0,0,1,12,0Z"/><path class="cls-12" d="M482.62,389.11v83H466v-83a90.06,90.06,0,0,0-81.76-89.67q4.11-.37,8.3-.38a90,90,0,0,1,90.06,90.05Z"/><path class="cls-5" d="M424.61,349.16c-11.69,1.89-23.74-4.3-31.49-14.31-7.74,10-19.79,16.2-31.48,14.31-18.78-3-22.82-17.19-22-32.94a89.58,89.58,0,0,1,52.88-17.16h0a89.58,89.58,0,0,1,54,18c.67,15.4-3.58,29.1-22,32.08Z"/><path class="cls-6" d="M424.61,349.16c-9.16,1.49-18.54-2-25.9-8.39a28.54,28.54,0,0,0,9.45.06c19.1-3.09,23.76-17.08,23.25-33a89.83,89.83,0,0,1,15.2,9.21c.67,15.41-3.58,29.11-22,32.09Z"/><path class="cls-8" d="M467.05,233.76h10.46a16.27,16.27,0,1,0,0-32.53H467.05Z"/><path class="cls-8" d="M317.75,232.89H307.57a15.84,15.84,0,0,1,0-31.67h10.18Z"/><path class="cls-8" d="M392.46,311a75.39,75.39,0,0,1-75.39-75.39V177l95.46-51,55.32,59.53v50.18A75.39,75.39,0,0,1,392.46,311Z"/><path class="cls-9" d="M467.85,185.46v50.18a75.45,75.45,0,0,1-83.4,75,75.4,75.4,0,0,0,67.37-75V168.21Z"/><path class="cls-10" d="M355.69,241a6,6,0,0,1-6-6V220.88a6,6,0,1,1,12,0V235A6,6,0,0,1,355.69,241Z"/><path class="cls-10" d="M429.23,241a6,6,0,0,1-6-6V220.88a6,6,0,0,1,12,0V235A6,6,0,0,1,429.23,241Z"/><path class="cls-10" d="M392.72,274.09A25.29,25.29,0,0,1,375,266.93a6,6,0,0,1,8.36-8.64,13.41,13.41,0,0,0,18.28.34,6,6,0,1,1,8,8.94,25.41,25.41,0,0,1-17,6.52Z"/><path class="cls-1" d="M480.86,201.57l-13-.34c-43.44-1.17-74.28-9.11-99.45-46.35,0,0-8.72,38-51.45,46.7H304.27v-26.8c0-48.8,39.18-89.09,88-89.25a88.29,88.29,0,0,1,88.61,88.29Z"/><path class="cls-2" d="M480.86,173.82v27.76l-13-.35-3-.09V173.82a88.29,88.29,0,0,0-80.25-87.93c2.53-.24,5.08-.36,7.67-.37a88.3,88.3,0,0,1,88.61,88.3Z"/><path class="cls-5" d="M352.81,119.34c-22.69,17.75-30,44.7-30,44.7a96.61,96.61,0,0,1,23.87-18.32,94.32,94.32,0,0,1,91.73,0A96.8,96.8,0,0,1,462.3,164s-7.29-26.95-30-44.7a64.36,64.36,0,0,0-79.51,0Z"/><path class="cls-6" d="M462.29,164a97.09,97.09,0,0,0-23.86-18.3c-1.19-.66-2.39-1.29-3.6-1.9a83.72,83.72,0,0,0-17.32-18.69,64.31,64.31,0,0,0-55.6-11.76,64.31,64.31,0,0,1,70.41,6C454.66,136.81,462.06,163.19,462.29,164Z"/><path class="cls-13" d="M276.84,39.93A26.4,26.4,0,0,0,256,50.1a26.45,26.45,0,0,0-47.29,16.28c0,33.24,47.29,51.74,47.29,51.74s47.29-18.5,47.29-51.74A26.45,26.45,0,0,0,276.84,39.93Z"/><path class="cls-8" d="M256.09,462.57A60.57,60.57,0,0,1,195.52,402V372.94a60.57,60.57,0,0,1,121.14,0V402A60.57,60.57,0,0,1,256.09,462.57Z"/><path class="cls-8" d="M315.93,404.57H324a12.61,12.61,0,1,0,0-25.21h-8.1Z"/><path class="cls-8" d="M196.26,404.05h-8.18a12.72,12.72,0,0,1,0-25.44h8.18Z"/><path class="cls-9" d="M316.67,372.93V402a60.57,60.57,0,0,1-60.57,60.57,59.61,59.61,0,0,1-7.36-.45A60.57,60.57,0,0,0,302,402V372.93a60.59,60.59,0,0,0-53.21-60.13,61.64,61.64,0,0,1,7.36-.44,60.57,60.57,0,0,1,60.57,60.57Z"/><path class="cls-10" d="M226.55,407a5.52,5.52,0,0,1-5.52-5.51V390.13a5.52,5.52,0,0,1,11,0v11.32A5.52,5.52,0,0,1,226.55,407Z"/><path class="cls-10" d="M285.64,407a5.52,5.52,0,0,1-5.52-5.51V390.13a5.52,5.52,0,0,1,11,0v11.32A5.51,5.51,0,0,1,285.64,407Z"/><path class="cls-10" d="M256.3,433.57a21,21,0,0,1-14.68-5.94,5.52,5.52,0,0,1,7.67-7.93A10.1,10.1,0,0,0,263,420a5.52,5.52,0,1,1,7.38,8.21A21.09,21.09,0,0,1,256.3,433.57Z"/><path class="cls-1" d="M239.4,311a24.16,24.16,0,0,0-10,15.91c-3.91,22.22,26.14,33.77,39.91,17,7.7-9.36,5.95-24.11,11.19-34.83.14-.28.63-1.37,1.25-2.59A3.08,3.08,0,0,0,279.1,302c-11.65-.35-28.82,1.75-39.7,9Z"/><path class="cls-2" d="M281.75,306.48c-.6,1.22-1.1,2.31-1.25,2.59-5.23,10.72-3.48,25.47-11.18,34.83-8.35,10.16-22.68,9.92-31.8,3.2a21.8,21.8,0,0,0,16.49-8c7.69-9.36,5.94-24.11,11.18-34.83l.81-1.71a94.63,94.63,0,0,1,13.1-.57A3.08,3.08,0,0,1,281.75,306.48Z"/></svg>