<svg id="Layer_1" data-name="Layer 1" xmlns="http://www.w3.org/2000/svg" viewBox="0 0 512 512"><defs><style>.cls-1{fill:#9b5729;}.cls-2{fill:#7f441c;}.cls-3{fill:#d83968;}.cls-4{fill:#def9ff;}.cls-5{fill:#fed9a8;}.cls-6{fill:#b57a4e;}.cls-7{fill:#ffc987;}.cls-8{fill:#72563c;}.cls-9{fill:#c7c8ca;}.cls-10{fill:#a7a9ac;}.cls-11{fill:#602f0e;}.cls-12{fill:#8a8c8e;}.cls-13{fill:#6d6e71;}.cls-14{fill:#f6cd80;}.cls-15{fill:#ffb3b3;}</style></defs><path class="cls-1" d="M247.3,70.85c25,0,48.44,5,68.26,14.37a68.3,68.3,0,0,0-136.53,0C198.85,75.86,222.27,70.85,247.3,70.85Z"/><path class="cls-2" d="M211.61,74.44A68.19,68.19,0,0,1,263,20.78,69,69,0,0,0,247.3,19,68.13,68.13,0,0,0,179,85.22,145.92,145.92,0,0,1,211.61,74.44Z"/><path class="cls-3" d="M243.77,492a24.7,24.7,0,0,1-17.2-11l-60.24-92.28h-5.51c-40.33,0-73.13,32.63-73.13,72.73v26.4A5.17,5.17,0,0,0,92.87,493H247.3V492Z"/><path class="cls-3" d="M250.83,492A24.7,24.7,0,0,0,268,481l60.25-92.28h5.51c40.32,0,73.12,32.63,73.12,72.73v26.4a5.17,5.17,0,0,1-5.18,5.17H247.3V492Z"/><path class="cls-4" d="M321.21,388.74H298.69L247.3,467.47l-51.4-78.73H165.63l60.94,93.34a24.7,24.7,0,0,0,17.2,11h7a24.7,24.7,0,0,0,17.2-11l60.25-93.34Z"/><path class="cls-5" d="M276.87,381.75V360.48a98,98,0,0,1-16.75,1.45H234.48a96.86,96.86,0,0,1-16.76-1.46v21.28a7,7,0,0,1-7,7H195.2l52.09,79.8,52.1-79.8H283.91A7,7,0,0,1,276.87,381.75Z"/><path class="cls-6" d="M121.12,217h17.07V193.75a5.14,5.14,0,0,1,5.15-5.12h86.85a47.9,47.9,0,0,0,40.23-22.27,5.18,5.18,0,0,1,8.74,0,47.9,47.9,0,0,0,40.23,22.27h31.86a5.14,5.14,0,0,1,5.15,5.12V217h17.07a19.79,19.79,0,0,1,5.37.76v-35c0-71.45-58.89-112.85-131.54-112.85s-131.55,41.4-131.55,112.85v35A19.85,19.85,0,0,1,121.12,217Z"/><path class="cls-1" d="M121.12,217h17.07V193.75a5.14,5.14,0,0,1,5.15-5.12h3.73v-5.89C147.07,116.5,197.69,76.1,263,70.55c-5.14-.43-10.36-.66-15.66-.66-72.65,0-131.55,41.4-131.55,112.85v35A19.85,19.85,0,0,1,121.12,217Z"/><path class="cls-5" d="M356.41,256.16a43.6,43.6,0,0,1,31.3,18.66,19.88,19.88,0,0,0,6.17-14.38V236.15a20.24,20.24,0,0,0-20.41-20.08H356.41Z"/><path class="cls-5" d="M113.86,273.51a73.27,73.27,0,0,1,17.83-2.24c2.24,0,4.45.12,6.64.33-.09-1.68-.14-3.37-.14-5.07V216.07H121.12a20.25,20.25,0,0,0-20.41,20.08v24.29a20,20,0,0,0,9.72,17.08A4.55,4.55,0,0,1,113.86,273.51Z"/><path class="cls-5" d="M335.75,330.54,316,323.88l-.56-.86a43,43,0,0,1-7.19-23.82,43.49,43.49,0,0,1,49.15-42.92V193.75a6.09,6.09,0,0,0-6.11-6.08H319.39A47,47,0,0,1,280,165.85a6.13,6.13,0,0,0-10.36,0,47,47,0,0,1-39.42,21.82H143.34a6.09,6.09,0,0,0-6.11,6.08v72.78c0,1.67,0,3.34.13,5a60.29,60.29,0,0,1,37.84,17c15.29,15.21,20.94,38,15.11,61A4.53,4.53,0,0,1,189,351.7a97.42,97.42,0,0,0,45.46,11.2h25.64A97.3,97.3,0,0,0,317.91,344S335,331,335.75,330.54Z"/><path class="cls-7" d="M190.31,349.53A4.58,4.58,0,0,1,189,351.7a97.42,97.42,0,0,0,45.46,11.2h20.74a97.38,97.38,0,0,1-63.13-23.13A71.59,71.59,0,0,1,190.31,349.53Z"/><path class="cls-8" d="M256.16,280.82H244.07A12.82,12.82,0,0,1,231.23,268V248.16a7.21,7.21,0,1,1,14.41,0V266.4h10.52a7.21,7.21,0,0,1,0,14.42Z"/><path class="cls-8" d="M189.31,247.16a39.68,39.68,0,0,1-28.07-11.54,7.21,7.21,0,0,1,10.17-10.22,25.45,25.45,0,0,0,35.8,0,7.21,7.21,0,0,1,10.16,10.22A39.66,39.66,0,0,1,189.31,247.16Z"/><path class="cls-8" d="M305.28,247.16a39.64,39.64,0,0,1-28.06-11.54,7.21,7.21,0,1,1,10.16-10.22,25.45,25.45,0,0,0,35.8,0,7.21,7.21,0,0,1,10.17,10.22A39.72,39.72,0,0,1,305.28,247.16Z"/><path class="cls-8" d="M247.1,323.9a55.1,55.1,0,0,1-39-16,7.21,7.21,0,0,1,10.17-10.22,41.21,41.21,0,0,0,58-.21,7.21,7.21,0,1,1,10.17,10.22A55.63,55.63,0,0,1,247.1,323.9Z"/><path class="cls-9" d="M92.89,348.75,12.66,437a9.23,9.23,0,0,0,0,13.1,9.36,9.36,0,0,0,13.18,0l88.77-79.8Z"/><path class="cls-10" d="M101.23,357l-8.34-8.29L12.66,437a9.23,9.23,0,0,0,0,13.1,9.36,9.36,0,0,0,13.18,0l4-3.6a9.22,9.22,0,0,1,1-12Z"/><path class="cls-1" d="M175.88,287.86c-15.54-15.45-38.81-21.17-62.25-15.28a5.52,5.52,0,0,0-4.17,5L106,330.73l26.82,26.67,53.47-3.49a5.54,5.54,0,0,0,5-4.14C197.16,326.46,191.42,303.31,175.88,287.86Z"/><path class="cls-2" d="M127.78,305.55l1.91-29a6.09,6.09,0,0,1,4.59-5.49c.79-.19,1.59-.38,2.38-.55a73.15,73.15,0,0,0-23,2.08,5.52,5.52,0,0,0-4.17,5L106,330.73,110.2,335Z"/><path class="cls-11" d="M165.19,323.14a7.2,7.2,0,0,0-9.87-2.53l-30.53,18,18.11-30.29a7.21,7.21,0,1,0-12.38-7.4L110.2,335l18.34,18.23L162.66,333A7.22,7.22,0,0,0,165.19,323.14Z"/><path class="cls-12" d="M125.18,375.23a5,5,0,0,1-7,0L88,345.26a4.94,4.94,0,0,1,0-7L98,328.4a5,5,0,0,1,7,0l30.15,30a4.93,4.93,0,0,1,0,7Z"/><path class="cls-13" d="M100,351.55l11.11-11.05a5.54,5.54,0,0,1,4.44-1.56L105,328.4a5,5,0,0,0-7,0L88,338.27a4.94,4.94,0,0,0,0,7l10.39,10.33A5.49,5.49,0,0,1,100,351.55Z"/><path class="cls-14" d="M63.92,148A36.75,36.75,0,0,1,40.7,171.23l9.3,6.2a36.55,36.55,0,0,1,12.47,14.13l1.45,2.89,1.44-2.89a36.66,36.66,0,0,1,12.48-14.13l9.3-6.2A36.72,36.72,0,0,1,63.92,148Z"/><path class="cls-14" d="M425.25,133.94A36.69,36.69,0,0,1,402,157.16l9.3,6.21a36.66,36.66,0,0,1,12.48,14.13l1.44,2.89,1.44-2.89a36.66,36.66,0,0,1,12.48-14.13l9.3-6.21A36.69,36.69,0,0,1,425.25,133.94Z"/><path class="cls-14" d="M101.23,42.32A36.69,36.69,0,0,1,78,65.54l9.3,6.2A36.8,36.8,0,0,1,99.79,85.87l1.44,2.89,1.45-2.89a36.78,36.78,0,0,1,12.47-14.13l9.3-6.2A36.73,36.73,0,0,1,101.23,42.32Z"/><circle class="cls-15" cx="349.9" cy="297.45" r="44.11"/></svg>