<svg id="Layer_1" data-name="Layer 1" xmlns="http://www.w3.org/2000/svg" viewBox="0 0 512 512"><defs><style>.cls-1{fill:#97da7b;}.cls-2{fill:#80d261;}.cls-3{fill:#e8eaea;}.cls-4{fill:#ca3561;}.cls-5{fill:#dd7f66;}.cls-6{fill:#d83968;}.cls-7{fill:#eaa97d;}.cls-8{fill:#ffd15b;}.cls-9{fill:#ffc344;}.cls-10{fill:#b57a4e;}.cls-11{fill:#f2f2f2;}.cls-12{fill:#6bd9e7;}.cls-13{fill:#2ed1e2;}.cls-14{fill:#eaf9fa;}.cls-15{fill:none;}.cls-16{fill:#7a6d79;}</style></defs><ellipse class="cls-1" cx="62.16" cy="319.12" rx="46.72" ry="89.24"/><path class="cls-2" d="M62.16,229.88a27.69,27.69,0,0,0-15.75,5.22c18,12.34,31,45.3,31,84s-12.92,71.69-31,84a27.68,27.68,0,0,0,15.75,5.21c25.8,0,46.72-39.95,46.72-89.24S88,229.88,62.16,229.88Z"/><path class="cls-3" d="M168.2,430.24h31.49v50.39H168.2Z"/><path class="cls-3" d="M320.43,430.24h31.5v50.39h-31.5Z"/><path class="cls-4" d="M377.65,441.78H142.48a14.7,14.7,0,0,1-14.7-14.69v-16.8a14.7,14.7,0,0,1,14.7-14.7H377.65a14.7,14.7,0,0,1,14.7,14.7v16.8A14.7,14.7,0,0,1,377.65,441.78Z"/><path class="cls-4" d="M377.65,395.59h-31.5a14.7,14.7,0,0,1,14.7,14.7v16.8a14.7,14.7,0,0,1-14.7,14.7h31.5a14.7,14.7,0,0,0,14.7-14.7v-16.8A14.7,14.7,0,0,0,377.65,395.59Z"/><path class="cls-5" d="M354.55,395.59h-189V336.8a6.3,6.3,0,0,1,6.3-6.3H348.25a6.3,6.3,0,0,1,6.3,6.3Z"/><path class="cls-6" d="M354.55,395.59h-189V336.8a6.3,6.3,0,0,1,6.3-6.3H348.25a6.3,6.3,0,0,1,6.3,6.3Z"/><path class="cls-4" d="M354.55,395.59H323.06V330.5h25.19a6.3,6.3,0,0,1,6.3,6.3Z"/><path class="cls-7" d="M460.59,226.26a7.65,7.65,0,0,0-7.64,7.65V450.18a7.64,7.64,0,1,0,15.28,0V233.91A7.65,7.65,0,0,0,460.59,226.26Z"/><path class="cls-8" d="M492.36,254.9H428.82a4.2,4.2,0,0,1-4.14-4.9l11.84-69.29a4.2,4.2,0,0,1,4.14-3.5h39.86a4.2,4.2,0,0,1,4.14,3.5L496.5,250a4.2,4.2,0,0,1-4.14,4.9Z"/><path class="cls-9" d="M496.5,250l-11.84-69.29a4.2,4.2,0,0,0-4.14-3.5H449a4.21,4.21,0,0,1,4.14,3.5L465,250a4.2,4.2,0,0,1-4.14,4.9h31.5a4.2,4.2,0,0,0,4.14-4.9Z"/><path class="cls-7" d="M29.87,398.92H93.4a4.19,4.19,0,0,1,4.14,4.9L85.71,473.11a4.21,4.21,0,0,1-4.14,3.5H41.7a4.21,4.21,0,0,1-4.14-3.5L25.73,403.82A4.2,4.2,0,0,1,29.87,398.92Z"/><path class="cls-10" d="M93.4,398.92H61.91a4.2,4.2,0,0,1,4.14,4.9L54.21,473.11a4.2,4.2,0,0,1-4.14,3.5h31.5a4.21,4.21,0,0,0,4.14-3.5l11.83-69.29A4.19,4.19,0,0,0,93.4,398.92Z"/><path class="cls-3" d="M494.19,480.63H427v-29a9.88,9.88,0,0,1,9.88-9.88h47.44a9.88,9.88,0,0,1,9.88,9.88Z"/><path class="cls-11" d="M484.31,441.78H452.82a9.87,9.87,0,0,1,9.87,9.88v29h31.5v-29A9.88,9.88,0,0,0,484.31,441.78Z"/><path class="cls-12" d="M138.23,273.4V40.53c0-1.09,1.75-2,3.91-2h238.3c2.16,0,3.91.88,3.91,2V273.41c0,1.09-1.75,2-3.91,2H142.14C140,275.38,138.23,274.49,138.23,273.4Z"/><path class="cls-13" d="M382.25,273.4V243.8c0,1.09-1.75,2-3.91,2H140c-2.16,0-3.91-.88-3.91-2v29.6c0,1.09,1.75,2,3.91,2h238.3C380.5,275.38,382.25,274.49,382.25,273.4Z"/><circle class="cls-14" cx="190.37" cy="102.08" r="23.68"/><path class="cls-14" d="M357.91,241.76H250.57c-7.74,0-12.08-9.26-7.32-15.59l53.68-71.36a9.05,9.05,0,0,1,14.62,0l53.67,71.36c4.77,6.33.43,15.59-7.31,15.59Z"/><rect class="cls-15" x="143.32" y="45.74" width="54.98" height="222.46"/><rect class="cls-15" x="198.3" y="45.74" width="54.98" height="222.46"/><path class="cls-16" d="M382,31.37H288V45.74h88.86V268.2H231.49v14.36H382a9.16,9.16,0,0,0,9.16-9.15h0V40.53A9.17,9.17,0,0,0,382,31.37Z"/><path class="cls-16" d="M143.32,268.2V45.74H299.93V31.37H138.1A9.17,9.17,0,0,0,129,40.53V273.41a9.16,9.16,0,0,0,9.15,9.15H243.47V268.2Z"/></svg>