<svg id="Layer_1" data-name="Layer 1" xmlns="http://www.w3.org/2000/svg" viewBox="0 0 512 512"><defs><style>.cls-1{fill:#80b4fb;}.cls-2{fill:#61a2f9;}.cls-3{fill:#f6cd80;}.cls-4{fill:#407093;}.cls-5{fill:#d83968;}.cls-6{fill:#ca3561;}.cls-7{fill:#db5c6e;}.cls-8{fill:#d8b377;}</style></defs><path class="cls-1" d="M360.08,233.29s87.06,90.09,87.06,228.17c0,0-13.47,4.92-37.7,10.61-5.33,1.24-11.18,2.54-17.52,3.82-7.13,1.44-14.89,2.88-23.22,4.23-5.62.93-11.52,1.81-17.65,2.65A710.43,710.43,0,0,1,256,489.12a699.18,699.18,0,0,1-115.51-9.47c-47.72-8-75.63-18.19-75.63-18.19,0-138.08,87.06-228.17,87.06-228.17V177L105,138.42,64.86,105.48,141.47,36.8a54.47,54.47,0,0,1,73.06.27l8.17,7.44a49.46,49.46,0,0,0,66.61,0l8.17-7.44a54.46,54.46,0,0,1,73-.27l76.61,68.68-64.77,53.19L360.08,177Z"/><path class="cls-2" d="M178.78,136V238.76s-35.54,108-35.54,160.77c0,21-1.25,51.3-2.75,80.13-47.72-8-75.63-18.2-75.63-18.2,0-138.08,87.06-228.16,87.06-228.16V122H164.8A14,14,0,0,1,178.78,136Z"/><path class="cls-2" d="M174.21,23C147.53,47.86,116.6,100.15,105,138.43L64.86,105.49l76.61-68.68A54.38,54.38,0,0,1,174.21,23Z"/><path class="cls-2" d="M321.42,24.39C318.6,37.67,296.47,135.32,256,149.5c-40.47-14.18-62.59-111.83-65.41-125.11a54.16,54.16,0,0,1,23.94,12.69l8.18,7.44a49.45,49.45,0,0,0,66.6,0l8.17-7.44A54.16,54.16,0,0,1,321.42,24.39Z"/><path class="cls-2" d="M368.7,480.13q-8.43,1.38-17.65,2.64a666.2,666.2,0,0,0-11.19-108,8.86,8.86,0,0,1,17.42-3.26A683.14,683.14,0,0,1,368.7,480.13Z"/><path class="cls-2" d="M409.44,472.07c-5.33,1.24-11.18,2.54-17.52,3.82a662.4,662.4,0,0,0-10.14-82.7,8.85,8.85,0,1,1,17.4-3.27A683.58,683.58,0,0,1,409.44,472.07Z"/><path class="cls-2" d="M382.37,158.67,360.08,177V141.76a5.53,5.53,0,0,1,10.25-2.88Z"/><path class="cls-3" d="M256,251.19A613.14,613.14,0,0,1,150.41,242a8.86,8.86,0,0,1,3-17.45,594.66,594.66,0,0,0,205.11,0,8.86,8.86,0,1,1,3,17.45A613.11,613.11,0,0,1,256,251.19Z"/><path class="cls-4" d="M42.89,393.21a4.59,4.59,0,0,1-4.53-3.89c-2.8-18.31,14.06-31.18,31.92-44.8,7.58-5.78,15.6-11.9,22.59-18.78a175.26,175.26,0,0,1-15.65-9.93C62.16,304.92,54.83,294,54.83,282.48c0-18.21,10.13-25.91,16.16-28.87,11.26-5.54,26-3.69,36.75,4.59,11.31,8.73,16,22.72,12.79,38.38-2.09,10.25-6.85,19-13,26.72,6.32,3.32,12.89,6.59,19.42,9.83,33.19,16.51,64.54,32.1,66.81,55.05a4.59,4.59,0,0,1-9.13.9c-1.76-17.9-32.27-33.07-61.77-47.74-7.22-3.59-14.56-7.24-21.58-11-7.8,8-16.87,14.93-25.42,21.45C59.53,364.25,45.44,375,47.43,387.93a4.6,4.6,0,0,1-3.84,5.23,5.62,5.62,0,0,1-.7,0ZM85.05,259.63a22.65,22.65,0,0,0-10,2.21c-7.21,3.54-11,10.68-11,20.64,0,13.46,15.46,25.25,35.27,36.35,5.9-7.08,10.42-15,12.27-24.07,3.37-16.58-4.44-25.48-9.4-29.3a28.35,28.35,0,0,0-17.09-5.83Z"/><path class="cls-5" d="M189.17,385.57a1399.32,1399.32,0,0,0-146.27,0,20.53,20.53,0,0,0-19.31,17.87,278.76,278.76,0,0,0,0,70.81A20.54,20.54,0,0,0,42.9,492.13a1404.82,1404.82,0,0,0,146.27,0,20.54,20.54,0,0,0,19.31-17.88,278.76,278.76,0,0,0,0-70.81A20.53,20.53,0,0,0,189.17,385.57Z"/><path class="cls-6" d="M51.79,492.56c-3-.13-5.93-.28-8.89-.43a20.54,20.54,0,0,1-19.31-17.88,278.76,278.76,0,0,1,0-70.81A20.52,20.52,0,0,1,42.9,385.57c3-.15,5.92-.3,8.89-.43A21.49,21.49,0,0,0,40,401.68,292.59,292.59,0,0,0,40,476a21.52,21.52,0,0,0,11.8,16.55Z"/><path class="cls-6" d="M208.47,434.72a20.5,20.5,0,0,1-19.3,17.87,1399.51,1399.51,0,0,1-146.28,0,20.51,20.51,0,0,1-19.3-17.87Q22.6,427,22,419.18A278.63,278.63,0,0,0,22,457.73a21.68,21.68,0,0,0,17,9.71,1479.52,1479.52,0,0,0,154.19,0,21.68,21.68,0,0,0,17-9.71,277.51,277.51,0,0,0-.06-38.58q-.56,7.78-1.56,15.57Z"/><path class="cls-3" d="M140.72,468.65a407.49,407.49,0,0,1-44.21,0,12.91,12.91,0,0,1-12.11-11.9,165.24,165.24,0,0,1,0-26.51,12.9,12.9,0,0,1,12.11-11.89,402.47,402.47,0,0,1,44.21,0,12.9,12.9,0,0,1,12.11,11.89,165.24,165.24,0,0,1,0,26.51,12.91,12.91,0,0,1-12.11,11.9Z"/><path class="cls-7" d="M118.62,453c-6,0-12.13-.14-18.18-.42a147.38,147.38,0,0,1,0-18.08c6-.29,12.15-.43,18.18-.43s12.13.14,18.18.43a147.38,147.38,0,0,1,0,18.08C130.75,452.82,124.65,453,118.62,453Z"/><path class="cls-8" d="M118.62,457.55c-6.09,0-12.28-.15-18.4-.43a4.59,4.59,0,0,1-4.36-4.31,152.37,152.37,0,0,1,0-18.63,4.58,4.58,0,0,1,4.36-4.3c6.12-.29,12.31-.43,18.4-.43s12.27.14,18.4.43a4.59,4.59,0,0,1,4.36,4.3,156.48,156.48,0,0,1,0,18.63,4.6,4.6,0,0,1-4.36,4.31C130.9,457.4,124.71,457.55,118.62,457.55Zm-13.8-9.42c9.21.33,18.38.33,27.6,0q.14-4.63,0-9.27c-9.22-.33-18.38-.33-27.6,0Q104.67,443.5,104.82,448.13Z"/></svg>