<svg id="Layer_1" data-name="Layer 1" xmlns="http://www.w3.org/2000/svg" viewBox="0 0 512 512"><defs><style>.cls-1{fill:#fed2a4;}.cls-2{fill:#fb2b3a;}.cls-3{fill:#e41f2d;}.cls-4{fill:#fe646f;}.cls-5{fill:#fd4755;}.cls-6{fill:#80d261;}.cls-7{fill:#017b4e;}.cls-8{fill:#026841;}.cls-9{fill:#68ca44;}.cls-10{fill:#fff;}.cls-11{fill:#fedf74;}.cls-12{fill:#fed402;}.cls-13{fill:#d8ecfe;}.cls-14{fill:#c4e2ff;}.cls-15{fill:#eaf6ff;}.cls-16{fill:#fe9901;}.cls-17{fill:#fb8801;}</style></defs><path class="cls-1" d="M332.52,141a35.84,35.84,0,0,1,66.63,18.33,36.47,36.47,0,0,1-.25,4.21,48.25,48.25,0,0,1,13-1.84,38.76,38.76,0,0,1,11.27,1.61c.08-1.31.14-2.64.14-4a60,60,0,0,0-108.2-35.73Z"/><path class="cls-1" d="M121.33,260.14l1.25-.22-.6-1.11a50.21,50.21,0,0,1-2.66-5.75,35.83,35.83,0,1,1,31.3-59.88,32.28,32.28,0,0,1,8.62-15.88,31.26,31.26,0,0,1,5.33-4.28,60,60,0,1,0-65.76,98.86C104,266.07,111.87,261.85,121.33,260.14Z"/><path class="cls-2" d="M283.76,199.05a20,20,0,0,1,8.62-1.86c5.19,0,11,1.76,16.8,5.09l1.19.68.17-1.37c2.93-23.81,15.53-41.09,30-41.09,10.45,0,20.08,8.91,25.76,23.85l.57,1.48,1-1.23a67.31,67.31,0,0,1,4.53-5L277.83,85a4.71,4.71,0,0,0-6.88.24,78.5,78.5,0,0,0-13.79,81.32c11.88,1.21,22.26,14.1,26.6,32.45Z"/><path class="cls-3" d="M283.76,199.05a20,20,0,0,1,8.62-1.86,23.44,23.44,0,0,1,2.87.19,78.5,78.5,0,0,1-2.18-97.1L277.83,85a4.71,4.71,0,0,0-6.88.24,78.5,78.5,0,0,0-13.79,81.32c11.88,1.21,22.26,14.1,26.6,32.45Z"/><path class="cls-4" d="M295.05,177.28a6.84,6.84,0,0,1-4.84-11.68l7.57-7.58a6.84,6.84,0,1,1,9.68,9.68l-7.57,7.58a6.85,6.85,0,0,1-4.84,2Z"/><path class="cls-4" d="M292.71,143.63H282A6.84,6.84,0,1,1,282,130h10.71a6.84,6.84,0,1,1,0,13.68Z"/><path class="cls-5" d="M220.39,120.08a70,70,0,0,0,3.44-95.31,4.72,4.72,0,0,0-6.89-.25l-92.11,92.11a4.72,4.72,0,0,0,.25,6.89A70,70,0,0,0,220.39,120.08Z"/><path class="cls-2" d="M142.5,102.11a4.58,4.58,0,0,1-1.29-1.85l-16.38,16.37a4.72,4.72,0,0,0,.25,6.89,70,70,0,0,0,107.76-20.33A70,70,0,0,1,142.5,102.11Z"/><path class="cls-3" d="M200.62,108.51a6.82,6.82,0,0,1-4.84-2L189,99.74a6.84,6.84,0,0,1,9.68-9.67l6.76,6.75a6.85,6.85,0,0,1-4.84,11.69Z"/><path class="cls-3" d="M170.61,120.15a6.85,6.85,0,0,1-6.84-6.85v-9.55a6.84,6.84,0,1,1,13.68,0v9.55A6.85,6.85,0,0,1,170.61,120.15Z"/><path class="cls-3" d="M213.61,79.05h-9.55a6.84,6.84,0,1,1,0-13.68h9.55a6.84,6.84,0,1,1,0,13.68Z"/><path class="cls-6" d="M174.32,313.2a58.85,58.85,0,0,1,1.43-12.88c-16.45-5.22-27.38-15.52-27.38-27,0-10.45,8.91-20.08,23.84-25.76l1.48-.56-1.23-1a66.78,66.78,0,0,1-5.09-4.58c-9.51-9.51-15.62-21.28-17.26-33.22-8.72-1.9-17.33-.55-24,4.54-12.61,9.58-14.27,29.21-4.92,46.5-15.8,2.85-28,12.92-29.83,26.36-1.51,11,4.36,21.77,14.53,29.11h68.49C174.34,314.21,174.32,313.71,174.32,313.2Z"/><path class="cls-7" d="M269.88,314.71l.25-.29c0-.4,0-.81,0-1.22a36.75,36.75,0,0,0-73.5,0c0,.51,0,1,.05,1.51Z"/><path class="cls-7" d="M233.41,254.11a59.07,59.07,0,0,1,49.32,26.6A78.4,78.4,0,0,1,283.8,263c-.69-1.09-1.37-2.18-2-3.31-6.93-12-10.64-24.89-10.45-36.29.19-11.23,4.15-19.64,11.15-23.69a18.24,18.24,0,0,1,2.13-1c-4.63-19.39-16-33.09-29.28-33.09-11.2,0-21,9.75-26.62,24.44a67.82,67.82,0,0,0-4.71-5.25c-20.31-20.31-49.59-23.95-65.41-8.13s-12.18,45.1,8.13,65.41a67.79,67.79,0,0,0,5.17,4.65c-14.68,5.58-24.43,15.41-24.43,26.61,0,12.11,11.39,22.62,28.08,27.89a59.2,59.2,0,0,1,57.87-47.1Z"/><path class="cls-8" d="M214,303.24a70.84,70.84,0,0,1-13.55-4.09,35.56,35.56,0,0,0-2.86,14.64h18.27a38.89,38.89,0,0,1,1.49-4.28A4.59,4.59,0,0,0,214,303.24Z"/><path class="cls-8" d="M147.46,273.32c0,11.9,11,22.25,27.2,27.61a59.79,59.79,0,0,1,6.37-17A20.51,20.51,0,0,1,178,273.32c0-9.54,7.08-18.09,18.27-23.87a4.59,4.59,0,0,0,1-7.34l0-.05c-20.31-20.3-24-49.59-8.14-65.41a32.42,32.42,0,0,1,10.77-7.1c-15.35-5.18-31.11-3.08-41.28,7.1-15.82,15.82-12.18,45.11,8.13,65.41a65.94,65.94,0,0,0,5.17,4.65c-14.68,5.58-24.43,15.41-24.43,26.61Z"/><path class="cls-8" d="M226.76,254.49a60.75,60.75,0,0,1,6.65-.38,58.8,58.8,0,0,1,14,1.69L210.1,218.48a6.84,6.84,0,0,0-9.68,9.68Z"/><path class="cls-9" d="M423.94,240.71a65.82,65.82,0,0,0,5.16-4.65c20.31-20.31,23.95-49.59,8.14-65.41s-45.11-12.18-65.42,8.13a65.67,65.67,0,0,0-4.7,5.25c-5.59-14.69-15.42-24.44-26.62-24.44-15.22,0-27.92,18-30.86,41.9-9.9-5.69-19.92-7-27.62-2.55-15.07,8.69-15.53,36.1-1,61.22.83,1.43,1.7,2.81,2.58,4.16a76.49,76.49,0,0,1,18-38.51,4.13,4.13,0,0,1,6-.22l89.11,89.12H411.6c-.17-5.25-2-10.9-5.23-16.52,24-2.92,42-15.63,42-30.87,0-11.2-9.75-21-24.43-26.61Z"/><path class="cls-6" d="M395.4,212.48a6.85,6.85,0,0,0-9.68,0l-45,45,9.67,9.68,45-45a6.83,6.83,0,0,0,0-9.68Z"/><path class="cls-10" d="M292.5,313.2c0,.14,0,.27,0,.4l0,1.11H398L308.19,225a5,5,0,0,0-7.34.26,77.93,77.93,0,0,0-19.18,54,58.76,58.76,0,0,1,10.83,34Z"/><path class="cls-11" d="M343.94,314.71h31.71A41,41,0,0,0,389,305.77l-58.43-58.43a41.32,41.32,0,0,0,13.36,67.37Z"/><path class="cls-12" d="M344,314.71h15.5a41.31,41.31,0,0,1-20.08-58.56l-8.81-8.81A41.3,41.3,0,0,0,344,314.71Z"/><path class="cls-1" d="M197.61,314.71c0-.5,0-1,0-1.51a35.84,35.84,0,0,1,71.67,0c0,.51,0,1,0,1.51h24.17c0-.5,0-1,0-1.51a60,60,0,0,0-120,0c0,.51,0,1,0,1.51Z"/><path class="cls-13" d="M185.64,489.61H319.18a13.8,13.8,0,0,0,5.31-1,189.13,189.13,0,0,0,116.69-165,9.38,9.38,0,0,0-9.4-9.8H73a9.38,9.38,0,0,0-9.4,9.8,189.12,189.12,0,0,0,116.68,165,13.88,13.88,0,0,0,5.32,1Z"/><path class="cls-14" d="M104.33,358H68.59A189.44,189.44,0,0,0,180.32,488.58a13.88,13.88,0,0,0,5.32,1h35.73a13.8,13.8,0,0,1-5.31-1A189.44,189.44,0,0,1,104.33,358Z"/><path class="cls-15" d="M431.78,313.8H73a9.38,9.38,0,0,0-9.4,9.8,189.13,189.13,0,0,0,5,34.41H436.22a189.14,189.14,0,0,0,5-34.41A9.38,9.38,0,0,0,431.78,313.8Z"/><path class="cls-13" d="M63.64,323.6a189.13,189.13,0,0,0,5,34.41h35.74a188.26,188.26,0,0,1-5-34.41,9.37,9.37,0,0,1,9.39-9.8H73A9.38,9.38,0,0,0,63.64,323.6Z"/><path class="cls-16" d="M371.09,65.51a4.71,4.71,0,0,0,3.45-5.15A44.15,44.15,0,0,0,336.6,22.43a4.7,4.7,0,0,0-5.15,3.45l-12.4,46.27a4.71,4.71,0,0,0,5.76,5.76Z"/><path class="cls-17" d="M339.61,72.15l12-44.88a44.1,44.1,0,0,0-15-4.84,4.7,4.7,0,0,0-5.15,3.45l-12.4,46.27a4.71,4.71,0,0,0,5.76,5.76L339.49,74a4.59,4.59,0,0,1,.12-1.83Z"/></svg>