<svg id="Layer_1" data-name="Layer 1" xmlns="http://www.w3.org/2000/svg" viewBox="0 0 512 512"><defs><style>.cls-1{fill:#b57a4e;}.cls-2{fill:#e49824;}.cls-3{fill:#df8621;}.cls-4{fill:#eab14d;}.cls-5{fill:#e7a52e;}.cls-6{fill:#f1cb86;}</style></defs><path class="cls-1" d="M138.24,489.61a16.14,16.14,0,0,1-16.14-16.14V457.33h32.29v16.14A16.14,16.14,0,0,1,138.24,489.61Z"/><path class="cls-1" d="M373.76,489.61a16.14,16.14,0,0,0,16.14-16.14V457.33H357.61v16.14a16.14,16.14,0,0,0,16.15,16.14Z"/><path class="cls-2" d="M104.06,324.38v-245a57,57,0,0,1,57-57H351a57,57,0,0,1,57,57v245Z"/><path class="cls-3" d="M351,22.39H324.38a57,57,0,0,1,57,57V182.22a18.9,18.9,0,0,1-6.07,13.9A81.42,81.42,0,0,0,349.07,256v68.38h58.87v-245A57,57,0,0,0,351,22.39Z"/><path class="cls-3" d="M162.93,256v68.38H104.06V177.59A81.8,81.8,0,0,1,162.93,256Z"/><path class="cls-4" d="M138.24,324.38H373.76v133H138.24Z"/><path class="cls-5" d="M351,324.38h22.79v133H351Z"/><path class="cls-2" d="M138.24,368.69H373.76V413H138.24Z"/><path class="cls-3" d="M351,368.69h22.79V413H351Z"/><path class="cls-6" d="M138.24,324.38V295.89a28.49,28.49,0,0,1,28.49-28.49H345.27a28.49,28.49,0,0,1,28.49,28.49v28.49Z"/><path class="cls-4" d="M81.26,199A57,57,0,0,0,68,311.4V419.34a38,38,0,0,0,38,38h32.29V256A57,57,0,0,0,81.26,199Z"/><path class="cls-5" d="M81.26,199a57.15,57.15,0,0,0-9.49.8A57,57,0,0,1,119.25,256V457.33h19V256a57,57,0,0,0-57-57Z"/><circle class="cls-6" cx="81.26" cy="256" r="15.19"/><path class="cls-4" d="M487.72,256a57,57,0,0,0-114,0V457.33h32.29a38,38,0,0,0,38-38V311.4A57,57,0,0,0,487.72,256Z"/><path class="cls-5" d="M446.91,201.36a57,57,0,0,1-11.07,96.45A19,19,0,0,0,425,315.1V419.34a38,38,0,0,1-38,38h19a38,38,0,0,0,38-38V311.4a57,57,0,0,0,2.88-110Z"/><circle class="cls-6" cx="430.74" cy="256" r="15.19"/><circle class="cls-4" cx="256" cy="81.26" r="8.55"/><circle class="cls-4" cx="297.79" cy="81.26" r="8.55"/><circle class="cls-4" cx="214.21" cy="81.26" r="8.55"/><circle class="cls-4" cx="256" cy="157.24" r="8.55"/><circle class="cls-4" cx="297.79" cy="157.24" r="8.55"/><circle class="cls-4" cx="214.21" cy="157.24" r="8.55"/><circle class="cls-4" cx="276.89" cy="123.05" r="8.55"/><circle class="cls-4" cx="318.68" cy="123.05" r="8.55"/><circle class="cls-4" cx="235.11" cy="123.05" r="8.55"/><circle class="cls-4" cx="193.32" cy="123.05" r="8.55"/><path class="cls-5" d="M108.73,312.22a7.06,7.06,0,0,0-9.29-3.64,49.45,49.45,0,0,1-20,4.16,50.26,50.26,0,0,1-11.56-1.35h0v14.4a64.2,64.2,0,0,0,37.12-4.29,7.06,7.06,0,0,0,3.64-9.29Z"/><path class="cls-5" d="M403.27,312.22a7.06,7.06,0,0,1,9.29-3.64,49.45,49.45,0,0,0,20,4.16,50.26,50.26,0,0,0,11.56-1.35H444v14.4a64.2,64.2,0,0,1-37.12-4.29,7.06,7.06,0,0,1-3.64-9.29Z"/></svg>