<svg id="Layer_1" data-name="Layer 1" xmlns="http://www.w3.org/2000/svg" viewBox="0 0 512 512"><defs><style>.cls-1{fill:#bdeffc;}.cls-2{fill:#ffa4b8;}.cls-3{fill:#ffdfba;}.cls-4{fill:#ff99af;}.cls-5{fill:#ffb1bf;}.cls-6{fill:#ffebd2;}.cls-7{fill:#42434d;}.cls-8{fill:#4d4e59;}</style></defs><path class="cls-1" d="M406.9,475.53a7.83,7.83,0,0,1-7.84,7.84H112.94a7.83,7.83,0,0,1-7.84-7.84V437.06a73.1,73.1,0,0,1,41.55-65.94,112.51,112.51,0,0,1-12.16-50.93v-170a121.51,121.51,0,0,1,243,0c0,230.5-.06,228.29,0,228.29a72.93,72.93,0,0,1,29.32,55.91c.07,2.06,0-.86,0,41.12Z"/><path class="cls-2" d="M406.85,434.41c-57.3,37.42-131.64,22.27-194-5.86C185.17,459,146,472.05,105.1,467.7V437.06a73.1,73.1,0,0,1,41.55-65.94,112.51,112.51,0,0,1-12.16-50.93v-170a121.51,121.51,0,0,1,243,0c0,230.5-.06,228.29,0,228.29a72.93,72.93,0,0,1,29.32,55.91Z"/><path class="cls-3" d="M281.12,116a286.65,286.65,0,0,0-50.24,0A78.68,78.68,0,0,0,159,194.38v32.38a97,97,0,0,0,194,0V194.38A78.69,78.69,0,0,0,281.12,116Z"/><path class="cls-4" d="M212.84,428.55a121.79,121.79,0,0,1-20.39,17.95c-1.94-.91-8.61-4.09-9.43-4.53a112.3,112.3,0,0,1-54.72-58.31,72.62,72.62,0,0,1,18.35-12.54c18.39,36.31,46.92,48.71,66.19,57.43Z"/><path class="cls-5" d="M287.41,58.05C229.3,57.35,173.65,98.77,165,163.18a13.08,13.08,0,0,1-.77,2.95c-6.49,16.64-5.24,27.66-5.24,60.63a97,97,0,0,0,4.31,28.68,12.49,12.49,0,0,1,.59,3.74V350.3c.09,14.22-19.87,17.42-24.16,3.86a112.86,112.86,0,0,1-5.24-34V151.62c0-78.21,76.07-142.07,156.66-117.75,13.62,4.11,10.48,24.35-3.74,24.18Z"/><path class="cls-6" d="M231.57,306.85a15.88,15.88,0,0,1-20.86,5.55A98.54,98.54,0,0,1,159,225.65c0-33.34-.35-36.41,1.26-45.28a78.7,78.7,0,0,1,49.61-59.55,78.46,78.46,0,0,0-20.22,40c-1.62,8.92-1.25,11.81-1.25,46.38a96.06,96.06,0,0,0,39.26,77.91,16,16,0,0,1,3.92,21.78Z"/><path class="cls-7" d="M281.12,116a78.71,78.71,0,0,1,70.63,64.33,287.14,287.14,0,0,0-191.51,0A78.73,78.73,0,0,1,230.87,116a286.81,286.81,0,0,1,50.25,0Z"/><path class="cls-8" d="M192.6,149.36A78.86,78.86,0,0,0,188.44,172a284.31,284.31,0,0,0-28.19,8.37,78.36,78.36,0,0,1,19.13-38.79c5.7-6.28,16-.25,13.22,7.78Z"/></svg>