<svg id="Layer_1" data-name="Layer 1" xmlns="http://www.w3.org/2000/svg" viewBox="0 0 512 512"><defs><style>.cls-1{fill:#fed9a8;}.cls-2{fill:#f4c892;}.cls-3{fill:#4d4a5b;}.cls-4{fill:#444251;}.cls-5{fill:#f2f2f2;}.cls-6{fill:#e8eaea;}.cls-7{fill:#b57a4e;}.cls-8{fill:#f4cfa6;}.cls-9{fill:#f4cfa2;}.cls-10{fill:#9b5729;}.cls-11{fill:#fffcfd;}.cls-12{fill:#3a3847;}.cls-13{fill:#ffdfb8;}.cls-14{fill:#d83968;}.cls-15{fill:#ca3561;}.cls-16{fill:#666277;}.cls-17{fill:#f33a3a;}.cls-18{fill:#e25959;}.cls-19{fill:#72563c;}.cls-20{fill:#ff9faf;}</style></defs><path class="cls-1" d="M419.41,338.88l-7.48-1.51a11.35,11.35,0,0,1-9.13-11.14V315.46H353.89v11.05a11.36,11.36,0,0,1-9.12,11.14l-6.12,1.23V380h80.76V338.88Z"/><path class="cls-2" d="M381.54,315.46v20.07a11.37,11.37,0,0,0,9.13,11.14l28.74,5.72V338.88l-7.48-1.51a11.35,11.35,0,0,1-9.13-11.14V315.46Z"/><path class="cls-3" d="M419.4,338.88l-22.18,5.82a71.43,71.43,0,0,1-36.38,0l-22.18-5.82-47.72,14a53.44,53.44,0,0,0-38.34,51.26v87.18H505.45V404.18a53.44,53.44,0,0,0-38.34-51.26Z"/><path class="cls-4" d="M467.11,352.93,419.4,338.88l-28,7.35,22.74,6.7a53.42,53.42,0,0,1,38.34,51.25v87.18h52.95V404.18A53.42,53.42,0,0,0,467.11,352.93Z"/><path class="cls-5" d="M242.63,231.31c-38.57-91.64-104.57-86.6-105.74-86.5-1.17-.1-67.18-5.14-105.74,86.5C12.37,275.93,7.69,314.62,6.58,333.89a16.57,16.57,0,0,0,11.54,16.78l118.77,37.61,118.77-37.61a16.6,16.6,0,0,0,11.54-16.78C266.08,314.62,261.41,275.93,242.63,231.31Z"/><path class="cls-6" d="M267.2,333.89c-1.12-19.27-5.79-58-24.57-102.58-38.57-91.64-104.57-86.6-105.74-86.5-.47,0-11.23-.86-26.44,4,23,7.27,56.1,27.41,79.3,82.54,18.78,44.62,23.46,83.31,24.57,102.58a16.57,16.57,0,0,1-11.54,16.78l-92.33,29.24,26.44,8.37,118.77-37.61A16.6,16.6,0,0,0,267.2,333.89Z"/><path class="cls-1" d="M217.51,360.27l-43.66-12.85h0L167,346a10.41,10.41,0,0,1-8.35-10.2V326H113.88v10.11a10.4,10.4,0,0,1-8.35,10.2l-5.6,1.12h0L56.26,360.27a48.92,48.92,0,0,0-35.09,46.92v84.22H252.6V407.19A48.91,48.91,0,0,0,217.51,360.27Z"/><path class="cls-2" d="M217.51,360.27l-43.66-12.85h0L167,346a10.41,10.41,0,0,1-8.35-10.2V326H136.89v12a18.88,18.88,0,0,0,13.55,18.12l14.21,4.18a48.91,48.91,0,0,1,35.09,46.92v84.22H252.6V407.19A48.91,48.91,0,0,0,217.51,360.27Z"/><circle class="cls-7" cx="136.89" cy="162.59" r="28.27"/><path class="cls-8" d="M212.75,279.09H199.43v-32.8h13.32a10.55,10.55,0,0,1,10.55,10.55v11.7A10.55,10.55,0,0,1,212.75,279.09Z"/><path class="cls-8" d="M61,279.09H74.35v-32.8H61a10.55,10.55,0,0,0-10.56,10.55v11.7A10.55,10.55,0,0,0,61,279.09Z"/><path class="cls-1" d="M136.89,330.93h0a66,66,0,0,1-66-66V246.33a66,66,0,0,1,66-66.05h0a66,66,0,0,1,66,66.05v18.56A66,66,0,0,1,136.89,330.93Z"/><path class="cls-9" d="M165.15,186.64v90.2A66,66,0,0,1,137,330.93a66,66,0,0,0,65.94-66V246.33A66,66,0,0,0,165.15,186.64Z"/><path class="cls-7" d="M214.57,242.49v-1a77.68,77.68,0,0,0-77.68-77.68h0A77.68,77.68,0,0,0,59.2,241.48v1a3.81,3.81,0,0,0,3.81,3.8H73a6.71,6.71,0,0,0,6.14-4l5.56-20.86a10.22,10.22,0,0,1,16.47-5.18c14.46,12.22,39.84,30,64.79,30h44.82A3.8,3.8,0,0,0,214.57,242.49Z"/><path class="cls-10" d="M136.89,163.8h0a77.57,77.57,0,0,0-24.74,4,73.88,73.88,0,0,1,49.77,69.83v8.45c1.34.1,2.69.16,4,.16h44.82a3.8,3.8,0,0,0,3.8-3.8v-1A77.68,77.68,0,0,0,136.89,163.8Z"/><path class="cls-11" d="M216.76,412.76a10.11,10.11,0,0,0-2-6,43.37,43.37,0,0,0-68.22-1.92,12.54,12.54,0,0,1-19.35,0A43.37,43.37,0,0,0,59,406.72a10.18,10.18,0,0,0-2,6v78.65H216.76V412.76Z"/><path class="cls-5" d="M214.78,406.72a43.36,43.36,0,0,0-61.3-8.57,43.88,43.88,0,0,1,8.43,8.57,10.18,10.18,0,0,1,2,6v78.65h52.87V412.76A10.11,10.11,0,0,0,214.78,406.72Z"/><path class="cls-12" d="M303.17,491.36V411.57a7.54,7.54,0,1,0-15.08,0v79.79h15.08Z"/><path class="cls-12" d="M468.87,491.36V411.57a7.54,7.54,0,0,0-15.08,0v79.79h15.08Z"/><path class="cls-8" d="M457.21,268.36H442.52V234.48h14.69a10.9,10.9,0,0,1,10.91,10.9v12.08A10.91,10.91,0,0,1,457.21,268.36Z"/><path class="cls-8" d="M300.84,268.36h14.7V234.48h-14.7a10.9,10.9,0,0,0-10.9,10.9v12.08A10.9,10.9,0,0,0,300.84,268.36Z"/><path class="cls-13" d="M379,321.9h0a68.21,68.21,0,0,1-68.22-68.21V234.52A68.22,68.22,0,0,1,379,166.3h0a68.21,68.21,0,0,1,68.21,68.22v19.17A68.21,68.21,0,0,1,379,321.9Z"/><path class="cls-9" d="M409.46,173.47v94.34a65.93,65.93,0,0,1-28.08,54,68.2,68.2,0,0,0,65.86-68.15V234.52A68.21,68.21,0,0,0,409.46,173.47Z"/><path class="cls-14" d="M288.81,24.59A41.61,41.61,0,0,0,256,40.6a41.68,41.68,0,0,0-74.52,25.67c0,52.37,74.52,81.53,74.52,81.53s74.53-29.16,74.53-81.53A41.68,41.68,0,0,0,288.81,24.59Z"/><path class="cls-15" d="M288.81,24.59a41.47,41.47,0,0,0-25.51,8.73,41.57,41.57,0,0,1,8.8,6.36c.17.15.34.33.52.49l.45.44a30,30,0,0,1,2.45,2.7,41.4,41.4,0,0,1,5.74,9c16.45,35.26-9.78,76.29-24.36,95.06,8.57-3.56,73.59-32.23,73.59-81.15A41.68,41.68,0,0,0,288.81,24.59Z"/><path class="cls-16" d="M338.65,338.88l-20.4,36a2.67,2.67,0,0,0,.21,2.93L379,471.64Z"/><path class="cls-7" d="M452.19,234.48h5a10.82,10.82,0,0,1,4.48,1V218.11a71.06,71.06,0,0,0-71.06-71.06H367.42a71.06,71.06,0,0,0-71.06,71.06v17.34a10.82,10.82,0,0,1,4.48-1h10A68.19,68.19,0,0,1,315,210.87c30.17-8.54,60.82,14.78,94.16,14.78,16.65,0,28-3.73,35.71-8.28h.17a68.07,68.07,0,0,1,2.18,17.12Z"/><path class="cls-10" d="M452.19,234.48h5a10.82,10.82,0,0,1,4.48,1V218.11a71.06,71.06,0,0,0-71.06-71.06H367.42a71.74,71.74,0,0,0-14.83,1.56,71.08,71.08,0,0,1,56.24,69.5v7.53h.35c16.65,0,28-3.73,35.71-8.28h.17a68.07,68.07,0,0,1,2.18,17.12Z"/><path class="cls-11" d="M419.4,338.88l-22.3,5.85a71,71,0,0,1-36.15,0l-22.3-5.85L379,471.64Z"/><polygon class="cls-17" points="386.77 383.11 371.23 383.11 366.21 419.4 379.03 456.86 391.84 419.41 386.77 383.11"/><polygon class="cls-18" points="379.03 366.26 362.36 374.19 370.51 388.31 387.54 388.31 395.69 374.19 379.03 366.26"/><path class="cls-16" d="M419.4,338.88l20.4,36a2.65,2.65,0,0,1-.21,2.93L379,471.64Z"/><polygon class="cls-14" points="386.77 383.11 371.23 383.11 365.25 426.33 379.03 471.64 392.81 426.32 386.77 383.11"/><polygon class="cls-14" points="379.03 358.97 362.36 374.19 370.51 388.31 387.54 388.31 395.69 374.19 379.03 358.97"/><path class="cls-19" d="M108.42,271.32a4.53,4.53,0,0,1-4.52-4.52v-8.43a4.52,4.52,0,1,1,9,0v8.43A4.52,4.52,0,0,1,108.42,271.32Z"/><path class="cls-19" d="M165.35,271.32a4.53,4.53,0,0,1-4.52-4.52v-8.43a4.53,4.53,0,1,1,9,0v8.43A4.53,4.53,0,0,1,165.35,271.32Z"/><path class="cls-20" d="M136.89,310.58c-8.11,0-15.35-3.33-19.36-8.92a4.52,4.52,0,0,1,1-6.31,4.44,4.44,0,0,1,2.63-.85,4.53,4.53,0,0,1,3.68,1.88c2.25,3.13,7,5.15,12,5.15s9.76-2,12-5.15a4.55,4.55,0,0,1,3.68-1.88,4.52,4.52,0,0,1,3.67,7.16C152.23,307.25,145,310.58,136.89,310.58Z"/><path class="cls-19" d="M349.63,260.19a4.53,4.53,0,0,1-4.53-4.53V247a4.53,4.53,0,0,1,9,0v8.71A4.53,4.53,0,0,1,349.63,260.19Z"/><path class="cls-19" d="M408.43,260.19a4.53,4.53,0,0,1-4.53-4.53V247a4.53,4.53,0,0,1,9.05,0v8.71A4.53,4.53,0,0,1,408.43,260.19Z"/><path class="cls-20" d="M379,300.73c-8.33,0-15.76-3.42-19.88-9.15a4.53,4.53,0,0,1,1-6.31,4.48,4.48,0,0,1,2.64-.86,4.53,4.53,0,0,1,3.67,1.89c2.36,3.27,7.28,5.39,12.54,5.39s10.17-2.12,12.53-5.39a4.53,4.53,0,0,1,3.68-1.88,4.44,4.44,0,0,1,2.63.85,4.52,4.52,0,0,1,1,6.31C394.78,297.31,387.35,300.73,379,300.73Z"/></svg>