<svg id="Layer_1" data-name="Layer 1" xmlns="http://www.w3.org/2000/svg" viewBox="0 0 512 512"><defs><style>.cls-1{fill:#dadbdc;}.cls-2{fill:#939598;}.cls-3{fill:#4d4d4f;}.cls-4{fill:#d83968;}.cls-5{fill:#f2f2f2;}</style></defs><polygon class="cls-1" points="464.26 243.72 428.34 230.99 363.31 220.53 253.27 202.34 161.42 194.61 103.21 216.44 45.92 250.54 27.27 274.64 29.55 298.74 55.47 318.3 140.96 336.94 216.89 335.57 244.63 346.03 330.57 369.22 409.69 376.95 440.16 371.04 440.16 358.77 353.76 312.84 411.06 296.01 454.71 304.65 473.81 298.74 480.63 286.01 468.35 269.64 473.81 256.45 464.26 243.72"/><polygon class="cls-2" points="476.08 169.15 393.32 224.62 446.07 235.54 464.26 243.72 485.18 180.97 482.9 169.15 476.08 169.15"/><polygon class="cls-2" points="455.62 266.46 428.34 263.73 395.6 268.73 376.95 276.92 380.59 284.65 454.71 304.65 473.81 298.74 480.63 286.01 468.35 269.64 455.62 266.46"/><polygon class="cls-2" points="193.85 307.23 209.01 301.77 221.74 314.51 266.31 336.94 305.11 347.55 354.83 352.4 399.69 347.85 415.45 343.61 440.16 358.77 440.16 371.04 422.12 376.95 383.02 376.65 342.7 370.59 280.86 356.95 235.69 342.7 205.07 325.72 192.94 316.93 193.85 307.23"/><polygon class="cls-2" points="39.86 252.66 55.01 271.76 58.95 295.41 55.47 318.3 29.55 298.74 27.27 274.64 39.86 252.66"/><path class="cls-3" d="M112.25,234.28c-3.62-4.56-9-4.23-13.82-6.51-5.25-2.49-11.09-4.25-15.84.45a10,10,0,0,0-2.48,4.08c-.28-.13-.55-.28-.85-.39-3.69-1.45-6.12,3.19-4.69,6.1,4.56,9.33,15.46,19.65,26.54,18.77C111.76,255.93,119.49,243.42,112.25,234.28Z"/><path class="cls-3" d="M160.22,246.42a11.26,11.26,0,0,0-13.95-8.19c-6,1.64-9.46,7.78-9.28,13.75s3,12.9,9.84,13.12a8.94,8.94,0,0,0,4.94-1.32,9.07,9.07,0,0,0,3.06-1.26C159.5,259.52,161.61,251.57,160.22,246.42Z"/><path class="cls-3" d="M208.32,246.57a11.88,11.88,0,0,0-1.48-4.81,9.06,9.06,0,0,0-12.12-3.32,11.46,11.46,0,0,0-3.74,3.37c-4.81,4.6-7.07,12.15-2.64,17.82A10.64,10.64,0,0,0,203.66,261c3.17-2.28,4.46-5.9,4.81-9.81A17.45,17.45,0,0,0,208.32,246.57Z"/><path class="cls-3" d="M253.77,237.85c-3.79-2.86-7.87-2.27-11.12,0-10,4.15-11.32,22.62.77,24.84C254.92,264.8,262.79,244.65,253.77,237.85Z"/><path class="cls-3" d="M306.39,245.83c0-5.08-1.85-11.07-6.85-12.49-4.82-1.37-8.51,1.64-10.82,5.58a15.63,15.63,0,0,0-4.09,9.74,12,12,0,0,0,4.53,10.09c.18.14.37.27.56.39a9.58,9.58,0,0,0,2.16,1.37C301.28,264.91,307.28,254.54,306.39,245.83Z"/><path class="cls-3" d="M354,238.54c-2.31-6.24-9.5-8.45-14.67-4-3.75,3.18-5.66,8.52-5.82,13.34-.19,5.95,3.6,12,10,12.22a9.34,9.34,0,0,0,6-1.91,10.25,10.25,0,0,0,4-3.89C356,249.92,355.66,243.07,354,238.54Z"/><path class="cls-4" d="M81.89,53.67c-12.51,5-22.11,18.88-18.64,31.89,2.32,8.67,9.57,15.07,16.92,20.21,19,13.29,40.89,21.81,63,28.68,5.44,1.69,11.63,3.21,16.58.4,3.68-2.1,5.76-6.14,7.4-10,10-24,10.75-51,6.73-76.69-1.26-8-3.52-16.9-10.38-21.32-7.83-5.05-18.8-1.92-25.45,4.6-6.48,6.37-8.54,21.21-18.74,22.11C114,54,108.28,51.58,103,51.08A45.59,45.59,0,0,0,81.89,53.67Z"/><path class="cls-4" d="M254.13,83.88c-8.56-3.12-19.18-2.25-25.42,4.38-5.89,6.26-6.49,16.11-3.73,24.24s8.34,15,13.8,21.6c4.42,5.38,8.9,10.81,14.46,15s12.41,7,19.35,6.57c7.09-.49,13.49-4.37,19.11-8.72a102.59,102.59,0,0,0,22-23.35c3.42-5,6.44-10.48,7.45-16.47s-.28-12.61-4.52-17c-5.34-5.46-14.25-6.13-21.39-3.41C289.29,89,280.64,100.41,275,98.31c-3.55-1.31-7-6.25-10.13-8.52A43.59,43.59,0,0,0,254.13,83.88Z"/><path class="cls-4" d="M376.37,116.11c-3-.47-6.34-.4-8.76,1.45a9.17,9.17,0,0,0-3.2,7.7,21.32,21.32,0,0,0,2.45,8.27,67.18,67.18,0,0,0,19.43,24.08c3.52,2.73,7.67,5.2,12.11,4.87,4.22-.31,7.85-3.1,10.69-6.23a40.43,40.43,0,0,0,10-32.48c-.68-4.76-2.69-9.93-7.11-11.82-3.87-1.67-8.52-.22-11.74,2.5s-5,9-9.54,8.23c-1.84-.31-4.66-3.27-6.48-4.14A29.1,29.1,0,0,0,376.37,116.11Z"/><path d="M484.79,191c1.92-6.49,5.6-14.12,3.28-20.94-1.88-5.52-7.38-8.7-13.05-7-3.55,1.09-6.4,3.72-9.3,5.91-3.45,2.61-6.92,5.22-10.36,7.84-6.68,5.09-13.25,10.33-19.86,15.5-24.42,19.1-47,29.66-78.41,23.09-20.52-4.29-41.1-8.28-61.8-11.63-24.05-3.88-48.15-7.37-72.37-10-22.07-2.41-44.23-4.21-66.32-1a126.66,126.66,0,0,0-31.31,8.47c-10,4.23-19,10.06-28.48,15.35S78,226.67,68.23,231.17c-9.26,4.29-18.43,9-26.36,15.44C28.43,257.6,19,276.9,25.1,294.27c6.5,18.36,27.48,25.16,44.1,31.12A319,319,0,0,0,221,340.45a3.25,3.25,0,0,0,1.31-.49l2.6,1.15c9.67,4.33,19.48,8.29,29.48,11.78a491.3,491.3,0,0,0,63.09,16.95c22.07,4.52,44.51,8.7,66.95,10.88a194.87,194.87,0,0,0,35.82.66c8.16-.71,19.88-1,24.41-9.23s-2-16.39-8.46-21.08c-8.67-6.28-18.49-11.41-27.78-16.69-13.15-7.46-26.6-14.44-40.4-20.63,5.53-.77,11-1.75,16.5-3,10-2.34,20.86-4.86,29.87-10.11a187.77,187.77,0,0,0,32.73,6.59c10.47,1.1,22.91,1.91,31.11-6.05C485,294.54,485,284,480,276.37a25.9,25.9,0,0,0-4.92-5.46c.06-.11.13-.22.19-.35,5-10.28,1.7-20.11-5.19-27.27a5.11,5.11,0,0,0,.75-1.37C476.65,225.37,479.82,207.82,484.79,191ZM94.9,226.64a16.1,16.1,0,0,0,6.54,4c3.5,1.24,7.16,1.86,9.37,5.2a10.36,10.36,0,0,1,.63,10.19c-3.45,7.07-12.07,8.44-18.78,5.65s-10.5-8.72-14.72-14.33C83.71,233.92,89.33,230.35,94.9,226.64Zm-43.35,83.9c-5.6-2.18-11-5-15-9.39-11.71-12.83-4-30,6.74-41C55.71,273.69,59.6,293.37,51.55,310.54ZM412,348.84q6.3,3.71,12.42,7.48c3.41,2.1,7.16,4.09,9.72,7.27,3.66,4.58-.51,6.29-4.84,7.26-9.88,2.21-20.21,2.79-30.3,2.74-20.45-.08-40.74-3.55-60.78-7.3-37.23-7-74.76-16.09-109.24-32.13-4.91-2.29-9.72-4.79-14.47-7.39-4.44-2.43-9.85-4.82-13.44-8.49-1.39-1.43-3-3.55-2.48-5.7.57-2.51,3.15-3.21,5.35-3.9q2.43-.75,4.91-1.42c44.83,34,100.89,49.32,156.89,47.56A241,241,0,0,0,412,348.84Zm-8.75-5C351,354.18,297.29,347,248.82,324.73a275.52,275.52,0,0,1-34.38-18.91q3-.72,6-1.41a319.92,319.92,0,0,1,37.93-6.21C308.88,297.74,359,318.7,403.2,343.79Zm-21-41.31c-8.32,2.42-16.74,4.65-25.22,6.53-2.58-1.05-5.18-2.09-7.79-3.08-14.53-5.54-29.21-8.84-44.24-12.41-12.54-3-23.64-3.28-36.57-3.66-15-.43-29,2.91-43.59,5.29-1.57.26-3.14.5-4.7.77-5.39.95-10.75,2-16.09,3.18-4.5,1-9.13,2-12.39,5.53-6.68,7.12-1.84,17.16,4.94,22a86,86,0,0,0,11.75,6.9,469.19,469.19,0,0,1-52.78-.87c-21.65-1.7-43-5.66-64.08-10.64-10.3-2.44-20.55-5.16-30.65-8.36L58.7,313c7.65-19.86,3.13-41.75-12.32-55.87.91-.8,1.83-1.57,2.75-2.28,6.87-5.28,14.45-9.43,22-13.64,6.24,15.27,27.12,26.19,41.25,14.05,5.69-4.89,8-12.75,5-19.79a14.37,14.37,0,0,0-7.16-7.54c-3.22-1.51-8.42-1.65-11.43-3.93l.23-.15c17.31-11.8,36.11-19.53,57.06-21.55,20.36-2,41-.26,61.26,2q34.2,3.72,68.28,8.49c25.36,3.56,51.76,7.43,77.37,12,13.37,2.41,26.69,5,39.95,8,11.26,2.5,22.27,2.36,33.63,4.66l2.91.81c7.21,2.06,15.31,4.24,21.2,9.12,5,4.18,9.06,11.76,5.93,18.2l-.08.18a58.94,58.94,0,0,0-9.12-3.16,1.31,1.31,0,0,0-1.1-.64l-1.89-.09-.63-.14a108.09,108.09,0,0,0-64.41,5.7,78,78,0,0,0-7.6,2.36c-7.64,2.83-11.47,11.29-4.1,17,4.1,3.19,9.79,4.64,14.59,6.43,2.83,1.05,5.67,2.08,8.52,3.07C394.59,298.3,388.44,300.68,382.21,302.48Zm93.43-11.05c-3,9.46-16.25,8.5-23.88,7.84a187.17,187.17,0,0,1-28.46-5.1c-9.46-2.34-18.77-5.29-28-8.52-3.87-1.37-8.4-2.46-11.93-4.59-5.74-3.46,4.75-6,7.2-6.71a232.64,232.64,0,0,1,31.9-7.07,109,109,0,0,1,12.25.22,105,105,0,0,1,25.51,5.35C467.55,275.28,478.59,282,475.64,291.43ZM462.78,237.5a38.59,38.59,0,0,0-10.16-4.37c-9.85-2.62-20.23-3.63-30.24-5.51l-17.62-3.3C426,210,446.94,195.25,467.51,179.91c2.81-2.09,5.55-4.45,8.51-6.31,1.39-.87,2.48-1.95,4-1s1.36,3.09,1.28,4.65c-.18,3.66-1.85,7.51-2.87,11s-2.06,6.87-3.18,10.28C471,211.39,466.09,224.33,462.78,237.5Z"/><path d="M150.51,234.65c-11.54-.88-19.4,13.22-17.07,23.42a14.85,14.85,0,0,0,15.82,11.43,16.3,16.3,0,0,0,12.93-10.07C166,250.13,162.23,235.55,150.51,234.65Zm5.66,21.77c-2.71,7.29-12.07,9.65-16.14,2.24-1.21-7.27-.11-17.25,9.09-17.35C156.54,241.22,158.19,251,156.17,256.42Z"/><path d="M199.63,233.43c-11.54-.88-19.4,13.22-17.06,23.42a14.84,14.84,0,0,0,15.81,11.43,16.29,16.29,0,0,0,12.93-10.07C215.15,248.9,211.35,234.33,199.63,233.43Zm5.66,21.77c-2.7,7.29-12.07,9.65-16.14,2.24-1.21-7.27-.11-17.25,9.09-17.35C205.66,240,207.31,249.78,205.29,255.2Z"/><path d="M248.75,232.21c-11.54-.89-19.4,13.22-17.06,23.42a14.85,14.85,0,0,0,15.82,11.43A16.27,16.27,0,0,0,260.43,257C264.27,247.68,260.48,233.1,248.75,232.21ZM254.42,254c-2.71,7.28-12.07,9.65-16.15,2.24-1.21-7.27-.11-17.25,9.1-17.35C254.79,238.78,256.43,248.56,254.42,254Z"/><path d="M297.87,231c-11.54-.89-19.4,13.22-17.06,23.42a14.85,14.85,0,0,0,15.82,11.43,16.29,16.29,0,0,0,12.92-10.07C313.39,246.46,309.6,231.88,297.87,231Zm5.67,21.77c-2.71,7.28-12.07,9.65-16.15,2.23-1.21-7.26-.11-17.24,9.1-17.35C303.91,237.56,305.56,247.33,303.54,252.76Z"/><path d="M347,229.76c-11.53-.88-19.4,13.23-17.06,23.43a14.86,14.86,0,0,0,15.82,11.43,16.33,16.33,0,0,0,12.93-10.08C362.52,245.24,358.72,230.66,347,229.76Zm5.67,21.78c-2.71,7.28-12.07,9.64-16.15,2.23-1.21-7.27-.11-17.24,9.1-17.35C353,236.34,354.68,246.11,352.66,251.54Z"/><path class="cls-4" d="M104.19,126.81A187.41,187.41,0,0,0,146.25,141c6,1.24,12.62,1.87,18.18-1.24,5.91-3.3,9-9.64,11.06-15.78a155.33,155.33,0,0,0,7.73-45.65c.35-13.44-.2-29-7.15-40.95s-20.86-18.92-34-12.91c-11.3,5.18-17.39,17-19.95,28.87-11.69-4.61-24.33-7.88-36.83-4.93C74.21,51,63.87,59,60.42,70.11,51.75,98.1,83.44,117,104.19,126.81ZM86.17,57c7.18-2.16,16.57-2.34,23.7.26s15.42,9.1,20.35,0,2.63-18.47,13.52-24.17c9.82-5.14,19.67.91,24.07,10.14,4.78,10,4.25,22.42,3.79,33.25a150.75,150.75,0,0,1-5.54,34.6c-1.31,4.65-2.51,9.92-5.16,14-3.06,4.75-7.89,4.79-13.06,4.19-11.27-1.3-22.61-4.81-33.19-8.76-17.84-6.66-44.76-18-46.75-40.06C66.85,68.78,75.65,60.14,86.17,57Z"/><path class="cls-4" d="M261.82,160.9c11.47,4.86,22.61-.91,31.66-8a111,111,0,0,0,23-24.52c6.08-8.88,11.66-19.55,10.05-30.65s-10.7-19.42-22.28-18.43c-11.17,1-18.88,8.85-25.43,17.19-7-7.58-14.66-15.16-24.8-18.13-8.54-2.5-18.72-1.56-25.62,4.45-17.05,14.87-2.41,42.09,8.16,56.06C243.15,147.65,251.51,156.54,261.82,160.9ZM230.66,93.5c3.8-7.72,13.49-8.93,21-6.55,9.13,2.91,16.18,10.59,22.62,17.3a3.8,3.8,0,0,0,4.27,1,2.79,2.79,0,0,0,3.07-1c5.08-6.52,10.75-13.84,19.06-16.21,8.85-2.52,16.73,2.28,17.44,11.67.65,8.7-4.86,17.11-9.75,23.85a75.53,75.53,0,0,1-17.63,17.51c-6.61,4.67-13.92,8.6-22.24,7.57s-14.83-6.46-20.62-12.16C238.25,127.11,223.55,107.92,230.66,93.5Z"/><path class="cls-5" d="M164.07,384.91,138.3,393.4,121,421.28l-.3,9.71-24.86-7.28L79.49,440.08l1.52,13s-28.19,4.54-27.89,5.45,2.12,10.61,2.12,10.61l21.52,7.28,166.73.91,12.13-14.55-.91-19.1-13.94-12.13-25.47,2.12-8.18-17.88-13.65-20.92Z"/><path class="cls-5" d="M376.58,417.34l-20.31,5.46-7.89,17.58.31,7.28s-33.35-1.82-33.05-.91-8.79,8.18-8.48,9.09,6.06,12.43,6.06,12.43l140.66,4.85,5.15-9.39-15.46-16.07-21.52-5.76-15.46,3.94-8.49-21.22Z"/><path class="cls-5" d="M247.59,430.37a31.64,31.64,0,0,0-16.52-6c-5.82-.4-15,4.75-18.81-1.21-3.09-4.89-3.52-11.31-5.83-16.6a47,47,0,0,0-10-14.51,51.09,51.09,0,0,0-31.62-14.49c-25.12-2-47,18.58-51,42.48-10.92-5-24.33-5.19-33.49,3.49a25.29,25.29,0,0,0-7.58,22.94c-12-.92-27.26,2-26.61,15.39.86,17.81,24.38,16.25,36.51,16.59,35.81,1,71.59,1,107.4.9q18.74.22,37.46.51c13.33.19,26.14-3.43,30.93-17.17C262.49,450.78,257.54,437.67,247.59,430.37Zm.55,27.29c-3.28,14.64-18.63,13.31-30.52,13.56-14.8.31-29.62.26-44.43.36-4.5,0-9,.09-13.49.14-17-.66-34-1.2-51-1.31l-22.13-.14c-7.42,0-15.39.71-22.74-.48-5.12-.83-13.9-7-6.28-11.42,6.07-3.55,15.23-3.11,21.73-1.26,4.84,1.38,7.42-4.44,4.58-7.86-5-6-1.46-15.37,4.57-19.12,8.51-5.27,19.8-1.21,27.34,3.84,3.29,2.2,8.62-.66,8.25-4.73-2-22.12,15.88-43.41,38.65-43,10.76.21,21.17,5.12,28.72,12.68a38.71,38.71,0,0,1,8.49,12.59c2,4.89,2.75,10.27,5.44,14.89,2.28,3.9,5.62,6.85,10.19,7.58,5.49.88,10.81-1.65,16.37-.34C242.46,436.14,250.6,446.75,248.14,457.66Z"/><path class="cls-5" d="M446.56,445.77a44.92,44.92,0,0,0-35.49-3.72c-4.53-16.78-18.74-30.9-37.1-30.26a29.23,29.23,0,0,0-28.29,28.29c-11.74-2.15-25.11-1-35.32,4.58-11.61,6.31-10.19,20.75,1.5,26.08,6.51,3,14.14,2.72,21.12,3.13,8.39.49,16.76.95,25.16,1.17,6.12.16,12.23.24,18.34.3l24,1.09,29.78,1.35c5.3.25,10.59.48,15.88.77,3.73.2,7.7.54,11.12-1.3,6.64-3.58,6.33-11.9,3.26-17.79S452.12,449,446.56,445.77Zm6.8,21.1c-.44,4.79-15.45,2.48-19.1,2.41l-57.81-1c-14.14-1.24-28.27-2.41-42.46-3-5.52-.23-12,.3-17.28-1.55-5.91-2.07-7.2-7.71-1.33-10.48,10.55-5,23.37-4.5,34.48-2.26,4.34.87,7.07-3.18,5.39-7-6.29-14.31,10.09-25.8,22.92-23.86,14.55,2.21,23,15.21,25.91,28.62.6,2.73,3.82,3.62,6.06,2.46,10.53-5.45,22.94-4.16,32.75,2.26C446.61,455.84,453.84,461.7,453.36,466.87Z"/><path class="cls-4" d="M395.56,167.14c7.58.69,14.1-3.92,18.6-9.64,8.36-10.63,14.39-28.59,9-41.76-2.58-6.28-8.5-10.52-15.47-9.34-7.68,1.31-12.12,7.45-15.38,13.94-3.91-3.59-8.32-6.7-13.64-7.59-5.72-1-12.09.69-15.54,5.63-8.55,12.22,4.38,28.74,12.7,37.24C381.09,161,387.76,166.43,395.56,167.14Zm-19.89-47.26c6.31-.51,11.5,4.46,15.73,8.45a3,3,0,0,0,3.82.37,3.32,3.32,0,0,0,2.44-1.91c2.32-4.5,6.31-13.08,12.75-11.87,5.06,1,5.2,8.3,4.88,12.22a43.38,43.38,0,0,1-5.58,17.51c-2.67,4.71-6.69,11-12.59,11.64s-12-4.47-16.06-8.26a46.06,46.06,0,0,1-10.84-14.67C367.69,127.65,368.09,120.49,375.67,119.88Z"/></svg>