<svg id="Layer_1" data-name="Layer 1" xmlns="http://www.w3.org/2000/svg" viewBox="0 0 512 512"><defs><style>.cls-1{fill:#ffb3b3;}.cls-2{fill:#faa6b2;}.cls-3{fill:#0bafea;}.cls-4{fill:#0276b4;}.cls-5{fill:#683b0d;}.cls-6{fill:#eaeae8;}.cls-7{fill:#fbfdff;}.cls-8{fill:#ea9d2d;}.cls-9{fill:#fbb540;}.cls-10{fill:#d32b39;}.cls-11{fill:#f6cd80;}.cls-12{fill:#961b20;}.cls-13{fill:#533222;}</style></defs><g id="flat"><path class="cls-1" d="M366.79,133.06,339.5,64.83a23.68,23.68,0,0,1,8.85-28.48L349,36a109.71,109.71,0,0,1,121.72,0l.61.4a23.68,23.68,0,0,1,8.85,28.48l-27.29,68.23Z"/><path class="cls-2" d="M401.2,141.66a8.6,8.6,0,0,1-8.42-6.92l-8.61-43A8.61,8.61,0,0,1,401,88.24l0,.1,8.6,43a8.6,8.6,0,0,1-6.75,10.12A8.83,8.83,0,0,1,401.2,141.66Z"/><path class="cls-2" d="M418.43,141.66a8.73,8.73,0,0,1-1.69-.17A8.59,8.59,0,0,1,410,131.37l8.6-43a8.61,8.61,0,0,1,16.9,3.28l0,.09-8.61,43A8.6,8.6,0,0,1,418.43,141.66Z"/><circle class="cls-3" cx="159.25" cy="365.4" r="111.87"/><path class="cls-4" d="M262.17,409.3a112.3,112.3,0,0,1-8.63,16.34H65a111.33,111.33,0,0,1-8.63-16.34Z"/><path class="cls-5" d="M409.82,494.48A25.82,25.82,0,0,1,384,468.66h0V288h51.64V468.66a25.82,25.82,0,0,1-25.82,25.82Z"/><path class="cls-5" d="M384,288h51.63v17.21H384Z"/><path class="cls-6" d="M435.64,288H384l-3.71-18.55a695.82,695.82,0,0,1-13.5-136.34h86.06A695.07,695.07,0,0,1,439.34,269.4Z"/><path class="cls-7" d="M444.24,210.5H418.43a8.61,8.61,0,1,1,0-17.21h25.81a8.61,8.61,0,1,1,0,17.21Z"/><path class="cls-8" d="M300.56,391.22H369.4V494.48H300.56Z"/><path class="cls-9" d="M300.56,356.79H369.4v34.43H300.56Z"/><path class="cls-10" d="M360.8,356.79H309.17V259.85a10.75,10.75,0,0,1,14.15-10.21l16.88,5.63a30.12,30.12,0,0,1,20.6,28.57Z"/><path class="cls-4" d="M262.17,409.3a112.3,112.3,0,0,1-8.63,16.34H65a111.33,111.33,0,0,1-8.63-16.34Z"/><circle class="cls-6" cx="159.25" cy="365.4" r="77.45"/><path class="cls-6" d="M204.39,302.47l-95.6,121.68a77.39,77.39,0,0,1-21.16-29.23l79.89-106.53A76.91,76.91,0,0,1,204.39,302.47Z"/><path class="cls-6" d="M235,349.36l-63.52,80.85a8.6,8.6,0,0,1-13.77-10.32l.24-.31,70.25-89.41A76.58,76.58,0,0,1,235,349.36Z"/><path class="cls-3" d="M30.17,425.64H288.33v4.3a64.55,64.55,0,0,1-64.54,64.54H94.71a64.54,64.54,0,0,1-64.54-64.54h0v-4.3Z"/><path class="cls-7" d="M204.39,302.47l-95.6,121.68a77.39,77.39,0,0,1-21.16-29.23l79.89-106.53A76.91,76.91,0,0,1,204.39,302.47Z"/><path class="cls-7" d="M235,349.36l-63.52,80.85a8.59,8.59,0,0,1-12.07,1.46h0c-3.74-2.94-10.8-.09-7.86-3.82l76.66-97.67a76.19,76.19,0,0,1,6.8,19.19Z"/><path class="cls-11" d="M271.12,111.54A54.42,54.42,0,0,1,236.7,146l13.79,9.2A54.44,54.44,0,0,1,269,176.1l2.14,4.29,2.14-4.29a54.44,54.44,0,0,1,18.49-20.94l13.79-9.2A54.42,54.42,0,0,1,271.12,111.54Z"/><path class="cls-11" d="M188.69,163.17a54.43,54.43,0,0,1-34.42,34.43l13.79,9.19a54.44,54.44,0,0,1,18.49,20.94l2.14,4.29,2.14-4.29a54.44,54.44,0,0,1,18.49-20.94l13.79-9.19A54.43,54.43,0,0,1,188.69,163.17Z"/><path class="cls-11" d="M223.11,34.09a54.43,54.43,0,0,1-34.42,34.43l13.79,9.19A54.44,54.44,0,0,1,221,98.65l2.14,4.29,2.14-4.29a54.44,54.44,0,0,1,18.49-20.94l13.79-9.19A54.43,54.43,0,0,1,223.11,34.09Z"/><path class="cls-4" d="M133.43,425.64h51.63a17.21,17.21,0,0,1,17.22,17.21h0a17.22,17.22,0,0,1-17.22,17.21H133.43a17.22,17.22,0,0,1-17.21-17.21h0A17.21,17.21,0,0,1,133.43,425.64Z"/><path class="cls-12" d="M309.17,339.58H360.8v17.21H309.17Z"/><path class="cls-13" d="M384,288h51.63v17.21H384Z"/></g></svg>