<svg id="Layer_1" data-name="Layer 1" xmlns="http://www.w3.org/2000/svg" viewBox="0 0 512 512"><defs><style>.cls-1{fill:#b57a4e;}.cls-2{fill:#9b5729;}.cls-3{fill:#eaf6ff;}.cls-4{fill:#d8ecfe;}.cls-5{fill:#c4e2ff;}.cls-6{fill:#b3dafe;}.cls-7{fill:#537983;}.cls-8{fill:#fed9a8;}.cls-9{fill:#ffbd86;}.cls-10{fill:#72563c;}.cls-11{fill:#8ac9fe;}.cls-12{fill:#60b7ff;}.cls-13{fill:#70d6f9;}.cls-14{fill:#d83968;}.cls-15{fill:#ca3561;}</style></defs><path class="cls-1" d="M187,241c4.27-15.88,8.8-32.81,6.15-49.36s-14.69-29.48-28.82-38a123.93,123.93,0,0,0-25.62-11.32,91.93,91.93,0,0,0-44.49-2.84c-10.89,2-21,4.26-29.84,11.13C63,151.75,55.45,157.88,51,164c-7.46-4.19-18.31-4.2-25.42.9-6.24,4.48-9.24,13.5-10,20.85a135.06,135.06,0,0,0,4.77,51.67l3.93,15.87H183.44Z"/><path class="cls-2" d="M187,241l-3.53,12.28H168.59l3-10.31c4.46-16.57,9.18-34.24,6.41-51.5s-15.31-30.76-30.06-39.61a128.23,128.23,0,0,0-26.72-11.81q-3.51-1.14-7.09-2a89.77,89.77,0,0,1,24.59,4.28,123.93,123.93,0,0,1,25.62,11.32c14.13,8.49,26.15,21.31,28.82,38S191.25,225.14,187,241Z"/><path class="cls-3" d="M181.26,485H27.44V395.31a76.79,76.79,0,0,1,32.74-63c1-.67,3.11-.14,4.09-.77,11.93-7.59,24.9-10.8,40.08-10.8a71.77,71.77,0,0,1,40.65,12c.74.48,2.8-.89,3.52-.38a76.79,76.79,0,0,1,32.74,63V485Z"/><path class="cls-4" d="M181.26,395.31v89.74H167.08V395.31a76.91,76.91,0,0,0-69.82-76.58q3.51-.32,7.09-.32a76.91,76.91,0,0,1,76.91,76.9Z"/><path class="cls-5" d="M69.87,406.29V485H59.45V406.29a5.21,5.21,0,1,1,10.42,0Z"/><path class="cls-5" d="M104.35,318.41v11.91c-4.23,7.27-25.87,44.93-37.69,31.71-2.77-3.09-4.07-7.63-5.18-11.54a47.37,47.37,0,0,1-1.3-18.14,76.51,76.51,0,0,1,44.17-13.94Z"/><path class="cls-5" d="M147.22,350.49c-1.11,3.91-2.41,8.45-5.18,11.54-11.83,13.22-33.46-24.44-37.69-31.71V318.41a76.51,76.51,0,0,1,44.17,13.94A47.37,47.37,0,0,1,147.22,350.49Z"/><path class="cls-6" d="M147.22,350.49c-1.11,3.91-2.41,8.45-5.18,11.54-5.49,6.13-13.09,1.31-20.07-6.33a7.5,7.5,0,0,0,6.32-2.77c2.78-3.09,4.08-7.63,5.18-11.53a46.77,46.77,0,0,0,1.45-16.67,76.7,76.7,0,0,1,13.6,7.62,47.37,47.37,0,0,1-1.3,18.14Z"/><circle class="cls-7" cx="104.35" cy="377.49" r="5.21"/><path class="cls-8" d="M104.39,331.37a68.49,68.49,0,0,1-68.49-68.5V209.56h137v53.31A68.5,68.5,0,0,1,104.39,331.37Z"/><path class="cls-9" d="M172.89,209.56v53.31A68.53,68.53,0,0,1,97.34,331a68.5,68.5,0,0,0,61.43-68.13V203.76Z"/><path class="cls-8" d="M36.59,269.08H27.06a14.83,14.83,0,0,1,0-29.65h9.53Z"/><path class="cls-10" d="M71,267.47a5.22,5.22,0,0,1-5.22-5.22V249.46a5.22,5.22,0,0,1,10.43,0v12.79A5.22,5.22,0,0,1,71,267.47Z"/><path class="cls-10" d="M137.8,267.47a5.22,5.22,0,0,1-5.21-5.22V249.46a5.21,5.21,0,1,1,10.42,0v12.79A5.22,5.22,0,0,1,137.8,267.47Z"/><path class="cls-10" d="M104.63,297.55a22.75,22.75,0,0,1-15.89-6.42,5.22,5.22,0,0,1,7.25-7.5,12.44,12.44,0,0,0,17,.31,5.22,5.22,0,0,1,7,7.76,22.85,22.85,0,0,1-15.28,5.85Z"/><path class="cls-1" d="M35.9,239.43s14.16-17.1,17.81-26.26c0,0,10.18,14.25,31.48,17.7a4.13,4.13,0,0,0,4.73-4.67c-.37-2.59-.8-5.9-1.16-9.45,0,0,16.76,16.21,52.8,15.84a4.15,4.15,0,0,0,4-4.89l-1.94-10.45L172.89,236l1.7-19.42-1.7-21.3H35.9l-5.19,21.3Z"/><path class="cls-1" d="M498.36,368.65a37.45,37.45,0,0,0-10.34-18,32.6,32.6,0,0,1-10.25-23.66v-50.4H325.31v50.4a32.59,32.59,0,0,1-10.25,23.66,37.45,37.45,0,0,0-10.34,18,39.48,39.48,0,0,0,6.57,34.43c5.49,7.07,14.54,13.62,29.37,14.9H462.42c14.83-1.28,23.88-7.83,29.37-14.9a39.52,39.52,0,0,0,6.57-34.43Z"/><path class="cls-2" d="M491.79,403.08c-5.49,7.07-14.53,13.62-29.37,14.9H447.8c14.83-1.28,23.88-7.83,29.37-14.9,7.57-9.72,9.72-22.52,6.57-34.44a37.46,37.46,0,0,0-10.34-18,32.59,32.59,0,0,1-10.25-23.66v-50.4h14.62v50.4A32.56,32.56,0,0,0,488,350.6a37.53,37.53,0,0,1,10.33,18c3.15,11.92,1,24.72-6.57,34.44Z"/><path class="cls-11" d="M476.57,485.06H323.44V413.12c0-43.13,35-74.87,78.1-74.87,16.25,0,30.4,3.92,42.9,12.42,1,.7,5.17,4,6.16,4.75,19,14.25,26,32.16,26,57.7v71.94Z"/><path class="cls-12" d="M360.79,406.29V485H350.37V406.29a5.21,5.21,0,1,1,10.42,0Z"/><path class="cls-12" d="M479.64,413.12v71.94h-14.4V413.12a78.1,78.1,0,0,0-70.9-77.77c2.37-.22,4.78-.33,7.2-.33a78.1,78.1,0,0,1,78.1,78.1Z"/><path class="cls-5" d="M429.33,378.47c-10.14,1.64-20.58-3.73-27.31-12.41-6.71,8.68-17.16,14.05-27.3,12.41-16.28-2.63-19.79-14.91-19.05-28.57A77.75,77.75,0,0,1,401.53,335h0a77.74,77.74,0,0,1,46.87,15.63c.58,13.36-3.1,25.24-19.08,27.82Z"/><path class="cls-6" d="M429.33,378.47c-7.94,1.29-16.07-1.73-22.46-7.27a25,25,0,0,0,8.19.05c16.57-2.68,20.61-14.81,20.17-28.6a77.69,77.69,0,0,1,13.18,8c.58,13.36-3.1,25.24-19.08,27.82Z"/><path class="cls-8" d="M466.14,278.39h9.07a14.11,14.11,0,1,0,0-28.22h-9.07Z"/><path class="cls-8" d="M336.66,277.63h-8.83a13.73,13.73,0,1,1,0-27.46h8.83Z"/><path class="cls-8" d="M401.45,345.41A65.39,65.39,0,0,1,336.07,280V229.13l82.78-44.26,48,51.63V280a65.39,65.39,0,0,1-65.38,65.39Z"/><path class="cls-9" d="M466.83,236.5V280a65.38,65.38,0,0,1-65.38,65.39,66.53,66.53,0,0,1-6.95-.37,65.39,65.39,0,0,0,58.43-65V221.54Z"/><path class="cls-10" d="M369.56,284.64a5.21,5.21,0,0,1-5.21-5.21V267.22a5.21,5.21,0,1,1,10.42,0v12.21A5.21,5.21,0,0,1,369.56,284.64Z"/><path class="cls-10" d="M433.34,284.64a5.21,5.21,0,0,1-5.21-5.21V267.22a5.21,5.21,0,1,1,10.42,0v12.21A5.21,5.21,0,0,1,433.34,284.64Z"/><path class="cls-10" d="M401.68,313.36a22,22,0,0,1-15.34-6.2,5.21,5.21,0,0,1,7.25-7.49,11.63,11.63,0,0,0,15.86.29,5.22,5.22,0,0,1,7,7.76,22,22,0,0,1-14.74,5.64Z"/><path class="cls-1" d="M478.12,250.48l-11.29-.31c-37.67-1-64.41-7.9-86.25-40.19,0,0-7.56,32.94-44.61,40.5H325V227.24c0-42.32,34-77.26,76.31-77.41a76.59,76.59,0,0,1,76.85,76.58Z"/><path class="cls-2" d="M478.12,226.41v24.07l-11.29-.3-2.62-.08V226.41a76.57,76.57,0,0,0-69.59-76.26c2.19-.21,4.41-.31,6.65-.32a76.59,76.59,0,0,1,76.85,76.58Z"/><path class="cls-5" d="M367.06,179.16c-19.68,15.4-26,38.76-26,38.76A84.16,84.16,0,0,1,361.76,202a81.83,81.83,0,0,1,79.56,0A84.16,84.16,0,0,1,462,217.92s-6.32-23.36-26-38.76a55.8,55.8,0,0,0-68.95,0Z"/><path class="cls-6" d="M462,217.91A84.4,84.4,0,0,0,441.31,202c-1-.57-2.06-1.12-3.11-1.64a73.15,73.15,0,0,0-15-16.21A55.79,55.79,0,0,0,375,174,55.78,55.78,0,0,1,436,179.16C455.39,194.31,461.82,217.19,462,217.91Z"/><path class="cls-13" d="M301,26.94H235.16A60.74,60.74,0,0,0,174.59,87.5V113a60.75,60.75,0,0,0,60.57,60.57H271a10,10,0,0,1,10,10v12.81A6.23,6.23,0,0,0,291.52,201L320,173.84a70.75,70.75,0,0,1,12.16-9A60.58,60.58,0,0,0,361.51,113V87.5A60.74,60.74,0,0,0,301,26.94Z"/><path class="cls-14" d="M285.73,81.65a22.43,22.43,0,0,0-17.68,8.62,22.43,22.43,0,0,0-40.11,13.82c0,28.18,40.11,43.87,40.11,43.87s40.11-15.69,40.11-43.87A22.44,22.44,0,0,0,285.73,81.65Z"/><path class="cls-15" d="M285.73,81.65A22.32,22.32,0,0,0,272,86.35a22.25,22.25,0,0,1,4.73,3.42L277,90c.08.08.17.16.24.24a16.69,16.69,0,0,1,1.33,1.45,22.47,22.47,0,0,1,3.08,4.87c8.86,19-5.26,41.06-13.11,51.16,4.62-1.92,39.61-17.35,39.61-43.67A22.44,22.44,0,0,0,285.73,81.65Z"/></svg>