<svg id="Layer_1" data-name="Layer 1" xmlns="http://www.w3.org/2000/svg" viewBox="0 0 512 512"><defs><style>.cls-1{fill:#2fa8cc;}.cls-2{fill:#2980ba;}.cls-3{fill:#fed9a8;}.cls-4{fill:#ffc987;}.cls-5{fill:#d83968;}.cls-6{fill:#ca3561;}</style></defs><g id="Page-1"><g id="_004---Pregnant-Woman" data-name="004---Pregnant-Woman"><path id="Shape" class="cls-1" d="M163.85,437.27a108,108,0,0,1,6.37-14.84c-.24-.08-.41-.24-.65-.32-36.45-20.64-63.7-57.82-63.7-117.73a119.87,119.87,0,0,1,56.61-106.92l48.22-6,125,71.2a141.18,141.18,0,0,0,12.1,65.88c26.13,52.27,41.68,125.7,46.64,151.69a8.06,8.06,0,0,1-7.94,9.58H162.73a8.06,8.06,0,0,1-8.07-8.63,173.18,173.18,0,0,1,9.19-43.94Z"/><path id="Shape-2" data-name="Shape" class="cls-2" d="M278.67,447.27a8,8,0,0,1-7.09,8.87,189.66,189.66,0,0,1-22.34,1.29,183.1,183.1,0,0,1-85.39-20.16,108,108,0,0,1,6.37-14.84,171.9,171.9,0,0,0,99.5,17.74,8.06,8.06,0,0,1,8.95,7.1Z"/><path id="Shape-3" data-name="Shape" class="cls-3" d="M396.16,272.13s-104.83-8.07-193.53-56.45a61.7,61.7,0,0,0-40.32-16.12,28.67,28.67,0,0,1,16.13-24.2,42.75,42.75,0,0,1,28-2.82c-45.07-15.08-49-71-11.85-85.87a82.61,82.61,0,0,0,15-7.83A154.84,154.84,0,0,0,254.64,30a16.23,16.23,0,0,1,13.87-7.82h95c24.43,0,41.2,27.17,40.72,48.38C404.22,110.86,412.28,207.62,396.16,272.13Z"/><path id="Shape-4" data-name="Shape" class="cls-4" d="M363.9,215.18a8,8,0,0,1-4.84-1.61c-19.11-14.33-45.15-16.27-68.13-18a152.08,152.08,0,0,1-34.4-5,8.07,8.07,0,1,1,5.1-15.32,143.37,143.37,0,0,0,30.5,4.21c23.94,1.79,53.73,4,76.6,21.18a8.07,8.07,0,0,1-4.84,14.52Z"/><path id="Shape-5" data-name="Shape" class="cls-1" d="M340.12,203.67c-29-9.36-62.34-6-81-12.18-18.23-6.13-36-15.72-52.66-19-45.07-15.08-49-71-11.85-85.87a82.61,82.61,0,0,0,15-7.83,213.73,213.73,0,0,0,57.57,7.83c48.38,0,48.38-64.51,48.38-64.51h32.26c-21,83.94-14.68,147.4-7.66,181.51Z"/><path class="cls-5" d="M224.77,287a28,28,0,0,0-22.14,10.8,28.1,28.1,0,0,0-50.24,17.3c0,35.3,50.24,55,50.24,55s50.24-19.66,50.24-55A28.1,28.1,0,0,0,224.77,287Z"/><path class="cls-6" d="M224.77,287a28,28,0,0,0-17.19,5.88,28.52,28.52,0,0,1,5.93,4.29l.35.34.3.29a23.88,23.88,0,0,1,1.66,1.82,27.88,27.88,0,0,1,3.86,6.11c11.09,23.76-6.59,51.42-16.42,64.08,5.78-2.41,49.61-21.73,49.61-54.71A28.1,28.1,0,0,0,224.77,287Z"/></g></g></svg>