<svg id="Layer_1" data-name="Layer 1" xmlns="http://www.w3.org/2000/svg" viewBox="0 0 512 512"><defs><style>.cls-1{fill:#fed9a8;}.cls-2{fill:#0a6fa2;}.cls-3{fill:#2cbff4;}.cls-4{fill:#f6cd80;}.cls-5{fill:#55300b;}</style></defs><g id="flat"><path class="cls-1" d="M144,356l-3.91,11.72a18,18,0,0,1-17,12.28H64v-4.25a25.3,25.3,0,0,1,19.16-24.54L96,348l24-16Z"/><path class="cls-2" d="M352,380H296l-48-64-32-48-24,40-48,48-24-24,69.7-97.57a34.44,34.44,0,0,1,52.39-4.34L312,300l16,16a70.65,70.65,0,0,1,19.72,38.32Z"/><path class="cls-1" d="M416,148l-24-24-6.16,18.46a16,16,0,0,0,.32,11l4.59,11.46a17.55,17.55,0,0,1,1.25,6.49v4.75A11.88,11.88,0,0,0,403.88,188H416Z"/><path class="cls-3" d="M352,380l72.78-86a157.52,157.52,0,0,0,13.15-18l-36.61-61.9-29.11,4.16A23.51,23.51,0,0,0,352,241.56V276l-24,40a70.65,70.65,0,0,1,19.72,38.32Z"/><path class="cls-4" d="M40,380H472a16,16,0,0,1,16,16h0a16,16,0,0,1-16,16H40a16,16,0,0,1-16-16h0A16,16,0,0,1,40,380Z"/><path class="cls-5" d="M416,108a25.9,25.9,0,0,0-23.16,14.31L392,124l24,24,8-40Z"/><path class="cls-4" d="M432,356a8,8,0,0,1-6.07-13.21l8-9.33a8,8,0,0,1,12.15,10.41h0l-8,9.34A8,8,0,0,1,432,356Z"/><path class="cls-4" d="M456,328a8,8,0,0,1-6.07-13.21l24-28a8,8,0,0,1,12.15,10.42l-24,28A8,8,0,0,1,456,328Z"/><path class="cls-1" d="M437.93,276a158.27,158.27,0,0,0,11.35-21.66l7.27-17a56.1,56.1,0,0,0,2.86-35.72L448,156l-3.5-11.83L461,160.32,472,164l8-8V132l-16-8-19.25-19.24A16.2,16.2,0,0,0,433.27,100h-1A16.24,16.24,0,0,0,416,116.25h0V212l-14.68,2.1L400,220l-4.84,19.34A29.51,29.51,0,0,0,423.79,276H438"/></g></svg>