<svg id="Layer_1" data-name="Layer 1" xmlns="http://www.w3.org/2000/svg" viewBox="0 0 512 512"><defs><style>.cls-1{fill:#fed9a8;}.cls-2{fill:#b57a4e;}.cls-3{fill:#9b5729;}.cls-4{fill:#7f441c;}.cls-5{fill:#f6cd80;}.cls-6{fill:#c7c8ca;}.cls-7{fill:#602f0e;}.cls-8{fill:#8a8c8e;}.cls-9{fill:#ea9d2d;}.cls-10{fill:#fbb540;}.cls-11{fill:#d32b39;}.cls-12{fill:#961b20;}</style></defs><path class="cls-1" d="M263.46,470A25.18,25.18,0,0,1,246,458.81L184.76,365h-5.6c-41,0-74.32,33.16-74.32,73.92v26.82a5.26,5.26,0,0,0,5.27,5.26H267.05V470Z"/><path class="cls-1" d="M270.64,470a25.2,25.2,0,0,0,17.48-11.14L349.34,365h5.6c41,0,74.32,33.16,74.32,73.92v26.82A5.26,5.26,0,0,1,424,471H267.05V470Z"/><path class="cls-1" d="M342.17,365H319.28l-52.23,80-52.23-80H184.06L246,459.88A25.11,25.11,0,0,0,263.46,471h7.17a25.09,25.09,0,0,0,17.48-11.14L349.34,365Z"/><path class="cls-1" d="M297.11,357.92V336.3a99.26,99.26,0,0,1-17,1.47H254a99.16,99.16,0,0,1-17-1.48v21.63a7.12,7.12,0,0,1-7.14,7.1H214.11l52.94,81.1L320,365H304.26A7.13,7.13,0,0,1,297.11,357.92Z"/><path class="cls-2" d="M138.82,190.52h17.34V166.85a5.23,5.23,0,0,1,5.24-5.2h88.27c16.44,0,32.11-51.43,40.88-65.39a5.26,5.26,0,0,1,8.88,0c8.78,14,24.45,65.39,40.89,65.39H372.7a5.22,5.22,0,0,1,5.23,5.2v23.67h17.35a20.06,20.06,0,0,1,5.46.76V155.66C400.74,83.05,340.89,41,267.05,41S133.36,83.05,133.36,155.66v35.63A19.73,19.73,0,0,1,138.82,190.52Z"/><path class="cls-3" d="M138.82,190.52h17.34V166.85a5.23,5.23,0,0,1,5.24-5.2h3.8v-6c0-67.32,51.44-108.37,117.77-114Q275.14,41,267.05,41c-73.83,0-133.69,42.07-133.69,114.68v35.62A20.11,20.11,0,0,1,138.82,190.52Z"/><path class="cls-1" d="M356.94,305.87l-20.1-6.77-.58-.87A43.57,43.57,0,0,1,329,274a44.17,44.17,0,0,1,44.25-44,44.73,44.73,0,0,1,5.7.37V166.85a6.2,6.2,0,0,0-6.21-6.18H340.32c-16.11,0-31.46-51.25-40.06-64.92a6.23,6.23,0,0,0-10.53,0c-8.6,13.67-24,64.92-40.06,64.92H161.4a6.2,6.2,0,0,0-6.21,6.18v74c0,1.7,69.27-14,69.36-12.31,14.87,1.24-40.86,24.64-30.77,34.68,15.54,15.46,21.28,38.63,15.35,62a4.59,4.59,0,0,1-1.3,2.21A99.06,99.06,0,0,0,254,338.76h26.07a98.85,98.85,0,0,0,58.73-19.23S356.2,306.3,356.94,305.87Z"/><path class="cls-4" d="M145.58,259.1l1.95-29.49a6.18,6.18,0,0,1,4.66-5.57l2.42-.57a74.12,74.12,0,0,0-23.41,2.12,5.6,5.6,0,0,0-4.23,5.06l-3.56,54,4.31,4.29Z"/><path class="cls-5" d="M70,167.69a37.31,37.31,0,0,1-23.59,23.6l9.45,6.3A37.37,37.37,0,0,1,68.56,212L70,214.89,71.49,212a37.37,37.37,0,0,1,12.68-14.36l9.45-6.3A37.35,37.35,0,0,1,70,167.69Z"/><path class="cls-5" d="M444.27,135.16a37.31,37.31,0,0,1-23.6,23.6l9.45,6.31a37.29,37.29,0,0,1,12.68,14.36l1.47,2.93,1.47-2.93a37.26,37.26,0,0,1,12.67-14.36l9.46-6.31A37.26,37.26,0,0,1,444.27,135.16Z"/><path class="cls-5" d="M99.81,60.16a37.31,37.31,0,0,1-23.6,23.59l9.45,6.31a37.37,37.37,0,0,1,12.68,14.36l1.47,2.93,1.46-2.93A37.37,37.37,0,0,1,114,90.06l9.46-6.31A37.27,37.27,0,0,1,99.81,60.16Z"/><path class="cls-1" d="M138.47,244.49c10.74,2.3,21.89-2.09,24-1.88-.09-1.65-.13-3.31-.13-5V188H145.6a19.89,19.89,0,0,0-20,19.74v23.88C125.55,238.75,136.56,244.08,138.47,244.49Z"/><path class="cls-1" d="M401.2,244.49c-10.74,2.3-21.89-2.09-24-1.88.09-1.65.13-3.31.13-5V188h16.78a19.89,19.89,0,0,1,20.05,19.74v23.88C414.12,238.75,403.11,244.08,401.2,244.49Z"/><path class="cls-1" d="M377.78,176.79v61.45a43.46,43.46,0,0,0-5.51-.36,42.72,42.72,0,0,0-42.79,42.55,42.24,42.24,0,0,0,7.06,23.42l.56.83S303.47,343,282.22,343H257c-16.12,0-28-1.83-44.66-11s-50.91-39.35-50.78-78.8c-.08-1.63-.13-3.26-.13-4.9V176.79a6,6,0,0,1,6-6H252.8a45.56,45.56,0,0,0,16.82-3.25,45.49,45.49,0,0,0,16.8,3.25h85.36a5.94,5.94,0,0,1,4.24,1.76,5.23,5.23,0,0,1,.74.88A5.89,5.89,0,0,1,377.78,176.79Z"/><path class="cls-1" d="M377.78,176.79v71.53c0,1.64,0,3.27-.12,4.9.12,39.45-34.08,69.63-50.78,78.8s-28.55,11-44.66,11H257c-21.25,0-54.88-38.34-54.88-38.34l.56-.83a42.51,42.51,0,0,0-35.73-66,43.74,43.74,0,0,0-5.52.36V176.79a6,6,0,0,1,6-6H252.8a45.56,45.56,0,0,0,16.82-3.25,45.49,45.49,0,0,0,16.8,3.25h85.36a5.94,5.94,0,0,1,4.24,1.76,5.23,5.23,0,0,1,.74.88A5.89,5.89,0,0,1,377.78,176.79Z"/><path class="cls-6" d="M382.73,304.53l50.6,55.68a5.83,5.83,0,0,1,0,8.27,5.89,5.89,0,0,1-8.31,0l-56-50.32Z"/><path class="cls-3" d="M330.39,266.13c9.8-9.75,24.48-13.35,39.26-9.64a3.48,3.48,0,0,1,2.63,3.14l2.21,33.54L357.58,310l-33.72-2.2a3.5,3.5,0,0,1-3.16-2.61C317,290.47,320.59,275.87,330.39,266.13Z"/><path class="cls-7" d="M337.13,288.38a4.56,4.56,0,0,1,6.23-1.6l19.25,11.38-11.42-19.1a4.55,4.55,0,1,1,7.81-4.67l12.81,21.44-11.56,11.5-21.52-12.72A4.55,4.55,0,0,1,337.13,288.38Z"/><path class="cls-8" d="M362.36,321.24a3.16,3.16,0,0,0,4.43,0l19-18.91a3.11,3.11,0,0,0,0-4.41l-6.26-6.22a3.14,3.14,0,0,0-4.43,0l-19,18.9a3.11,3.11,0,0,0,0,4.41Z"/><path class="cls-9" d="M44.13,389.42H95.92V467.1H44.13Z"/><path class="cls-10" d="M44.13,363.53H95.92v25.89H44.13Z"/><path class="cls-11" d="M89.44,363.53H50.61V290.61a8.09,8.09,0,0,1,8.09-8.09,8,8,0,0,1,2.56.42L74,287.17a22.65,22.65,0,0,1,15.49,21.49Z"/><path class="cls-12" d="M50.61,350.59H89.44v12.94H50.61Z"/></svg>