<svg id="Layer_1" data-name="Layer 1" xmlns="http://www.w3.org/2000/svg" viewBox="0 0 512 512"><defs><style>.cls-1{fill:#c03a2b;}.cls-2{fill:#603e26;}.cls-3{fill:#805333;}.cls-4{fill:#cb8252;}.cls-5{fill:#e64c3c;}.cls-6{fill:#fb7b76;}.cls-7{fill:#f0c419;}.cls-8{fill:#35495e;}</style></defs><g id="Page-1"><g id="_023---Bag-and-Shoe-Shopping" data-name="023---Bag-and-Shoe-Shopping"><path id="Shape" class="cls-1" d="M386.82,325.16a156.13,156.13,0,0,1,20.85,77.89v60.62a7.42,7.42,0,0,0,7.42,7.41h22.25a7.42,7.42,0,0,0,7.42-7.41V380.72a157.21,157.21,0,0,1,5.49-41.1L467,278.2l-44.52,7.42Z"/><path id="Shape-2" data-name="Shape" class="cls-2" d="M156.77,152.08c5.34-45.38,26-81.61,50.59-81.61s45.26,36.23,50.6,81.61h42.21C288.82,87.88,251.58,40.8,207.36,40.8S125.9,87.88,114.55,152.08Z"/><path id="Shape-3" data-name="Shape" class="cls-3" d="M207.36,152.08a443.67,443.67,0,0,0,143.47-21.79,14.84,14.84,0,0,1,19.74,14.21c-.91,52.09-8.36,178.21-59.35,178.21H103.5c-51,0-58.44-126.12-59.35-178.21a14.83,14.83,0,0,1,19.72-14.21,443.47,443.47,0,0,0,143.49,21.79Z"/><path id="Shape-4" data-name="Shape" class="cls-4" d="M110,300.51a22.29,22.29,0,0,1-19.29-11.13,103.89,103.89,0,0,1-8.11-19.24,7.42,7.42,0,1,1,14.1-4.59A90.53,90.53,0,0,0,103.6,282a7.34,7.34,0,0,0,6.44,3.71h15.71a7.42,7.42,0,0,1,0,14.84h-15.7Z"/><path id="Shape-5" data-name="Shape" class="cls-5" d="M467,278.2s-81.61,29.67-126.12,96.44-44.51,96.44-89,96.44H148a113.15,113.15,0,0,1-43.38-6.52c-27.78-11.7-3.4-41.48,9.31-54.11a112.35,112.35,0,0,1,33.74-23.35c1.72-.74,5.71-2.44,9.69-4.09a22.42,22.42,0,0,1,19.14,1c16.86,8.95,54.75,22.46,82.78-16.78C294.84,317.45,344,240.42,419.9,175.31a14.69,14.69,0,0,1,20.56,1.49C453.11,191.26,472.06,222.74,467,278.2Z"/><path id="Shape-6" data-name="Shape" class="cls-6" d="M127.15,447.55a7.41,7.41,0,0,1-5.86-12,98.48,98.48,0,0,1,8.33-9.34,89.74,89.74,0,0,1,27-18.77,7.42,7.42,0,0,1,5.94,13.58,75,75,0,0,0-22.52,15.72,83.09,83.09,0,0,0-7.07,7.92,7.39,7.39,0,0,1-5.83,2.86Z"/><path id="Shape-7" data-name="Shape" class="cls-2" d="M244.46,150.74v68.11A22.26,22.26,0,0,1,222.2,241.1H192.52a22.25,22.25,0,0,1-22.25-22.25V150.74q17.47,1.33,37.09,1.34C220.42,152.08,232.81,151.63,244.46,150.74Z"/><path id="Shape-8" data-name="Shape" class="cls-7" d="M214.78,211.43H199.94a7.42,7.42,0,1,1,0-14.84h14.84a7.42,7.42,0,0,1,0,14.84Z"/><path id="Shape-9" data-name="Shape" class="cls-8" d="M444.76,448.83v14.84a7.42,7.42,0,0,1-7.42,7.41H415.09a7.42,7.42,0,0,1-7.42-7.41V448.83Z"/></g></g></svg>