<svg id="Layer_1" data-name="Layer 1" xmlns="http://www.w3.org/2000/svg" viewBox="0 0 512 512"><defs><style>.cls-1{fill:#d83968;}.cls-2{fill:#ca3561;}.cls-3{fill:#a52852;}</style></defs><g id="Crop_Top-Outfit-Shirt-Short-Clothes-Woman" data-name="Crop Top-Outfit-Shirt-Short-Clothes-Woman"><path class="cls-1" d="M162.61,459.57a23.35,23.35,0,0,1-46.7,0h0l4.9-23.35H391.19l4.9,23.35a23.35,23.35,0,1,1-46.7,0h0a23.35,23.35,0,1,1-46.69,0h0a23.35,23.35,0,1,1-46.7,0h0a23.35,23.35,0,1,1-46.7,0h0a23.35,23.35,0,1,1-46.69,0Z"/><path class="cls-1" d="M473.69,200.25,390.8,227.88a69.31,69.31,0,0,1-10.27,11.44l-12.07,56.19a77,77,0,0,0-.08,32.38l22.81,108.33H120.81l1.33-6.3,3.58-17.05,1.63-7.78,1.63-7.78,14.64-69.42a77,77,0,0,0-.08-32.38l-12.06-56a72.15,72.15,0,0,1-10.28-11.59L38.31,200.25a15.52,15.52,0,0,1-9.82-19.61c.12-.37.26-.74.41-1.09l38.68-94.1a62.52,62.52,0,0,1,31.83-33l48.33-21.94a15.56,15.56,0,0,1,20.64,7.64c.11.23.2.45.3.68l.15.47,9.26,23.11a62.26,62.26,0,0,0,57.83,39.15h40.16a62.26,62.26,0,0,0,57.83-39.15l9.26-23.11.15-.47a15.58,15.58,0,0,1,20.26-8.62c.23.09.45.19.68.3l48.33,21.94a62.52,62.52,0,0,1,31.83,33l10.43,25.3,28.25,68.8a15.5,15.5,0,0,1-8.32,20.29c-.36.15-.73.29-1.09.41Z"/><path class="cls-2" d="M473.69,200.25,390.8,227.88a69.31,69.31,0,0,1-10.27,11.44l-12.07,56.19a77,77,0,0,0-.08,32.38l22.81,108.33H120.81l1.33-6.3C220.51,372.09,357.72,270,454.85,110.75l28.25,68.8a15.5,15.5,0,0,1-8.32,20.29c-.36.15-.73.29-1.09.41Z"/><path class="cls-2" d="M343.17,39.3l-9.26,23.11a62.26,62.26,0,0,1-57.83,39.15H235.92a62.26,62.26,0,0,1-57.83-39.15L168.83,39.3Z"/><path class="cls-3" d="M276.09,107.56H235.9a67.93,67.93,0,0,1-63.38-42.92L160,33.3H352L339.48,64.65A68,68,0,0,1,276.09,107.56Zm-40.17-12h40.17a56,56,0,0,0,52.24-35.37l6-14.89H177.7l6,14.88a56,56,0,0,0,52.25,35.38Z"/></g></svg>