<svg id="Layer_1" data-name="Layer 1" xmlns="http://www.w3.org/2000/svg" viewBox="0 0 512 512"><defs><style>.cls-1{fill:#504677;}.cls-2{fill:#4d4a5b;}.cls-3{fill:#3a3847;}</style></defs><path class="cls-1" d="M477,418.71C433.85,234.58,393.28,121.06,369.77,74.84c-.15-.29-.26-.55-.4-.81l-3.29-36.51a7.29,7.29,0,0,0-7.26-6.64H153.18a7.29,7.29,0,0,0-7.26,6.64L142.63,74c-.14.26-.25.52-.4.81C118.72,121.06,78.15,234.58,35,418.71a3.72,3.72,0,0,0,2.78,4.45l.18,0L102,434,99.4,445.21a3.68,3.68,0,0,0,2.85,4.35l.18,0,77.81,12.05-1.61,12.23a3.66,3.66,0,0,0,3.13,4.11l.19,0a880.31,880.31,0,0,0,148.1,0,3.65,3.65,0,0,0,3.34-3.93c0-.07,0-.13,0-.2l-1.61-12.23,77.81-12.05a3.67,3.67,0,0,0,3.06-4.2l0-.18L410,434l64-10.77a3.71,3.71,0,0,0,3-4.31Z"/><path class="cls-2" d="M477,418.71C433.85,234.58,393.28,121.06,369.77,74.84c-.15-.29-.26-.55-.4-.81l-6.94-36.51H149.57L142.63,74c-.14.26-.25.52-.4.81C118.72,121.06,78.15,234.58,35,418.71a3.72,3.72,0,0,0,2.78,4.45l.18,0L102,434,99.4,445.21a3.68,3.68,0,0,0,2.85,4.35l.18,0,77.81,12.05-1.61,12.23a3.66,3.66,0,0,0,3.13,4.11l.19,0a880.31,880.31,0,0,0,148.1,0,3.65,3.65,0,0,0,3.34-3.93c0-.07,0-.13,0-.2l-1.61-12.23,77.81-12.05a3.67,3.67,0,0,0,3.06-4.2l0-.18L410,434l64-10.77a3.71,3.71,0,0,0,3-4.31Z"/><path class="cls-3" d="M369.77,74.84H142.23c.15-.29.26-.55.4-.81l3.29-36.51a7.29,7.29,0,0,1,7.26-6.64H358.82a7.29,7.29,0,0,1,7.26,6.64L369.37,74C369.51,74.29,369.62,74.55,369.77,74.84Z"/><path class="cls-3" d="M102,439.44A5.47,5.47,0,0,1,96.52,434a5.78,5.78,0,0,1,.11-1.1l60.9-296.75a5.48,5.48,0,1,1,10.73,2.19l-60.9,296.75a5.47,5.47,0,0,1-5.36,4.38Z"/><path class="cls-3" d="M410,439.44a5.47,5.47,0,0,1-5.36-4.38l-60.9-296.74a5.48,5.48,0,0,1,10.73-2.19l60.9,296.74a5.48,5.48,0,0,1-4.27,6.46,5.07,5.07,0,0,1-1.1.11Z"/><path class="cls-3" d="M331.77,467.12a5.49,5.49,0,0,1-5.43-4.84l-37.44-317a5.47,5.47,0,0,1,10.83-1.61c0,.11,0,.22,0,.33l37.45,317a5.47,5.47,0,0,1-4.8,6.07c-.21,0-.43.05-.65.06Z"/><path class="cls-3" d="M180.23,467.12c-.22,0-.44,0-.65,0a5.49,5.49,0,0,1-4.8-6.08l37.45-317a5.48,5.48,0,1,1,10.91.95c0,.11,0,.22,0,.33l-37.44,317A5.49,5.49,0,0,1,180.23,467.12Z"/></svg>