<svg id="Layer_1" data-name="Layer 1" xmlns="http://www.w3.org/2000/svg" viewBox="0 0 512 512"><defs><style>.cls-1{fill:#c1c1c1;}.cls-2{fill:#c23b5f;}.cls-3{fill:#ea4e76;}.cls-4{fill:#fe7b83;}.cls-5{fill:#a83352;}.cls-6{fill:#d9d9d9;}.cls-7{fill:#9c9c9c;}.cls-8{fill:#fff;}</style></defs><g id="_17-puppet" data-name=" 17-puppet"><path class="cls-1" d="M170.1,449.27V477.9H141.47V449.27H170.1Z"/><path class="cls-1" d="M399.16,449.27V477.9H370.53V449.27h28.63Z"/><path class="cls-1" d="M399.16,48.41V77.05H370.53V48.41A14.35,14.35,0,0,1,384.85,34.1a14.41,14.41,0,0,1,14.31,14.31Z"/><path class="cls-1" d="M170.1,48.41V77.05H141.47V48.41A14.35,14.35,0,0,1,155.79,34.1,14.41,14.41,0,0,1,170.1,48.41Z"/><path class="cls-2" d="M391.93,148.91a27.67,27.67,0,0,1,21.55,28.35,27,27,0,0,1-25.05,28.63,18.75,18.75,0,0,1-3.51-.28,27.67,27.67,0,0,1-21.55-28.35,27,27,0,0,1,25.06-28.63A18.65,18.65,0,0,1,391.93,148.91Z"/><path class="cls-3" d="M428.94,158a57.64,57.64,0,0,1,6,25.62v7.45a55.77,55.77,0,0,1-2,15l-14.39,52.75a42.38,42.38,0,0,0,3.94,32.29c12.6,22.19,41.09,72.37,41.09,158.12H392V377.69a207.32,207.32,0,0,0-11.38-58.48,127.84,127.84,0,0,1-4.51-60.78l8.74-52.54.07-.28a18.75,18.75,0,0,0,3.51.28,27,27,0,0,0,25.05-28.63,27.67,27.67,0,0,0-21.55-28.35l.07-.28-7.15-14.32V77.05h21.47v35.79Z"/><path class="cls-4" d="M384.85,134.31,392,148.63l-.07.28a18.65,18.65,0,0,0-3.5-.28,27,27,0,0,0-25.06,28.63,27.67,27.67,0,0,0,21.55,28.35l-.07.28-8.74,52.54a127.84,127.84,0,0,0,4.51,60.78A207.32,207.32,0,0,1,392,377.69v71.58H313.27l18-137.65a86.1,86.1,0,0,0-9.16-51.11L309.9,237.39a58.86,58.86,0,0,1,6.16-53.54l47.31-71V77.05h21.48Z"/><path class="cls-4" d="M155.79,77.05V449.27H48.41c0-71,21.55-116.82,34.15-137.51a59.47,59.47,0,0,0,8.8-30.85v-1.65a57.91,57.91,0,0,0-8.3-29.92L66.81,222.21a128.92,128.92,0,0,1-18.4-66.35V144.33a14.36,14.36,0,0,1,9.45-13.45l69.29-25.2V77.05Z"/><path class="cls-3" d="M170.1,77.05h14.32v28.63l69.29,25.2a14.36,14.36,0,0,1,9.45,13.45v11.53a128.82,128.82,0,0,1-18.4,66.35l-16.25,27.13a58.1,58.1,0,0,0-8.3,29.92v1.65a59.56,59.56,0,0,0,8.8,30.85c12.6,20.69,34.15,66.5,34.15,137.51H155.79V77.05Z"/><path class="cls-5" d="M388.43,162.94a19.53,19.53,0,0,1,3.5.29,26.49,26.49,0,0,1,20.66,21.19,32.63,32.63,0,0,0,.89-7.16,27.67,27.67,0,0,0-21.55-28.35,18.65,18.65,0,0,0-3.5-.28,27,27,0,0,0-25.06,28.63,32.63,32.63,0,0,0,.89,7.16,25.9,25.9,0,0,1,24.17-21.48Z"/><path class="cls-6" d="M165.88,38.32a14,14,0,0,0-10.09-4.22,14.3,14.3,0,0,0-12.32,7.16h5.16a7.16,7.16,0,0,1,7.16,7.15V77.05H170.1V48.41A14,14,0,0,0,165.88,38.32Z"/><path class="cls-6" d="M394.94,38.32a14,14,0,0,0-10.09-4.22,14.3,14.3,0,0,0-12.32,7.16h5.16a7.16,7.16,0,0,1,7.16,7.15V77.05h14.31V48.41A14,14,0,0,0,394.94,38.32Z"/><path class="cls-7" d="M384.85,477.9V463.59a7.15,7.15,0,0,1,7.15-7.16h7.16v-7.16H370.53V477.9Z"/><path class="cls-7" d="M155.79,477.9V463.59a7.15,7.15,0,0,1,7.15-7.16h7.16v-7.16H141.47V477.9Z"/><path class="cls-8" d="M194.72,235.24a2.94,2.94,0,0,0,.59-.05c2.47-.41,4.86-.86,7.15-1.34a3.58,3.58,0,1,0-1.48-7c-2.21.47-4.51.9-6.87,1.29a3.58,3.58,0,0,0,.57,7.11Z"/><path class="cls-8" d="M151.89,238.1h7.25a3.58,3.58,0,1,0,0-7.15H152a3.71,3.71,0,0,0-3.63,3.53,3.57,3.57,0,0,0,3.53,3.62Z"/><path class="cls-8" d="M173.4,237.58h.22c2.48-.16,4.9-.34,7.25-.56a3.59,3.59,0,1,0-.66-7.15c-2.28.2-4.62.39-7,.54a3.58,3.58,0,0,0,.22,7.16Z"/><path class="cls-8" d="M130.17,237c2.36.23,4.77.41,7.24.58h.24a3.58,3.58,0,0,0,.22-7.16c-2.39-.16-4.73-.34-7-.56A3.65,3.65,0,0,0,127,233a3.58,3.58,0,0,0,3.21,3.92Z"/><path class="cls-8" d="M95.47,230.1a3.58,3.58,0,0,0,1.11-7c-2.25-.71-4.42-1.52-6.48-2.36a3.58,3.58,0,1,0-2.69,6.64q3.33,1.33,6.94,2.52a3.06,3.06,0,0,0,1.12.18Z"/><path class="cls-8" d="M108.54,233.72c2.33.5,4.71,1,7.16,1.37a4,4,0,0,0,.6,0,3.57,3.57,0,0,0,.59-7.1c-2.36-.4-4.65-.83-6.87-1.31a3.58,3.58,0,0,0-1.8,6.93l.3.07Z"/><path class="cls-8" d="M61.87,206.76a3.58,3.58,0,0,0,.42-5,54.55,54.55,0,0,1-3.74-5,3.58,3.58,0,0,0-3.87-1.43,127.64,127.64,0,0,0,4.59,12.23c.1,0,.19.06.29.06a3.58,3.58,0,0,0,2.31-.89Z"/><path class="cls-8" d="M221,220.93c-2.07.82-4.24,1.6-6.51,2.32a3.58,3.58,0,0,0,1.1,7,3.72,3.72,0,0,0,1.1-.17c2.42-.79,4.73-1.62,7-2.49a3.58,3.58,0,1,0-2.45-6.73Z"/><path class="cls-8" d="M77.76,214.69a67.77,67.77,0,0,1-5.65-3.79,3.58,3.58,0,0,0-4.3,5.73,74.55,74.55,0,0,0,6.24,4.18,3.51,3.51,0,0,0,1.84.52,3.58,3.58,0,0,0,1.85-6.65Z"/><path class="cls-8" d="M239,211.2c-1.78,1.3-3.67,2.56-5.68,3.76A3.57,3.57,0,0,0,237,221.1h0c2.21-1.31,4.29-2.69,6.26-4.13A3.58,3.58,0,1,0,239,211.2Z"/><path class="cls-8" d="M253,196.75a55.2,55.2,0,0,1-4.06,5.34,3.57,3.57,0,0,0,2.72,5.91,2.42,2.42,0,0,0,.45-.1,125.63,125.63,0,0,0,4.76-12.59A3.57,3.57,0,0,0,253,196.75Z"/><path class="cls-8" d="M133.49,297.22a3.58,3.58,0,0,0,3,4q3.53.5,7.32.8h.3a3.58,3.58,0,0,0,.28-7.16q-3.59-.29-6.9-.71A3.57,3.57,0,0,0,133.49,297.22Z"/><path class="cls-8" d="M113,290.88a3.58,3.58,0,0,0,1.92,4.68,73.51,73.51,0,0,0,7.07,2.55,3.58,3.58,0,0,0,2.09-6.83c-2.16-.67-4.3-1.44-6.39-2.32a3.57,3.57,0,0,0-4.68,1.92Z"/><path class="cls-8" d="M217.06,268.63a44.69,44.69,0,0,1-3.58,5.57,3.58,3.58,0,0,0,.72,5h0a3.51,3.51,0,0,0,2.14.71,3.59,3.59,0,0,0,2.87-1.43c.42-.57.71-1.22,1.14-1.8a57.61,57.61,0,0,1,1.26-9.61,3.58,3.58,0,0,0-4.55,1.55Z"/><path class="cls-8" d="M176.25,297.52a3.59,3.59,0,0,0,3.52,2.9,4,4,0,0,0,.68-.07c2.53-.48,5-1,7.25-1.7a3.58,3.58,0,0,0-1.93-6.9h0c-2.12.6-4.34,1.12-6.68,1.57a3.58,3.58,0,0,0-2.84,4.19Z"/><path class="cls-8" d="M154.87,299a3.58,3.58,0,0,0,3.58,3.52h.06c2.51-.05,5-.15,7.32-.3a3.59,3.59,0,0,0-.47-7.16c-2.26.16-4.58.24-7,.28a3.58,3.58,0,0,0-3.51,3.65Z"/><path class="cls-8" d="M96.16,277.8a3.58,3.58,0,0,0-.12,5.06h0a52.69,52.69,0,0,0,5.73,5.14,3.58,3.58,0,1,0,4.45-5.61l-.09-.07a42.81,42.81,0,0,1-4.91-4.41,3.57,3.57,0,0,0-5.06-.11Z"/><path class="cls-8" d="M198.36,286.84a3.58,3.58,0,0,0,3.21,6.4l.14-.07a57.76,57.76,0,0,0,6.5-4,3.59,3.59,0,0,0-4.16-5.84,46.68,46.68,0,0,1-5.69,3.5Z"/><path class="cls-8" d="M163.66,352.53c-2.3.07-4.65.1-7.07.11a3.58,3.58,0,0,0,0,7.16q3.74,0,7.26-.11a3.58,3.58,0,1,0-.2-7.16Z"/><path class="cls-8" d="M188.71,354a3.57,3.57,0,0,0-4-3.08h0c-2.26.29-4.59.55-7,.76a3.58,3.58,0,0,0,.31,7.16h.34c2.49-.23,4.91-.48,7.25-.79a3.58,3.58,0,0,0,3.1-4Z"/><path class="cls-8" d="M142.46,352.31c-2.41-.12-4.74-.28-7-.47a3.65,3.65,0,0,0-3.87,3.26,3.58,3.58,0,0,0,3.26,3.87q3.53.3,7.26.49h.18a3.58,3.58,0,0,0,.19-7.16Z"/><path class="cls-8" d="M219.54,348.79a3.66,3.66,0,0,0,1.52-.34,75,75,0,0,0,6.63-3.52,3.58,3.58,0,0,0-3.68-6.15h0a67.55,67.55,0,0,1-6,3.2,3.58,3.58,0,0,0,1.53,6.81Z"/><path class="cls-8" d="M234.6,335.62a3.48,3.48,0,0,0,2.5,1,3.6,3.6,0,0,0,2.56-1.08c.37-.38.66-.83,1-1.23-1.12-2.51-2.22-4.92-3.32-7.16a42,42,0,0,1-2.86,3.39A3.58,3.58,0,0,0,234.6,335.62Z"/><path class="cls-8" d="M209.6,349.21a3.58,3.58,0,0,0-4.44-2.43h0q-3.22.95-6.73,1.75a3.58,3.58,0,1,0,1.43,7l.18,0c2.47-.57,4.84-1.19,7.12-1.84a3.57,3.57,0,0,0,2.44-4.43Z"/><path class="cls-8" d="M101.31,345.14c-2.25-.79-4.37-1.63-6.38-2.53a3.58,3.58,0,0,0-3.2,6.41l.28.12c2.18,1,4.48,1.87,6.91,2.75a3.48,3.48,0,0,0,1.2.21,3.58,3.58,0,0,0,1.19-7Z"/><path class="cls-8" d="M83.2,335.89a49.91,49.91,0,0,1-5.12-4.29,3.58,3.58,0,1,0-5,5.16,58,58,0,0,0,5.84,4.9,3.59,3.59,0,0,0,5-.76h0A3.59,3.59,0,0,0,83.2,335.89Z"/><path class="cls-8" d="M121.51,350.14c-2.38-.38-4.67-.81-6.85-1.28a3.58,3.58,0,1,0-1.89,6.9l.38.08c2.31.51,4.71,1,7.2,1.37a3.92,3.92,0,0,0,.59.05,3.58,3.58,0,0,0,.57-7.12Z"/><path class="cls-8" d="M209.06,401.65a3.57,3.57,0,0,0,3.48,2.74,3.84,3.84,0,0,0,.83-.09q3.69-.89,7.09-1.87a3.58,3.58,0,1,0-2-6.87c-2.14.63-4.41,1.21-6.75,1.77a3.57,3.57,0,0,0-2.65,4.31Z"/><path class="cls-8" d="M229.62,395.58a3.58,3.58,0,0,0,3.28,2.15,3.53,3.53,0,0,0,1.43-.3q3.58-1.57,6.7-3.3a3.58,3.58,0,0,0-3.43-6.28c-1.94,1.06-4,2.07-6.15,3a3.59,3.59,0,0,0-1.83,4.71Z"/><path class="cls-8" d="M92.9,395.51c-2.3-.67-4.5-1.38-6.59-2.15a3.62,3.62,0,0,0-4.59,2.15,3.57,3.57,0,0,0,2.14,4.58h0c2.24.81,4.57,1.56,7,2.27a3.48,3.48,0,0,0,1,.15,3.58,3.58,0,0,0,1-7Z"/><path class="cls-8" d="M73.77,387.76A64.49,64.49,0,0,1,68,384.18a3.58,3.58,0,0,0-4.08,5.88,73.62,73.62,0,0,0,6.38,4,3.75,3.75,0,0,0,1.74.45,3.58,3.58,0,0,0,1.73-6.72Z"/><path class="cls-8" d="M198,400c-2.26.34-4.58.64-7,.93a3.59,3.59,0,0,0,.41,7.16h.43q3.7-.44,7.2-1A3.58,3.58,0,0,0,198,400Z"/><path class="cls-8" d="M155.66,402.74q-3.61,0-7.08-.06a3.78,3.78,0,0,0-3.65,3.51,3.59,3.59,0,0,0,3.52,3.65h0c2.35,0,4.76.06,7.2.06a3.58,3.58,0,1,0,0-7.16Z"/><path class="cls-8" d="M176.91,402.13c-2.3.15-4.66.26-7.07.35a3.58,3.58,0,0,0,.15,7.16h.15q3.69-.15,7.22-.37a3.57,3.57,0,0,0,3.34-3.79,3.44,3.44,0,0,0-3.51-3.37l-.28,0Z"/><path class="cls-8" d="M134.44,402.1c-2.41-.15-4.75-.32-7-.52a3.59,3.59,0,0,0-.63,7.15h0c2.35.2,4.76.4,7.23.55h.22a3.58,3.58,0,1,0,.23-7.16Z"/><path class="cls-8" d="M113.4,399.88c-2.38-.36-4.69-.76-6.93-1.18a3.58,3.58,0,0,0-1.31,7c2.31.43,4.7.85,7.15,1.23a3.39,3.39,0,0,0,.55,0,3.58,3.58,0,0,0,.53-7.12Z"/><path class="cls-8" d="M248.64,380.17a3.58,3.58,0,0,0,4.67,5.42.69.69,0,0,0,.13-.11c1-.91,1.85-1.91,2.77-2.86-.6-2.76-1.23-5.43-1.89-8.06a3.42,3.42,0,0,0-1.07.86A46,46,0,0,1,248.64,380.17Z"/><path class="cls-3" d="M130.73,285.86a78.56,78.56,0,0,0-1.94-17.36,4.37,4.37,0,0,0-.25-.72l-19.41-41.35c-21.2-77.8,5.37-114.43,18-120.75l-10.91,4C101.47,124.8,84,161.45,102.44,228.89l19.45,41.58a71.12,71.12,0,0,1-2.15,38.39,460.76,460.76,0,0,0-24.8,140.41h7.16a453.45,453.45,0,0,1,24.42-138.09A77.66,77.66,0,0,0,130.73,285.86Z"/><path class="cls-2" d="M188,285.86a71.23,71.23,0,0,1,1.68-15.4l19.66-42.15c18.21-66.75,1.19-103.21-13.4-118.44l-11.52-4.19c12.53,6.26,39.28,42.8,18.23,120.17L183,267.78a3.61,3.61,0,0,0-.25.72,78.57,78.57,0,0,0-1.95,17.36,77.66,77.66,0,0,0,4.21,25.32,453.45,453.45,0,0,1,24.42,138.09h7.16a460.78,460.78,0,0,0-24.82-140.41,71.17,71.17,0,0,1-3.81-23Z"/><path class="cls-8" d="M399.72,236.56h.5q3.69-.51,7.2-1.13a3.58,3.58,0,1,0-1.14-7.06h-.1c-2.25.4-4.57.76-6.94,1.09a3.58,3.58,0,0,0,.48,7.12Z"/><path class="cls-8" d="M420.83,232.59a3.72,3.72,0,0,0,.81-.09l4.39-1,2.08-7.61a3.42,3.42,0,0,0-1.15,0L420,225.52a3.58,3.58,0,0,0,.8,7.07Z"/><path class="cls-8" d="M323,223.57q-3.35-1.14-6.48-2.44a3.58,3.58,0,1,0-2.74,6.62c2.23.92,4.54,1.78,6.92,2.6a3.74,3.74,0,0,0,1.15.18,3.58,3.58,0,0,0,1.15-7Z"/><path class="cls-8" d="M356.59,237.31c2.35.19,4.76.35,7.25.47H364a3.58,3.58,0,1,0,.18-7.16c-2.42-.11-4.76-.27-7-.45a3.59,3.59,0,1,0-.58,7.15Z"/><path class="cls-8" d="M378.33,238.1h1.16c2.08,0,4.14-.06,6.15-.16a3.57,3.57,0,0,0,3.39-3.76h0a3.36,3.36,0,0,0-3.32-3.41,3,3,0,0,0-.43,0c-1.5.08-3.06.09-4.6.13-.8,0-1.57.06-2.38.06a3.58,3.58,0,1,0,0,7.16Z"/><path class="cls-8" d="M334.89,234.23q3.48.75,7.21,1.35a3.68,3.68,0,0,0,.58,0,3.58,3.58,0,0,0,.56-7.12c-2.38-.38-4.67-.81-6.85-1.28a3.58,3.58,0,1,0-1.8,6.93l.3.07Z"/><path class="cls-8" d="M411.15,286.31a3.58,3.58,0,0,0,5-.72h0c.89-1.17,1.67-2.5,2.49-3.78a41.28,41.28,0,0,1-1.43-7.87,3.52,3.52,0,0,0-3.08,1.72,52.29,52.29,0,0,1-3.69,5.62,3.59,3.59,0,0,0,.69,5Z"/><path class="cls-8" d="M396.41,299.73a3.47,3.47,0,0,0,1.19-.21,38.23,38.23,0,0,0,7.12-3.35,3.58,3.58,0,0,0-3.45-6.27l-.25.15a32.79,32.79,0,0,1-5.81,2.74,3.58,3.58,0,0,0,1.2,6.94Z"/><path class="cls-8" d="M375.18,302.53h2.51q2.56,0,4.92-.15a3.58,3.58,0,0,0,3.36-3.79,3.45,3.45,0,0,0-3.53-3.37h-.26c-1.43.09-2.93.14-4.49.14h-2.38a3.68,3.68,0,0,0-3.64,3.51,3.58,3.58,0,0,0,3.51,3.65Z"/><path class="cls-8" d="M353,299.26a58.17,58.17,0,0,0,7.38,1.86,3,3,0,0,0,.66.06,3.58,3.58,0,0,0,.65-7.09,49.94,49.94,0,0,1-6.48-1.63,3.58,3.58,0,1,0-2.21,6.8Z"/><path class="cls-8" d="M339.31,292.44a3.58,3.58,0,0,0,4.06-5.89c-1.85-1.3-3.64-2.69-5.35-4.16a3.58,3.58,0,1,0-4.86,5.25l.21.18A70.38,70.38,0,0,0,339.31,292.44Z"/><path class="cls-8" d="M413.92,353.35a3.59,3.59,0,0,0-4.3-2.63A57.3,57.3,0,0,1,403,352a3.59,3.59,0,0,0,.45,7.16h.46a66.38,66.38,0,0,0,7.42-1.38,3.58,3.58,0,0,0,2.61-4.34Z"/><path class="cls-8" d="M436.75,336.89a3.58,3.58,0,0,0,4.93-1.15h0c.5-.79.88-1.6,1.33-2.4q-1.68-4.29-3.38-8.28a3.63,3.63,0,0,0-.72.93c-1,2-2.08,4-3.31,6a3.58,3.58,0,0,0,1.14,4.93Z"/><path class="cls-8" d="M392.72,356.28a3.58,3.58,0,0,0-3.41-3.67h-.07c-2.37-.07-4.65-.21-6.87-.45a3.58,3.58,0,0,0-.72,7.12q3.6.38,7.42.48h.07a3.59,3.59,0,0,0,3.58-3.48Z"/><path class="cls-8" d="M432.18,342.42a3.58,3.58,0,0,0-5-.37,37.27,37.27,0,0,1-5.29,3.8,3.58,3.58,0,1,0,3.66,6.15,45.37,45.37,0,0,0,6.31-4.53A3.59,3.59,0,0,0,432.18,342.42Z"/><path class="cls-8" d="M371.4,354a3.58,3.58,0,0,0-2.48-4.41h0c-2.25-.64-4.41-1.35-6.49-2.15a3.58,3.58,0,0,0-2.54,6.7c2.27.86,4.63,1.65,7.09,2.34A3.58,3.58,0,0,0,371.4,354Z"/><path class="cls-8" d="M334,333.77a3.57,3.57,0,0,0-.15-5.06h0c-1.29-1.21-2.54-2.44-3.76-3.66a3.76,3.76,0,0,0-.59-.39l-1.14,8.71c.2.18.39.37.58.56a3.58,3.58,0,0,0,5.06-.15Z"/><path class="cls-8" d="M351.4,346.34a3.58,3.58,0,0,0-1.18-4.92c-2-1.22-3.9-2.51-5.73-3.82a3.58,3.58,0,0,0-4.18,5.8c2,1.43,4,2.81,6.18,4.12a3.49,3.49,0,0,0,1.86.53,3.59,3.59,0,0,0,3-1.71Z"/><path class="cls-8" d="M455.5,374.29a3.56,3.56,0,0,0-1.61.86c-1.62,1.64-3.3,3.28-5.05,4.88a3.58,3.58,0,1,0,4.87,5.26c1.19-1.1,2.3-2.21,3.43-3.31-.52-2.63-1.08-5.17-1.64-7.69Z"/><path class="cls-8" d="M400,402.43c-2.21.18-4.52.28-6.89.31A3.72,3.72,0,0,0,392,403a3.52,3.52,0,0,0-2.3,4.41,3.57,3.57,0,0,0,2.3,2.3,3.66,3.66,0,0,0,1.13.22h0c2.55,0,5-.15,7.4-.34a3.59,3.59,0,0,0-.59-7.16Z"/><path class="cls-8" d="M438.13,388.78c-1.83,1.28-3.75,2.53-5.72,3.7a3.59,3.59,0,0,0,3.62,6.19c2.14-1.29,4.26-2.64,6.26-4a3.58,3.58,0,1,0-4.13-5.85Z"/><path class="cls-8" d="M420,398.23c-2.09.71-4.26,1.43-6.53,2a3.58,3.58,0,0,0,.88,7,3.72,3.72,0,0,0,.88-.11q3.72-.94,7.16-2.15a3.58,3.58,0,1,0-2.39-6.75Z"/><path class="cls-8" d="M379.2,402.13c-2.38-.23-4.67-.54-6.88-.9a3.58,3.58,0,0,0-1.48,7l.33.05q3.52.58,7.31,1h.37a3.58,3.58,0,0,0,.35-7.16Z"/><path class="cls-8" d="M323,375.18h0l-1,7.35a3.53,3.53,0,0,0,2.23-6.1Z"/><path class="cls-8" d="M358.93,398c-2.24-.71-4.38-1.5-6.44-2.35a3.58,3.58,0,1,0-2.85,6.56l.12.05c2.22.92,4.55,1.78,7,2.56a3.72,3.72,0,0,0,1.1.17,3.58,3.58,0,0,0,1.08-7Z"/><path class="cls-8" d="M340.35,389.38c-2-1.25-3.86-2.57-5.65-3.91a3.58,3.58,0,0,0-4.3,5.73q2.87,2.15,6.11,4.22a3.64,3.64,0,0,0,1.92.56,3.58,3.58,0,0,0,1.91-6.6Z"/></g></svg>