<svg id="Layer_1" data-name="Layer 1" xmlns="http://www.w3.org/2000/svg" viewBox="0 0 512 512"><defs><style>.cls-1{fill:#c8d2dc;}.cls-2{fill:#e9edf1;}.cls-3{fill:#f7f9fa;}.cls-4{fill:#ca3561;}.cls-5{fill:#d83968;}</style></defs><path class="cls-1" d="M356.66,243.21S416.74,343.59,468.94,440c-17.11,25.31-67.07,28.49-102.2,16.71C342.8,481.37,290.15,490.57,256,468.88c-34.14,21.69-86.8,12.49-110.74-12.22-35.13,11.78-85.09,8.6-102.2-16.71,52.2-96.36,112.28-196.74,112.28-196.74Z"/><path class="cls-2" d="M311.2,148,256,139l-55.2,9c-42.55,27.44-59.6,66-163.25,240.65,24.67,44.71,77.05,43.66,111.11,31.87,23.2,24.71,74.24,33.92,107.34,12.22,33.1,21.7,84.14,12.49,107.34-12.22,34.06,11.79,86.44,12.84,111.11-31.87C370.8,214,353.75,175.42,311.2,148Z"/><path class="cls-3" d="M320.46,259.92C312,224.35,286.62,159.58,282,148l-26-9V432.72c31.35,20.55,78.79,13.36,103.42-8.45-19.43-85.2-39-164.35-39-164.35Z"/><path class="cls-2" d="M325.53,61.1c0-16.66-14.79-30.17-33-30.17C279.43,30.93,263.81,42.7,256,49c-7.81-6.32-23.44-18.09-36.5-18.09-18.24,0-33,13.51-33,30.17,0,16,7.73,41.74,11.83,64.29l57.7,9,57.7-9c4.1-22.55,11.83-48.26,11.83-64.29Z"/><path class="cls-4" d="M313.7,125.39H198.3A130,130,0,0,1,200.8,148H311.2A130,130,0,0,1,313.7,125.39Z"/><path class="cls-5" d="M298.81,120.41a13.18,13.18,0,0,0-10.92,5.8,13.18,13.18,0,0,0-24.1,7.39c0,11.63,8.6,15.8,24.1,28.4C303.4,149.4,312,145.23,312,133.6a13.19,13.19,0,0,0-13.19-13.19Z"/><path class="cls-1" d="M293.25,381.36c-13.65,0-26.49-2.81-37.25-8.22-13.93,7-31.33,9.65-49.47,7.48-17-2-32.49-8.08-43.24-16.79-32.71,8.92-76.7,6.78-98.31-27.8a6.78,6.78,0,1,1,11.49-7.19c18.36,29.37,58.08,29.65,86.51,21a6.76,6.76,0,0,1,6.62,1.54c17.13,16.1,57.12,23.2,83,8.22a6.8,6.8,0,0,1,6.79,0c25.88,15,65.87,7.88,83-8.22a6.74,6.74,0,0,1,6.62-1.54c28.43,8.68,68.15,8.4,86.51-21A6.78,6.78,0,1,1,447,336c-21.62,34.58-65.61,36.71-98.32,27.8-10.75,8.71-26.25,14.76-43.24,16.79a101.54,101.54,0,0,1-12.22.74Z"/></svg>