<svg id="Layer_1" data-name="Layer 1" xmlns="http://www.w3.org/2000/svg" viewBox="0 0 512 512"><defs><style>.cls-1{fill:#ca3561;}.cls-2{fill:#d83968;}.cls-3{fill:#ffc34c;}.cls-4{fill:#f9bb32;}.cls-5{fill:#ffd551;}.cls-6{fill:#ffdf74;}.cls-7{fill:#ffd59a;}.cls-8{fill:#ff9079;}.cls-9{fill:#f6cd80;}.cls-10{fill:#db9c2e;}.cls-11{fill:#fce575;}.cls-12{fill:#ccc033;}.cls-13{fill:#99af17;}</style></defs><path class="cls-1" d="M462.71,416.71h-48V79.59h48A7.39,7.39,0,0,1,470.1,87V409.32A7.39,7.39,0,0,1,462.71,416.71Z"/><path class="cls-2" d="M357.42,90.68v327h.51c3.08,8.37,19.87,14.78,40.13,14.78s37.05-6.41,40.13-14.78h.51V90.68Z"/><path class="cls-1" d="M380.1,417.63h-.51V90.68H357.42v327h.51c3.08,8.37,19.87,14.78,40.13,14.78a91.62,91.62,0,0,0,11.08-.67C394.09,429.91,382.59,424.42,380.1,417.63Z"/><rect class="cls-3" x="252.86" y="110.36" width="19" height="349.43"/><rect class="cls-4" x="252.86" y="110.36" width="11.08" height="349.43"/><path class="cls-5" d="M262.41,138.29h0a35.81,35.81,0,0,1-35.81-35.81V70.14a35.8,35.8,0,0,1,35.81-35.8h0a35.8,35.8,0,0,1,35.8,35.8v32.34A35.81,35.81,0,0,1,262.41,138.29Z"/><path class="cls-6" d="M283.44,108a5.55,5.55,0,0,1-5.55-5.54V70.14a15.47,15.47,0,0,0-9.47-14.27,5.54,5.54,0,1,1,4.33-10.2A26.53,26.53,0,0,1,289,70.14v32.34A5.55,5.55,0,0,1,283.44,108Z"/><path class="cls-3" d="M248.76,102.48V70.14a35.8,35.8,0,0,1,24.73-34,35.61,35.61,0,0,0-11.08-1.77h0a35.8,35.8,0,0,0-35.81,35.8v32.34a35.81,35.81,0,0,0,35.81,35.81h0a35.91,35.91,0,0,0,11.08-1.77A35.82,35.82,0,0,1,248.76,102.48Z"/><path class="cls-7" d="M290.31,159.18H235.9l76.72,52c0-.1,0-.21,0-.32V184.39C312.63,170.47,302.64,159.18,290.31,159.18Z"/><path class="cls-3" d="M272.84,159.19H235.9l17.89,12.12C257.71,164.05,264.76,159.19,272.84,159.19Z"/><path class="cls-2" d="M311.93,389.13V315.31c0-9-2.66-17.82-7.95-24.52a38.88,38.88,0,0,1-8.09-24V225.33h-67v40.75c0,9-2.65,17.82-7.94,24.52a38.85,38.85,0,0,0-8.1,24v74.53c0,3.48,2.5,6.31,5.58,6.31h87.89C309.43,395.43,311.93,392.61,311.93,389.13Z"/><path class="cls-5" d="M304.58,477.66H220.13a3.69,3.69,0,0,1-3.69-3.69v-8.3a20.19,20.19,0,0,1,20.19-20.18h51.46a20.18,20.18,0,0,1,20.19,20.18V474A3.7,3.7,0,0,1,304.58,477.66Z"/><path class="cls-3" d="M273.57,445.49H236.63a20.19,20.19,0,0,0-20.19,20.19V474a3.69,3.69,0,0,0,3.69,3.69h33.25v-12A20.19,20.19,0,0,1,273.57,445.49Z"/><path class="cls-1" d="M249.82,389.13V314.6a38.83,38.83,0,0,1,8.1-24c5.29-6.7,7.95-15.55,7.95-24.52V225.33h-37v40.75c0,9-2.65,17.82-7.94,24.52a38.83,38.83,0,0,0-8.1,24v74.53c0,3.48,2.5,6.3,5.58,6.3H255.4C252.32,395.43,249.82,392.61,249.82,389.13Z"/><path class="cls-1" d="M213.58,184.38V212.5a71.81,71.81,0,0,0,15,44.41l.35.45h67c10.67-12.38,16.66-28.94,16.73-46.21l-76.72-52C223.57,159.19,213.58,170.47,213.58,184.38Z"/><path class="cls-8" d="M312.63,210.93c0,.07,0,.15,0,.23h0C312.62,211.08,312.63,211,312.63,210.93Z"/><path class="cls-2" d="M250.52,212.5V184.38a27.53,27.53,0,0,1,3.27-13.08L235.9,159.18c-12.33,0-22.32,11.29-22.32,25.2V212.5a71.81,71.81,0,0,0,15,44.41l.35.45h37l-.36-.45A71.87,71.87,0,0,1,250.52,212.5Z"/><circle class="cls-9" cx="271.53" cy="374.22" r="16.62"/><circle class="cls-9" cx="271.53" cy="217.21" r="16.62"/><ellipse class="cls-1" cx="398.06" cy="93.45" rx="40.64" ry="17.55"/><ellipse class="cls-2" cx="398.06" cy="93.45" rx="33.25" ry="10.16"/><ellipse class="cls-1" cx="398.06" cy="93.45" rx="19.83" ry="2.77"/><ellipse class="cls-10" cx="119.06" cy="270.6" rx="4.88" ry="6.01"/><path class="cls-11" d="M75.8,145.59l-1.55,1.11c-13,9.27-17.52,29.8-10,45.86L113.2,296.9l26.86-19.09L78.46,146.47A1.76,1.76,0,0,0,75.8,145.59Z"/><path class="cls-3" d="M85.93,199.7a40.27,40.27,0,0,1,.91-35.37l-8.38-17.86a1.76,1.76,0,0,0-2.66-.88l-1.55,1.11c-13,9.27-17.51,29.8-10,45.86L113.2,296.9l13.74-9.76Z"/><path class="cls-12" d="M183.65,321.73c-7-14.93-20.09-22.83-33.17-21.7l-10.42-22.22L113.2,296.9l10.42,22.22a52.25,52.25,0,0,0-1.32,46.22c9.78,20.86,31.44,28,48.39,16S193.44,342.59,183.65,321.73Zm-19.58,45.45c-10.6,7.53-24.19,3.05-30.3-10s-2.48-29.78,8.12-37.3,24.18-3.05,30.3,10S174.66,359.66,164.07,367.18Z"/><path class="cls-12" d="M117.1,296.8,90.24,277.71,79.83,299.93c-13.09-1.13-26.18,6.77-33.18,21.7-9.78,20.86-4,47.53,13,59.57s38.6,4.89,48.38-16A52.22,52.22,0,0,0,106.68,319ZM96.54,357.09c-6.12,13-19.71,17.52-30.3,10S52,342.82,58.12,329.78s19.7-17.52,30.3-10S102.65,344.05,96.54,357.09Z"/><path class="cls-11" d="M154.5,145.49l1.56,1.11c13,9.27,17.51,29.8,10,45.85L117.1,296.8,90.24,277.71l61.6-131.34A1.76,1.76,0,0,1,154.5,145.49Z"/><path class="cls-3" d="M156.06,146.6l-1.56-1.11a1.76,1.76,0,0,0-2.66.88L90.25,277.71,104,287.47l61.15-130.39A30.45,30.45,0,0,0,156.06,146.6Z"/><path class="cls-13" d="M55.75,349.69a32.74,32.74,0,0,1,2.37-19.91c2.93-6.26,7.6-10.54,12.82-12.48a30.84,30.84,0,0,1,22.62-7.61L104,287.47l-13.74-9.76L79.83,299.93c-13.09-1.13-26.18,6.77-33.18,21.7-9.78,20.86-4,47.53,13,59.57a32.3,32.3,0,0,0,7.32,3.92C58.92,376,54.9,362.8,55.75,349.69Z"/><circle class="cls-10" cx="112.14" cy="272.49" r="5.54"/></svg>