<svg id="Layer_1" data-name="Layer 1" xmlns="http://www.w3.org/2000/svg" viewBox="0 0 512 512"><defs><style>.cls-1{fill:#ebf5fc;}.cls-2{fill:#f6cd80;}.cls-3{fill:#e5bd7f;}.cls-4{fill:#d3dcfb;}.cls-5{fill:#86d8fc;}.cls-6{fill:#3ab0fa;}.cls-7{fill:#d83968;}.cls-8{fill:#ca3561;}</style></defs><path class="cls-1" d="M466,180.82V475.34H78.28C60.44,475.34,46,456.5,46,433.27V180.81L272.16,75.63Z"/><path class="cls-2" d="M466,182.05V101.28A32.31,32.31,0,0,0,433.72,69H78.28A32.31,32.31,0,0,0,46,101.28v80.77Z"/><path class="cls-3" d="M147.78,108.59h-21a7.32,7.32,0,1,1,0-14.63h21a7.32,7.32,0,0,1,0,14.63Z"/><path class="cls-3" d="M199.44,108.59h-21a7.32,7.32,0,0,1,0-14.63h21a7.32,7.32,0,1,1,0,14.63Z"/><path class="cls-3" d="M333.57,108.59h-21a7.32,7.32,0,1,1,0-14.63h21a7.32,7.32,0,0,1,0,14.63Z"/><path class="cls-3" d="M385.23,108.59h-21a7.32,7.32,0,0,1,0-14.63h21a7.32,7.32,0,1,1,0,14.63Z"/><path class="cls-1" d="M183.29,97.24a20.2,20.2,0,0,1-40.39,0V56.85a20.2,20.2,0,0,1,40.39,0V97.24Z"/><path class="cls-1" d="M369.08,97.24a20.2,20.2,0,0,1-40.39,0V56.85a20.2,20.2,0,0,1,40.39,0V97.24Z"/><path class="cls-4" d="M348.88,36.66a20.12,20.12,0,0,0-11.2,3.39,20.18,20.18,0,0,1,9,16.8V97.24a20.19,20.19,0,0,1-9,16.8,20.2,20.2,0,0,0,31.4-16.8V56.85A20.19,20.19,0,0,0,348.88,36.66Z"/><path class="cls-4" d="M163.09,36.66a20.12,20.12,0,0,0-11.2,3.39,20.18,20.18,0,0,1,9,16.8V97.24a20.19,20.19,0,0,1-9,16.8,20.2,20.2,0,0,0,31.4-16.8V56.85a20.19,20.19,0,0,0-20.2-20.19Z"/><path class="cls-3" d="M433.72,69H411.28a32.3,32.3,0,0,1,32.31,32.3v80.78H466V101.28A32.31,32.31,0,0,0,433.72,69Z"/><path class="cls-3" d="M46,142.43H466v14.62H46Z"/><path class="cls-2" d="M218.86,254.36l-14.07,16.4a61.69,61.69,0,1,1-61.69,61.69,61.69,61.69,0,0,1,61.69-61.69l-14.06-16.4a79.35,79.35,0,1,0,28.13,0Z"/><path class="cls-5" d="M204.79,270.76l28.43-33.15H176.36Z"/><path class="cls-6" d="M226.6,219.29H183a6.62,6.62,0,0,0-6.63,6.62v11.71h56.86V225.91A6.62,6.62,0,0,0,226.6,219.29Z"/><path class="cls-2" d="M321.27,289.69l-14.06,16.4a61.69,61.69,0,1,1-61.69,61.69,61.69,61.69,0,0,1,61.69-61.69l-14.07-16.4a79.36,79.36,0,1,0,28.13,0Z"/><path class="cls-7" d="M307.21,306.09l28.43-33.15H278.78Z"/><path class="cls-8" d="M329,254.62H285.4a6.62,6.62,0,0,0-6.62,6.62v11.7h56.86v-11.7A6.62,6.62,0,0,0,329,254.62Z"/></svg>