<svg id="Layer_1" data-name="Layer 1" xmlns="http://www.w3.org/2000/svg" viewBox="0 0 512 512"><defs><style>.cls-1{fill:#8ac9fe;}.cls-2{fill:#60b7ff;}.cls-3{fill:#fff;}.cls-4{fill:#f4eafa;}.cls-5{fill:#ebd5f6;}.cls-6{fill:#d83968;}.cls-7{fill:#ca3561;}</style></defs><path class="cls-1" d="M470.07,376.37H41.93a14,14,0,0,1-14-14V81.74a14,14,0,0,1,14-14H470.07a14,14,0,0,1,14,14V362.36A14,14,0,0,1,470.07,376.37Z"/><path class="cls-2" d="M484.09,81.74V362.36a14,14,0,0,1-14,14H423.55a14,14,0,0,0,14-14V81.74a14,14,0,0,0-14-14h46.52A14,14,0,0,1,484.09,81.74Z"/><path class="cls-3" d="M442.1,131.38A32.88,32.88,0,0,1,419.71,109a12.89,12.89,0,0,0-12.43-9.16H104.73A12.89,12.89,0,0,0,92.3,109a32.91,32.91,0,0,1-22.4,22.4,12.89,12.89,0,0,0-9.15,12.43V300.28a12.89,12.89,0,0,0,9.15,12.43,32.9,32.9,0,0,1,22.4,22.41,12.88,12.88,0,0,0,12.43,9.14H407.28a12.88,12.88,0,0,0,12.43-9.15,32.88,32.88,0,0,1,22.39-22.4,12.89,12.89,0,0,0,9.15-12.43V143.81A12.89,12.89,0,0,0,442.1,131.38Z"/><path class="cls-4" d="M316.85,442.9,256,382l39-39,60.86,60.86a4.67,4.67,0,0,1-3.59,8l-18.17-1.09a9.83,9.83,0,0,0-10.41,10.4l1.1,18.17A4.68,4.68,0,0,1,316.85,442.9Z"/><path class="cls-5" d="M352.3,411.83l-18.16-1.09a9.75,9.75,0,0,0-6.58,2l-51.13-51.12L295,343l60.85,60.86a4.67,4.67,0,0,1-3.59,8Z"/><path class="cls-4" d="M195.15,442.9,256,382l-39-39-60.86,60.86a4.67,4.67,0,0,0,3.59,8l18.17-1.09a9.83,9.83,0,0,1,10.41,10.4l-1.1,18.17A4.68,4.68,0,0,0,195.15,442.9Z"/><path class="cls-5" d="M256,382.05,195.15,442.9a4.67,4.67,0,0,1-8-3.59l1.1-18.16a9.68,9.68,0,0,0-2-6.57l32.53-32.53-20.43-20.43L217,343Z"/><path class="cls-1" d="M316,151.43H196a6.89,6.89,0,1,1,0-13.77H316a6.89,6.89,0,1,1,0,13.77Z"/><path class="cls-1" d="M412.11,186.42a6.89,6.89,0,0,1-6.89,6.88H106.78a6.89,6.89,0,1,1,0-13.77H405.22A6.89,6.89,0,0,1,412.11,186.42Z"/><path class="cls-1" d="M412.11,217.78a6.89,6.89,0,0,1-6.89,6.88H332.57a6.88,6.88,0,1,1,0-13.76h72.65A6.89,6.89,0,0,1,412.11,217.78Z"/><path class="cls-2" d="M412.11,217.78a6.89,6.89,0,0,1-6.89,6.88V210.9A6.89,6.89,0,0,1,412.11,217.78Z"/><path class="cls-2" d="M405.22,193.3V179.53a6.89,6.89,0,1,1,0,13.77Z"/><path class="cls-1" d="M299.38,224.67H106.78a6.89,6.89,0,1,1,0-13.77h192.6a6.89,6.89,0,0,1,0,13.77Z"/><path class="cls-1" d="M363.36,256H148.64a6.89,6.89,0,0,1,0-13.77H363.36a6.89,6.89,0,0,1,0,13.77Z"/><path class="cls-6" d="M323.12,357.25l-56.95,56.94a14.38,14.38,0,0,1-20.34,0l-57-56.94a38.8,38.8,0,0,1,54.87-54.87l6,6a8.84,8.84,0,0,0,12.5,0l6-6a38.8,38.8,0,0,1,54.87,54.87Z"/><path class="cls-7" d="M323.12,357.25l-56.95,56.94a14.38,14.38,0,0,1-20.34,0l-11-11,48.39-48.39a38.77,38.77,0,0,0,0-54.86c-1.55-1.56-3.28-3.13-5.16-4.71a38.8,38.8,0,0,1,45.05,62Z"/></svg>