<svg id="Layer_1" data-name="Layer 1" xmlns="http://www.w3.org/2000/svg" viewBox="0 0 512 512"><defs><style>.cls-1{fill:#e0efff;}.cls-2{fill:#d83968;}.cls-3{fill:#ca3561;}.cls-4{fill:#54768a;}.cls-5{fill:#d4e8ff;}.cls-6{fill:#f6cd80;}.cls-7{fill:#416a82;}.cls-8{fill:#fff;}</style></defs><path class="cls-1" d="M343,288.8l-23.68-67.25a46.24,46.24,0,0,0-43.64-30.86V306.4Z"/><path class="cls-2" d="M427.22,446.94h-338A44.18,44.18,0,0,1,45,402.77V333a44.17,44.17,0,0,1,44.18-44.17H367.15A104.25,104.25,0,0,1,471.4,393.05v9.72a44.18,44.18,0,0,1-44.18,44.17Z"/><path class="cls-3" d="M367.15,288.8H330.2A104.25,104.25,0,0,1,434.44,393.05v9.72a44.17,44.17,0,0,1-44.17,44.17h37a44.17,44.17,0,0,0,44.17-44.17v-9.72A104.25,104.25,0,0,0,367.15,288.8Z"/><path class="cls-4" d="M135.38,287.92v-44.2a16.83,16.83,0,0,1,33.66,0v44.2Z"/><path class="cls-5" d="M282.33,221.55l23.51,66.77,37.12.49-23.68-67.26a46.24,46.24,0,0,0-43.64-30.86v18.4a46.1,46.1,0,0,1,6.69,12.46Z"/><path class="cls-3" d="M95.79,318.66V288.8H89.32A44.25,44.25,0,0,0,45,333v14.1H67.29a28.47,28.47,0,0,0,28.5-28.44Z"/><path class="cls-1" d="M137.15,446.94H45a18.56,18.56,0,0,1-18.55-18.55v0A18.56,18.56,0,0,1,45,409.81h92.17Z"/><path class="cls-1" d="M374.85,446.94H467a18.56,18.56,0,0,0,18.55-18.55v0A18.56,18.56,0,0,0,467,409.81H374.85Z"/><path class="cls-6" d="M402.79,350.68A22.19,22.19,0,0,0,425,372.84h44.42a103.69,103.69,0,0,0-20.48-44.32H425a22.18,22.18,0,0,0-22.21,22.16Z"/><ellipse class="cls-4" cx="131.04" cy="442.61" rx="43.04" ry="42.95"/><path class="cls-7" d="M131,399.66a43,43,0,0,0-18.48,4.16,42.91,42.91,0,0,1,0,77.59A43,43,0,1,0,131,399.66Z"/><ellipse class="cls-8" cx="131.04" cy="442.61" rx="16.47" ry="16.43"/><ellipse class="cls-4" cx="369.45" cy="442.61" rx="43.04" ry="42.95"/><path class="cls-7" d="M369.45,399.66A42.94,42.94,0,0,0,351,403.82a42.92,42.92,0,0,1,0,77.59,43,43,0,1,0,18.48-81.75Z"/><path class="cls-8" d="M369.45,459.05a16.44,16.44,0,1,1,16.47-16.44A16.47,16.47,0,0,1,369.45,459.05Z"/><path class="cls-3" d="M274.39,309a6.92,6.92,0,0,0-6.92,6.93V420.53a6.93,6.93,0,1,0,13.85,0V315.88A6.93,6.93,0,0,0,274.39,309Z"/><path class="cls-4" d="M247.82,320.88h-18.6a6.93,6.93,0,0,0,0,13.86h18.6a6.93,6.93,0,0,0,0-13.86Z"/><path class="cls-3" d="M135.38,309a6.93,6.93,0,0,0-6.93,6.93v62.83a6.93,6.93,0,0,0,13.86,0V315.88A6.93,6.93,0,0,0,135.38,309Z"/><path class="cls-2" d="M168.72,81.69c-9.36,0-17.41,6.22-21,15.15-3.55-8.93-11.6-15.15-21-15.15-12.65,0-22.91,11.37-22.91,25.4,0,32.12,43.87,49.86,43.87,49.86s43.43-18,43.86-49.86c.2-14-10.25-25.4-22.9-25.4Z"/><path class="cls-3" d="M260.25,26.43c-7.07,0-13.15,4.7-15.83,11.44-2.68-6.74-8.76-11.44-15.82-11.44-9.55,0-17.29,8.59-17.29,19.18,0,24.25,33.11,37.64,33.11,37.64s32.79-13.57,33.12-37.64C277.68,35,269.79,26.43,260.25,26.43Z"/><path class="cls-3" d="M229.38,167.21c-5.84,0-10.86,3.89-13.08,9.45-2.22-5.56-7.24-9.45-13.08-9.45-7.9,0-14.3,7.1-14.3,15.86,0,20,27.38,31.11,27.38,31.11s27.1-11.22,27.37-31.11c.12-8.76-6.4-15.86-14.29-15.86Z"/></svg>