<svg id="Layer_1" data-name="Layer 1" xmlns="http://www.w3.org/2000/svg" viewBox="0 0 512 512"><defs><style>.cls-1{fill:#f8f8f8;}.cls-1,.cls-2,.cls-3,.cls-4{fill-rule:evenodd;}.cls-2{fill:#ca3561;}.cls-3{fill:#d83968;}.cls-4{fill:#e0efff;}</style></defs><path class="cls-1" d="M117.06,309.07l17.65-37.17L69.79,208.44,42,235.65Z"/><path class="cls-2" d="M69.79,208.44l64.92,63.46L247.37,34.83Z"/><path class="cls-3" d="M247.37,34.83,134.71,271.9l-17.65,37.17-8.47,17.82L256,445.4,403.41,326.89l-8.47-17.82L377.29,271.9,264.63,34.83,256,16.67Z"/><path class="cls-4" d="M256,445.4,108.59,326.89,91.42,363,256,495.33,420.58,363l-17.17-36.13Z"/><path class="cls-2" d="M264.63,34.83,377.29,271.9l64.92-63.46Z"/><path class="cls-1" d="M442.21,208.44,377.29,271.9l17.65,37.17L470,235.65Z"/></svg>