<svg id="Layer_1" data-name="Layer 1" xmlns="http://www.w3.org/2000/svg" viewBox="0 0 512 512"><defs><style>.cls-1{fill:#f6cd80;}.cls-2{fill:#f9dbaa;}.cls-3{fill:#65a7ef;}.cls-4{fill:#d83968;}.cls-5{fill:#ca3561;}</style></defs><path class="cls-1" d="M94.6,235H417.4a22,22,0,0,1,22,22v95.37H72.6V257.05A22,22,0,0,1,94.6,235Z"/><path class="cls-2" d="M417.4,235H388.05a22,22,0,0,1,22,22v95.37H439.4V257.05A22,22,0,0,0,417.4,235Z"/><path class="cls-1" d="M153.29,132.33H358.71a22,22,0,0,1,22,22V235H131.29v-80.7A22,22,0,0,1,153.29,132.33Z"/><path class="cls-2" d="M358.71,132.33H329.36a22,22,0,0,1,22,22V235h29.34v-80.7A22,22,0,0,0,358.71,132.33Z"/><path class="cls-3" d="M43.25,352.42h425.5a29.35,29.35,0,0,1-29.35,29.34H72.6a29.35,29.35,0,0,1-29.35-29.34Z"/><path class="cls-3" d="M307.35,440.45H204.65A29.35,29.35,0,0,0,175.3,469.8H336.7A29.35,29.35,0,0,0,307.35,440.45Z"/><path class="cls-3" d="M241.33,381.76h29.34v58.69H241.33Z"/><path class="cls-4" d="M417.4,235H94.6a22,22,0,0,0-22,22v43.43A50.61,50.61,0,0,0,124,276.06a51.24,51.24,0,0,0,88,0,51.25,51.25,0,0,0,88,0,51.25,51.25,0,0,0,88,0,50.61,50.61,0,0,0,51.35,24.42V257.05a22,22,0,0,0-22-22Z"/><path class="cls-4" d="M358.71,132.33H153.29a22,22,0,0,0-22,22v43.47A51.35,51.35,0,0,0,168,173.36a51.26,51.26,0,0,0,88,0,51.25,51.25,0,0,0,88,0,51.35,51.35,0,0,0,36.68,24.45V154.34A22,22,0,0,0,358.71,132.33Z"/><path class="cls-5" d="M160.63,257.05H175.3v14.67H160.63Z"/><path class="cls-5" d="M248.66,257.05h14.68v14.67H248.66Z"/><path class="cls-5" d="M336.7,257.05h14.67v14.67H336.7Z"/><path class="cls-5" d="M417.4,257.05h14.67v14.67H417.4Z"/><path class="cls-5" d="M79.93,257.05H94.6v14.67H79.93Z"/><path class="cls-5" d="M204.65,154.34h14.67V169H204.65Z"/><path class="cls-5" d="M292.68,154.34h14.67V169H292.68Z"/><path class="cls-5" d="M131.29,154.34H146V169H131.29Z"/><path class="cls-5" d="M366,154.34h14.67V169H366Z"/><path class="cls-4" d="M293.09,63.59a21.63,21.63,0,0,1-6.3,15.29L256,109.47,225.15,78.88a21.58,21.58,0,0,1,0-30.37,21.32,21.32,0,0,1,15.3-6.31,20.81,20.81,0,0,1,15.07,6.31L256,49l.43-.45a21.49,21.49,0,0,1,36.68,15.08Z"/></svg>