<svg id="Layer_1" data-name="Layer 1" xmlns="http://www.w3.org/2000/svg" viewBox="0 0 512 512"><defs><style>.cls-1{fill:#d83968;}.cls-2{fill:#ca3561;}.cls-3{fill:#e0efff;}.cls-4{fill:#d4e8ff;}</style></defs><path class="cls-1" d="M455.38,472.83H56.62a17.45,17.45,0,0,1-17.45-17.45V223.05H472.83V455.38A17.45,17.45,0,0,1,455.38,472.83Z"/><path class="cls-2" d="M437.93,223.05V455.38a17.45,17.45,0,0,1-17.45,17.45h34.9a17.45,17.45,0,0,0,17.45-17.45V223.05Z"/><path class="cls-2" d="M472.83,223.05,256,348.71,39.17,223.05,244.48,43.5a17.47,17.47,0,0,1,23,0Z"/><path class="cls-3" d="M423.53,251.69,256,348.71,88.47,251.64V99H423.53Z"/><path class="cls-4" d="M388.62,99v152.7L238.55,338.6,256,348.71l167.53-97V99Z"/><path class="cls-2" d="M245.55,332.64,57.91,472.83H454.09L266.45,332.64A17.46,17.46,0,0,0,245.55,332.64Z"/><path class="cls-1" d="M291.27,153.32c-15.75,0-29.29,10.46-35.27,25.45-6-15-19.52-25.45-35.27-25.45-21.28,0-38.54,19.11-38.54,42.68,0,53.95,73.81,83.75,73.81,83.75s73.08-30.2,73.81-83.75c.32-23.57-17.26-42.68-38.54-42.68Z"/><path class="cls-2" d="M291.27,153.32a35.3,35.3,0,0,0-17.43,4.61c12.6,7,21.29,21.44,21.06,38.07-.49,36.63-34.84,62.33-56.5,74.91a158.72,158.72,0,0,0,17.6,8.84s73.08-30.2,73.81-83.75c.32-23.57-17.26-42.68-38.54-42.68Z"/></svg>