<svg xmlns="http://www.w3.org/2000/svg" viewBox="0 0 414.77 291.88"><defs><style>.cls-1{fill:#d83968;}.cls-2,.cls-3{fill:#f6cd80;}.cls-2{stroke:#f6cd80;stroke-miterlimit:10;stroke-width:1.5px;}</style></defs><g id="Layer_2" data-name="Layer 2"><g id="Layer_2-2" data-name="Layer 2"><path class="cls-1" d="M120.59,266.54a34.1,34.1,0,0,1-11.87-8.5,41.8,41.8,0,0,1-8.39-14.6c-2.16-5.83-3.24-12.85-3.24-21a61.33,61.33,0,0,1,3.24-21,41.8,41.8,0,0,1,8.39-14.6,34.1,34.1,0,0,1,11.87-8.5,35,35,0,0,1,13.62-2.77,33.51,33.51,0,0,1,13.54,3,34,34,0,0,1,11.88,8.87A48.12,48.12,0,0,1,168,202.13a60.83,60.83,0,0,1,3.15,20.33A64,64,0,0,1,168,243.62a44,44,0,0,1-8.39,14.51,32.75,32.75,0,0,1-11.88,8.41,34.67,34.67,0,0,1-27.16,0Zm21-14.6a16.25,16.25,0,0,0,4.93-4.84,22,22,0,0,0,3.06-6.53,71.41,71.41,0,0,0,1.6-7.11,60.77,60.77,0,0,0,.67-6.45c.13-2,.13-3.45.13-4.55s0-2.49-.13-4.47-.53-4.11-.93-6.46-1.07-4.69-1.74-7.11a26.91,26.91,0,0,0-3.19-6.6,17.7,17.7,0,0,0-4.8-4.84,14,14,0,0,0-14-.07,16.25,16.25,0,0,0-4.93,4.84,22.42,22.42,0,0,0-3.07,6.6,50.57,50.57,0,0,0-1.73,7.11,63.22,63.22,0,0,0-.8,6.45c-.13,2-.27,3.52-.27,4.55s.14,2.49.27,4.47a59.41,59.41,0,0,0,.8,6.38,48,48,0,0,0,1.73,7.11,26.93,26.93,0,0,0,3.2,6.6,16.52,16.52,0,0,0,4.93,4.92,12.17,12.17,0,0,0,6.93,1.9A13.88,13.88,0,0,0,141.57,251.94Z"/><path class="cls-1" d="M227.89,261.91V247.63a30.46,30.46,0,0,1-2.4,4.93,21.67,21.67,0,0,1-3.66,4.59,16.26,16.26,0,0,1-5.06,3.4,15.6,15.6,0,0,1-6.81,1.36c-4.82,0-31.23,5-31.23-42.17V194.22a18,18,0,0,0-4.25-11.65h0l29.75-6.87s.33,49.65.58,51.77c0,12.42,3.41,18.43,11.09,18.43,5.26,0,12-6.33,12-21.15V194A18.06,18.06,0,0,0,224,182.73l-.34-.42,30.25-6.7v85.08c0,6.82,2.13,8.62,2.13,8.62Z"/><path class="cls-1" d="M326,250.6a22.75,22.75,0,0,0-11.38-3.4q-6-.49-11.46-.5c-3.32,0-6.4.08-9.22.33s-5.48.42-7.81.42h-1.57a7.49,7.49,0,0,1-1.5-.09c-2.91-.16-4.9-1-5.9-2.4a6,6,0,0,1-.66-2.25c0-1.74,1.66-3.4,4.9-4.9a36.85,36.85,0,0,0,16.69,4,35.91,35.91,0,0,0,13.21-2.49,35.49,35.49,0,0,0,11.21-7,33.85,33.85,0,0,0,7.81-10.46,30.35,30.35,0,0,0,2.9-13.12,28.85,28.85,0,0,0-1.91-10.47,32,32,0,0,0-5.23-8.88,49.06,49.06,0,0,0-7.72-7.06c-8.69-6.73-20.27-6.73-20.27-6.73a36.59,36.59,0,0,0-13.28,2.49A39.66,39.66,0,0,0,273.27,185a35,35,0,0,0-8.14,10.55,29.45,29.45,0,0,0,.25,27,34.66,34.66,0,0,0,9.14,10.88c-5.48,3.74-9.06,7.39-10.63,10.88a22.3,22.3,0,0,0-2.49,9,16.61,16.61,0,0,0,1.32,6.56,20.49,20.49,0,0,0,14.54,11.71,42.63,42.63,0,0,0,5.56.92c2.08.24,4.32.49,6.9.74s5,.42,7.39.67,4.73.74,7,1.16c4.49.91,7.31,2.57,8.56,4.82a12.14,12.14,0,0,1,.83,2.82c.08.83.08,1.58.08,2.16v.5a23.12,23.12,0,0,1-.17,2.41,22.25,22.25,0,0,1-.49,2.9l-.25,1.25q21.3-9.72,21.26-26.74C333.9,258.58,331.24,253.68,326,250.6Zm-43.65-45.72a37.6,37.6,0,0,1,.65-5,27.91,27.91,0,0,1,1.45-5.27,17.13,17.13,0,0,1,2.9-4.76,13.22,13.22,0,0,1,4.48-3.49,14.35,14.35,0,0,1,6.58-1.34c.66,0,1.45.08,2.37.15,5.92.89,9.74,4.53,11.19,10.92a29.16,29.16,0,0,1,.79,5.72c.13,2.38.13,5.2.13,8.47v2.23c0,5-.52,9.06-1.71,11.95-2,5.35-6.19,8-12.77,8a15.12,15.12,0,0,1-6.58-1.34,13.22,13.22,0,0,1-4.48-3.49,15.69,15.69,0,0,1-2.77-4.76,43.16,43.16,0,0,1-1.58-5.34,35.29,35.29,0,0,1-.65-5c-.14-1.56-.14-2.82-.14-3.79S282.22,206.44,282.36,204.88Z"/><path class="cls-1" d="M359.3,260.28a43.44,43.44,0,0,1-7.48-7.2,48.4,48.4,0,0,1-5.73-8.65,50,50,0,0,1-5.4-23.15,55.81,55.81,0,0,1,3.24-19.82,43.52,43.52,0,0,1,8.39-14.32,33,33,0,0,1,11.79-8.65,34.25,34.25,0,0,1,13.54-2.88h.08a34.24,34.24,0,0,1,25.42,11.53,45.27,45.27,0,0,1,8.47,14.32,58,58,0,0,1,3.15,19.82H366.6a41.48,41.48,0,0,0,.84,8.29,37.5,37.5,0,0,0,2.49,8.19c12.78,30.87,44.84.24,44.84.24C413.13,262.38,386.33,281.22,359.3,260.28Zm34-48.91c-.11-.71-.21-1.74-.42-3.09s-.52-2.71-.83-4.19-.94-3-1.57-4.65a26.38,26.38,0,0,0-2.5-4.25,12.63,12.63,0,0,0-3.44-3.1,8.69,8.69,0,0,0-4.69-1.22h-.11a8.81,8.81,0,0,0-4.58,1.16,11,11,0,0,0-3.34,3,19.08,19.08,0,0,0-2.4,4.12,28.59,28.59,0,0,0-1.66,4.58,40,40,0,0,0-.94,4.32c-.21,1.36-.32,2.45-.42,3.29Z"/><path class="cls-1" d="M85.58,267.13c-.92,0-2,0-3.07-.08s-2.25-.17-3.33-.33-2.24-.42-3.32-.67a12.75,12.75,0,0,1-2.82-1,24.92,24.92,0,0,1-10.22-10.3,88.67,88.67,0,0,1-5.73-13.29,89.11,89.11,0,0,0-3.74-9.22,64.1,64.1,0,0,0-5.81-9.71,40.35,40.35,0,0,0-7.64-7.89A17.63,17.63,0,0,0,30.68,211h-.41l.07,45.77a14.2,14.2,0,0,0,2.82,8.44l1.45,1.93H0s3.87-4.63,3.87-10.34c0-18.34.43-68.85.52-92a32,32,0,0,0-3-13.77c-.67-1.41-1.18-2.5-1.18-2.51l52.45-.33a45.3,45.3,0,0,1,13.62,2.07,37.64,37.64,0,0,1,11.87,6.15,31.54,31.54,0,0,1,8.47,10.21,30.25,30.25,0,0,1,3.16,14,27.15,27.15,0,0,1-8.47,20.67,30.62,30.62,0,0,1-9.3,6,42.57,42.57,0,0,1-11.38,3.16,41.12,41.12,0,0,1,17.36,15.53c1.16,2.16,4.15,9.3,9,21.51C93.92,264.68,100.38,267,100.38,267l-7,.08a14.55,14.55,0,0,1-1.91.08H85.58ZM49.05,204.35A18.32,18.32,0,0,0,58.29,202a26.56,26.56,0,0,0,7.18-5.89,28.33,28.33,0,0,0,4.62-7.73,20.58,20.58,0,0,0,1.64-7.8,25.36,25.36,0,0,0-.82-6.07,34,34,0,0,0-2.46-5.89,33,33,0,0,0-3.7-5.4,39.8,39.8,0,0,0-4.92-4.65,18.49,18.49,0,0,0-10.78-3.91l-18.78.09v49.58Z"/><circle class="cls-2" cx="323.01" cy="161.71" r="10.11"/><circle class="cls-3" cx="207.39" cy="67.11" r="1.87"/><path class="cls-3" d="M205.52,67.24c-1.67,0-4.56-.52-9-2.58-5.63-2.6-9-4.08-10.07-4.45a19.39,19.39,0,0,0-11,.29,21.63,21.63,0,0,0,1.71-2.45l.28-.48a17.17,17.17,0,0,0,.89-1.83,14.41,14.41,0,0,0,1.25-5.06,13.56,13.56,0,0,0-.49-4.27c-.07-.26-.15-.52-.24-.79a13.91,13.91,0,0,0-3-4.77,14.22,14.22,0,0,0-5.59-3.76c-.39-.13-.79-.25-1.18-.35a14.51,14.51,0,0,0-5-.41,17.76,17.76,0,0,0-6.06,1.73,21.72,21.72,0,0,0-5.34,3.69L134.73,58.83l1.21.48a15.13,15.13,0,0,1,5.5,3.73C146.32,68.25,155,77.54,162,85.1L167.51,91c.22-.15.45-.29.69-.43a11.86,11.86,0,0,1,2.69-1,9.75,9.75,0,0,1,3.76-.09,13.41,13.41,0,0,1,4,1.28,11.76,11.76,0,0,1,2.17,1.42l3.64-3.44-.27-.48-.46-.08a6.61,6.61,0,0,1-3.69-2l-4.69-5L165.25,70.5l.14-.13a8.33,8.33,0,0,1,4.34-1.73,19.23,19.23,0,0,1,5.17.24A29.51,29.51,0,0,1,180,70.33a41.9,41.9,0,0,1,4.26,2,41,41,0,0,0,6.26,2.7,11.79,11.79,0,0,0,6.84.23,6.72,6.72,0,0,0,1.29-.57c.45-.27.9-.53,1.35-.85s.85-.64,1.25-1,.76-.67,1.08-1l1.28-1.2c.25-.25.51-.49.74-.7a7.43,7.43,0,0,0,.62-.65l1-1L207.38,67A4.77,4.77,0,0,1,205.52,67.24ZM172,58.37a8.57,8.57,0,0,1-2.41,3.78l-6.44,6.08-16-17,6.41-6.1a8.71,8.71,0,0,1,5-2.15,18.88,18.88,0,0,1,3.19,0,14.88,14.88,0,0,1,3,.66,15.75,15.75,0,0,1,2,.84c.25.12.48.25.72.38a11.9,11.9,0,0,1,2.24,1.81,9.81,9.81,0,0,1,2,3.21,13.09,13.09,0,0,1,.92,4.14,12.49,12.49,0,0,1-.15,2.6A12.63,12.63,0,0,1,172,58.37Z"/><circle class="cls-3" cx="162.24" cy="26.11" r="4.76"/><path class="cls-3" d="M214.73,97.69h-.56l-.29.35a6.72,6.72,0,0,1-3.56,2.21l-6.63,1.58-14.36,3.43,0-.19a8.34,8.34,0,0,1,.67-4.63,18.85,18.85,0,0,1,2.79-4.36,29.84,29.84,0,0,1,3.82-3.72,43.51,43.51,0,0,1,3.83-2.72,41.22,41.22,0,0,0,5.47-4.07,11.69,11.69,0,0,0,3.61-5.8,6.1,6.1,0,0,0,.15-1.41c0-.52,0-1-.06-1.59s-.12-1.06-.2-1.56-.2-1-.3-1.42l-.41-1.71-.23-1a6.41,6.41,0,0,0-.25-.87l-.32-1.3-.47-1.9a5,5,0,0,1-.78,1.79c-.89,1.44-2.76,3.68-6.72,6.47-5.07,3.57-8,5.72-8.88,6.49a19.33,19.33,0,0,0-5.24,9.65,20.43,20.43,0,0,0-1.27-2.71l-.27-.48c-.35-.58-.73-1.14-1.14-1.69a14.58,14.58,0,0,0-3.75-3.61,13.67,13.67,0,0,0-4-1.71q-.39-.1-.81-.18a13.69,13.69,0,0,0-5.65.25,14.31,14.31,0,0,0-6.05,3c-.31.27-.61.56-.9.85a14.76,14.76,0,0,0-2.87,4.15,17.67,17.67,0,0,0-1.53,6.11,21.17,21.17,0,0,0,.53,6.47l5.85,24,1-.81a15,15,0,0,1,6-2.9c6.95-1.62,19.31-4.44,29.37-6.76l7.88-1.83c0-.27,0-.54,0-.81a11.88,11.88,0,0,1,.45-2.85,9.73,9.73,0,0,1,1.8-3.3,13.11,13.11,0,0,1,3.13-2.86,12.36,12.36,0,0,1,2.32-1.18Zm-51.18,13.68-2.08-8.61a8.7,8.7,0,0,1,.62-5.36,18.38,18.38,0,0,1,1.6-2.77,15.6,15.6,0,0,1,2.07-2.28A15,15,0,0,1,167.51,91c.22-.15.45-.29.69-.43a11.86,11.86,0,0,1,2.69-1,9.75,9.75,0,0,1,3.76-.09,13.41,13.41,0,0,1,4,1.28,12.6,12.6,0,0,1,3.48,2.65,8.61,8.61,0,0,1,2.08,4l2,8.61Z"/><circle class="cls-3" cx="149.38" cy="85.66" r="4.76"/><path class="cls-3" d="M247.38,89.18a12.15,12.15,0,0,1-2.24-1.81,9.81,9.81,0,0,1-2-3.21,13.37,13.37,0,0,1-.92-4.14,12.4,12.4,0,0,1,.15-2.59L237.61,76c-.09.16-.18.32-.28.48l.16.44a6.6,6.6,0,0,1,.14,4.19l-1.95,6.53-4.21,14.14-.18,0a8.29,8.29,0,0,1-3.67-2.9,19.21,19.21,0,0,1-2.39-4.59,31,31,0,0,1-1.31-5.18,42.21,42.21,0,0,1-.44-4.66,41,41,0,0,0-.79-6.78,11.69,11.69,0,0,0-3.22-6,5.79,5.79,0,0,0-1.14-.83,15.56,15.56,0,0,0-1.41-.75c-.46-.22-1-.42-1.45-.6s-1-.33-1.38-.45l-1.69-.51-1-.29a6.29,6.29,0,0,0-.88-.22l-1.34-.39L207.39,67a5,5,0,0,1,1.15,1.56c.8,1.48,1.81,4.22,2.25,9.06.56,6.18,1,9.81,1.18,10.94a19.36,19.36,0,0,0,5.74,9.36,21.91,21.91,0,0,0-3-.25h-.56a17.29,17.29,0,0,0-2,.13,14.56,14.56,0,0,0-5,1.45,13.51,13.51,0,0,0-3.45,2.56c-.19.19-.38.4-.57.61a13.73,13.73,0,0,0-2.6,5,14.32,14.32,0,0,0-.47,6.72c.08.41.18.81.29,1.2a14.5,14.5,0,0,0,2.16,4.56,17.51,17.51,0,0,0,4.53,4.38,21,21,0,0,0,5.87,2.78L236.62,134s-.08-.58-.19-1.29a15.18,15.18,0,0,1,.48-6.63c2.08-6.83,5.81-18.94,8.83-28.82.86-2.82,1.67-5.46,2.36-7.74Zm-23.51,38-8.49-2.5a8.77,8.77,0,0,1-4.34-3.22,18.3,18.3,0,0,1-1.59-2.77,14.56,14.56,0,0,1-.94-2.94,16.07,16.07,0,0,1-.29-2.18c0-.27,0-.54,0-.81a11.88,11.88,0,0,1,.45-2.85,9.73,9.73,0,0,1,1.8-3.3,13.11,13.11,0,0,1,3.13-2.86,12.36,12.36,0,0,1,2.32-1.18,13.22,13.22,0,0,1,1.72-.52,8.78,8.78,0,0,1,4.48.2l8.49,2.54Z"/><circle class="cls-3" cx="194.53" cy="126.57" r="4.76"/><path class="cls-3" d="M278.83,74.73a15,15,0,0,1-5.5-3.73c-4.88-5.21-13.51-14.5-20.54-22L247.26,43c-.22.15-.45.3-.68.43a12.23,12.23,0,0,1-2.69,1,9.77,9.77,0,0,1-3.76.09,13.36,13.36,0,0,1-4-1.27,12.34,12.34,0,0,1-2.17-1.43l-3.64,3.44c.09.16.18.32.28.48l.45.08a6.61,6.61,0,0,1,3.69,2l4.69,5,10.15,10.72-.15.13A8.29,8.29,0,0,1,245,65.4a19.64,19.64,0,0,1-5.17-.23,30.68,30.68,0,0,1-5.14-1.45,41.78,41.78,0,0,1-4.26-2,42,42,0,0,0-6.26-2.7,11.76,11.76,0,0,0-6.83-.23,6.22,6.22,0,0,0-1.29.57c-.45.27-.9.53-1.36.85s-.85.64-1.24,1-.77.67-1.08,1l-1.28,1.21-.74.69a6.34,6.34,0,0,0-.63.65l-1.07,1L207.39,67a4.9,4.9,0,0,1,1.84-.22c1.67,0,4.57.51,9.06,2.58,5.62,2.6,9,4.08,10.06,4.45a19.39,19.39,0,0,0,11-.29A21.63,21.63,0,0,0,237.61,76c-.09.16-.18.32-.28.48a18.16,18.16,0,0,0-.89,1.83,14.47,14.47,0,0,0-1.25,5.06,13.56,13.56,0,0,0,.49,4.27c.07.26.16.53.24.79A13.91,13.91,0,0,0,239,93.19,14.3,14.3,0,0,0,244.56,97c.4.13.79.25,1.18.35a14.53,14.53,0,0,0,5,.41A17.48,17.48,0,0,0,256.83,96a20.84,20.84,0,0,0,5.34-3.69l17.88-17.08ZM261.3,88.92a8.74,8.74,0,0,1-5,2.14,18.88,18.88,0,0,1-3.19,0,15.58,15.58,0,0,1-3-.65,15.8,15.8,0,0,1-2-.85l-.72-.38a12.15,12.15,0,0,1-2.24-1.81,9.81,9.81,0,0,1-2-3.21,13.37,13.37,0,0,1-.92-4.14,12.4,12.4,0,0,1,.15-2.59,12,12,0,0,1,.41-1.75,8.54,8.54,0,0,1,2.42-3.79l6.43-6.08,16,17Z"/><circle class="cls-3" cx="252.53" cy="107.93" r="4.76"/><path class="cls-3" d="M256.66,32.21l-5.85-24-1,.81a15,15,0,0,1-6,2.9c-7,1.62-19.3,4.45-29.36,6.77l-7.89,1.82q0,.41,0,.81a11.88,11.88,0,0,1-.45,2.85,9.73,9.73,0,0,1-1.8,3.3,13.15,13.15,0,0,1-3.13,2.87,12.54,12.54,0,0,1-2.31,1.17L200,36.36h.56l.29-.36a6.64,6.64,0,0,1,3.56-2.2l6.63-1.59,14.36-3.42,0,.18a8.33,8.33,0,0,1-.67,4.63A18.85,18.85,0,0,1,222,38a29.84,29.84,0,0,1-3.82,3.72,42.87,42.87,0,0,1-3.82,2.72,41.53,41.53,0,0,0-5.48,4.07,11.84,11.84,0,0,0-3.61,5.81,6,6,0,0,0-.15,1.4c0,.52,0,1,.06,1.59s.13,1.06.21,1.56.19,1,.29,1.42l.41,1.72.23,1a6.25,6.25,0,0,0,.25.86l.36,1.47h0l.44,1.73a4.7,4.7,0,0,1,.69-1.65c.84-1.42,2.7-3.71,6.8-6.61,5.07-3.57,8-5.72,8.88-6.49A19.29,19.29,0,0,0,229,42.62a20.43,20.43,0,0,0,1.27,2.71c.09.16.18.32.28.48a18.42,18.42,0,0,0,1.13,1.69,14.82,14.82,0,0,0,3.76,3.62,13.75,13.75,0,0,0,3.94,1.7l.81.19a13.87,13.87,0,0,0,5.65-.26,14.29,14.29,0,0,0,6.06-3c.31-.27.6-.55.89-.84a14.8,14.8,0,0,0,2.87-4.16,17.61,17.61,0,0,0,1.53-6.11A21.17,21.17,0,0,0,256.66,32.21Zm-4,4.44a19.11,19.11,0,0,1-1.59,2.76A15.66,15.66,0,0,1,249,41.69,14,14,0,0,1,247.26,43c-.22.15-.45.3-.68.43a12.23,12.23,0,0,1-2.69,1,9.77,9.77,0,0,1-3.76.09,13.36,13.36,0,0,1-4-1.27,12.34,12.34,0,0,1-2.17-1.43,12.57,12.57,0,0,1-1.31-1.23,8.6,8.6,0,0,1-2.07-4l-2.05-8.62,22.74-5.39,2.08,8.61A8.73,8.73,0,0,1,252.68,36.65Z"/><circle class="cls-3" cx="265.39" cy="48.38" r="4.76"/><path class="cls-3" d="M214.72,19.86c-.08-.41-.18-.81-.28-1.19a14.89,14.89,0,0,0-2.16-4.57,17.71,17.71,0,0,0-4.54-4.38,21.41,21.41,0,0,0-5.86-2.78L178.15,0s.08.57.19,1.29a15.16,15.16,0,0,1-.48,6.63c-2.07,6.83-5.8,19-8.83,28.82-.86,2.82-1.67,5.46-2.36,7.74.25.12.48.25.72.38a11.9,11.9,0,0,1,2.24,1.81,9.81,9.81,0,0,1,2,3.21,13.09,13.09,0,0,1,.92,4.14,12.49,12.49,0,0,1-.15,2.6l4.8,1.43.28-.48-.16-.44a6.64,6.64,0,0,1-.14-4.18l2-6.54,4.21-14.14.19.06a8.32,8.32,0,0,1,3.67,2.89,19.25,19.25,0,0,1,2.38,4.6A30.84,30.84,0,0,1,190.85,45a42.37,42.37,0,0,1,.44,4.67,42.12,42.12,0,0,0,.79,6.77,11.69,11.69,0,0,0,3.22,6,5.68,5.68,0,0,0,1.14.83c.45.26.91.52,1.41.75s1,.42,1.45.6,1,.33,1.38.46l1.69.5,1,.29a6.65,6.65,0,0,0,.88.22l1.39.4,1.78.51a4.74,4.74,0,0,1-1.09-1.43c-.81-1.45-1.86-4.21-2.32-9.19-.56-6.18-.95-9.8-1.18-10.94a19.28,19.28,0,0,0-5.74-9.35,21.91,21.91,0,0,0,3,.25h.56a19.78,19.78,0,0,0,2-.14,14.67,14.67,0,0,0,5-1.44,13.74,13.74,0,0,0,3.44-2.57,8.08,8.08,0,0,0,.57-.6,13.9,13.9,0,0,0,2.61-5A14.35,14.35,0,0,0,214.72,19.86ZM198.89,31.49a13.86,13.86,0,0,1-1.73.52,8.57,8.57,0,0,1-4.48-.2l-8.48-2.54,6.7-22.39,8.49,2.51a8.67,8.67,0,0,1,4.34,3.22,17.85,17.85,0,0,1,1.59,2.76,14.77,14.77,0,0,1,.94,2.94,15,15,0,0,1,.29,2.18q0,.41,0,.81a11.88,11.88,0,0,1-.45,2.85,9.73,9.73,0,0,1-1.8,3.3,13.15,13.15,0,0,1-3.13,2.87A12.54,12.54,0,0,1,198.89,31.49Z"/><circle class="cls-3" cx="220.24" cy="7.47" r="4.76"/></g></g></svg>