<svg id="Layer_1" data-name="Layer 1" xmlns="http://www.w3.org/2000/svg" viewBox="0 0 512 512"><defs><style>.cls-1{fill:#ffcd40;}.cls-2{fill:#ffa943;}.cls-3{fill:#fff066;}</style></defs><path class="cls-1" d="M445.22,256c0,104.48-84.69,189.18-189.18,189.18h0C151.53,445.16,66.86,360.47,66.86,256S151.53,66.84,256,66.82h0C360.53,66.82,445.22,151.52,445.22,256Z"/><path class="cls-2" d="M445.22,256c0,104.48-84.69,189.18-189.18,189.18h0V66.82h0C360.53,66.82,445.22,151.52,445.22,256Z"/><path class="cls-3" d="M398.1,113.9A201,201,0,1,0,113.9,398.1,201,201,0,1,0,398.1,113.9ZM381.45,381.45a177.42,177.42,0,1,1,52-125.45A176.29,176.29,0,0,1,381.45,381.45Z"/><path class="cls-3" d="M385.23,266.12A48,48,0,0,0,364,241.64c-11.42-6.62-33.8-13.49-69.27.25C323,218.4,328,196.09,328,183.09c0-11.59-3.73-22.48-10.5-30.67a36.27,36.27,0,0,0-28.31-13.58,45.81,45.81,0,0,0-32.93,14l-.3-.29a45.7,45.7,0,0,0-32.62-13.71,36.24,36.24,0,0,0-28.31,13.58c-6.78,8.2-10.5,19.08-10.5,30.67,0,13.07,5.13,35.55,33.75,59.19-36-14.26-58.72-7.32-70.24-.64a47.91,47.91,0,0,0-21.22,24.48,36.58,36.58,0,0,0,2.44,31.36,45.93,45.93,0,0,0,28.56,21.63,46.23,46.23,0,0,0,4.36,35.63,35.84,35.84,0,0,0,22.28,17,41.46,41.46,0,0,0,10.76,1.39,49.42,49.42,0,0,0,24.58-6.81c13-7.56,33.44-27.34,36.16-77.58,0-.27,0-.55.05-.83,2.52,50.85,23.11,70.82,36.2,78.41a49.42,49.42,0,0,0,24.58,6.81,41.57,41.57,0,0,0,10.76-1.39,35.8,35.8,0,0,0,22.27-17,46.19,46.19,0,0,0,4.37-35.63,45.91,45.91,0,0,0,28.55-21.63,36.55,36.55,0,0,0,2.45-31.36Z"/><path class="cls-1" d="M256.05,287.94c0,.28,0,.56-.05.83V152.55l.3.29a45.81,45.81,0,0,1,32.93-14,36.27,36.27,0,0,1,28.31,13.58c6.77,8.19,10.5,19.08,10.5,30.67,0,13-5.08,35.31-33.3,58.8,35.47-13.74,57.85-6.87,69.27-.25a48,48,0,0,1,21.22,24.48,36.55,36.55,0,0,1-2.45,31.36,45.89,45.89,0,0,1-28.55,21.63,46.19,46.19,0,0,1-4.37,35.63,35.8,35.8,0,0,1-22.27,17,41.57,41.57,0,0,1-10.76,1.39,49.42,49.42,0,0,1-24.58-6.81c-13.09-7.59-33.68-27.56-36.2-78.41Z"/><path class="cls-1" d="M457,256A201,201,0,0,1,256,457V433.41a177.41,177.41,0,1,0,0-354.82V55A201,201,0,0,1,457,256Z"/></svg>