<svg id="Layer_1" data-name="Layer 1" xmlns="http://www.w3.org/2000/svg" viewBox="0 0 512 512"><defs><style>.cls-1{fill:#6f1d48;}.cls-2{fill:#e2eef7;}.cls-3{fill:#aabece;}.cls-4{fill:#eb8cb3;}.cls-5{fill:#b6cedd;}</style></defs><path class="cls-1" d="M207.32,174.87h90.87v38.94H207.32Z"/><path class="cls-2" d="M337.13,110H168.38L207.32,71h90.87Z"/><path class="cls-3" d="M298.19,174.87H207.32L168.38,110H337.13Z"/><path class="cls-4" d="M142.42,168.38h13v13h-13Z"/><path class="cls-4" d="M142.42,194.34h13v13h-13Z"/><path class="cls-4" d="M129.43,181.36h13v13h-13Z"/><path class="cls-4" d="M155.4,181.36h13v13h-13Z"/><path class="cls-4" d="M97,116.45h13v13H97Z"/><path class="cls-4" d="M97,142.42h13v13H97Z"/><path class="cls-4" d="M84,129.43H97v13H84Z"/><path class="cls-4" d="M110,129.43h13v13H110Z"/><path class="cls-4" d="M369.58,64.53h13v13h-13Z"/><path class="cls-4" d="M369.58,90.49h13v13h-13Z"/><path class="cls-4" d="M356.6,77.51h13v13h-13Z"/><path class="cls-4" d="M382.57,77.51h13v13h-13Z"/><path class="cls-4" d="M122.94,64.53h13v13h-13Z"/><path class="cls-4" d="M122.94,90.49h13v13h-13Z"/><path class="cls-4" d="M110,77.51h13v13H110Z"/><path class="cls-4" d="M135.92,77.51h13v13h-13Z"/><path class="cls-4" d="M402,116.45h13v13H402Z"/><path class="cls-4" d="M402,142.42h13v13H402Z"/><path class="cls-4" d="M389.06,129.43h13v13h-13Z"/><path class="cls-4" d="M415,129.43h13v13H415Z"/><path class="cls-4" d="M350.11,168.38h13v13h-13Z"/><path class="cls-4" d="M350.11,194.34h13v13h-13Z"/><path class="cls-4" d="M337.13,181.36h13v13h-13Z"/><path class="cls-4" d="M363.09,181.36h13v13h-13Z"/><path class="cls-5" d="M285.21,110H220.3L239.77,71h26Z"/><path class="cls-2" d="M265.74,174.87h-26L220.3,110h64.91Z"/><path class="cls-3" d="M252.75,200.83A123.32,123.32,0,1,0,376.08,324.15,123.32,123.32,0,0,0,252.75,200.83Zm0,214.19a90.87,90.87,0,1,1,90.87-90.87A90.86,90.86,0,0,1,252.75,415Z"/></svg>