<svg id="Layer_1" data-name="Layer 1" xmlns="http://www.w3.org/2000/svg" viewBox="0 0 512 512"><defs><style>.cls-1{fill:#2d9bb5;}.cls-2{fill:#ffc987;}.cls-3{fill:#fed9a8;}.cls-4{fill:#ffa100;}.cls-5{fill:#ffb401;}.cls-6{fill:#ffe28f;}.cls-7{fill:#ffc431;}.cls-8{fill:#2fa8cc;}.cls-9{fill:#bbedf2;}</style></defs><path class="cls-1" d="M416.3,215.93l40.08-40.08,16,16-9.61,67.25Z"/><path class="cls-1" d="M215.92,416.31l-40.07,40.07,16,16,70.74-10.1Z"/><path class="cls-2" d="M346,184.75l6.3,31.5a37.59,37.59,0,0,1-34,44.83L267.37,265Z"/><path class="cls-3" d="M400.27,134.4a22.58,22.58,0,0,1-6.64,16l-338,338H23.56V264L257.37,30.21a22.67,22.67,0,0,1,32.08,32l0,0,16-16a22.67,22.67,0,0,1,32.08,32l0,0,8-8a22.67,22.67,0,0,1,32.08,32l0,0-16,16a22.68,22.68,0,0,1,38.7,16Z"/><path class="cls-4" d="M87.65,199.9l56.1-56.1L272,272l-56.1,56.1Z"/><path class="cls-5" d="M191.83,272l24-24,16,16-24,24.05Z"/><rect class="cls-6" x="136.14" y="192.28" width="79.33" height="79.33" rx="16.03" transform="translate(-112.52 192.25) rotate(-45)"/><path class="cls-7" d="M175.85,289.43a24,24,0,0,1-17-7L125.41,249a24.07,24.07,0,0,1,0-34l33.43-33.43a24.07,24.07,0,0,1,34,0L226.29,215a24.09,24.09,0,0,1,0,34L192.85,282.4A24,24,0,0,1,175.85,289.43Zm0-98.92a8,8,0,0,0-5.67,2.34l-33.44,33.44a8,8,0,0,0,0,11.33l33.44,33.44a8,8,0,0,0,11.33,0L215,237.62a8,8,0,0,0,0-11.33l-33.44-33.44a8,8,0,0,0-5.66-2.34Z"/><path class="cls-8" d="M424.32,207.91l52.79,52.79a38.71,38.71,0,0,1,0,54.73l-53.51,53.5a16,16,0,0,1-17,3.68l-37.95-14.23a8,8,0,0,0-10.32,10.32l14.23,37.94a16,16,0,0,1-3.67,17l-53.5,53.5a38.71,38.71,0,0,1-54.73,0l-52.79-52.79Z"/><path class="cls-9" d="M424.32,264h0a8,8,0,0,1,8,8v48.1a8,8,0,0,1-8,8h0a8,8,0,0,1-8-8V272A8,8,0,0,1,424.32,264Z"/><path class="cls-9" d="M392.26,288.06h0a8,8,0,0,1,8,8v8a8,8,0,0,1-8,8h0a8,8,0,0,1-8-8v-8A8,8,0,0,1,392.26,288.06Z"/><path class="cls-9" d="M312.11,376.23h0a8,8,0,0,1,8,8v48.09a8,8,0,0,1-8,8h0a8,8,0,0,1-8-8V384.25A8,8,0,0,1,312.11,376.23Z"/><path class="cls-9" d="M280.05,400.28h0a8,8,0,0,1,8,8v8a8,8,0,0,1-8,8h0a8,8,0,0,1-8-8v-8A8,8,0,0,1,280.05,400.28Z"/><path class="cls-2" d="M320.08,84.39l12.71-12.71a8,8,0,0,1,11.33,0h0a8,8,0,0,1,0,11.34l-12.71,12.7a8,8,0,0,1-11.33,0h0A8,8,0,0,1,320.08,84.39Z"/><path class="cls-2" d="M272,68.36,284.7,55.65a8,8,0,0,1,11.34,0h0A8,8,0,0,1,296,67L283.33,79.69a8,8,0,0,1-11.34,0h0A8,8,0,0,1,272,68.36Z"/><path class="cls-2" d="M344.12,124.46l12.7-12.7a8,8,0,0,1,11.34,0h0a8,8,0,0,1,0,11.33L355.45,135.8a8,8,0,0,1-11.33,0h0A8,8,0,0,1,344.12,124.46Z"/></svg>