<svg id="Layer_1" data-name="Layer 1" xmlns="http://www.w3.org/2000/svg" viewBox="0 0 512 512"><defs><style>.cls-1{fill:#436b1c;}.cls-2{fill:#88c057;}.cls-3{fill:#eeaf4b;}.cls-4{fill:#ed3f32;}.cls-5{fill:#a46f3e;}.cls-6{fill:#dae7ef;}.cls-7{fill:#fff;}.cls-8{fill:#fbd490;}.cls-9{fill:#e0b877;}</style></defs><path class="cls-1" d="M118.94,192.55a8.46,8.46,0,0,1-7.21-4c-5.2-8.42-14.9-18.16-26-17.81-4.74-.25-8.58-3.54-8.72-8.2a8.48,8.48,0,0,1,8.2-8.73c17.84-.53,33.05,13,41,25.86a8.46,8.46,0,0,1-7.2,12.91Z"/><path class="cls-2" d="M292.18,79.84a31.71,31.71,0,0,0-31.62-29.52h-.14a19.46,19.46,0,0,0-.68-7.89A20.65,20.65,0,0,0,242.66,27.8a20.37,20.37,0,0,0-16.82,5.75,22.57,22.57,0,0,0-37.78,16.76s0,.08,0,.12a29.44,29.44,0,0,0-27.2,29.34,30,30,0,0,0,.83,6.88,33.92,33.92,0,0,0-28,50.91,24.82,24.82,0,0,0-1.35,37.24c20.41-16.68,41.86,39.11,67.12,83.66,8.39,14.79,99-1,106.23,8.22,8.23-7.39,13.54-136.22,13.77-147.53A40.8,40.8,0,0,0,292.18,79.84Z"/><path class="cls-3" d="M303.76,248.58l6-3.61a35.23,35.23,0,0,1,36.29,0l6,3.61a35.27,35.27,0,0,0,36.29,0l17-7.58c2.51-7,4.25-12.06,4.94-14.3C426.32,175.52,436.57,121.63,438,67.87c.56-21.62-17.31-55.33-47-40-29.19,15-50.09,72.77-64.79,100.17A597,597,0,0,0,277,252.49,35.2,35.2,0,0,0,303.76,248.58Z"/><path class="cls-4" d="M83.72,239.89l11.38,6.83a41.32,41.32,0,0,0,42.49,0l2.93-1.76a35.21,35.21,0,0,1,36.28,0l6,3.61a35.2,35.2,0,0,0,21.42,4.81c5.42-17.5,3.6-39.37-4.8-54.17-28.23-49.81-51.72-39.66-74.32-18A36.94,36.94,0,0,1,109.73,190C85,197.09,66.66,208.68,77.06,240.23A6,6,0,0,1,83.72,239.89Z"/><path class="cls-5" d="M325.26,230.15a8.6,8.6,0,0,1-2.72-.44A8.47,8.47,0,0,1,317.25,219a31.91,31.91,0,0,1,40.35-19.9,14.91,14.91,0,0,0,18.9-9.31,8.46,8.46,0,1,1,16,5.44,31.88,31.88,0,0,1-40.36,19.91,14.93,14.93,0,0,0-18.89,9.31A8.48,8.48,0,0,1,325.26,230.15Z"/><path class="cls-5" d="M345.27,171.18a8.44,8.44,0,0,1-8-11.19,31.8,31.8,0,0,1,40.35-19.9,14.88,14.88,0,0,0,18.89-9.32,8.46,8.46,0,1,1,16,5.44,31.89,31.89,0,0,1-40.36,19.92,14.86,14.86,0,0,0-18.89,9.31A8.46,8.46,0,0,1,345.27,171.18Z"/><path class="cls-5" d="M365.3,112.21a8.72,8.72,0,0,1-2.73-.45A8.48,8.48,0,0,1,357.28,101a28,28,0,0,1,35.43-17.47,11,11,0,0,0,14-6.87,8.47,8.47,0,1,1,16,5.45,27.92,27.92,0,0,1-35.43,17.46,11,11,0,0,0-13.95,6.88A8.47,8.47,0,0,1,365.3,112.21Z"/><path class="cls-6" d="M221.81,143.3c-8,10.64-20.62,23.24-15.76,45.48l13.07,59.8h0l6-3.61a35.21,35.21,0,0,1,36.28,0l6,3.61A34.37,34.37,0,0,0,277,252.5a609.87,609.87,0,0,1,34.29-94.62c-6.55-16.39-20.54-21.87-30.69-27.48l-.17-.1c-6.43-3.68-6.83-12.47-2-18.08a9.58,9.58,0,0,0,2.12-8.29l-1-4.67A9.61,9.61,0,0,0,268.16,92l-51.43,11.23a9.59,9.59,0,0,0-7.31,11.39l1,4.67a9.49,9.49,0,0,0,5.55,6.7c6.26,2.7,10.07,9.69,6.87,15.7A12.89,12.89,0,0,1,221.81,143.3Z"/><path class="cls-7" d="M275.77,116.25,217.55,129a12,12,0,0,1-14.25-9.13l-.83-3.82a12,12,0,0,1,9.13-14.25l58.22-12.72a12,12,0,0,1,14.25,9.13l.84,3.83A12,12,0,0,1,275.77,116.25Z"/><path class="cls-8" d="M420.26,238.41,405.49,450.26A39.78,39.78,0,0,1,365.76,488H128.17a39.77,39.77,0,0,1-39.72-37.74L74,245.36a6,6,0,0,1,9.12-5.47l11.38,6.83a41.32,41.32,0,0,0,42.49,0L140,245a35.23,35.23,0,0,1,36.29,0l6,3.62a35.27,35.27,0,0,0,36.29,0l6-3.62a35.23,35.23,0,0,1,36.29,0l6,3.62a35.27,35.27,0,0,0,36.29,0l6-3.62a35.23,35.23,0,0,1,36.29,0l6,3.62a35.27,35.27,0,0,0,36.29,0l28.67-12.74A2.67,2.67,0,0,1,420.26,238.41Z"/><path class="cls-9" d="M175.59,379.49H116.34a8.46,8.46,0,0,1,0-16.92h59.25a8.46,8.46,0,1,1,0,16.92Z"/><path class="cls-9" d="M192.52,413.35H116.34a8.47,8.47,0,0,1,0-16.93h76.18a8.47,8.47,0,1,1,0,16.93Z"/><path class="cls-9" d="M209.45,447.21H116.34a8.47,8.47,0,0,1,0-16.93h93.11a8.47,8.47,0,0,1,0,16.93Z"/><path class="cls-9" d="M260.23,447.21H243.31a8.47,8.47,0,1,1,0-16.93h16.92a8.47,8.47,0,1,1,0,16.93Z"/></svg>