<svg id="Layer_1" data-name="Layer 1" xmlns="http://www.w3.org/2000/svg" viewBox="0 0 512 512"><defs><style>.cls-1{fill:#f6cd80;}.cls-2{fill:#d83968;}.cls-3{fill:#ca3561;}</style></defs><path class="cls-1" d="M333.48,179.43c-85.44,0-155,69.52-155,155s69.52,155,155,155,155-69.51,155-155S418.93,179.43,333.48,179.43Zm0,255.23A100.27,100.27,0,1,1,433.75,334.39,100.38,100.38,0,0,1,333.48,434.66Z"/><path class="cls-1" d="M178.52,179.43c-85.45,0-155,69.52-155,155s69.51,155,155,155,155-69.51,155-155S264,179.43,178.52,179.43Zm0,255.23A100.27,100.27,0,1,1,278.79,334.39,100.38,100.38,0,0,1,178.52,434.66Z"/><path class="cls-1" d="M333.48,234.12A100.38,100.38,0,0,0,233.21,334.39H178.52c0-85.44,69.52-155,155-155Z"/><path class="cls-2" d="M293.78,23.74A47.83,47.83,0,0,0,256,42.17a47.94,47.94,0,0,0-85.72,29.52c0,60.24,85.72,93.78,85.72,93.78s85.72-33.54,85.72-93.78A47.94,47.94,0,0,0,293.78,23.74Z"/><path class="cls-3" d="M293.78,23.74a47.7,47.7,0,0,0-29.34,10.05,47.4,47.4,0,0,1,10.11,7.31c.21.18.4.38.61.57l.51.51a34.67,34.67,0,0,1,2.83,3.1,48.37,48.37,0,0,1,6.6,10.42c18.92,40.55-11.25,87.74-28,109.33,9.85-4.1,84.64-37.07,84.64-93.34A47.94,47.94,0,0,0,293.78,23.74Z"/></svg>