<svg id="Layer_1" data-name="Layer 1" xmlns="http://www.w3.org/2000/svg" viewBox="0 0 512 512"><defs><style>.cls-1{fill:#ddebfd;}.cls-2{fill:#bed9fd;}.cls-3{fill:#fed9a8;}.cls-4{fill:#ffc987;}.cls-5{fill:#9ec8fc;}.cls-6{fill:#ffc250;}.cls-7{fill:#d83968;}.cls-8{fill:#4d4a5b;}.cls-9{fill:#fe99a0;}</style></defs><path class="cls-1" d="M477.8,472.39a20.42,20.42,0,0,1-25.18,15.37,790.93,790.93,0,0,0-95.3-19,749.77,749.77,0,0,0-202.64,0,791.32,791.32,0,0,0-95.3,19A20.42,20.42,0,0,1,34.2,472.39c-5.18-23.86-7-51-5.38-69.29.46-5.26,4.25-9.27,8.71-9.12A46.86,46.86,0,0,1,69.2,408.41a4.75,4.75,0,0,0,6.39.68c15.75-11.1,44.66-26.85,76.56-29.38,4.07-38.91,14.92-76.77,32.43-110.08H327.42c17.51,33.31,28.36,71.17,32.43,110.08,31.9,2.53,60.8,18.28,76.56,29.38a4.75,4.75,0,0,0,6.39-.68A46.86,46.86,0,0,1,474.47,394c4.46-.15,8.25,3.86,8.71,9.12C484.8,421.41,483,448.52,477.8,472.39Z"/><path class="cls-2" d="M481,446.31a20.7,20.7,0,0,1-25.53,15.59,802.2,802.2,0,0,0-96.66-19.28,760.6,760.6,0,0,0-205.54,0A802.59,802.59,0,0,0,56.57,461.9,20.71,20.71,0,0,1,31,446.31c-.78-3.57-1.47-7.21-2.1-10.89a272.39,272.39,0,0,0,5.26,37,20.42,20.42,0,0,0,25.18,15.37,791.71,791.71,0,0,1,95.3-19,749.77,749.77,0,0,1,202.64,0,790.93,790.93,0,0,1,95.3,19,20.42,20.42,0,0,0,25.18-15.37,272.39,272.39,0,0,0,5.26-37c-.63,3.68-1.32,7.32-2.1,10.89Z"/><path class="cls-2" d="M381,383.27a128,128,0,0,0-21.1-3.56c-4.08-38.91-14.93-76.77-32.44-110.08H302a28.64,28.64,0,0,0,6.36,14.81c13,15.76,19.71,42.29,18,71-2,32.43-14.06,63.14-34.07,86.49a28.71,28.71,0,0,0-6.87,20.54q30.11,1.19,60.21,4.8a204.58,204.58,0,0,0,35.35-84Z"/><path class="cls-2" d="M210,269.63H184.58c-17.51,33.31-28.36,71.17-32.43,110.08A128,128,0,0,0,131,383.27a204.58,204.58,0,0,0,35.35,84q30.11-3.61,60.22-4.8a28.76,28.76,0,0,0-6.88-20.54c-20-23.34-32.11-54.06-34.07-86.49-1.74-28.7,5-55.23,18-71A28.64,28.64,0,0,0,210,269.63Z"/><path class="cls-1" d="M132.77,445.21a207.45,207.45,0,0,1-3-104.63c9.68-42.5,31.89-78.21,61-98a28.82,28.82,0,0,1,32.4,47.66c-16.89,11.48-30.78,35.07-37.16,63.1a150.26,150.26,0,0,0,.62,70.12c2,7.74-51.29,30.09-53.77,21.72Z"/><path class="cls-2" d="M129.73,340.58c9.68-42.5,31.89-78.21,61-98A28.8,28.8,0,0,1,219,240.3a29.56,29.56,0,0,0-4.08,2.31c-29.06,19.76-51.27,55.46-60.95,98a209.15,209.15,0,0,0-1.45,86.32c2.9,14.8-17.27,26.68-19.75,18.31A207.45,207.45,0,0,1,129.73,340.58Z"/><path class="cls-1" d="M379.23,445.21a207.45,207.45,0,0,0,3-104.63c-9.67-42.5-31.89-78.21-60.94-98a28.82,28.82,0,0,0-32.4,47.66c16.88,11.48,30.77,35.07,37.15,63.1a150.12,150.12,0,0,1-.62,70.12c-2,7.74,51.29,30.09,53.77,21.72Z"/><path class="cls-3" d="M180,484.07A28.81,28.81,0,0,0,194.38,446a135.4,135.4,0,0,1-7.84-22.46c-26.7-5.1-44.29,6.08-53.76,21.72a191.39,191.39,0,0,0,9.08,24.47A28.8,28.8,0,0,0,180,484.07Z"/><path class="cls-4" d="M132.78,445.21a46.93,46.93,0,0,1,19.74-18.31,194.88,194.88,0,0,0,13.59,42.78,28.65,28.65,0,0,0,14.13,14.26l-.25.13a28.81,28.81,0,0,1-38.13-14.39A195,195,0,0,1,132.78,445.21Z"/><path class="cls-3" d="M332,484.07A28.81,28.81,0,0,1,317.63,446a136.28,136.28,0,0,0,7.83-22.46c26.7-5.1,44.3,6.08,53.76,21.72a191.39,191.39,0,0,1-9.08,24.47A28.8,28.8,0,0,1,332,484.07Z"/><path class="cls-2" d="M382.27,340.58c-9.67-42.5-31.89-78.21-60.94-98A28.82,28.82,0,0,0,293,240.3a29,29,0,0,1,4.08,2.31c29.06,19.76,51.27,55.46,60.95,98a209.15,209.15,0,0,1,1.45,86.32c-2.9,14.8,17.27,26.68,19.75,18.31A207.45,207.45,0,0,0,382.27,340.58Z"/><path class="cls-4" d="M379.22,445.21a46.93,46.93,0,0,0-19.74-18.31,194.85,194.85,0,0,1-13.58,42.78,28.7,28.7,0,0,1-14.14,14.26l.26.13a28.8,28.8,0,0,0,38.12-14.39,193.42,193.42,0,0,0,9.08-24.47Z"/><path class="cls-5" d="M303,269c-14.61-1.06-79.37-1.06-94,0-15.42,1.13-27.83,12.94-28.86,27.47-1.22,17.24,13.29,31.59,31.37,31.59a32.89,32.89,0,0,0,7.94-1,5.55,5.55,0,0,1,6.3,2.72c5.35,10.65,16.88,18,30.24,18s24.89-7.37,30.24-18a5.55,5.55,0,0,1,6.3-2.72,32.89,32.89,0,0,0,7.94,1c18.08,0,32.59-14.35,31.37-31.59C330.83,281.93,318.41,270.12,303,269Z"/><path class="cls-3" d="M381.08,180a27,27,0,0,0-14.53,4.22C354.76,129.28,309.74,87.28,256,87.28s-98.75,42-110.55,96.89A27.15,27.15,0,1,0,143.79,231c8.48,54.16,55.49,73.75,112.21,73.75S359.73,285.18,368.21,231A27.16,27.16,0,1,0,381.08,180Z"/><path class="cls-6" d="M310.17,75.41l-107.5-2.65a74.81,74.81,0,0,0,12.19,62c11.94,16.14,32.54,25.33,52.73,27.48a2.6,2.6,0,0,0,2.51-3.84,40.8,40.8,0,0,1-4.28-25.3,2.59,2.59,0,0,1,4.21-1.56,41.6,41.6,0,0,0,19.56,8.5,2.59,2.59,0,0,0,2.77-3.64,48.06,48.06,0,0,1,17.81-61Z"/><path class="cls-7" d="M348.41,76.52a8.73,8.73,0,0,1,0-12c8.76-9.59,11.95-20.48,7.17-29-7.65-13.62-32.77-16-56.11-5.27-10.62,4.88-40,22.57-40,40.26s29.41,35.38,40,40.26c23.34,10.71,48.46,8.35,56.11-5.27,4.78-8.51,1.59-19.41-7.17-29Z"/><path class="cls-7" d="M163.59,76.52a8.73,8.73,0,0,0,0-12c-8.76-9.59-12-20.48-7.17-29,7.65-13.62,32.77-16,56.11-5.27,10.62,4.88,40,22.57,40,40.26s-29.41,35.38-40,40.26c-23.34,10.71-48.46,8.35-56.11-5.27-4.78-8.51-1.59-19.41,7.17-29Z"/><path class="cls-7" d="M311.86,83.07a6.81,6.81,0,0,1-6.38-4.42c-2-5.41-8.57-8.31-14.14-8.77-7.21-.6-14.82,1.69-22.19,3.91a6.81,6.81,0,0,1-3.93-13.05c8.19-2.46,17.47-5.25,27.25-4.43,12,1,22.13,7.89,25.76,17.55a6.81,6.81,0,0,1-4,8.77A6.73,6.73,0,0,1,311.86,83.07Z"/><path class="cls-7" d="M200.14,83.07a6.73,6.73,0,0,1-2.39-.44,6.81,6.81,0,0,1-4-8.77c3.63-9.66,13.74-16.55,25.76-17.55,9.78-.82,19.06,2,27.25,4.43a6.81,6.81,0,1,1-3.93,13c-7.36-2.21-15-4.5-22.19-3.9-5.57.46-12.1,3.36-14.14,8.77a6.82,6.82,0,0,1-6.38,4.42Z"/><path class="cls-7" d="M256,34.47a21.16,21.16,0,0,0-21.16,21.16v29.8a21.16,21.16,0,0,0,42.32,0V55.63A21.16,21.16,0,0,0,256,34.47Z"/><path class="cls-8" d="M210.8,200.51A6.81,6.81,0,0,1,204,193.7v-4.11a6.81,6.81,0,1,1,13.62,0v4.11A6.81,6.81,0,0,1,210.8,200.51Z"/><path class="cls-8" d="M301.2,200.51a6.81,6.81,0,0,1-6.81-6.81v-4.11a6.81,6.81,0,0,1,13.62,0v4.11A6.81,6.81,0,0,1,301.2,200.51Z"/><path class="cls-9" d="M256,250.68a40.22,40.22,0,0,1-28.87-12.25,6.81,6.81,0,1,1,9.71-9.54,26.55,26.55,0,0,0,38.32,0,6.81,6.81,0,1,1,9.71,9.54A40.22,40.22,0,0,1,256,250.68Z"/></svg>