<svg id="Layer_1" data-name="Layer 1" xmlns="http://www.w3.org/2000/svg" viewBox="0 0 512 512"><defs><style>.cls-1{fill:#ffd150;}.cls-2{fill:#fff;}.cls-3{fill:#ff808c;}.cls-4{fill:#627ebd;}.cls-5{fill:#3efffa;}.cls-6{fill:#5e1235;}</style></defs><path class="cls-1" d="M32.56,345.45h295v134h-295Z"/><path class="cls-1" d="M238,61.22c-9.93-19.86-30.23-28.44-50.45-28.44-24.1.09-41.25,10.93-49.74,28.62-26.17,30.69-43.5,79.52-43.5,112.82,0,51.72,42,46,93.69,46s93.6,5.68,93.6-46c0-33.39-17.42-82.4-43.6-113Z"/><path class="cls-2" d="M190.24,237.05c34.3,0,44.77-23.47,47.93-38l-1.89-.19a16.27,16.27,0,0,1-14.26-14,107.25,107.25,0,0,1-.91-18.68l-64.35-1.53a82.28,82.28,0,0,1,.09,19.4,17.28,17.28,0,0,1-15.26,15.17C145.38,214.12,156.76,237.05,190.24,237.05Z"/><path class="cls-2" d="M248.37,117.45c-.81-2.53-3.7-4.87-6-4.15l-.37.72L211.46,67.81l-75.28,41.52s-4.51,4.06-6.41,8.12c-1.08,2.44,2.17,10.92,2.89,13.54,1.44,5.41,3.88,7.94,5.14,8.66s3.79,1.63,4.88.73c0,0,.27.18,3.07,7.85,4.69,13,15.88,20.67,26.62,29.33a50.68,50.68,0,0,0,10,6.95c5,2.53,9.12,2.53,14.08,0a55.24,55.24,0,0,0,10-7c10.74-8.75,21.93-16.42,26.63-29.33,1.71-4.88,2.71-5.51,3.43-7.49a7.41,7.41,0,0,0,3.7-1.09c1.17-.72,3.7-3.25,5.14-8.66.82-2.53,3.8-10.92,3-13.45Z"/><path class="cls-3" d="M303.7,345.45V250.22a42.75,42.75,0,0,0-42.78-42.78l-22.75-8.39c-3.16,14.53-13.54,38-47.93,38-33.48,0-44.86-22.84-48.65-37.82l-23.28,8.3a42.77,42.77,0,0,0-42.79,42.78v95.14Z"/><path class="cls-2" d="M251.8,400.87H403.35v78.44H251.8Z"/><path class="cls-4" d="M329.07,434.36l-135.85-44.5,135.85-44.41,133,44.41Z"/><path class="cls-5" d="M462.38,33.15H330.15a17,17,0,0,0-17,17v99.56a17,17,0,0,0,17,17h32.13v38.54l38.54-38.45h61.47a17,17,0,0,0,17-17V50A16.91,16.91,0,0,0,462.38,33.15Z"/><path class="cls-2" d="M66.05,453.58a7.67,7.67,0,0,1-7.68-7.67V388.05a7.68,7.68,0,0,1,15.35,0v57.86A7.66,7.66,0,0,1,66.05,453.58Z"/><path class="cls-6" d="M464.46,382.46S334.21,337.51,333,337.78H311.47V250.22a50.63,50.63,0,0,0-28.89-45.67c4.51-7.94,6.77-18,6.77-30.33,0-27.62-11.19-64.53-28.52-94A165.78,165.78,0,0,0,244.4,56.79a54.27,54.27,0,0,0-10.2-14c-11.46-11.55-28-17.87-46.48-17.87h-.27c-26.18.09-46.13,11.92-56.24,32a170.91,170.91,0,0,0-16.33,23.29c-17.33,29.52-28.53,66.34-28.53,94,0,13.09,2.53,23.56,7.59,31.68a50.59,50.59,0,0,0-26.36,44.41v87.56H32.65A7.66,7.66,0,0,0,25,345.45v134a7.59,7.59,0,0,0,7.67,7.58H403.44a7.76,7.76,0,0,0,7.76-7.76V415.13l43.06-14.35v47.48a7.76,7.76,0,0,0,15.52.09V391.48c0-5.23-1.53-7.76-5.32-9ZM244.4,146.24c1.81-1.08,6.32-4.6,8.67-13.27,1.53-5.59,4.78-12.18,2.79-18a14.52,14.52,0,0,0-5.32-7.13c.54-4,.9-8,1.17-12,13.63,25.72,22.12,55.69,22.12,78.52,0,11.56-2.26,20-6.95,25.82-1.54-.18-3.07-.27-4.61-.36l-25.18-8.58a8.52,8.52,0,0,1-7.49-7.31,105.73,105.73,0,0,1-.81-15.07,48.12,48.12,0,0,0,11.64-17.87c1.53-4.34,3.16-4.25,4-4.7Zm-93,57.95a25,25,0,0,0,13.18-19.32c.09-1.08.18-2.16.27-3.34.9.73,1.72,1.36,2.62,2.08a65.5,65.5,0,0,0,11.37,7.94,24.22,24.22,0,0,0,10.65,2.8,23.85,23.85,0,0,0,10.56-2.8,65.58,65.58,0,0,0,11.38-7.94c.72-.63,1.53-1.17,2.25-1.8.18,1.35.27,2.79.45,4.15a24.1,24.1,0,0,0,14.17,18.77c-4.69,12.46-15.07,24.46-38.09,24.46s-33.75-12.36-38.81-25ZM187.54,40.55h.18c14.35,0,26.89,4.69,35.56,13.36s13.09,20.85,13.09,36.28c0,1.08-.18,3.43-.45,6.23a332.48,332.48,0,0,1-17.51-32,7.61,7.61,0,0,0-1.18-1.81,7.83,7.83,0,0,0-11-.72A215.46,215.46,0,0,1,174.45,84c-13.72,7.86-33.22,17.6-33.22,17.6a79.19,79.19,0,0,1-1.62-11.28c0-31.05,17.87-49.64,47.93-49.73Zm-5.33,57a223.69,223.69,0,0,0,26.45-17.6c2.07,4,4.69,8.94,7.49,14,12.73,22.57,18.86,26.63,23.65,27.71.09,0-2.8,10-3.61,11.19a7.79,7.79,0,0,0-6.86,5.15c-.18.36-2.62,5.23-3.43,7.58-3.34,9.3-11.19,15.53-20.22,22.75-1.35,1.08-9.57,7.58-12.64,9.29-2.8,1.36-4.24,1.36-7,0-3.07-1.71-11.28-8.3-12.63-9.29-9-7.22-16.88-13.45-20.22-22.75-3.25-8.94-3.7-10.11-6.05-11.64a7.49,7.49,0,0,0-4.42-1.36c-.27,0-4.52-9.84-5-11.73.72-.18,30.42-15.26,44.5-23.29Zm-57.86-2c.55,4,1.45,8.66,2.26,12.54a25.8,25.8,0,0,0-3.88,6c-2.8,6.14.81,12.82,2.44,18.77,2.34,8.76,6.86,12.19,8.66,13.27,2.62,1.63,3.52,1.45,4.6,4.61a48.71,48.71,0,0,0,10.84,17.05,77.69,77.69,0,0,1-.18,15.17,9.33,9.33,0,0,1-8.31,8.3c-.54.09-23.83,8.22-23.83,8.22a51.69,51.69,0,0,0-7.49.81c-4.87-5.78-7.31-14.35-7.31-26.27,0-22.65,8.57-52.71,22.2-78.52ZM83.29,250.22a35.11,35.11,0,0,1,35-35c.9,0,18.32-6,18.32-6,8.75,22.75,27.89,35.57,53.61,35.57,26.09,0,44.95-12.82,53.08-35.57,0,0,16.61,6,17.51,6a35.06,35.06,0,0,1,35,35v87.56h-29.7V284.07a7.85,7.85,0,1,0-15.7,0v53.62H128.6V284.07a7.86,7.86,0,0,0-15.71,0v53.62H83.29ZM244.13,471.81H40.23V353H280.69s-89.63,29.34-89.81,29.43c-7,2.34-7,12.54,0,14.89l53.25,17.42Zm151.55-.18H259.57V419.82l67.06,21.94a7.52,7.52,0,0,0,4.87,0l64.09-21.48v51.35ZM329,426.05,218.32,389.86,329,353.66l108.31,36.2Z"/><path class="cls-6" d="M462.38,25.29H330.15A24.84,24.84,0,0,0,305.33,50v99.56a24.77,24.77,0,0,0,24.73,24.73h24.37V205c0,6.86,8.57,10.29,13.36,5.51L404,174.31h58.31A24.77,24.77,0,0,0,487,149.58V50A24.63,24.63,0,0,0,462.38,25.29Zm9.12,124.29a9.09,9.09,0,0,1-9.12,9.12H400.82a7.75,7.75,0,0,0-5.5,2.26l-25.19,25.18V166.55a7.86,7.86,0,0,0-7.85-7.85H330.15a9.09,9.09,0,0,1-9.12-9.12V50a9.09,9.09,0,0,1,9.12-9.11H462.29A9.09,9.09,0,0,1,471.41,50v99.56Z"/><path class="cls-6" d="M346.58,75.21h48.47a7.86,7.86,0,0,0,0-15.71H346.58a7.86,7.86,0,1,0,0,15.71Z"/><path class="cls-6" d="M444.24,92.36H346.58a7.85,7.85,0,1,0,0,15.7h97.66a7.85,7.85,0,0,0,0-15.7Z"/><path class="cls-6" d="M444.24,124.13H346.58a7.85,7.85,0,1,0,0,15.7h97.66a7.85,7.85,0,0,0,0-15.7Z"/></svg>