<svg id="Layer_1" data-name="Layer 1" xmlns="http://www.w3.org/2000/svg" viewBox="0 0 512 512"><defs><style>.cls-1{fill:#548aff;}.cls-2{fill:#4976f2;}.cls-3{fill:#407093;}.cls-4{fill:#d83968;}.cls-5{fill:#ca3561;}.cls-6{fill:#f6cd80;}.cls-7{fill:#db5c6e;}.cls-8{fill:#d8b377;}</style></defs><path class="cls-1" d="M424.37,456c-18.21,45.1-323,57.09-337.32,0S205.11,152.45,205.11,152.45s-27.26-79-31.22-91.86,15.05-32.75,15.05-32.75a25.79,25.79,0,0,1,40.78-.63l19.41,24.25a8.42,8.42,0,0,0,13.16,0l19.4-24.25a25.78,25.78,0,0,1,36.25-4,25.35,25.35,0,0,1,4.53,4.67s19.29,19.57,16.16,29-32.33,95.65-32.33,95.65S442.57,410.94,424.37,456Z"/><path class="cls-2" d="M175.26,361.49,180,340.42l16.46,3.66-4.68,21.07Z"/><path class="cls-2" d="M180.55,415.7l-9,40.33H154.3l9.78-44Z"/><path class="cls-2" d="M299,272.34l16.46-3.66-24-107.8h6.35a8.43,8.43,0,1,0,0-16.86H213.54a8.43,8.43,0,1,0,0,16.86h6.36l-35.2,158.4,16.46,3.66,36-162.06h10.1V304.24h16.87V160.88h10.1Z"/><path class="cls-2" d="M247.27,321.11h16.87V422.3H247.27Z"/><path class="cls-3" d="M48.53,383.87A4.59,4.59,0,0,1,44,380c-2.81-18.32,14.06-31.18,31.91-44.8,7.58-5.78,15.61-11.9,22.6-18.78a173.84,173.84,0,0,1-15.65-9.93c-15.07-10.9-22.39-21.8-22.39-33.33,0-18.22,10.12-25.91,16.16-28.88,11.25-5.53,26-3.68,36.74,4.59,11.32,8.74,16,22.73,12.79,38.39-2.08,10.25-6.84,19-13,26.71,6.31,3.32,12.88,6.59,19.41,9.84,33.2,16.5,64.55,32.1,66.81,55a4.58,4.58,0,1,1-9.12.9C188.49,361.84,158,346.67,128.49,332c-7.23-3.59-14.56-7.24-21.59-11C99.1,329,90,336,81.48,342.47c-16.31,12.44-30.39,23.18-28.41,36.12a4.57,4.57,0,0,1-3.84,5.22,4,4,0,0,1-.7.06ZM90.7,250.29a22.79,22.79,0,0,0-10,2.2c-7.22,3.55-11,10.69-11,20.65,0,13.46,15.45,25.24,35.27,36.35,5.9-7.09,10.42-15,12.27-24.08,3.37-16.57-4.45-25.47-9.41-29.3a28.38,28.38,0,0,0-17.08-5.82Z"/><path class="cls-4" d="M194.82,376.23a1399.51,1399.51,0,0,0-146.28,0,20.5,20.5,0,0,0-19.3,17.87,277.85,277.85,0,0,0,0,70.81,20.51,20.51,0,0,0,19.3,17.87,1399.51,1399.51,0,0,0,146.28,0,20.51,20.51,0,0,0,19.3-17.87,277.85,277.85,0,0,0,0-70.81A20.5,20.5,0,0,0,194.82,376.23Z"/><path class="cls-5" d="M57.43,483.22c-3-.14-5.92-.28-8.89-.44a20.52,20.52,0,0,1-19.3-17.88,277.77,277.77,0,0,1,0-70.8,20.51,20.51,0,0,1,19.3-17.87c3-.16,5.93-.3,8.89-.44a21.49,21.49,0,0,0-11.79,16.55,291.67,291.67,0,0,0,0,74.33,21.49,21.49,0,0,0,11.79,16.55Z"/><path class="cls-5" d="M214.12,425.38a20.52,20.52,0,0,1-19.3,17.87,1399.51,1399.51,0,0,1-146.28,0,20.51,20.51,0,0,1-19.3-17.87q-1-7.77-1.56-15.55a277.22,277.22,0,0,0-.05,38.56,21.65,21.65,0,0,0,17,9.7,1474,1474,0,0,0,154.19,0,21.66,21.66,0,0,0,17-9.71,278.92,278.92,0,0,0-.06-38.57c-.38,5.19-.89,10.38-1.56,15.57Z"/><path class="cls-6" d="M146.37,459.3a402.47,402.47,0,0,1-44.21,0,12.89,12.89,0,0,1-12.11-11.89,165.24,165.24,0,0,1,0-26.51A12.91,12.91,0,0,1,102.16,409a407.49,407.49,0,0,1,44.21,0,12.91,12.91,0,0,1,12.11,11.9,165.24,165.24,0,0,1,0,26.51,12.89,12.89,0,0,1-12.11,11.89Z"/><path class="cls-7" d="M124.26,443.62c-6,0-12.13-.14-18.18-.43a147.38,147.38,0,0,1,0-18.08c6-.28,12.15-.42,18.18-.42s12.14.14,18.19.42a151.47,151.47,0,0,1,0,18.08C136.4,443.48,130.29,443.62,124.26,443.62Z"/><path class="cls-8" d="M124.26,448.2c-6.08,0-12.27-.14-18.39-.43a4.59,4.59,0,0,1-4.37-4.3,156.65,156.65,0,0,1,0-18.64,4.6,4.6,0,0,1,4.37-4.3c6.12-.28,12.31-.43,18.39-.43s12.28.15,18.4.43a4.59,4.59,0,0,1,4.36,4.3,152.53,152.53,0,0,1,0,18.64,4.58,4.58,0,0,1-4.36,4.3C136.54,448.06,130.35,448.2,124.26,448.2Zm-13.79-9.41c9.21.33,18.38.33,27.59,0,.1-3.09.1-6.19,0-9.27-9.22-.33-18.38-.33-27.59,0C110.37,432.6,110.37,435.7,110.47,438.79Z"/></svg>