<svg id="Layer_1" data-name="Layer 1" xmlns="http://www.w3.org/2000/svg" viewBox="0 0 512 512"><defs><style>.cls-1{fill:#9e5969;}.cls-2{fill:#894255;}.cls-3{fill:#fed9a8;}.cls-4{fill:#ff6c73;}.cls-5{fill:#f7ceba;}.cls-6{fill:#ffb05a;}.cls-7{fill:#f7f0e8;}.cls-8{fill:#ffb273;}.cls-9{fill:#ffcba4;}.cls-10{fill:#ffe2d2;}</style></defs><path class="cls-1" d="M335.57,327.4c-1.88-31.22,9-53.71,11.32-110.16,1.67-40.07-7.12-95.48-19.28-117.61C304.13,56.9,261.67,24.78,215,24.78c0,0-25.57,4.75-29.34,7C175,38.12,152.5,47.36,132,79.23,95.19,136.27,84.19,430,84.19,430h286.1C365.11,371.43,338.14,370,335.57,327.4Z"/><path class="cls-1" d="M335.57,327.4c-1.88-31.22,9-53.71,11.32-110.16,1.67-40.07-7.12-95.48-19.28-117.61C304.13,56.9,261.67,24.78,215,24.78c0,0-25.57,4.75-29.34,7C175,38.12,152.5,47.36,132,79.23,95.19,136.27,84.19,430,84.19,430h286.1C365.11,371.43,338.14,370,335.57,327.4Z"/><ellipse class="cls-2" cx="152.96" cy="304.57" rx="52.43" ry="107.71"/><path class="cls-3" d="M355.83,481.19H74c-17.53,0-9.4-63,3.74-75.15,16.52-15.28,58.3-22.89,79.68-33.71a42.13,42.13,0,0,0,23.26-32.7c1.17-6.67,1.25-16.78,1.62-21.68h65.24c.37,4.9.45,15,1.62,21.68a42.13,42.13,0,0,0,23.26,32.7c21.38,10.82,63.16,18.43,79.68,33.71,13.14,12.18,21.27,75.15,3.74,75.15Z"/><path class="cls-4" d="M249.15,339.63a103.47,103.47,0,0,1-29.26,11.16,22,22,0,0,1-10,0,103.47,103.47,0,0,1-29.26-11.16c1.17-6.67,1.25-16.78,1.62-21.68h65.24c.37,4.9.45,15,1.62,21.68Z"/><path class="cls-5" d="M379.62,488.73H50.2a7.57,7.57,0,0,1-7.55-7.59,7.75,7.75,0,0,1,.19-1.66C50.93,444,60.1,422.38,77.73,406c37.25,34.84,113,36.68,137.18,36.42,24.21.26,99.92-1.58,137.18-36.42,17.63,16.34,26.8,38,34.89,73.44a7.57,7.57,0,0,1-5.7,9.06,7.75,7.75,0,0,1-1.66.19Z"/><path class="cls-6" d="M484.19,79.25V79a23.89,23.89,0,0,0-14.87-22,6.38,6.38,0,0,1-3.93-6.75,23.88,23.88,0,0,0-38.32-21.95,6.38,6.38,0,0,1-7.81,0,23.88,23.88,0,0,0-38.19,22.18,6.37,6.37,0,0,1-3.88,6.79,23.87,23.87,0,0,0,.09,44.14,6.38,6.38,0,0,1,3.92,6.77,23.88,23.88,0,0,0,38.27,22,6.38,6.38,0,0,1,7.81,0,23.87,23.87,0,0,0,38.22-22.1,6.41,6.41,0,0,1,3.93-6.79,23.88,23.88,0,0,0,14.76-22.07Z"/><path class="cls-3" d="M309.68,195.32,301,256.93c15.5,2.53,33.25-15.32,35.82-30.81,3.15-19-7.7-32.41-27.11-30.8Z"/><path class="cls-4" d="M303,231.84a5.66,5.66,0,0,1-5.12-8.05A23.1,23.1,0,0,1,318.44,212a5.65,5.65,0,1,1-1,11.26h-.06a11.85,11.85,0,0,0-9.27,5.31,5.65,5.65,0,0,1-5.13,3.27Z"/><path class="cls-3" d="M267,104.48a19.65,19.65,0,0,1-8.16-5.73c-11.38-14-26.26-18.1-41.43-18.59-68.63-2.11-93,43.08-97.31,115.16,0,46.64,12.23,83.95,33.37,104.43,13.05,12.64,29.65,26.31,56.4,32.21a23.1,23.1,0,0,0,10,0c26.75-5.9,43.36-19.57,56.4-32.21,21.14-20.48,33.42-57.79,33.37-104.43C272.56,160.36,297.68,116.53,267,104.48Z"/><rect class="cls-1" x="255.08" y="194.66" width="18.33" height="23.19" rx="9.16"/><circle class="cls-7" cx="309.68" cy="260.24" r="8.24"/><path class="cls-7" d="M439.08,90.65H430.6a14.33,14.33,0,0,1-14.31-14.31V58.71a5.66,5.66,0,0,1,11.31,0V76.34a3,3,0,0,0,3,3h8.48a5.66,5.66,0,1,1,0,11.31Z"/><path class="cls-8" d="M61.24,70.81l3.15,5.75a5.92,5.92,0,0,0,2.37,2.36l5.75,3.15a6,6,0,0,1,0,10.45l-5.75,3.15A5.92,5.92,0,0,0,64.39,98l-3.15,5.75a5.94,5.94,0,0,1-10.44,0L47.65,98a5.92,5.92,0,0,0-2.37-2.36l-5.74-3.15a6,6,0,0,1,0-10.45l5.74-3.14a6,6,0,0,0,2.37-2.37l3.15-5.75a5.95,5.95,0,0,1,10.44,0Z"/><path class="cls-9" d="M392,216.71l2.49,4.52a4.65,4.65,0,0,0,1.89,1.89l4.55,2.49a4.71,4.71,0,0,1,0,8.27l-4.55,2.5a4.63,4.63,0,0,0-1.89,1.88L392,242.81a4.7,4.7,0,0,1-8.27,0l-2.5-4.55a4.66,4.66,0,0,0-1.88-1.88l-4.55-2.5a4.7,4.7,0,0,1-1.88-6.39,4.6,4.6,0,0,1,1.88-1.88l4.56-2.49a4.63,4.63,0,0,0,1.88-1.89l2.5-4.55a4.71,4.71,0,0,1,6.4-1.84A4.65,4.65,0,0,1,392,216.71Z"/><path class="cls-7" d="M219,448.12c-1.46,0-2.83,0-4.14,0-29.73.33-103.26-2.66-141-37.93a5.66,5.66,0,0,1,7.53-8.45l.19.19c35.69,33.38,111,35.11,133.24,34.88,22.33.21,97.68-1.51,133.36-34.88a5.66,5.66,0,0,1,7.93,8.08l-.2.18C319.87,443.91,251,448.12,219,448.12Z"/><path class="cls-7" d="M278.16,474.81a5.64,5.64,0,0,1-5.58-4.77,260.49,260.49,0,0,0-6.45-29.72,5.66,5.66,0,1,1,10.68-3.74l.09.28a267.75,267.75,0,0,1,6.85,31.42,5.65,5.65,0,0,1-4.7,6.46,5.34,5.34,0,0,1-.89.07Z"/><path class="cls-7" d="M151.66,474.81a5.26,5.26,0,0,1-.89-.07,5.65,5.65,0,0,1-4.7-6.46,267.75,267.75,0,0,1,6.85-31.42A5.66,5.66,0,0,1,163.78,440c0,.09-.06.19-.1.28A262.62,262.62,0,0,0,157.24,470,5.64,5.64,0,0,1,151.66,474.81Z"/><path class="cls-7" d="M215,478a5.65,5.65,0,0,1-5.66-5.65V442.45a5.66,5.66,0,1,1,11.31,0V472.3A5.65,5.65,0,0,1,215,478Z"/><path class="cls-4" d="M215,246.84a20.09,20.09,0,0,0,13.08-5.44,5.28,5.28,0,0,0-6.23-8.53,6.64,6.64,0,0,0-.64.55,8.11,8.11,0,0,1-11.44,1,8.7,8.7,0,0,1-1-1,5.28,5.28,0,0,0-6.86,8A20,20,0,0,0,215,246.84Z"/><path class="cls-4" d="M244.77,267.66A4.05,4.05,0,0,0,240,264.4H240a34.5,34.5,0,0,1-11.69.2c-1-.14-1.91-.34-3.05-.56a14,14,0,0,0-5.11-.26,12.61,12.61,0,0,0-5,2,.54.54,0,0,1-.43,0,12.55,12.55,0,0,0-5-2,14.19,14.19,0,0,0-5.11.26c-1.13.22-2.08.42-3.05.56a34.51,34.51,0,0,1-11.69-.2h-.08a4.06,4.06,0,0,0-2.37,7.71,34.89,34.89,0,0,0,15,3c1.27,0,2.56-.13,3.65-.21s1.13,0,2.71.94a11.39,11.39,0,0,0,5.74,1.66h.84a11.36,11.36,0,0,0,5.75-1.66c1.56-.91,1.69-1,2.7-.94s2.38.19,3.66.21a35,35,0,0,0,15-3,4.07,4.07,0,0,0,2.36-4.45Z"/><path class="cls-4" d="M218.05,282.62a6.44,6.44,0,0,1-6,0,5.66,5.66,0,1,0-5.39,9.95l.49.23a17.64,17.64,0,0,0,15.83,0,5.65,5.65,0,0,0-4.9-10.18Z"/><path class="cls-10" d="M294.06,383.81c28.55,48.62,34.48,104.92,34.48,104.92h38.61S361,427.92,332,387.47a6.42,6.42,0,0,0-3.3-2.64l-27.57-8.44c-4.53-1.39-9.46,3.34-7.06,7.42Z"/><path class="cls-2" d="M246.46,194.21a22.28,22.28,0,0,1,10.66-8.08,26.26,26.26,0,0,1,13.54-.75,41.46,41.46,0,0,1,6.08,1.67c1,.38,1.92.76,2.83,1.17a23,23,0,0,1,2.41,1.13,12.78,12.78,0,0,0,3.23,1.13,6,6,0,0,0,3.48-.3l.58-.21a2.48,2.48,0,0,1,3.19,1.46,2.45,2.45,0,0,1,.06,1.56,8.67,8.67,0,0,1-5.8,5.59,14.54,14.54,0,0,1-7.85,0c-1.29-.34-2-.58-2.86-.85s-1.65-.49-2.47-.7a47.25,47.25,0,0,0-4.81-1.13,22,22,0,0,0-8.75-.11,23.21,23.21,0,0,0-8.2,3.77l-.13.09a3.8,3.8,0,0,1-5.19-5.38Z"/><path class="cls-2" d="M242,163.09a44.51,44.51,0,0,1,14.63-3.86,58.47,58.47,0,0,1,14.6.21,118.85,118.85,0,0,1,14.21,2.89,57.49,57.49,0,0,1,13.73,5.33,2.53,2.53,0,0,1-2,4.61l-.17-.06a66,66,0,0,0-12.94-2.29,113.19,113.19,0,0,0-13.41-.31l-13.19.38a109.53,109.53,0,0,0-12.64,1.27l-.22,0a4.35,4.35,0,0,1-2.61-8.21Z"/><rect class="cls-1" x="156.45" y="194.66" width="18.33" height="23.19" rx="9.16"/><path class="cls-2" d="M183.39,194.21a22.28,22.28,0,0,0-10.66-8.08,26.27,26.27,0,0,0-13.54-.75,41.46,41.46,0,0,0-6.08,1.67c-1,.38-1.92.76-2.83,1.17a24,24,0,0,0-2.41,1.13,12.78,12.78,0,0,1-3.23,1.13,6,6,0,0,1-3.48-.3l-.58-.21a2.48,2.48,0,0,0-3.25,3,8.65,8.65,0,0,0,5.8,5.59,14.54,14.54,0,0,0,7.85,0c1.29-.34,2-.58,2.85-.85s1.66-.49,2.48-.7a47.25,47.25,0,0,1,4.81-1.13,22.08,22.08,0,0,1,8.76-.11,23.24,23.24,0,0,1,8.19,3.77l.13.09a3.8,3.8,0,0,0,5.19-5.38Z"/><path class="cls-2" d="M187.87,163.09a44.63,44.63,0,0,0-14.64-3.86,58.47,58.47,0,0,0-14.6.21,118.85,118.85,0,0,0-14.21,2.89,57.49,57.49,0,0,0-13.73,5.33,2.53,2.53,0,0,0,2,4.61l.17-.06a66,66,0,0,1,12.94-2.29,113.07,113.07,0,0,1,13.4-.31l13.2.38A109.14,109.14,0,0,1,185,171.26l.23,0a4.35,4.35,0,0,0,2.61-8.21Z"/><path class="cls-1" d="M215,24.78c-46.72,0-92.86,33-111.36,78.16C85.79,146.6,80.91,180.32,83.4,213.69c3.78,50.43-5.93,87-23,113.71a241.81,241.81,0,0,0-28.84,71.11c-6,25.71-5.47,45.57,6.76,61.53,19.09,24.94,40.22,28.28,69.27,28.28,21.77,0,38.51-18.69,31.14-39.33-21.83-61.11,7.74-64.08,4.23-112.45-2-27.65-20.65-66.19-3.67-101.21,17.48-36.07,1.62-74.9,31-125.65C183.93,86.13,199,79.57,217.45,80.16Z"/></svg>