<svg id="Layer_1" data-name="Layer 1" xmlns="http://www.w3.org/2000/svg" viewBox="0 0 512 512"><defs><style>.cls-1{fill:#b6c4cf;}.cls-2{fill:#9facba;}.cls-3{fill:#6b7680;}.cls-4{fill:#525e66;}.cls-5{fill:#fed9a8;}.cls-6{fill:#ffc987;}.cls-7{fill:#72563c;}.cls-8{fill:#fe99a0;}</style></defs><path class="cls-1" d="M446.13,452.55V486.2a8.4,8.4,0,0,1-8.4,8.4H74.27a8.4,8.4,0,0,1-8.4-8.4V452.45a41.15,41.15,0,0,1,3.88-17.4,39.73,39.73,0,0,1,2.53-4.62,41,41,0,0,1,21.63-16.91l15.73-5.25,89.68-29.92a22.11,22.11,0,0,0,15.12-21V307.16h83.12v50.65a22.13,22.13,0,0,0,15.17,21l60.52,20h0l29,9.59,15.7,5.19a41,41,0,0,1,28.14,38.23c0,.25,0,.49,0,.74Z"/><path class="cls-2" d="M446.12,451.81A41,41,0,0,0,418,413.58l-15.7-5.19-29-9.58h0l-60.52-20a22.13,22.13,0,0,1-15.17-21V307.16h-21v50.65a22.13,22.13,0,0,0,15.17,21l81.84,27L397,413.58a41,41,0,0,1,28.14,38.24c0,.24,0,.48,0,.73V494.6h12.62a8.4,8.4,0,0,0,8.4-8.4V452.55C446.13,452.3,446.13,452.06,446.12,451.81Z"/><path class="cls-2" d="M373.52,403.27c0,9.19-3.34,18-9.46,26.16a73.82,73.82,0,0,1-12.62,12.88C340.52,451.2,326,458.91,308.83,465c-25.6,9-57,14.35-91,14.35-66.4,0-123.11-20.28-145.5-48.87a41,41,0,0,1,21.63-16.91l15.73-5.25,89.68-29.92a22.11,22.11,0,0,0,15.12-21V307.16h83.12v50.65a22.13,22.13,0,0,0,15.17,21l60.52,20h0a36.83,36.83,0,0,1,.27,4.46Z"/><path class="cls-3" d="M411.74,382.23c0,9.19-3.34,18-9.46,26.16-10.79,14.37-30.22,26.72-55.23,35.53-25.6,9-57.06,14.34-91.05,14.34-67.27,0-124.59-20.82-146.37-50-6.06-8.12-9.37-16.88-9.37-26,0-12,5.7-23.37,15.87-33.47a44.55,44.55,0,0,0,12.79-31.82V144.59A127.14,127.14,0,0,1,256.45,17.4c70.23.24,126.62,58.28,126.62,128.57v171a44.61,44.61,0,0,0,12.8,31.82c10.16,10.1,15.87,21.46,15.87,33.47Z"/><path class="cls-3" d="M402.28,408.39c-10.15,13.52-27.95,25.25-50.84,33.92-1.44.55-2.9,1.08-4.39,1.61-25.6,9-57.06,14.34-91.05,14.34-67.27,0-124.59-20.82-146.36-50l89.68-29.92a22.11,22.11,0,0,0,15.12-21V307.16h83.12v50.65a22.13,22.13,0,0,0,15.17,21l60.52,20h0Z"/><path class="cls-4" d="M245.94,45.13c70.23.25,126.62,58.28,126.62,128.57v171a44.6,44.6,0,0,0,12.8,31.83c10.1,10,15.79,21.31,15.86,33.24,6.79-8.53,10.52-17.8,10.52-27.51,0-12-5.71-23.37-15.87-33.46a44.6,44.6,0,0,1-12.8-31.84V146c0-70.29-56.39-128.32-126.62-128.57a127.15,127.15,0,0,0-123.73,96.26A127,127,0,0,1,245.94,45.13Z"/><path class="cls-5" d="M350.59,180.3v51.95a94.59,94.59,0,1,1-189.18,0V180.3a94.59,94.59,0,1,1,189.18,0Z"/><path class="cls-6" d="M255,136.86a130.37,130.37,0,0,1,92.56,38.38c1,1,2,2,3,3.07a94.58,94.58,0,0,0-189.06-2.07A130.42,130.42,0,0,1,255,136.86Z"/><path class="cls-7" d="M199.63,196.71a7.18,7.18,0,0,1-5.5-11.77,29,29,0,0,1,20.46-10.22c13.29-.59,21.5,8.4,23,10.21a7.17,7.17,0,1,1-11,9.21c-.46-.55-4.7-5.37-11.38-5.09a14.64,14.64,0,0,0-10.11,5.08,7.15,7.15,0,0,1-5.5,2.58Z"/><path class="cls-7" d="M282.75,196.71a7.18,7.18,0,0,1-5.5-11.77,29.07,29.07,0,0,1,20.47-10.22c13.26-.59,21.5,8.4,23,10.21a7.17,7.17,0,1,1-11,9.21c-.47-.55-4.72-5.37-11.39-5.09a14.58,14.58,0,0,0-10.1,5.08,7.17,7.17,0,0,1-5.51,2.58Z"/><path class="cls-8" d="M256,281.82c-19.55,0-31.18-13.41-33.32-16.1a7.17,7.17,0,1,1,11.22-8.92c.87,1.09,8.86,10.68,22.1,10.68s21.23-9.59,22.1-10.68a7.17,7.17,0,1,1,11.22,8.92c-2.14,2.69-13.77,16.1-33.32,16.1Z"/><path class="cls-1" d="M348.23,159.22a130.8,130.8,0,0,0-184.73,1.22,94.6,94.6,0,0,1,184.73-1.22Z"/><path class="cls-4" d="M231.22,404.53a88.11,88.11,0,0,1-24.51-3.45,90,90,0,0,1-36.35-20.79,7.17,7.17,0,0,1,9.81-10.46A75.54,75.54,0,0,0,210.7,387.3a76.64,76.64,0,0,0,44.51-.89,7.17,7.17,0,1,1,4.44,13.64,92.68,92.68,0,0,1-28.43,4.48Z"/></svg>