<svg id="Layer_1" data-name="Layer 1" xmlns="http://www.w3.org/2000/svg" viewBox="0 0 512 512"><defs><style>.cls-1{fill:#ea9d2d;}.cls-2{fill:#fff;}.cls-3{fill:#fbb540;}.cls-4{fill:#d32b39;}.cls-5{fill:#ff969d;}.cls-6{fill:#acf59d;}.cls-7{fill:#502652;}.cls-8{fill:#ffec80;}</style></defs><path class="cls-1" d="M254.41,276.94c0,1.94,0,3.93-.13,6l-9,65.3L200.87,479.14H93.05S35.74,355.39,35.74,282.75c0-53.27,34.94-68.22,53.57-72.38a13.55,13.55,0,0,0,10.8-14c-1.35-19.4-14-82.81-26.72-108.51H212.31c-6.58,22.63-22,74.24-23.18,88.72-.58,7.14-3.9,24.48,3.9,26.1,1.32.28,42.39,10.46,54.13,38.12A90.63,90.63,0,0,1,254.41,276.94Z"/><path class="cls-2" d="M249.78,280.11a20.91,20.91,0,0,0-24.7,3.63,20.93,20.93,0,0,1-29.58,0l-2.36-2.37a20.93,20.93,0,0,0-29.58,0L160,284.92a20.9,20.9,0,0,1-29.57,0l-3.55-3.55a20.93,20.93,0,0,0-29.58,0l-3.16,3.16a20.92,20.92,0,0,1-29.57,0l-3.16-3.16a20.89,20.89,0,0,0-21.58-5L41,258.32a20.69,20.69,0,0,1,21.35,4.94l3.12,3.12a20.68,20.68,0,0,0,29.25,0l3.12-3.12a20.69,20.69,0,0,1,29.26,0l3.51,3.51a20.68,20.68,0,0,0,29.25,0l3.51-3.51a20.68,20.68,0,0,1,29.25,0L195,265.6a20.69,20.69,0,0,0,29.26,0,20.69,20.69,0,0,1,25.37-3.05Z"/><path class="cls-3" d="M254.41,288.26c0,1.83,0,3.71-.11,5.62l-7.59,61.65L209.08,479.14H117.8S69.28,362.32,69.28,293.75c0-50.3,29.59-64.41,45.36-68.33a12.63,12.63,0,0,0,9.14-13.21c-1.15-18.31-11.22-82-22-106.3H204.39c-5.56,21.37-15.64,71.91-16.62,85.59a13.71,13.71,0,0,0,10.67,14.3c1.12.27,2.32.57,3.55.9a7,7,0,0,0,1,.32,31,31,0,0,1,3.19,1c12.28,4.67,32.12,20,42.05,46.12A94.17,94.17,0,0,1,254.41,288.26Z"/><path class="cls-2" d="M71.73,270.68a20.67,20.67,0,0,0,23-4.3l3.12-3.12a20.71,20.71,0,0,1,29.26,0l3.51,3.51a20.68,20.68,0,0,0,29.25,0l3.51-3.51a20.7,20.7,0,0,1,29.25,0L195,265.6a20.69,20.69,0,0,0,29.26,0,20.69,20.69,0,0,1,25.37-3.05l.2,17.56a20.91,20.91,0,0,0-24.7,3.63,20.91,20.91,0,0,1-29.58,0l-2.36-2.37a20.93,20.93,0,0,0-29.58,0L160,284.92a20.9,20.9,0,0,1-29.57,0l-3.55-3.55a20.93,20.93,0,0,0-29.58,0l-3.16,3.16a20.91,20.91,0,0,1-24.87,3.54Z"/><path class="cls-2" d="M211.38,107H78.86a9.57,9.57,0,1,1,0-19.14H211.38a9.57,9.57,0,0,1,0,19.14Z"/><path class="cls-4" d="M145.22,276.92a24.6,24.6,0,0,1-17.52-7.25l-3.51-3.51a16.6,16.6,0,0,0-23.46,0l-3.12,3.12a24.81,24.81,0,0,1-35,0l-3.12-3.12a16.5,16.5,0,0,0-17.13-4,4.09,4.09,0,0,1-2.66-7.74,24.6,24.6,0,0,1,25.57,5.92l3.12,3.12a16.63,16.63,0,0,0,23.47,0l3.12-3.12a24.81,24.81,0,0,1,35,0l3.51,3.51a16.62,16.62,0,0,0,23.47,0l3.51-3.51a24.81,24.81,0,0,1,35,0l2.34,2.34a16.59,16.59,0,0,0,23.46,0,24.7,24.7,0,0,1,30.4-3.66,4.09,4.09,0,1,1-4.26,7,16.53,16.53,0,0,0-20.35,2.46,24.81,24.81,0,0,1-35,0l-2.34-2.34a16.6,16.6,0,0,0-23.46,0l-3.51,3.51a24.64,24.64,0,0,1-17.53,7.25Z"/><path class="cls-4" d="M145.22,295.13a25,25,0,0,1-17.68-7.31L124,284.27a16.84,16.84,0,0,0-23.79,0l-3.15,3.15a25,25,0,0,1-35.37,0l-3.15-3.15a16.73,16.73,0,0,0-17.37-4,4.1,4.1,0,0,1-2.65-7.75,24.87,24.87,0,0,1,25.81,6l3.15,3.15a16.84,16.84,0,0,0,23.79,0l3.15-3.15a25,25,0,0,1,35.37,0l3.55,3.55a16.86,16.86,0,0,0,23.79,0l3.54-3.55a25,25,0,0,1,35.37,0l2.37,2.36a16.8,16.8,0,0,0,23.78,0,25.17,25.17,0,0,1,29.54-4.34,4.09,4.09,0,1,1-3.88,7.21A16.94,16.94,0,0,0,228,286.63a25,25,0,0,1-35.36,0l-2.37-2.36a16.84,16.84,0,0,0-23.79,0l-3.55,3.55a24.92,24.92,0,0,1-17.68,7.31Z"/><path class="cls-4" d="M211.38,111.11H78.86a13.67,13.67,0,0,1,0-27.33H211.38a13.67,13.67,0,0,1,0,27.33Z"/><path class="cls-5" d="M212.31,107H106a8.67,8.67,0,0,1-8.64-8.64V96.51A8.67,8.67,0,0,1,106,87.87H212.31A8.67,8.67,0,0,1,221,96.51v1.86A8.67,8.67,0,0,1,212.31,107Z"/><path class="cls-2" d="M439.79,479.14H206.2a30.65,30.65,0,0,1-30.56-30.56V340.45a30.65,30.65,0,0,1,30.56-30.56H439.79a30.65,30.65,0,0,1,30.56,30.56V448.58A30.65,30.65,0,0,1,439.79,479.14Z"/><path class="cls-6" d="M443.8,479.14H231.3a26.63,26.63,0,0,1-26.55-26.55V364a26.63,26.63,0,0,1,26.55-26.56H443.8A26.63,26.63,0,0,1,470.35,364v88.62A26.63,26.63,0,0,1,443.8,479.14Z"/><path class="cls-7" d="M439.79,483.24H206.2a34.7,34.7,0,0,1-34.66-34.66V340.45A34.69,34.69,0,0,1,206.2,305.8H439.79a34.68,34.68,0,0,1,34.65,34.65V448.58A34.69,34.69,0,0,1,439.79,483.24ZM206.2,314a26.51,26.51,0,0,0-26.47,26.47V448.58a26.5,26.5,0,0,0,26.47,26.47H439.79a26.5,26.5,0,0,0,26.47-26.47V340.45A26.51,26.51,0,0,0,439.79,314Z"/><path class="cls-7" d="M470.35,379.31H358.69a4.1,4.1,0,1,1,0-8.19H470.35a4.1,4.1,0,0,1,0,8.19Z"/><path class="cls-7" d="M287.41,379.31H175.64a4.1,4.1,0,1,1,0-8.19H287.41a4.1,4.1,0,1,1,0,8.19Z"/><path class="cls-2" d="M343.63,406.49H302.37a15.11,15.11,0,0,1-15.07-15.06V377A15.11,15.11,0,0,1,302.37,362h41.26A15.11,15.11,0,0,1,358.69,377v14.41A15.11,15.11,0,0,1,343.63,406.49Z"/><path class="cls-7" d="M343.63,410.58H302.37a19.17,19.17,0,0,1-19.16-19.15V377a19.18,19.18,0,0,1,19.16-19.16h41.26A19.17,19.17,0,0,1,362.78,377v14.41A19.17,19.17,0,0,1,343.63,410.58Zm-41.26-44.53a11,11,0,0,0-11,11v14.41a11,11,0,0,0,11,11h41.26a11,11,0,0,0,11-11V377a11,11,0,0,0-11-11Z"/><path class="cls-2" d="M473,263.3H294.58V32.86H473Z"/><path class="cls-5" d="M473,263.3H294.58V32.86H473Z"/><path class="cls-2" d="M451.06,238.69H316.53V57.46H451.06Z"/><path class="cls-2" d="M428.22,57.46l-32.77,79.61,55.61,66.31V57.46Z"/><path class="cls-2" d="M367,237.58l38.63-34.77,24.93-22.13,22.87,29v29Z"/><path class="cls-6" d="M451.05,78.47V238.71H337.53V123.58l9.63-20.53,11.55-24.58Z"/><path class="cls-8" d="M419.58,78.47l-24.13,58.6,55.61,66.31V78.47Z"/><path class="cls-6" d="M381.44,78.47l-18.07,40.3-25.84,57.72V123.58l9.63-20.53,11.55-24.58Z"/><path class="cls-8" d="M367,237.58l38.63-34.77,24.93-22.13,22.87,29v29Z"/><path class="cls-7" d="M473,267.39H294.58a4.09,4.09,0,0,1-4.09-4.09V32.86a4.1,4.1,0,0,1,4.09-4.1H473a4.1,4.1,0,0,1,4.09,4.1V263.3A4.09,4.09,0,0,1,473,267.39ZM298.68,259.2H468.92V37H298.68Z"/><path class="cls-7" d="M451.06,242.79H316.53a4.1,4.1,0,0,1-4.09-4.1V57.46a4.09,4.09,0,0,1,4.09-4.09H451.06a4.09,4.09,0,0,1,4.09,4.09V238.69A4.1,4.1,0,0,1,451.06,242.79ZM320.62,234.6H447v-173H320.62Z"/><path class="cls-8" d="M358.71,78.47l-11.55,24.58-9.63,20.53V78.47Z"/><path class="cls-7" d="M358.7,82.56a4,4,0,0,1-1.73-.39,4.09,4.09,0,0,1-2-5.44l9.85-21a4.09,4.09,0,1,1,7.41,3.47l-9.85,21a4.09,4.09,0,0,1-3.71,2.36Z"/><path class="cls-7" d="M451.06,209.76a4.09,4.09,0,0,1-3.16-1.49L351.12,90.47a4.09,4.09,0,1,1,6.32-5.2l96.78,117.8a4.09,4.09,0,0,1-.56,5.76,4,4,0,0,1-2.6.93Z"/><path class="cls-7" d="M365.73,242.79a4.1,4.1,0,0,1-2.74-7.14l64.47-58a4.09,4.09,0,0,1,5.48,6.08l-64.47,58A4.09,4.09,0,0,1,365.73,242.79Z"/><path class="cls-7" d="M395.45,141.17a4.09,4.09,0,0,1-3.78-5.66L424.44,55.9A4.09,4.09,0,0,1,432,59l-32.76,79.61a4.1,4.1,0,0,1-3.79,2.54Z"/><path class="cls-7" d="M316.53,172.43a4,4,0,0,1-1.74-.39,4.09,4.09,0,0,1-2-5.44l52-110.88a4.09,4.09,0,0,1,7.41,3.48l-52,110.88A4.1,4.1,0,0,1,316.53,172.43Z"/></svg>