<svg id="Layer_1" data-name="Layer 1" xmlns="http://www.w3.org/2000/svg" viewBox="0 0 512 512"><defs><style>.cls-1{fill:#b57a4e;}.cls-2{fill:#9b5729;}.cls-3{fill:#48cae4;}.cls-4{fill:#00b4d8;}.cls-5{fill:#fed9a8;}.cls-6{fill:#ade8f4;}.cls-7{fill:#ffc987;}.cls-8{fill:#72563c;}.cls-9{fill:#eaa97d;}.cls-10{fill:#d0d8da;}.cls-11{fill:#b8bebf;}.cls-12{fill:#e9f1f2;}.cls-13{fill:#f9dbaf;}.cls-14{fill:#ff7373;}.cls-15{fill:#ef5350;}.cls-16{fill:#f6cd80;}</style></defs><circle class="cls-1" cx="436" cy="188" r="28"/><path class="cls-2" d="M360,24a103.56,103.56,0,0,0-92.62,57.24l-.32.65A104.71,104.71,0,0,0,256,128.72v18.54a104.85,104.85,0,0,0,22.94,65.43L288,224a31.9,31.9,0,0,1,39.2-36.2L376,200a80,80,0,0,0,80-80,96,96,0,0,0-96-96Z"/><path class="cls-1" d="M440,118.21a34.19,34.19,0,0,0-27.26-33.15C377.48,77.24,352,54.65,352,28c0-1.25.16-2.47.27-3.7a103.55,103.55,0,0,0-84.89,56.94l-.32.65A104.71,104.71,0,0,0,256,128.72v18.54a104.85,104.85,0,0,0,22.94,65.43L288,224a31.9,31.9,0,0,1,39.2-36.2L376,200a80,80,0,0,0,76.3-55.92A33.58,33.58,0,0,1,440,118.21Z"/><path class="cls-3" d="M488,304.16,488,304h-.06a48,48,0,0,0-40.05-46.69l-29.15-4.85A32,32,0,0,1,392,220.89V192H328v28.89a32,32,0,0,1-26.74,31.57l-29.15,4.85A48,48,0,0,0,232,304.66V456H424l45-106.46,6.17.57Z"/><path class="cls-4" d="M465.11,328a22,22,0,0,1-15.55-6.4l-3.12-3.12a22,22,0,0,0-36,7.38A41.67,41.67,0,0,1,371.81,352h-29a41.6,41.6,0,0,1-41.53-38.67l-4.3-60.15-24.8,4.13A48,48,0,0,0,232,304.66V456H424l45-106.46,6.17.57L481.34,328Z"/><path class="cls-4" d="M320,336l40-40-58.74-43.54-29.15,4.85Z"/><path class="cls-4" d="M384,344l-24-48,58.74-43.54,29.15,4.85Z"/><path class="cls-5" d="M418.74,252.46A32,32,0,0,1,392,220.89V192H328v28.89a32,32,0,0,1-26.74,31.57L360,296Z"/><path class="cls-6" d="M328,320l32-24-58.74-43.54-29.15,4.85Z"/><path class="cls-6" d="M392,320l-32-24,58.74-43.54,29.15,4.85Z"/><path class="cls-5" d="M360,224a64,64,0,0,1-64-64V112a41,41,0,0,0,39.76-31l.24-1,2.52,2A136.89,136.89,0,0,0,424,112v48A64,64,0,0,1,360,224Z"/><path class="cls-7" d="M338.52,82,336,80l-.24,1A41,41,0,0,1,296,112v15.09c7.83-5.62,37.41-20.82,39.76-30.17L336,96l2.52,2A136.89,136.89,0,0,0,424,128V112A136.89,136.89,0,0,1,338.52,82Z"/><circle class="cls-8" cx="336" cy="136" r="8"/><circle class="cls-8" cx="384" cy="136" r="8"/><path class="cls-8" d="M360,187a32.46,32.46,0,0,1-18-5.48,5.07,5.07,0,0,1,5.63-8.43,22.31,22.31,0,0,0,24.78,0,5.07,5.07,0,0,1,5.63,8.43A32.46,32.46,0,0,1,360,187Z"/><circle class="cls-6" cx="360" cy="336" r="8"/><circle class="cls-3" cx="360" cy="368" r="8"/><path class="cls-9" d="M24,456H488v32H24Z"/><path class="cls-1" d="M152,472a16,16,0,0,1-16-16H24v32H488V472Z"/><path class="cls-5" d="M423.71,345.43,416,384l-62.47-6.25a82.47,82.47,0,0,0-34.24,3.82A35.62,35.62,0,0,0,296,424a127.71,127.71,0,0,1,63.87.5l49.88,13.3a40,40,0,0,0,48.8-27.94l16.65-59.75Z"/><path class="cls-10" d="M344,456H248V424h64A32,32,0,0,1,344,456Z"/><path class="cls-11" d="M296,440a16,16,0,0,1-16-16H248v32h96a31.63,31.63,0,0,0-4.44-16Z"/><path class="cls-12" d="M104,296H232a32,32,0,0,1,32,32V456H104a32,32,0,0,1-32-32V328A32,32,0,0,1,104,296Z"/><path class="cls-10" d="M264,424v32H104a32,32,0,0,1-32-32V328a32,32,0,0,1,32-32h32v8A120,120,0,0,0,256,424Z"/><path class="cls-13" d="M180,396.8A24,24,0,0,1,144,376a23.37,23.37,0,0,1,6-15.76A120.68,120.68,0,0,0,180,396.8Z"/><path class="cls-3" d="M40,424h96v32H40Z"/><path class="cls-14" d="M24,392h80v32H24Z"/><path class="cls-15" d="M56,408a16,16,0,0,1-16-16H24v32h80V408Z"/><path class="cls-4" d="M120,440a16,16,0,0,1-16-16H40v32h96V440Z"/><circle class="cls-16" cx="168" cy="376" r="24"/></svg>