<svg id="Layer_1" data-name="Layer 1" xmlns="http://www.w3.org/2000/svg" viewBox="0 0 512 512"><defs><style>.cls-1{fill:#d83968;}.cls-2{fill:#2fa8cc;}.cls-3{fill:#e0ebfc;}.cls-4{fill:#70d6f9;}.cls-5{fill:#eaa97d;}.cls-6{fill:#ffc250;}.cls-7{fill:#f6cd80;}.cls-8{fill:#fff;}</style></defs><path class="cls-1" d="M476.68,68.2H414.3V50h62.38a9.51,9.51,0,1,0,0-19h-124a23.23,23.23,0,0,0-23.22,23.23V462.81a18.25,18.25,0,0,0,18.25,18.25h23.5a18.25,18.25,0,0,0,18.25-18.25V282.61a9.12,9.12,0,0,1,9.12-9.12h78.14a9.51,9.51,0,1,0,0-19H414.3V236.23h62.38a9.5,9.5,0,1,0,0-19H414.3V199h62.38a9.51,9.51,0,1,0,0-19H414.3V161.72h62.38a9.5,9.5,0,1,0,0-19H414.3V124.47h62.38a9.51,9.51,0,1,0,0-19H414.3V87.21h62.38a9.51,9.51,0,1,0,0-19Z"/><path class="cls-2" d="M251.39,481.06H69.47a18.19,18.19,0,0,1-18.19-18.19V219.09A32.74,32.74,0,0,1,84,186.35H236.84a32.74,32.74,0,0,1,32.74,32.74V462.87a18.19,18.19,0,0,1-18.19,18.19Z"/><path class="cls-3" d="M51.28,269.12h218.3V381.91H51.28Z"/><path class="cls-3" d="M180.71,46.27H37A11.15,11.15,0,0,0,25.81,57.42V86.21a3.71,3.71,0,0,0,3.72,3.72h18a3.72,3.72,0,0,0,3.72-3.72V79a3.64,3.64,0,0,1,3.64-3.64H180.71A14.29,14.29,0,0,0,195,61.09v-.54A14.3,14.3,0,0,0,180.71,46.27Z"/><path class="cls-4" d="M236.84,164.52A21.83,21.83,0,0,0,215,142.69H105.85A21.83,21.83,0,0,0,84,164.52v21.83H236.84Z"/><path class="cls-3" d="M205.91,142.69V129.41a14,14,0,0,0-14-14H129a14,14,0,0,0-14,14v13.28Z"/><path class="cls-5" d="M145.88,75.38H175v40h-29.1Z"/><path class="cls-6" d="M314.86,144.65H218.44l11.93,281.74c.11,2.62,2.72,4.7,5.89,4.7H344.93c3.18,0,5.78-2.08,5.89-4.7l11.94-281.74Z"/><path class="cls-3" d="M260.66,398.83l-9.38-221.46c-.16-3.68,3.4-6.73,7.85-6.73h62.94c4.44,0,8,3.05,7.85,6.73l-9.38,221.46c-.15,3.5-3.62,6.27-7.86,6.27H268.51c-4.23,0-7.71-2.77-7.85-6.27Z"/><path class="cls-7" d="M324.43,481.06H256.77a7.21,7.21,0,0,1-7.21-7.22V431.09h82.08v42.75A7.21,7.21,0,0,1,324.43,481.06Z"/><path class="cls-6" d="M324.43,481.06H256.77a7.21,7.21,0,0,1-7.21-7.22V456.08h82.08v17.76A7.21,7.21,0,0,1,324.43,481.06Z"/><path class="cls-8" d="M307,456.08v-8.76a6.13,6.13,0,0,0-6.13-6.13H280.37a6.14,6.14,0,0,0-6.13,6.13v8.76Z"/><path class="cls-7" d="M362.76,144.65H218.44V118.93A3.53,3.53,0,0,1,222,115.4H359.23a3.52,3.52,0,0,1,3.52,3.53v25.72Z"/></svg>