<svg id="Layer_1" data-name="Layer 1" xmlns="http://www.w3.org/2000/svg" viewBox="0 0 512 512"><defs><style>.cls-1{fill:#f2f2f2;}.cls-2{fill:#e8eaea;}.cls-3{fill:#fed9a8;}.cls-4{fill:#f4c892;}.cls-5{fill:#b57a4e;}.cls-6{fill:#f4cfa6;}.cls-7{fill:#9b5729;}.cls-8{fill:#72563c;}.cls-9{fill:#ff9faf;}.cls-10{fill:#fffcfd;}</style></defs><path class="cls-1" d="M422.65,168.66C361.87,24.23,257.85,32.18,256,32.33c-1.85-.15-105.87-8.1-166.65,136.33C59.76,239,52.39,300,50.63,330.33a26.13,26.13,0,0,0,18.19,26.43L256,416l187.18-59.28a26.14,26.14,0,0,0,18.19-26.43C459.61,300,452.24,239,422.65,168.66Z"/><path class="cls-2" d="M461.36,330.33C459.61,300,452.24,239,422.65,168.66,361.87,24.23,257.85,32.18,256,32.33c-.56,0-10.35-.79-25.42,2.1,35.07,6.74,98.72,33.22,141.23,134.23C401.4,239,408.77,300,410.53,330.33a26.12,26.12,0,0,1-18.19,26.43L230.58,408,256,416l187.18-59.28A26.12,26.12,0,0,0,461.36,330.33Z"/><path class="cls-3" d="M383.06,371.9l-68.81-20.26h0l-10.79-2.16A16.4,16.4,0,0,1,290.3,333.4V317.86H219.75v15.93a16.39,16.39,0,0,1-13.16,16.07l-8.84,1.77h0L128.94,371.9a77.07,77.07,0,0,0-55.31,73.93V496.2H438.37V445.83A77.07,77.07,0,0,0,383.06,371.9Z"/><path class="cls-4" d="M383.06,371.9l-68.81-20.26h0l-10.79-2.16A16.4,16.4,0,0,1,290.3,333.4V317.86H256v5.45a35.57,35.57,0,0,0,25.8,34.2l50.43,14.39a77.06,77.06,0,0,1,55.3,73.93V496.2h50.84V445.83A77.07,77.07,0,0,0,383.06,371.9Z"/><circle class="cls-5" cx="256" cy="60.35" r="44.55"/><path class="cls-6" d="M367.63,244H349.81v-51.7h17.82a16.64,16.64,0,0,1,16.64,16.64v18.43A16.63,16.63,0,0,1,367.63,244Z"/><path class="cls-6" d="M144.37,244h17.82v-51.7H144.37a16.64,16.64,0,0,0-16.64,16.64v18.43A16.63,16.63,0,0,0,144.37,244Z"/><path class="cls-3" d="M256,325.66h0A104.08,104.08,0,0,1,151.91,221.58V192.32A104.08,104.08,0,0,1,256,88.24h0A104.08,104.08,0,0,1,360.09,192.32v29.26A104.08,104.08,0,0,1,256,325.66Z"/><path class="cls-5" d="M378.43,186.27v-1.58A122.43,122.43,0,0,0,256,62.26h0A122.43,122.43,0,0,0,133.57,184.69v1.58a6,6,0,0,0,6,6H155.3A10.57,10.57,0,0,0,165,186l8.76-32.88a16.11,16.11,0,0,1,26-8.15c22.79,19.25,62.78,47.33,102.1,47.33h70.63A6,6,0,0,0,378.43,186.27Z"/><path class="cls-7" d="M256,62.26h0a123,123,0,0,0-25.42,2.65,122.46,122.46,0,0,1,97,119.78v1.58a6,6,0,0,1-6,6h50.83a6,6,0,0,0,6-6v-1.58A122.43,122.43,0,0,0,256,62.26Z"/><path class="cls-8" d="M211.14,204.05a7.26,7.26,0,0,0-7.25,7.25v13.29a7.25,7.25,0,1,0,14.5,0V211.3A7.26,7.26,0,0,0,211.14,204.05Z"/><path class="cls-8" d="M300.86,204.05a7.26,7.26,0,0,0-7.25,7.25v13.29a7.25,7.25,0,1,0,14.5,0V211.3A7.26,7.26,0,0,0,300.86,204.05Z"/><path class="cls-9" d="M285,269.48a7.25,7.25,0,0,0-10.12,1.65c-3.53,4.91-10.92,8.08-18.84,8.08s-15.31-3.17-18.84-8.08a7.25,7.25,0,0,0-11.77,8.47c6.26,8.7,18,14.1,30.61,14.1s24.35-5.4,30.61-14.1A7.25,7.25,0,0,0,285,269.48Z"/><path class="cls-10" d="M381.88,454.62a16,16,0,0,0-3.12-9.52,68.36,68.36,0,0,0-107.51-3,19.77,19.77,0,0,1-30.49,0,68.37,68.37,0,0,0-107.52,3,16,16,0,0,0-3.12,9.52V496.2H381.88V454.62Z"/><path class="cls-1" d="M378.76,445.1a68.41,68.41,0,0,0-80.37-22.8,68.52,68.52,0,0,1,29.53,22.8,16,16,0,0,1,3.12,9.52V496.2h50.84V454.62A16,16,0,0,0,378.76,445.1Z"/></svg>