<svg id="Layer_1" data-name="Layer 1" xmlns="http://www.w3.org/2000/svg" viewBox="0 0 512 512"><defs><style>.cls-1{fill:#f6cd80;}.cls-2{fill:#86d8fc;}.cls-3{fill:#3ab0fa;}.cls-4{fill:#d83968;}.cls-5{fill:#ca3561;}</style></defs><path class="cls-1" d="M188.46,112.62l-25.57,29.81A112.17,112.17,0,1,1,50.73,254.61,112.17,112.17,0,0,1,162.89,142.43l-25.57-29.81a144.29,144.29,0,1,0,51.14,0Z"/><path class="cls-2" d="M162.89,142.43l51.69-60.27H111.2Z"/><path class="cls-3" d="M202.54,48.85H123.25a12,12,0,0,0-12,12V82.17H214.58V60.89A12,12,0,0,0,202.54,48.85Z"/><path class="cls-1" d="M374.68,176.85l-25.57,29.82A112.17,112.17,0,1,1,236.94,318.84,112.16,112.16,0,0,1,349.11,206.67l-25.57-29.82a144.27,144.27,0,1,0,51.14,0Z"/><path class="cls-4" d="M349.11,206.67,400.8,146.4H297.42Z"/><path class="cls-5" d="M388.75,113.08H309.46a12,12,0,0,0-12,12V146.4H400.8V125.13A12.05,12.05,0,0,0,388.75,113.08Z"/></svg>