<svg id="Layer_1" data-name="Layer 1" xmlns="http://www.w3.org/2000/svg" viewBox="0 0 512 512"><defs><style>.cls-1{fill:#ff99af;}.cls-2{fill:#caf1fc;}.cls-3{fill:#ffa4b8;}.cls-4{fill:#a4ebfc;}.cls-5{fill:#ffbfcb;}.cls-6{fill:#e3f7fc;}</style></defs><path class="cls-1" d="M143,141.81a7.94,7.94,0,0,1-7.95-7.94V29.61a7.95,7.95,0,0,1,15.89,0V133.87A7.94,7.94,0,0,1,143,141.81Z"/><path class="cls-1" d="M369,141.81a7.94,7.94,0,0,1-7.94-7.94V29.61a7.95,7.95,0,0,1,15.89,0V133.87A7.94,7.94,0,0,1,369,141.81Z"/><path class="cls-2" d="M393.7,476.39a38.49,38.49,0,0,0-38.89,0l-10.12,5.93a58.57,58.57,0,0,1-59.13,0,58.45,58.45,0,0,0-59.12,0,58.57,58.57,0,0,1-59.13,0l-10.12-5.93a38.49,38.49,0,0,0-38.89,0c-11.64,6.81-25.28-5.07-20.09-17.53a424.3,424.3,0,0,0,28.13-226.61c-22.56-24.64-27-63.89-10.39-96.57a21.1,21.1,0,0,1,16.84-11.33,116.23,116.23,0,0,1,122.36,82.18,21.26,21.26,0,0,1,.85,4.76c.54-8.59,14.19-52.48,61.51-75.87,1.2,0,25.35-14.53,61.7-11.07a21.1,21.1,0,0,1,16.84,11.33c16.64,32.68,12.17,71.93-10.39,96.57a424.38,424.38,0,0,0,28.13,226.61C419,471.32,405.34,483.2,393.7,476.39Z"/><path class="cls-3" d="M396.05,135.68c16.64,32.68,12.17,71.93-10.39,96.57-30.37,33.22-89.23,32.42-124-5.18-6.27-6.77-5.5-14.06-5.62-15.78.54-8.59,14.19-52.48,61.51-75.87,1.2,0,25.35-14.53,61.7-11.07a21.1,21.1,0,0,1,16.84,11.33Z"/><path class="cls-3" d="M250.38,227.07c-33.15,35.81-88,38.18-119.37,9.83C104.38,212.7,98.27,170.4,116,135.68a21.1,21.1,0,0,1,16.84-11.33,116.21,116.21,0,0,1,122.36,82.18,21.26,21.26,0,0,1-4.77,20.54Z"/><path class="cls-4" d="M209.93,373.75a7.94,7.94,0,0,1-6.79-8.95l.65-4.7a7.94,7.94,0,0,1,15.74,2.16l-.65,4.7A8,8,0,0,1,209.93,373.75Z"/><path class="cls-4" d="M198.8,455.51a8,8,0,0,1-6.8-8.95l6-43.87a7.94,7.94,0,0,1,15.74,2.15l-6,43.87A8,8,0,0,1,198.8,455.51Z"/><path class="cls-4" d="M302.43,437.25l-6.69-43.5a7.94,7.94,0,1,1,15.7-2.41l6.69,43.49a7.94,7.94,0,0,1-15.7,2.42Z"/><path class="cls-5" d="M234.89,167.72c5.42,6.81-2,16.64-10.61,12.38-1.2,0-25.35-14.53-61.7-11.07a21.1,21.1,0,0,0-16.84,11.33,92.64,92.64,0,0,0-7,18.25c-4.16,15.7-26.4,15.53-30.3-.23a91,91,0,0,1,7.49-62.7,21.1,21.1,0,0,1,16.84-11.33A116.48,116.48,0,0,1,234.89,167.72Z"/><path class="cls-5" d="M385.89,154.21a115.35,115.35,0,0,0-38.57,11h0c-31.71,15.67-51.17,43.46-58.34,63.21a12.81,12.81,0,0,1-20.5,5.31,95.23,95.23,0,0,1-6.84-6.66,21.25,21.25,0,0,1-4.77-20.54,116.25,116.25,0,0,1,122.36-82.18,21.1,21.1,0,0,1,16.84,11.33A12.76,12.76,0,0,1,385.89,154.21Z"/><path class="cls-6" d="M162.44,428.22c-6.31,20.76-21.56,37.31-41.17,46.6-1,.48-2,1-3,1.57-11.64,6.81-25.28-5.07-20.09-17.53a424.3,424.3,0,0,0,28.13-226.61c13.32,14.57,31.95,22.48,51.49,23.81a423.81,423.81,0,0,1-15.39,172.16Z"/></svg>