<svg id="Layer_1" data-name="Layer 1" xmlns="http://www.w3.org/2000/svg" viewBox="0 0 512 512"><defs><style>.cls-1{fill:#d83968;}.cls-2{fill:#fff;}</style></defs><path class="cls-1" d="M256,38.68c-119.38,0-216.15,96.78-216.15,216.15A215.3,215.3,0,0,0,92.08,395.72a147.2,147.2,0,0,1-51.29,69.71,146.77,146.77,0,0,0,124.88-14.18A215.37,215.37,0,0,0,256,471c119.38,0,216.15-96.77,216.15-216.15S375.38,38.68,256,38.68Z"/><path class="cls-2" d="M256,189.17a58.35,58.35,0,0,0-82.51,82.52L256,354.2l82.51-82.52A58.34,58.34,0,1,0,256,189.17Z"/></svg>