<svg id="Layer_1" data-name="Layer 1" xmlns="http://www.w3.org/2000/svg" viewBox="0 0 512 512"><defs><style>.cls-1{fill:#9b5729;}.cls-2{fill:#fed9a8;}.cls-3{fill:#ffc987;}.cls-4{fill:#b57a4e;}.cls-5{fill:#ffc250;}.cls-6{fill:#d83968;}.cls-7{fill:#ca3561;}</style></defs><path class="cls-1" d="M364,379.61H148c19.79-36.77,15.24-169.9,15.24-169.9L256,208.12l92.72,1.59S344.17,342.84,364,379.61Z"/><rect class="cls-2" x="226.59" y="266.24" width="58.83" height="92.18"/><path class="cls-2" d="M179.74,221.38V164.05A76.26,76.26,0,0,1,256,87.79h0a76.26,76.26,0,0,1,76.26,76.26v57.33A76.26,76.26,0,0,1,256,297.65h0A76.26,76.26,0,0,1,179.74,221.38Z"/><path class="cls-3" d="M256,87.79h0a76.47,76.47,0,0,0-13.79,1.27,76.43,76.43,0,0,1,62.48,75.22v56.89a76.43,76.43,0,0,1-62.48,75.21A76.47,76.47,0,0,0,256,297.65h0a76.37,76.37,0,0,0,76.26-76.48V164.28A76.37,76.37,0,0,0,256,87.79Z"/><path class="cls-2" d="M179.74,225.91h-9.17a18.41,18.41,0,0,1-18.41-18.41V182.44a12.89,12.89,0,0,1,12.89-12.89h14.69v56.36Z"/><path class="cls-2" d="M332.26,225.91h9.17a18.41,18.41,0,0,0,18.41-18.41V182.44A12.89,12.89,0,0,0,347,169.55H332.26v56.36Z"/><path class="cls-4" d="M160,170.49s73.68,6.37,93.87-42.92a1.79,1.79,0,0,1,3.21-.2c6.67,11.93,32.46,49.5,89.86,42.18,0,0,17.8-99-91-99S160,170.49,160,170.49Z"/><path class="cls-1" d="M256,70.53c-5,0-9.76.21-14.27.6,92.33,8.1,77.27,96.74,77,98.38a104.47,104.47,0,0,0,28.26,0S364.77,70.53,256,70.53Z"/><path class="cls-5" d="M324,46.5l-9.37,49a1.73,1.73,0,0,1-2,1.45l-55.38-9.88a7.11,7.11,0,0,0-2.52,0L199.36,97a1.74,1.74,0,0,1-2-1.45L188,46.5a1.77,1.77,0,0,1,2.38-2.07l35.5,16.5a1.66,1.66,0,0,0,2-.48l26.81-32.9a1.68,1.68,0,0,1,2.6,0l26.81,32.9a1.66,1.66,0,0,0,2,.48l35.5-16.5A1.77,1.77,0,0,1,324,46.5Z"/><path class="cls-5" d="M321.6,44.43l-28,13-6.68,35L312.64,97a1.74,1.74,0,0,0,2-1.45l9.37-49A1.77,1.77,0,0,0,321.6,44.43Z"/><circle class="cls-6" cx="256" cy="67.63" r="6.71" transform="translate(148.23 309.49) rotate(-80.78)"/><path class="cls-2" d="M391.12,485.06H120.88V433.59a90.38,90.38,0,0,1,90.39-90.38h89.46a90.38,90.38,0,0,1,90.38,90.38v51.47Z"/><path class="cls-3" d="M300.86,343.21H273.29a90.38,90.38,0,0,1,90.25,90.51v51.34h27.58V433.73A90.39,90.39,0,0,0,300.86,343.21Z"/><path class="cls-6" d="M299.18,353.17H212.82a3.85,3.85,0,0,1-3.85-3.85V329.05a3.85,3.85,0,0,1,3.85-3.85h86.36a3.85,3.85,0,0,1,3.85,3.85v20.27A3.85,3.85,0,0,1,299.18,353.17Z"/><path class="cls-7" d="M299.18,325.2H271.61a3.84,3.84,0,0,1,3.84,3.85v20.26a3.85,3.85,0,0,1-3.84,3.86h27.57a3.85,3.85,0,0,0,3.85-3.86V329.05A3.85,3.85,0,0,0,299.18,325.2Z"/><path class="cls-6" d="M360.36,481c0,1.35-.05,2.7-.15,4H151.79c-.11-1.33-.15-2.68-.15-4a54.55,54.55,0,0,1,90-41.68,22.23,22.23,0,0,0,28.8,0,54.55,54.55,0,0,1,90,41.68Z"/><path class="cls-7" d="M305.78,426.29a54.54,54.54,0,0,0-14.55,2A54.71,54.71,0,0,1,331.3,481c0,1.35-.05,2.7-.15,4h29.06c.1-1.33.15-2.68.15-4A54.66,54.66,0,0,0,305.78,426.29Z"/><path class="cls-5" d="M257.7,462.25a2.68,2.68,0,0,1-3.4,0c-9-7.38-50.19-42.76-29.15-62.42,14.6-13.64,30.44,7.05,30.85,7.57.41-.52,16.25-21.21,30.85-7.57C307.89,419.49,266.74,454.87,257.7,462.25Z"/></svg>