<svg id="Layer_1" data-name="Layer 1" xmlns="http://www.w3.org/2000/svg" viewBox="0 0 512 512"><defs><style>.cls-1{fill:#fff1e2;}.cls-2{fill:#fee7c9;}.cls-3{fill:#fc9085;}.cls-4{fill:#fda79b;}</style></defs><path class="cls-1" d="M328.57,47.29a9.23,9.23,0,0,0-8.52,5.8,65.36,65.36,0,0,1-120.94,0,9.23,9.23,0,0,0-8.52-5.8H54.72V173.68H87.77V455.55a9.15,9.15,0,0,0,9.15,9.16H415.08a9.16,9.16,0,0,0,9.16-9.16V173.69h34V47.29Z"/><path class="cls-2" d="M424.24,173.69V455.55a9.16,9.16,0,0,1-9.16,9.16H379.83a9.17,9.17,0,0,0,9.16-9.16V182.84a9.15,9.15,0,0,1,9.15-9.16h26.1Z"/><path class="cls-3" d="M474.36,173.69H448.94V47.29h25.42a9.16,9.16,0,0,1,9.16,9.16V164.53a9.16,9.16,0,0,1-9.16,9.16Z"/><path class="cls-4" d="M63.06,173.69H37.64a9.16,9.16,0,0,1-9.16-9.16V56.45a9.16,9.16,0,0,1,9.16-9.16H63.06Z"/><path class="cls-3" d="M200.5,138.07A10.52,10.52,0,0,0,185.9,141l-9.15,13.72L167.6,141a10.53,10.53,0,1,0-17.52,11.68l14,21-14,21a10.53,10.53,0,0,0,17.52,11.69l9.15-13.73,9.15,13.73a10.53,10.53,0,0,0,17.51-11.69l-14-21,14-21a10.53,10.53,0,0,0-2.91-14.6Z"/><path class="cls-3" d="M353.16,190H339V146.83a10.53,10.53,0,1,0-21.05,0V200.5A10.52,10.52,0,0,0,328.48,211h24.68a10.53,10.53,0,1,0,0-21.05Z"/><path class="cls-3" d="M282.77,138.07a10.52,10.52,0,0,0-14.6,2.92L259,154.71,249.87,141a10.53,10.53,0,1,0-17.52,11.68l14,21-14,21a10.53,10.53,0,0,0,17.52,11.69L259,192.66l9.15,13.73a10.53,10.53,0,0,0,17.52-11.69l-14-21,14-21a10.52,10.52,0,0,0-2.92-14.6Z"/><path class="cls-2" d="M74,173.69V152.91a6.87,6.87,0,1,1,13.73,0v20.78Z"/><path class="cls-2" d="M424.24,173.69V152.91a6.87,6.87,0,1,1,13.73,0v20.78Z"/></svg>