<svg id="Layer_1" data-name="Layer 1" xmlns="http://www.w3.org/2000/svg" viewBox="0 0 512 512"><defs><style>.cls-1,.cls-5{fill:#1a1a1a;}.cls-1,.cls-10,.cls-11,.cls-12,.cls-13,.cls-14,.cls-16,.cls-17,.cls-18,.cls-19,.cls-2,.cls-4,.cls-6,.cls-9{fill-rule:evenodd;}.cls-15,.cls-2{fill:#ffd8b8;}.cls-3,.cls-9{fill:#e6e6e6;}.cls-4,.cls-7{fill:#323232;}.cls-6{fill:#fff;}.cls-14,.cls-8{fill:#e7b791;}.cls-10{fill:#212e36;}.cls-11{fill:#405059;}.cls-12{fill:#91613a;}.cls-13{fill:#666;}.cls-16{fill:#f9edf2;}.cls-17{fill:#fcf7f9;}.cls-18,.cls-20{fill:#ffe0e9;}.cls-19{fill:#fff4c7;}</style></defs><path class="cls-1" d="M404,296.34c-1.29,16.73-14,40.56-30.76,52.66-16.79-12.1-29.39-36.85-31-52.66s26.6-16.5,26.6-16.5S402.42,288.21,404,296.34Z"/><path class="cls-1" d="M405.31,182.17c22.88-6.78,51-25.65,73.54-54.45l6.52,5.33c-14.65,24.87-51.06,63.29-67.33,73.29C409.68,211.49,408.54,190.4,405.31,182.17Z"/><path class="cls-2" d="M480.14,118.29c1.7-2.58,3.44-2.53,4.73-.77,2-4.11,6.65-5.51,8.65-4.19,3.91,2.57,4.24,9,.76,14.25s-9.48,7.52-13.38,5S476.66,123.59,480.14,118.29Z"/><circle class="cls-3" cx="373.33" cy="205.45" r="1.11"/><circle class="cls-3" cx="373.33" cy="219.51" r="1.11"/><circle class="cls-3" cx="373.33" cy="233.56" r="1.11"/><circle class="cls-3" cx="373.33" cy="247.61" r="1.11"/><path class="cls-1" d="M332,194.3c-8.56,22.28-28.92,51.2-59.42,71.44l4.81,6.92c25.94-12.64,50.06-32.8,61.32-48.23C344.47,216.5,339.92,198.17,332,194.3Z"/><path class="cls-4" d="M378.75,425.11q-3.19-68.44-6.38-136.89h29.49l-6.15,136.89Z"/><path class="cls-4" d="M351.1,425.11q-3.18-68.44-6.37-136.89h29.49l-6.15,136.89Z"/><rect class="cls-5" x="342.24" y="289.94" width="61.74" height="6.4"/><path class="cls-4" d="M404,293,418,206.35l-10.18-24.42c-6.65-.38-11.84.87-17.24,1.58H356c-8,3.51-19.2,6.39-24.09,10.53L342.24,293Z"/><path class="cls-6" d="M407,217.66l-.21.27a2.58,2.58,0,0,1,.31.91,2.13,2.13,0,0,1-1.37,2.45,1.53,1.53,0,0,1-.3,0,2.45,2.45,0,0,1-.23,1,1.51,1.51,0,0,1-2.3.77,1.71,1.71,0,0,1-.25-.22,1.74,1.74,0,0,1-.66.55,1.63,1.63,0,0,1-2.17-1.26,2.41,2.41,0,0,1-.07-.37,1.37,1.37,0,0,1-.79-.11,2.29,2.29,0,0,1-1-2.71,3.42,3.42,0,0,1,.13-.34,2,2,0,0,1-.55-.72,2.41,2.41,0,0,1,.62-2.88,1.28,1.28,0,0,1,.27-.16,2.72,2.72,0,0,1,0-1c.16-1.15,1-1.92,1.95-1.71a1.18,1.18,0,0,1,.3.1,2.15,2.15,0,0,1,.47-.8,1.46,1.46,0,0,1,2.37.26,1.92,1.92,0,0,1,.18.31,1.39,1.39,0,0,1,.77-.23,1.93,1.93,0,0,1,1.69,2.11,2.34,2.34,0,0,1,0,.38,1.59,1.59,0,0,1,.71.44A2.48,2.48,0,0,1,407,217.66Z"/><rect class="cls-7" x="396.24" y="217.21" width="12.16" height="7.01"/><polygon class="cls-6" points="355.97 183.51 373.28 266.85 390.62 183.51 355.97 183.51"/><rect class="cls-3" x="370.22" y="190.39" width="0.98" height="69.14"/><polygon class="cls-1" points="355.97 183.51 339.72 201.74 358.51 217.85 345.09 226.58 373.28 266.85 355.97 183.51"/><polygon class="cls-1" points="390.62 183.51 406.85 201.74 388.05 217.85 401.48 226.58 373.28 266.85 390.62 183.51"/><polygon class="cls-1" points="371.16 292.97 375.86 292.97 375.86 263.17 373.28 265.61 371.16 263.6 371.16 292.97"/><rect class="cls-8" x="362.49" y="157.77" width="22.03" height="31.09"/><polygon class="cls-6" points="355.97 183.51 362.89 176.01 373.51 183.51 359.13 198.7 355.97 183.51"/><polygon class="cls-6" points="390.62 183.51 383.49 175.35 373.51 183.51 387.54 198.7 390.62 183.51"/><polygon class="cls-9" points="359.13 198.7 373.51 191.1 387.54 198.7 373.51 183.51 359.13 198.7"/><path class="cls-10" d="M375.7,189.46c2.51-1.32,9.3-6.23,10.69-5,1.9,1.71,1.9,11.54,0,13.25-1.38,1.25-8.18-3.66-10.69-5A2.78,2.78,0,0,1,375.7,189.46Z"/><path class="cls-10" d="M371,189.46c-2.52-1.32-9.31-6.23-10.69-5-1.9,1.71-1.9,11.54,0,13.25,1.38,1.25,8.17-3.66,10.69-5A2.78,2.78,0,0,0,371,189.46Z"/><path class="cls-11" d="M371.48,188.7h3.71a1.16,1.16,0,0,1,1.16,1.16v2.49a1.16,1.16,0,0,1-1.16,1.16h-3.71a1.16,1.16,0,0,1-1.16-1.16v-2.49A1.16,1.16,0,0,1,371.48,188.7Z"/><path class="cls-1" d="M351.23,433.57c9.27,0,16.84-3.8,16.84-8.46s-7.57-8.45-16.84-8.45-16.84,3.79-16.84,8.45S342,433.57,351.23,433.57Z"/><path class="cls-1" d="M395.58,433.57c9.28,0,16.84-3.8,16.84-8.46s-7.56-8.45-16.84-8.45-16.83,3.79-16.83,8.45S386.31,433.57,395.58,433.57Z"/><path class="cls-2" d="M262.19,267.08c-2.32,2-2,3.76-.09,4.79-3.79,2.56-4.52,7.35-2.93,9.15,3.09,3.5,9.45,2.94,14.21-1.26s6.11-10.45,3-13.95S266.94,262.88,262.19,267.08Z"/><path class="cls-2" d="M373.51,178.35c28.05,0,50.93-17.63,50.93-39.25s-22.88-39.26-50.93-39.26-50.93,17.63-50.93,39.26S345.46,178.35,373.51,178.35Z"/><path class="cls-12" d="M373.51,179.74h-.21V164.87c3.87.39,4.44,7.34,10.33,7.2,6.06-.15,6.86-13.9,6.72-18.37-.12-3.65-8.59-5.38-17.05-5.3v-2.94c10,.06,20.19,3.77,19.57,10.54-.57,6.29,3.79,16.17,11.79,11,6.95-4.46,10.42-18.62,11.4-27.33.15-1.33,10.7-3.56,9.68,1.67C422.76,150,411.64,179.74,373.51,179.74Zm-.21,0c-38-.1-49.25-26.28-52-38.38-1-5.23,9.53-3,9.68-1.67,1,8.71,4.46,22.87,11.4,27.33,8,5.15,12.76-4.46,12.19-10.75-.68-7.46,9-10.88,18.75-10.81v2.94c-8.47.09-16.93,2-17,5.56-.15,4.47.25,18,6.31,18.11s6.2-7.21,10.39-7.21h.34Z"/><path class="cls-13" d="M358,140.25c1.55,0,2.83-2.22,2.83-4.95s-1.28-5-2.83-5-2.83,2.23-2.83,5S356.47,140.25,358,140.25Z"/><path class="cls-13" d="M389,140.25c1.56,0,2.83-2.22,2.83-4.95s-1.27-5-2.83-5-2.83,2.23-2.83,5S387.43,140.25,389,140.25Z"/><path class="cls-12" d="M406.05,111c-21.51-6-74-17.07-74.6,31.76,0,1.89-6.76-12-8.07-10.42C327.76,109.06,356.55,96,381,99.4,390.07,100.64,398.32,103,406.05,111Z"/><path class="cls-14" d="M390.32,153.69c-7.33,1.42-25.26,1.29-33.62,0C365.33,164.05,383.43,164.41,390.32,153.69Z"/><path class="cls-12" d="M422.2,128.83c-30.24-33.6-83.06,7.25-85.89-46.32C368.66,114.88,410.22,82.66,422.2,128.83Z"/><path class="cls-12" d="M422.2,134.92c-.61-2-6.33,12.49-6.54,5-1.42-49.11-77.14-14.85-64.65-68.78,9.15,16,10.93,22.52,29.12,26.23C398.65,101.16,421.39,107,422.2,134.92Z"/><ellipse class="cls-15" cx="323.39" cy="132.12" rx="6.99" ry="10.91" transform="translate(-21.48 76.4) rotate(-13.04)"/><ellipse class="cls-15" cx="425.33" cy="136.71" rx="10.91" ry="6.98" transform="translate(196.15 520.21) rotate(-76.96)"/><path class="cls-16" d="M179.29,94.71c42.51,0,77.32,72.15,80.21,163.5-22,23.93-49.89,38.23-80.21,38.23s-58.2-14.3-80.21-38.23C102,166.86,136.78,94.71,179.29,94.71Z"/><rect class="cls-8" x="168.23" y="179.75" width="22.03" height="31.09"/><path class="cls-2" d="M205.4,205.75c16.85,17.87,27.48,47.35,56.25,66.45l-4.53,6.52c-24.48-11.93-47.24-31-57.86-45.5C193.8,225.74,199.68,199.68,205.4,205.75Z"/><path class="cls-2" d="M163.39,206.47c-21.95-5-58.22-26.8-81.23-52.55l-5.81,5.41c15.3,22.53,56.85,56.61,78.79,66C163.66,229,160.85,214.41,163.39,206.47Z"/><path class="cls-14" d="M174.11,425.59q3-64.57,6-129.15H152.3q2.91,64.57,5.8,129.15Z"/><path class="cls-14" d="M200.19,425.59q3-64.57,6-129.15H178.38q2.9,64.57,5.8,129.15Z"/><path class="cls-6" d="M200.07,433.57c8.75,0,15.89-3.58,15.89-8s-7.14-8-15.89-8-15.89,3.59-15.89,8S191.32,433.57,200.07,433.57Z"/><path class="cls-6" d="M158.22,433.57c8.75,0,15.89-3.58,15.89-8s-7.14-8-15.89-8-15.88,3.59-15.88,8S149.47,433.57,158.22,433.57Z"/><path class="cls-17" d="M197.78,264.08c.87,2.52,1.9,5.67,6.74,12.88,8.8,13.13,13.7,38.87,20.55,56.55s20.36,63.45,32.2,74.69.46,17.32-11.84,15.54c-11.57-1.68-18.92-1.41-25.23,2.26-9,5.24-14.47,4.49-26.29,2.79-11-1.58-18.47-2.2-33.4.58-11.72,2.17-18,.24-23.63-3-8.11-4.66-12.55-3.75-23.9-2.64s-23.67-4.29-11.84-15.53,24.5-57,31.36-74.7S144.23,290.09,153,277c4.68-7,7.24-10.39,8.33-12.89Z"/><path class="cls-18" d="M139.43,427.72c-.87-.42-1.72-.87-2.55-1.34-7.64-4.39-12-3.84-22-2.83,10.64-16.62,31.86-70.52,36.37-94.78C153.88,356.5,144.38,409.79,139.43,427.72Z"/><path class="cls-18" d="M243.65,423.49c-10.55-1.4-17.47-1-23.46,2.51-.44.26-.88.5-1.31.73-5-18.71-14.13-70.73-11.56-98C211.82,353,233,406.82,243.65,423.49Z"/><path class="cls-18" d="M192.61,428.61c-8.9-1.25-15.68-1.76-26.6-.16,7.07-28.44,12.87-85.5,13.28-100.27C179.7,343,185.52,400.22,192.61,428.61Z"/><path class="cls-2" d="M267.27,271.62c2.19,1.92,1.91,3.55.09,4.52,3.57,2.41,4.26,6.93,2.76,8.63-2.91,3.31-8.92,2.77-13.41-1.19s-5.76-9.85-2.84-13.15S262.78,267.65,267.27,271.62Z"/><path class="cls-19" d="M179.29,155.06c20.35,0,37-9.26,37-20.61s-16.6-20.6-37-20.6-36.95,9.25-36.95,20.6S158.94,155.06,179.29,155.06Z"/><path class="cls-12" d="M179.05,147.21c17.31,0,31.42-10.61,31.42-23.61S196.36,100,179.05,100s-31.42,10.61-31.42,23.61S161.75,147.21,179.05,147.21Z"/><path class="cls-6" d="M158.05,119.89a1.8,1.8,0,0,1-.2.19,1.63,1.63,0,0,1,.3.67,1.56,1.56,0,0,1-1.27,1.8,1.27,1.27,0,0,1-.28,0,1.61,1.61,0,0,1-.2.7,1.56,1.56,0,0,1-2.12.57,1.46,1.46,0,0,1-.24-.17,1.5,1.5,0,0,1-.6.41,1.56,1.56,0,0,1-2-.93,2.68,2.68,0,0,1-.07-.27,1.51,1.51,0,0,1-.72-.09,1.54,1.54,0,0,1-.93-2,1.15,1.15,0,0,1,.12-.25,1.62,1.62,0,0,1-.51-.53,1.55,1.55,0,0,1,.57-2.12,1.51,1.51,0,0,1,.26-.12,1.63,1.63,0,0,1,0-.73,1.56,1.56,0,0,1,1.8-1.26l.27.07a1.66,1.66,0,0,1,.44-.59,1.56,1.56,0,0,1,2.19.2,1.88,1.88,0,0,1,.16.23,1.52,1.52,0,0,1,.71-.17,1.54,1.54,0,0,1,1.55,1.55,1.33,1.33,0,0,1,0,.28,1.55,1.55,0,0,1,.85,2.52Z"/><path class="cls-6" d="M167.42,114.77a1.89,1.89,0,0,1-.2.2,1.51,1.51,0,0,1,.29.67,1.54,1.54,0,0,1-1.26,1.79,1.33,1.33,0,0,1-.28,0,1.5,1.5,0,0,1-.21.7,1.55,1.55,0,0,1-2.12.57l-.23-.16a1.56,1.56,0,0,1-2.6-.53,2.68,2.68,0,0,1-.07-.27,1.55,1.55,0,0,1-1.65-2.07,1.23,1.23,0,0,1,.12-.26,1.62,1.62,0,0,1-.51-.53,1.55,1.55,0,0,1,.57-2.12,1.23,1.23,0,0,1,.26-.12,1.63,1.63,0,0,1-.05-.73,1.56,1.56,0,0,1,1.8-1.26l.27.07a1.63,1.63,0,0,1,.44-.58,1.55,1.55,0,0,1,2.19.19,1.88,1.88,0,0,1,.16.23,1.52,1.52,0,0,1,.71-.17A1.54,1.54,0,0,1,166.6,112a1.27,1.27,0,0,1,0,.28,1.55,1.55,0,0,1,.85,2.52Z"/><path class="cls-6" d="M177.81,112.63l-.2.2a1.69,1.69,0,0,1,.29.67,1.54,1.54,0,0,1-1.26,1.79l-.28,0a1.5,1.5,0,0,1-.21.7,1.55,1.55,0,0,1-2.12.57,1.88,1.88,0,0,1-.23-.16,1.62,1.62,0,0,1-.61.4,1.55,1.55,0,0,1-2-.93,1.34,1.34,0,0,1-.07-.27,1.53,1.53,0,0,1-.73-.08,1.55,1.55,0,0,1-.92-2,2,2,0,0,1,.11-.26,1.59,1.59,0,0,1-.5-.53,1.55,1.55,0,0,1,.57-2.12,1.23,1.23,0,0,1,.26-.12,1.63,1.63,0,0,1,0-.73,1.56,1.56,0,0,1,1.8-1.26l.27.07a1.57,1.57,0,0,1,2.63-.39,1.88,1.88,0,0,1,.16.23,1.52,1.52,0,0,1,.71-.17,1.54,1.54,0,0,1,1.55,1.55,1.27,1.27,0,0,1,0,.28,1.55,1.55,0,0,1,.85,2.52Z"/><path class="cls-6" d="M199.58,119.89a1.21,1.21,0,0,0,.2.19,1.63,1.63,0,0,0-.3.67,1.55,1.55,0,0,0,1.26,1.8l.28,0a1.62,1.62,0,0,0,.21.7,1.56,1.56,0,0,0,2.12.57,1.37,1.37,0,0,0,.23-.17,1.6,1.6,0,0,0,.61.41,1.55,1.55,0,0,0,2-.93.9.9,0,0,0,.07-.27,1.57,1.57,0,0,0,1.66-2.08,1.92,1.92,0,0,0-.12-.25,1.59,1.59,0,0,0,.5-.53,1.55,1.55,0,0,0-.56-2.12,1.51,1.51,0,0,0-.26-.12,1.5,1.5,0,0,0,0-.73,1.55,1.55,0,0,0-1.8-1.26l-.27.07a1.63,1.63,0,0,0-.43-.59,1.55,1.55,0,0,0-2.19.2,1.19,1.19,0,0,0-.16.23,1.58,1.58,0,0,0-.71-.17,1.54,1.54,0,0,0-1.55,1.55,1.32,1.32,0,0,0,0,.28,1.53,1.53,0,0,0-.65.32A1.57,1.57,0,0,0,199.58,119.89Z"/><path class="cls-6" d="M190.21,114.77l.2.2a1.51,1.51,0,0,0-.29.67,1.54,1.54,0,0,0,1.26,1.79l.28,0a1.5,1.5,0,0,0,.21.7,1.55,1.55,0,0,0,2.12.57,1.88,1.88,0,0,0,.23-.16,1.62,1.62,0,0,0,.61.4,1.56,1.56,0,0,0,2-.93,2.68,2.68,0,0,0,.07-.27,1.53,1.53,0,0,0,.73-.08,1.55,1.55,0,0,0,.92-2,2,2,0,0,0-.11-.26,1.59,1.59,0,0,0,.5-.53,1.55,1.55,0,0,0-.57-2.12,1.42,1.42,0,0,0-.25-.12,1.63,1.63,0,0,0,0-.73,1.56,1.56,0,0,0-1.8-1.26l-.27.07a1.63,1.63,0,0,0-.44-.58,1.53,1.53,0,0,0-2.18.19,1.24,1.24,0,0,0-.17.23,1.52,1.52,0,0,0-.71-.17A1.55,1.55,0,0,0,191,112a1.27,1.27,0,0,0,0,.28,1.55,1.55,0,0,0-.85,2.52Z"/><path class="cls-6" d="M179.82,112.63a1.89,1.89,0,0,0,.2.2,1.55,1.55,0,0,0,1,2.46l.28,0a1.5,1.5,0,0,0,.21.7,1.55,1.55,0,0,0,2.12.57,1.88,1.88,0,0,0,.23-.16,1.62,1.62,0,0,0,.61.4,1.55,1.55,0,0,0,2-.93,1.34,1.34,0,0,0,.07-.27,1.53,1.53,0,0,0,.73-.08,1.56,1.56,0,0,0,.93-2l-.12-.26a1.59,1.59,0,0,0,.5-.53,1.55,1.55,0,0,0-.57-2.12,1.42,1.42,0,0,0-.25-.12,1.49,1.49,0,0,0,0-.73,1.55,1.55,0,0,0-1.8-1.26l-.27.08a1.55,1.55,0,0,0-2.62-.4,1.19,1.19,0,0,0-.16.23,1.56,1.56,0,0,0-2.27,1.38,1.27,1.27,0,0,0,0,.28,1.44,1.44,0,0,0-.65.33A1.55,1.55,0,0,0,179.82,112.63Z"/><path class="cls-2" d="M179.05,194c26.46,0,48-16.64,48-37s-21.59-37-48-37S131,136.52,131,156.92,152.59,194,179.05,194Z"/><path class="cls-12" d="M132.09,162.35c2.71-3.25,4,11,6.47-5.55s15.9-36.38,39.22-32c28.6-5.17,41,19.4,41.91,32.64.58,8.42,5.12,1.09,6.46,3.28,4.83-26.9-18.87-46.62-48.51-46C153.5,115.14,129.08,127.24,132.09,162.35Z"/><path class="cls-13" d="M193.66,160.53c1.47,0,2.67-2.1,2.67-4.67s-1.2-4.67-2.67-4.67-2.67,2.1-2.67,4.67S192.19,160.53,193.66,160.53Z"/><path class="cls-13" d="M164.44,160.53c1.47,0,2.67-2.1,2.67-4.67s-1.2-4.67-2.67-4.67-2.67,2.1-2.67,4.67S163,160.53,164.44,160.53Z"/><path class="cls-12" d="M208,204.5c9.47-47.83-14.89-78.13-28.95-79.85C198.71,118.74,225.42,151.05,208,204.5Z"/><path class="cls-12" d="M150.1,204.5c-9.47-47.83,14.88-78.13,29-79.85C159.39,118.74,132.68,151.05,150.1,204.5Z"/><path class="cls-14" d="M195.86,170.9c-6.86,5.4-24.81,5.19-33.62,0C170.87,181.26,189,181.62,195.86,170.9Z"/><path class="cls-2" d="M165.36,267.71c-2.87-14.26-7.55-28.13-10.41-42.39-1.34-6.71-.88-13.81-2.23-20.52l15.33-6.7h22c5.11,2.62,12,4.39,15.32,7.85-1.27,6.38-.86,13-2.14,19.37-2.86,14.2-7.44,28.18-10.32,42.39Z"/><path class="cls-17" d="M161.49,267.71l-6.18-40.85a7.13,7.13,0,0,1-.17-1.54c0-5.31,5.84-9.61,13-9.61,4.7,0,8.82,1.83,11.11,4.58,2.29-2.75,6.41-4.58,11.11-4.58,7.21,0,13,4.3,13,9.61a7.38,7.38,0,0,1-.15,1.49l-6,40.9Z"/><ellipse class="cls-15" cx="131" cy="156.92" rx="6.98" ry="10.91" transform="translate(-32.05 33.63) rotate(-13.05)"/><ellipse class="cls-15" cx="227.09" cy="157.43" rx="10.91" ry="6.98" transform="translate(22.47 343.13) rotate(-76.96)"/><path class="cls-20" d="M57,155.25c-3.13-2.26-5.48-3.33-7.06-3.07h0c-1.17.19-2.19,1.57-3.09,4.24-2.14,6.36-6.1,7.72-10.47,6.83-3.32-.67-6.51-2.88-9-4.72a1,1,0,0,0-1.43.09c-1.36,1.23-2.68,3.68-3.92,6.72l-6.71-2.75c1.64-4,3.53-7.35,5.76-9.36,3.15-2.85,6.66-3.43,10.59-.55,1.94,1.42,4.33,3.1,6.18,3.48.78.16,1.55-.29,2.14-2.06,1.84-5.45,4.75-8.4,8.8-9.07h0c3.64-.6,7.78.92,12.5,4.35Z"/><path class="cls-20" d="M59.74,165.71c-3.82-.52-6.39-.34-7.67.65-.94.72-1.18,2.41-.71,5.18,1.13,6.63-1.71,9.7-6,11-3.23,1-7.09.54-10.18.11a1,1,0,0,0-1.22.76c-.61,1.7-.6,4.48-.26,7.77l-7.23.76c-.44-4.26-.37-8.11.65-11,1.43-4,4.24-6.17,9.07-5.5,2.37.33,5.28.68,7.09.13.76-.22,1.22-1,.91-2.8-1-5.68.2-9.67,3.44-12.18,2.91-2.25,7.28-2.87,13.08-2.09Z"/><path class="cls-18" d="M83.52,179.55a8.47,8.47,0,0,1-1.4-.83,9,9,0,0,1-15.25-1.82,9.65,9.65,0,0,1-.55-1.53,9,9,0,0,1-10.5-11.2,9.06,9.06,0,0,1,.57-1.53,9,9,0,0,1-.86-15.32,8.46,8.46,0,0,1,1.43-.81,8.87,8.87,0,0,1-.61-4.18,9,9,0,0,1,9.8-8.11,8.48,8.48,0,0,1,1.61.3,8.88,8.88,0,0,1,2.23-3.6,9,9,0,0,1,12.72.09,9.31,9.31,0,0,1,1,1.26,9,9,0,0,1,13.71,6.93,8.85,8.85,0,0,1,0,1.63,9,9,0,0,1,6,14.11,9.11,9.11,0,0,1-1.06,1.24,9,9,0,0,1-6,15,9,9,0,0,1-12.85,8.4Z"/></svg>