<svg id="Layer_1" data-name="Layer 1" xmlns="http://www.w3.org/2000/svg" viewBox="0 0 512 512"><defs><style>.cls-1{fill:#4f4f4f;}.cls-2{fill:#696969;}.cls-3{fill:#21ad71;}.cls-4{fill:#5cc563;}.cls-5{fill:#ff5a35;}.cls-6{fill:#ff7a3c;}.cls-7{fill:#3992e3;}.cls-8{fill:#2fb3ea;}.cls-9{fill:#ff9f45;}.cls-10{fill:#ffbe4f;}.cls-11{fill:#fff5e5;}.cls-12{fill:#fff;}.cls-13{fill:#ff64ad;}.cls-14{fill:#ff85b2;}.cls-15{fill:#c76c46;}.cls-16{fill:#b25237;}.cls-17{fill:#ffd78c;}</style></defs><path class="cls-1" d="M448.38,66.11H422V366.64h26.41a26.41,26.41,0,0,0,26.42-26.41V92.53A26.42,26.42,0,0,0,448.38,66.11Z"/><path class="cls-2" d="M448.38,340.23V92.53A26.41,26.41,0,0,0,422,66.11H63.62A26.42,26.42,0,0,0,37.2,92.53v247.7a26.41,26.41,0,0,0,26.42,26.41H422A26.4,26.4,0,0,0,448.38,340.23Z"/><path class="cls-3" d="M256,229.59V340.23a55.32,55.32,0,0,0,0-110.64Z"/><path class="cls-4" d="M284.91,284.91c0-30.56-12.94-55.32-28.91-55.32a55.32,55.32,0,0,0,0,110.64C272,340.23,284.91,315.46,284.91,284.91Z"/><path class="cls-5" d="M118.94,229.59V340.23a55.32,55.32,0,0,0,0-110.64Z"/><path class="cls-6" d="M147.85,284.91c0-30.56-12.94-55.32-28.91-55.32a55.32,55.32,0,0,0,0,110.64C134.91,340.23,147.85,315.46,147.85,284.91Z"/><path class="cls-7" d="M393.06,229.58V340.23a55.33,55.33,0,0,0,0-110.65Z"/><path class="cls-8" d="M422,284.91c0-30.56-13-55.32-28.91-55.32a55.32,55.32,0,1,0,0,110.64C409,340.23,422,315.46,422,284.91Z"/><path class="cls-9" d="M256,92.53V203.17a55.32,55.32,0,0,0,0-110.64Z"/><path class="cls-10" d="M284.91,147.85c0-30.56-12.94-55.32-28.91-55.32a55.32,55.32,0,0,0,0,110.64C272,203.17,284.91,178.4,284.91,147.85Z"/><path class="cls-11" d="M118.94,92.53V203.17a55.32,55.32,0,0,0,0-110.64Z"/><path class="cls-12" d="M147.85,147.85c0-30.56-12.94-55.32-28.91-55.32a55.32,55.32,0,0,0,0,110.64C134.91,203.17,147.85,178.4,147.85,147.85Z"/><path class="cls-13" d="M393.06,92.53V203.17a55.32,55.32,0,1,0,0-110.64Z"/><path class="cls-14" d="M422,147.85c0-30.56-13-55.32-28.91-55.32a55.32,55.32,0,1,0,0,110.64C409,203.17,422,178.4,422,147.85Z"/><path class="cls-15" d="M103.24,393.06l26.41,26.41-26.41,26.42H63.62a26.42,26.42,0,1,1,0-52.83Z"/><path class="cls-10" d="M129.65,393.06l26.42,26.41-26.42,26.42H103.24V393.06Z"/><path class="cls-16" d="M448.38,393.06H422v52.83h26.41a26.42,26.42,0,1,0,0-52.83Z"/><path class="cls-15" d="M448.38,419.47A26.41,26.41,0,0,0,422,393.06H408.76L382.35,422l26.41,23.92H422A26.41,26.41,0,0,0,448.38,419.47Z"/><path class="cls-10" d="M408.76,393.06v52.83H382.35l-26.42-26.42,26.42-26.41Z"/><path class="cls-1" d="M329.52,406.27H276.69l-26.41,13.2,26.41,13.21h52.83Z"/><path class="cls-2" d="M182.48,406.27h94.21v26.41H182.48Z"/><path class="cls-17" d="M208.9,406.27v26.41l-79.25,13.21V393.06Z"/><path class="cls-17" d="M382.35,393.06v52.83L303.1,432.68V406.27Z"/></svg>