<svg id="Layer_1" data-name="Layer 1" xmlns="http://www.w3.org/2000/svg" viewBox="0 0 512 512"><defs><style>.cls-1{fill:#374f68;}.cls-2{fill:#425b72;}.cls-3{fill:#ca3561;}.cls-4{fill:#d83968;}.cls-5{fill:#f6ccaf;}.cls-6{fill:#ffdec7;}.cls-7{fill:#9fdbf3;}.cls-8{fill:#b2e5fb;}</style></defs><g id="Makeup"><path class="cls-1" d="M69.3,284.18h134v38.28H69.3Z"/><path class="cls-2" d="M203.29,284.18v19.14H107.58a19.14,19.14,0,0,1-19.14-19.14Z"/><path class="cls-1" d="M203.29,322.46c0,135.24.48,126.82-1.24,132.75a28.72,28.72,0,0,1-27.47,20.39H98A28.71,28.71,0,0,1,69.3,446.89V322.46Z"/><path class="cls-2" d="M203.29,322.46c0,135.24.48,126.82-1.24,132.75a31.34,31.34,0,0,1-8.33,1.25A105.29,105.29,0,0,1,88.44,351.18V322.46Z"/><path class="cls-1" d="M88.44,188.47h95.71v95.71H88.44Z"/><path class="cls-2" d="M184.15,188.47c0,81.83-1,76.57,0,76.57a76.57,76.57,0,0,1-76.57-76.57Z"/><path class="cls-3" d="M174.58,55.53V188.47H98V91.71C122.13,80.41,105.76,88.17,174.58,55.53Z"/><path class="cls-4" d="M174.58,55.53v113.8H136.3a19.14,19.14,0,0,1-19.15-19.14v-67Z"/><path class="cls-3" d="M173.14,65.29c-9,33.4-52.73,58.1-69.67,41.16-13-13-1.15-38.29,13.11-52.55C146.73,24,182.43,32.18,173.14,65.29Z"/><path class="cls-3" d="M173.14,65.29C145.87,103.86,98,100.61,109,62.8,136.3,24.71,184.15,27.2,173.14,65.29Z"/><path class="cls-3" d="M442.61,266.06a133.29,133.29,0,0,1-40.29,95.71H214.92a134,134,0,1,1,227.69-95.71Z"/><path class="cls-4" d="M442.61,266.06a133.29,133.29,0,0,1-40.29,95.71h-134a134,134,0,0,1-19.14-216A134,134,0,0,1,442.61,266.06Z"/><path class="cls-5" d="M423.47,380.91v19.14H193.77V380.91a19.14,19.14,0,0,1,19.14-19.14H404.33A19.14,19.14,0,0,1,423.47,380.91Z"/><path class="cls-6" d="M423.47,380.91H232.05a19.14,19.14,0,0,1-19.14-19.14c0-1-8.52,0,191.42,0A19.14,19.14,0,0,1,423.47,380.91Z"/><path class="cls-7" d="M404.33,266.06a95.7,95.7,0,1,1-7.78-37.74A95.71,95.71,0,0,1,404.33,266.06Z"/><path class="cls-8" d="M404.33,266.06a95.74,95.74,0,0,1-28.71,68.72,94.1,94.1,0,0,1-38.29,7.85A95.7,95.7,0,0,1,270.82,178.2a95.7,95.7,0,0,1,133.51,87.86Z"/><path class="cls-3" d="M442.61,400.05c0,50.06.67,51.3-1.72,57.43a28.7,28.7,0,0,1-27,19.14H203.34a28.71,28.71,0,0,1-28.71-28.71V400.05Z"/><path class="cls-4" d="M442.61,400.05c0,50.06.67,51.3-1.72,57.43H232.05a28.72,28.72,0,0,1-28.71-28.71V400.05Z"/><path class="cls-3" d="M356.48,400.05l-5.94,23.84A19.15,19.15,0,0,1,332,438.34h-46.7a19.15,19.15,0,0,1-18.57-14.45l-5.93-23.84Z"/><path class="cls-3" d="M356.48,400.05c-5.08,20.2-4.41,19.15-5.36,19.15H304.41a19.15,19.15,0,0,1-18.57-14.46l-1.15-4.69Z"/></g></svg>